<?xml version="1.0" encoding="UTF-8"?>
<svg version="1.1" xmlns="http://www.w3.org/2000/svg" width="218" height="410">
<path d="M0 0 C4.84974831 2.87088695 7.74237782 7.16463345 9.5 12.4375 C9.91739467 17.18415096 9.54822705 21.56929627 8.41015625 26.1875 C7.36293641 31.29287306 7.65673535 35.31702334 8.75 40.375 C8.92619873 41.2405249 9.10239746 42.1060498 9.28393555 42.99780273 C13.97231676 64.75166945 20.43541064 86.70325747 28.5 107.4375 C28.77666504 108.15542725 29.05333008 108.87335449 29.33837891 109.61303711 C30.32690723 111.58893518 30.32690723 111.58893518 32.29052734 112.03369141 C33.0067627 112.07671387 33.72299805 112.11973633 34.4609375 112.1640625 C35.26756836 112.21981445 36.07419922 112.27556641 36.90527344 112.33300781 C37.7615332 112.36749023 38.61779297 112.40197266 39.5 112.4375 C40.34336914 112.47456055 41.18673828 112.51162109 42.05566406 112.54980469 C43.82127038 112.61656854 45.58717664 112.67575799 47.35327148 112.72802734 C59.99967854 113.1134459 71.84528827 114.16267472 83.5 119.4375 C83.02235562 123.73629941 80.49885799 125.5088632 77.5 128.4375 C75.41349271 130.62370389 73.36281544 132.84238093 71.3125 135.0625 C70.77947266 135.63484375 70.24644531 136.2071875 69.69726562 136.796875 C65.2736162 141.12146187 65.2736162 141.12146187 63.34985352 146.7019043 C64.16692735 157.53941691 66.50780083 168.06275587 68.70523071 178.68856812 C82.6010018 246.27141377 94.6388227 316.31096216 93.5 385.4375 C90.24110623 384.083635 88.86975992 382.93474678 87.2644043 379.80273438 C86.87209625 379.05040024 86.47978821 378.2980661 86.07559204 377.52293396 C85.66263885 376.70067825 85.24968567 375.87842255 84.82421875 375.03125 C84.38226166 374.1722963 83.94030457 373.31334259 83.48495483 372.42835999 C82.03867714 369.6048623 80.6119201 366.77208087 79.1875 363.9375 C78.69579315 362.9672287 78.2040863 361.9969574 77.69747925 360.99728394 C68.97510247 343.77629918 60.89638344 326.35376336 53.40045166 308.56842041 C52.46951612 306.36535983 51.53134063 304.16550211 50.59130859 301.96630859 C36.5489429 269.09110498 24.73902627 235.56509704 13.12261963 201.76829529 C11.97355478 198.42660109 10.8218792 195.0858152 9.66992188 191.74511719 C8.25852106 187.65067754 6.85970017 183.55228483 5.47070312 179.45019531 C4.85041957 177.63601329 4.22998616 175.82188249 3.609375 174.0078125 C3.33619446 173.19069794 3.06301392 172.37358337 2.78155518 171.53170776 C0.95924451 166.00856743 0.95924451 166.00856743 -2.5 161.4375 C-10.3445048 158.27693327 -19.27953491 157.68678682 -27.625 156.8125 C-29.83629284 156.5735787 -32.04725344 156.33155517 -34.2578125 156.0859375 C-35.69858154 155.93390869 -35.69858154 155.93390869 -37.16845703 155.77880859 C-39.5 155.4375 -39.5 155.4375 -41.5 154.4375 C-40.08531148 149.70174391 -37.33948943 146.96142673 -33.75 143.75 C-32.88652954 142.96943237 -32.88652954 142.96943237 -32.00561523 142.1730957 C-21.75507428 133.07797455 -10.94602746 126.14981048 1.5 120.4375 C0.97357955 111.22514208 -1.36496709 102.69977063 -3.875 93.875 C-4.20529709 92.70821213 -4.20529709 92.70821213 -4.54226685 91.51785278 C-5.93129189 86.62708708 -7.34900374 81.74523309 -8.78533936 76.86816406 C-9.48597113 74.48521421 -10.17888307 72.10010948 -10.87158203 69.71484375 C-11.96818924 65.96173433 -13.10761001 62.22399024 -14.27935791 58.49368286 C-14.71082427 57.10471172 -15.13113372 55.71221467 -15.53900146 54.31613159 C-18.26933459 45.03364925 -21.90807097 39.07763913 -29.09399414 32.70922852 C-32.1570267 29.81714145 -33.30944923 27.84155831 -33.87109375 23.703125 C-34.07105254 14.62264358 -31.87396951 10.33054174 -26.0625 3.625 C-18.7891863 -2.58392633 -8.92215161 -3.93524558 0 0 Z " fill="#E8A158" transform="translate(74.5,13.5625)"/>
<path d="M0 0 C18.83487788 -1.2793502 36.75446321 3.94134194 54 11 C55.68416016 11.66322266 55.68416016 11.66322266 57.40234375 12.33984375 C59.60920924 13.20959018 61.80830843 14.09289886 64 15 C64 15.66 64 16.32 64 17 C64.99 17.12375 64.99 17.12375 66 17.25 C68.54822806 17.88705702 70.78004068 18.5988698 73.1875 19.625 C73.86167969 19.90601563 74.53585938 20.18703125 75.23046875 20.4765625 C77.90730527 22.78112375 78.23979695 25.69149372 79 29 C79.38773954 30.40163614 79.78253302 31.80133603 80.18359375 33.19921875 C80.60184829 34.69523263 81.01981313 36.19132753 81.4375 37.6875 C81.64181641 38.41388672 81.84613281 39.14027344 82.05664062 39.88867188 C83.22498384 44.07796483 84.32587365 48.27727535 85.3671875 52.5 C87.14764499 59.6804014 89.09778381 66.81228974 91.043396 73.94924927 C93.85039596 84.24827658 96.65015025 94.54804021 99.29296875 104.890625 C99.47149887 105.58870773 99.65002899 106.28679047 99.83396912 107.00602722 C100.66682148 110.26898799 101.492963 113.53339843 102.3112793 116.80004883 C103.98647296 123.40581251 105.86240191 129.86717657 108.10595703 136.3034668 C109.35304483 140.06482254 110.29111032 143.87905558 111.21484375 147.73046875 C111.79234095 150.13527052 112.38766237 152.53095202 113.00390625 154.92578125 C114.77472761 161.83051022 116.41308569 168.70190274 117.546875 175.74609375 C117.962265 178.21539301 117.962265 178.21539301 119.375 181.1875 C120.3356609 185.51047406 118.23914535 188.35444931 116 192 C115.01 191.67 114.02 191.34 113 191 C115.12405077 196.4556837 117.27176143 201.81634671 120 207 C121.98 206.34 123.96 205.68 126 205 C126.45572917 206.62760417 126.91145833 208.25520833 127.3671875 209.8828125 C128.18233513 212.61003482 129.09077522 215.30288785 130 218 C130.23205973 204.12104323 130.02607762 190.4161767 128.71142578 176.59008789 C128.09790399 170.03655966 127.88416289 163.58180016 128 157 C128.33 157 128.66 157 129 157 C131.49439933 181.75861464 133.18674038 206.08883296 133 231 C129.74110623 229.646135 128.36975992 228.49724678 126.7644043 225.36523438 C126.37209625 224.61290024 125.97978821 223.8605661 125.57559204 223.08543396 C125.16263885 222.26317825 124.74968567 221.44092255 124.32421875 220.59375 C123.88226166 219.7347963 123.44030457 218.87584259 122.98495483 217.99085999 C121.53867714 215.1673623 120.1119201 212.33458087 118.6875 209.5 C118.19579315 208.5297287 117.7040863 207.5594574 117.19747925 206.55978394 C108.47510247 189.33879918 100.39638344 171.91626336 92.90045166 154.13092041 C91.96951612 151.92785983 91.03134063 149.72800211 90.09130859 147.52880859 C76.0489429 114.65360498 64.23902627 81.12759704 52.62261963 47.33079529 C51.47355478 43.98910109 50.3218792 40.6483152 49.16992188 37.30761719 C47.75852106 33.21317754 46.35970017 29.11478483 44.97070312 25.01269531 C44.35041957 23.19851329 43.72998616 21.38438249 43.109375 19.5703125 C42.83619446 18.75319794 42.56301392 17.93608337 42.28155518 17.09420776 C40.45915873 11.57117168 40.45915873 11.57117168 37 7 C29.12368309 3.82798667 20.12790725 3.21755137 11.75 2.3125 C10.61175781 2.18294922 9.47351563 2.05339844 8.30078125 1.91992188 C5.53457474 1.60610853 2.76777823 1.29957507 0 1 C0 0.67 0 0.34 0 0 Z " fill="#658F8E" transform="translate(35,168)"/>
<path d="M0 0 C2.8359375 0.42578125 2.8359375 0.42578125 6 2 C7.46044239 4.92009192 7.99852409 7.99893952 8.625 11.1875 C9.02889629 13.00544229 9.43385492 14.82314887 9.83984375 16.640625 C10.03304199 17.54490234 10.22624023 18.44917969 10.42529297 19.38085938 C11.24047678 23.09593667 12.19781274 26.76573218 13.1875 30.4375 C13.49042969 31.59121094 13.79335937 32.74492187 14.10546875 33.93359375 C14.91630614 36.71310184 15.86995655 39.33668173 17 42 C21.58029912 30.41374039 25.93069908 18.77563269 30 7 C31.76462683 10.08809695 32 11.23312136 32 15 C32.66 15 33.32 15 34 15 C38.35240945 38.52653759 42.44750133 62.06918497 45.875 85.75 C46.01970734 86.74572021 46.16441467 87.74144043 46.31350708 88.76733398 C48.81584202 106.05313678 51.046832 123.24450603 52.0625 140.6875 C52.21957951 143.27476832 52.37712875 145.86200816 52.53515625 148.44921875 C52.61016357 149.7115332 52.6851709 150.97384766 52.76245117 152.27441406 C52.98990605 155.84169206 53.26953248 159.40179274 53.5546875 162.96484375 C54.11016419 170.60926111 54.1113604 178.21519303 54.0625 185.875 C54.05746511 187.25650876 54.05290579 188.63801933 54.04882812 190.01953125 C54.03719571 193.34640246 54.0208528 196.67317602 54 200 C53.67 200 53.34 200 53 200 C51.02 191.585 51.02 191.585 49 183 C45.0285831 183.62841973 45.0285831 183.62841973 43 186 C41.82333996 183.75474054 40.6585926 181.50455858 39.5 179.25 C39.16613281 178.61578125 38.83226562 177.9815625 38.48828125 177.328125 C36.72824467 173.87989007 36 171.95159931 36 168 C36.99 168 37.98 168 39 168 C39.56288943 166.78040623 40.09946495 165.54864982 40.625 164.3125 C40.92664063 163.62800781 41.22828125 162.94351563 41.5390625 162.23828125 C42.15505074 159.24708412 41.23938105 157.75040727 40 155 C39.66329886 153.40467794 39.37368683 151.79888915 39.125 150.1875 C37.83638707 142.68737006 35.91388423 135.35879707 34 128 C33.83209961 127.34918457 33.66419922 126.69836914 33.49121094 126.02783203 C31.81998277 119.56367845 30.06038171 113.16555564 28.0703125 106.79296875 C26.14481055 100.57153506 24.47006919 94.3129556 22.875 88 C19.96189883 76.62166429 16.94346415 65.27475559 13.875 53.9375 C13.56631989 52.79535034 13.56631989 52.79535034 13.25140381 51.63012695 C10.76816645 42.44500016 8.25552967 33.26874398 5.68356323 24.10801697 C4.19834138 18.79556352 2.84492381 13.45900846 1.578125 8.08984375 C1.19269737 6.02837056 1.19269737 6.02837056 0 5 C-0.04063832 3.33382885 -0.042721 1.66611905 0 0 Z " fill="#BEDEBD" transform="translate(112,191)"/>
<path d="M0 0 C2 3.75 2 3.75 2 6 C5.83225427 6.08912219 9.26562152 5.87867729 13 5 C13.125 11.75 13.125 11.75 12 14 C11.15168479 23.01637878 11.52124046 30.54481792 17 38 C19.83245679 40.83245679 21.46825907 41.97606655 25.5 42.0390625 C29.19535149 41.72753578 32.47742621 41.17419126 36 40 C36 40.66 36 41.32 36 42 C35.01 42.495 35.01 42.495 34 43 C34.33 43.66 34.66 44.32 35 45 C36.65 44.67 38.3 44.34 40 44 C40.66 44.99 41.32 45.98 42 47 C40.515 47.495 40.515 47.495 39 48 C39.66 48.99 40.32 49.98 41 51 C41.33 51 41.66 51 42 51 C42 53.31 42 55.62 42 58 C40.68 58.33 39.36 58.66 38 59 C38 58.34 38 57.68 38 57 C37.62875 57.495 37.2575 57.99 36.875 58.5 C35 60 35 60 32.25 60.375 C28.30033329 59.91926923 25.57459117 58.71580376 22 57 C22 56.34 22 55.68 22 55 C21.45472656 54.90203125 20.90945312 54.8040625 20.34765625 54.703125 C16.29977434 53.90046807 12.61600708 52.94755476 8.875 51.1875 C-7.97988657 43.38592901 -25.59575837 40.78720208 -44 40 C-42.58531148 35.26424391 -39.83948943 32.52392673 -36.25 29.3125 C-35.67435303 28.79212158 -35.09870605 28.27174316 -34.50561523 27.7355957 C-25.0467887 19.34294856 -15.33309854 12.68543557 -3.66796875 7.765625 C-0.68032189 6.20818464 -0.68032189 6.20818464 -0.11328125 2.796875 C-0.07589844 1.87390625 -0.03851563 0.9509375 0 0 Z " fill="#DF9349" transform="translate(77,128)"/>
<path d="M0 0 C4.84974831 2.87088695 7.74237782 7.16463345 9.5 12.4375 C9.91626491 17.17130331 9.55439974 21.52247489 8.390625 26.12109375 C7.25863804 31.59784605 7.86302439 36.02879637 9.0625 41.4375 C9.24578857 42.33525146 9.42907715 43.23300293 9.61791992 44.15795898 C11.08426781 51.11286475 12.9037048 57.96431869 15.01196289 64.75195312 C16.92180083 71.07925876 16.92180083 71.07925876 15.5 74.4375 C14.84 72.7875 14.18 71.1375 13.5 69.4375 C12.51 69.4375 11.52 69.4375 10.5 69.4375 C9.13673887 64.32527076 8.40201557 59.92098621 8.5625 54.625 C8.70271979 48.21613074 7.32057801 42.54944047 5.5 36.4375 C4.96890625 36.84742188 4.4378125 37.25734375 3.890625 37.6796875 C3.18421875 38.21851563 2.4778125 38.75734375 1.75 39.3125 C1.05390625 39.84617188 0.3578125 40.37984375 -0.359375 40.9296875 C-2.34722603 42.32988914 -4.29843386 43.41605265 -6.5 44.4375 C-6.40460938 45.62988281 -6.30921875 46.82226562 -6.2109375 48.05078125 C-6.09838432 49.61714636 -5.98643666 51.18355506 -5.875 52.75 C-5.81054688 53.53568359 -5.74609375 54.32136719 -5.6796875 55.13085938 C-5.60234375 56.2668457 -5.60234375 56.2668457 -5.5234375 57.42578125 C-5.44488525 58.47052612 -5.44488525 58.47052612 -5.36474609 59.53637695 C-5.5 61.4375 -5.5 61.4375 -7.5 64.4375 C-8.16 64.4375 -8.82 64.4375 -9.5 64.4375 C-9.29318604 65.19893311 -9.08637207 65.96036621 -8.87329102 66.74487305 C-7.93465682 70.20445569 -6.99855296 73.66471811 -6.0625 77.125 C-5.57426758 78.92227539 -5.57426758 78.92227539 -5.07617188 80.75585938 C-4.76357422 81.91279297 -4.45097656 83.06972656 -4.12890625 84.26171875 C-3.84088135 85.32479248 -3.55285645 86.38786621 -3.25610352 87.4831543 C-2.58004724 90.12472903 -2.00459809 92.75858226 -1.5 95.4375 C0.15 95.4375 1.8 95.4375 3.5 95.4375 C3.5 96.7575 3.5 98.0775 3.5 99.4375 C2.51 99.4375 1.52 99.4375 0.5 99.4375 C0.83 100.241875 1.16 101.04625 1.5 101.875 C2.70717135 106.17554795 2.67721353 110.00716181 2.5 114.4375 C0.51672287 110.9118584 -0.47831101 107.21684842 -1.49609375 103.33203125 C-1.88734699 101.87410845 -2.2792206 100.41635204 -2.67163086 98.95874023 C-2.87722626 98.19133514 -3.08282166 97.42393005 -3.29464722 96.63327026 C-6.7394588 83.86220163 -10.29583381 71.10235788 -14.27835083 58.48764038 C-14.71085135 57.10143205 -15.13158999 55.71148763 -15.53927612 54.31777954 C-18.26951004 45.03430565 -21.9073114 39.07831228 -29.09399414 32.70922852 C-32.1570267 29.81714145 -33.30944923 27.84155831 -33.87109375 23.703125 C-34.07105254 14.62264358 -31.87396951 10.33054174 -26.0625 3.625 C-18.7891863 -2.58392633 -8.92215161 -3.93524558 0 0 Z " fill="#D2A37E" transform="translate(74.5,13.5625)"/>
<path d="M0 0 C0.33 0 0.66 0 1 0 C1.83782395 5.9588364 2.67394689 11.91790818 3.50854492 17.87719727 C3.79226544 19.90135022 4.07643781 21.9254399 4.36108398 23.94946289 C4.77188133 26.87108815 5.18101352 29.79294266 5.58984375 32.71484375 C5.71592514 33.60896469 5.84200653 34.50308563 5.97190857 35.42430115 C7.07461906 43.32578771 8.00536792 51.20251539 8.5 59.16796875 C8.62375 61.12766602 8.62375 61.12766602 8.75 63.12695312 C8.83344329 64.48046198 8.91677634 65.83397763 9 67.1875 C9.16575754 69.84771423 9.33284425 72.50784163 9.5 75.16796875 C9.5812915 76.48055664 9.66258301 77.79314453 9.74633789 79.14550781 C9.98458091 82.76570101 10.26935341 86.37969284 10.55859375 89.99609375 C11.11169979 97.62971485 11.1112909 105.22608737 11.0625 112.875 C11.05746511 114.25650876 11.05290579 115.63801933 11.04882812 117.01953125 C11.03719571 120.34640246 11.0208528 123.67317602 11 127 C10.67 127 10.34 127 10 127 C8.68 121.39 7.36 115.78 6 110 C2.0285831 110.62841973 2.0285831 110.62841973 0 113 C-1.17666004 110.75474054 -2.3414074 108.50455858 -3.5 106.25 C-3.83386719 105.61578125 -4.16773438 104.9815625 -4.51171875 104.328125 C-6.27175533 100.87989007 -7 98.95159931 -7 95 C-6.01 95 -5.02 95 -4 95 C-1.45741131 89.91071277 -1.45741131 89.91071277 -1.75 84.5 C-2.36875 83.2625 -2.36875 83.2625 -3 82 C-4.42857143 74.85714286 -4.42857143 74.85714286 -3 72 C-3.37744669 69.55803481 -3.37744669 69.55803481 -4.109375 66.7578125 C-4.36976563 65.69046875 -4.63015625 64.623125 -4.8984375 63.5234375 C-5.17945313 62.40195312 -5.46046875 61.28046875 -5.75 60.125 C-6.01554688 59.0421875 -6.28109375 57.959375 -6.5546875 56.84375 C-7.63250889 52.45921442 -8.71369154 48.07765992 -9.87304688 43.71386719 C-10.14697266 42.67133789 -10.42089844 41.62880859 -10.703125 40.5546875 C-10.95223633 39.62897949 -11.20134766 38.70327148 -11.45800781 37.74951172 C-12.47011752 32.61510654 -12.50985921 29.05261037 -9.62890625 24.609375 C-9.13712891 23.81660156 -8.64535156 23.02382813 -8.13867188 22.20703125 C-7.09612688 20.58184959 -6.04931319 18.95939759 -4.99804688 17.33984375 C-1.41408699 11.53991913 -0.08580704 6.82482103 0 0 Z " fill="#AACCB2" transform="translate(155,264)"/>
<path d="M0 0 C2 1 2 1 2.8515625 3.30078125 C4.50479879 9.73838318 5.23152967 15.51222622 5.0390625 22.15234375 C4.9839254 26.17183822 5.46923787 30.01928404 6 34 C6.99 34 7.98 34 9 34 C9.66 35.65 10.32 37.3 11 39 C11.66 39 12.32 39 13 39 C16.05481911 47.98409901 18.77662203 56.41505417 19 66 C18.01 66.495 18.01 66.495 17 67 C17.62390625 67.08507812 18.2478125 67.17015625 18.890625 67.2578125 C21 68 21 68 22.046875 69.7421875 C22.39492187 70.79792969 22.39492187 70.79792969 22.75 71.875 C22.99234375 72.57367188 23.2346875 73.27234375 23.484375 73.9921875 C24 76 24 76 24 79 C11.59794438 82.70737606 11.59794438 82.70737606 7 82 C4.62822322 78.44233482 3.75699563 74.89165511 2.6875 70.8125 C1.1065638 64.91868987 -0.58664536 59.10688629 -2.5 53.3125 C-5.54521222 43.92891326 -7.45637032 34.2813575 -9.44726562 24.63037109 C-10.13446469 21.36010489 -10.87605851 18.10348103 -11.6315918 14.84838867 C-12.18925589 12.05045966 -12.29463116 10.58926232 -11 8 C-9.07407139 6.56415143 -7.11256452 5.36816278 -5.0078125 4.2109375 C-3.00674456 3.00406773 -1.57513628 1.71382752 0 0 Z " fill="#F7EFD5" transform="translate(79,49)"/>
<path d="M0 0 C0 0.99 0 1.98 0 3 C0.4165697 12.71934922 2.02747336 22.00399098 4.0625 31.5 C4.62201597 34.13421518 5.17382968 36.76975624 5.72265625 39.40625 C5.96765869 40.55416016 6.21266113 41.70207031 6.46508789 42.88476562 C6.94381127 45.67276666 7.10778567 48.18109164 7 51 C6 49 5 47 4 45 C3.72905518 45.78310547 3.72905518 45.78310547 3.45263672 46.58203125 C-0.54417811 58.11548048 -4.65123162 69.59443898 -9 81 C-11.16372377 77.2948624 -11.96175008 73.33081963 -12.875 69.1875 C-14.48536692 62.10295863 -16.26543879 55.08553434 -18.16796875 48.07421875 C-18.44253906 47.05972656 -18.71710938 46.04523438 -19 45 C-19.19722656 44.278125 -19.39445312 43.55625 -19.59765625 42.8125 C-21.04794115 36.27917775 -19.86014757 29.96746839 -17 24 C-16 23 -15 22 -14 21 C-12.43889331 18.27326698 -11.0254558 15.48989337 -9.59765625 12.69140625 C-7.99348637 9.98902716 -6.26517074 8.1542236 -4 6 C-2.96642853 4.35394174 -1.95939668 2.69036558 -1 1 C-0.67 0.67 -0.34 0.34 0 0 Z " fill="#66918F" transform="translate(138,155)"/>
<path d="M0 0 C3.68734775 -0.08776185 7.37442347 -0.14064603 11.0625 -0.1875 C12.10083984 -0.21263672 13.13917969 -0.23777344 14.20898438 -0.26367188 C20.29159162 -0.32160147 24.62114303 0.09312836 30 3 C29.67 3.99 29.34 4.98 29 6 C28.39058003 11.37635 28.39058003 11.37635 30.5625 15.9375 C32.67452232 18.9677929 32.10988332 21.40128047 31.58203125 24.95703125 C30.78262603 27.76299723 29.47148249 28.54618677 27 30 C25.96986723 31.64821244 24.96885372 33.31503702 24 35 C23.53851563 35.42023438 23.07703125 35.84046875 22.6015625 36.2734375 C20.41417829 38.63154438 19.3050579 41.22199986 17.9375 44.125 C15.22117647 49.88941176 15.22117647 49.88941176 13 51 C12.79913557 47.28400809 12.8480563 46.22791555 15 43 C15.66613335 40.72461677 15.66613335 40.72461677 16.125 38.3125 C16.29257813 37.50425781 16.46015625 36.69601563 16.6328125 35.86328125 C16.81457031 34.94095703 16.81457031 34.94095703 17 34 C16.2575 34.185625 15.515 34.37125 14.75 34.5625 C12.05009037 34.99203108 10.55368923 34.85122974 8 34 C8 34.66 8 35.32 8 36 C6.35 36 4.7 36 3 36 C3.23783203 34.92878906 3.23783203 34.92878906 3.48046875 33.8359375 C4.56474368 27.91726383 5.19577955 21.50110535 2.375 16 C-0.63731635 12.19496882 -3.12705649 10.34386582 -8.0234375 9.7578125 C-11.81934357 9.63081193 -14.80697503 9.87131669 -18 12 C-18 11.01 -18 10.02 -18 9 C-15.18409202 6.69607529 -13.25116483 6.0279072 -9.625 5.625 C-3.42174335 6.26671621 1.52553894 8.65714074 6 13 C6.8125 15.25 6.8125 15.25 7 17 C8.32 16.67 9.64 16.34 11 16 C11.33 13.03 11.66 10.06 12 7 C11.13375 6.731875 10.2675 6.46375 9.375 6.1875 C6.08208036 5.02888013 3.08872125 3.61790161 0 2 C0 1.34 0 0.68 0 0 Z " fill="#ECAC5D" transform="translate(109,128)"/>
<path d="M0 0 C-0.20625 1.11375 -0.4125 2.2275 -0.625 3.375 C-0.74875 4.57125 -0.8725 5.7675 -1 7 C0.97987811 9.41942686 0.97987811 9.41942686 4.8125 9.25 C8.25275166 9.17480324 10.88901279 8.55549361 14 7 C14.37704619 14.06612484 14.34141158 19.06999289 9.55859375 24.6953125 C6.39429116 27.85227332 3.96551375 29.40214875 -0.5625 29.5625 C-6.20702806 29.13125422 -9.66040726 27.19398483 -13.875 23.4375 C-16.53104106 19.98206794 -16.65267705 16.7257656 -16.421875 12.46875 C-15.58275505 7.55834439 -13.54894388 4.29776379 -9.6875 1.0625 C-6.33218371 -0.26402039 -3.57519482 -0.21030558 0 0 Z " fill="#AA353D" transform="translate(64,16)"/>
<path d="M0 0 C0 0.66 0 1.32 0 2 C-0.66 2 -1.32 2 -2 2 C-2.268125 2.969375 -2.53625 3.93875 -2.8125 4.9375 C-3.204375 5.948125 -3.59625 6.95875 -4 8 C-4.99 8.33 -5.98 8.66 -7 9 C-4.37059371 19.0246115 1.60017504 26.03959133 8 34 C6.29107412 33.54388099 4.58288771 33.08499109 2.875 32.625 C1.92367187 32.36976563 0.97234375 32.11453125 -0.0078125 31.8515625 C-3 31 -3 31 -5.6015625 29.93359375 C-10.76473514 28.51520495 -15.91790879 28.56731932 -21.25 28.4375 C-23.42198976 28.37773213 -25.59387844 28.31412758 -27.765625 28.24609375 C-29.20083496 28.21020142 -29.20083496 28.21020142 -30.66503906 28.17358398 C-33 28 -33 28 -35 27 C-35 27.99 -35 28.98 -35 30 C-35.66 30 -36.32 30 -37 30 C-35.58514944 25.26370149 -32.8388839 22.52504918 -29.25 19.3125 C-28.68015381 18.79502197 -28.11030762 18.27754395 -27.52319336 17.74438477 C-7.5909588 0 -7.5909588 0 0 0 Z " fill="#C1672D" transform="translate(70,138)"/>
<path d="M0 0 C4.98115568 0.2665194 8.58657515 2.34193047 12.3125 5.5625 C16.18371661 10.6434718 15.97884126 16.42850925 15.3125 22.5625 C14.05285973 26.27512396 12.96771698 27.98008491 10.0625 30.5625 C6.12554319 31.99412066 4.10298422 31.21652948 0.3125 29.5625 C-5.29172631 24.11394664 -6.87577671 18.45426829 -7.0625 10.875 C-7.08689128 7.41550389 -7.06248783 5.24676783 -5.39453125 2.203125 C-3.6875 0.5625 -3.6875 0.5625 0 0 Z " fill="#AA3140" transform="translate(98.6875,136.4375)"/>
<path d="M0 0 C-0.99 0.66 -1.98 1.32 -3 2 C-2.44570312 2.31453125 -1.89140625 2.6290625 -1.3203125 2.953125 C-0.59585938 3.38109375 0.12859375 3.8090625 0.875 4.25 C1.59429687 4.66765625 2.31359375 5.0853125 3.0546875 5.515625 C5.20874162 7.15928076 5.99140585 8.51567335 7 11 C4.43582617 13.56417383 2.47083523 14.25787287 -1.0625 14.375 C-5 14 -5 14 -7.0625 12.8125 C-8.39826326 10.23002437 -7.83707827 8.72050437 -7 6 C-6.67 5.34 -6.34 4.68 -6 4 C-12.14808616 4.89743306 -16.00156983 5.87701134 -20 11 C-21.57620892 15.72862677 -22.32393541 21.3026876 -20.05859375 25.91796875 C-17.52728988 29.1316931 -14.90331155 30.88476813 -11 32 C-11.99 32.495 -11.99 32.495 -13 33 C-13.72159424 34.64363134 -14.39351421 36.31050386 -15 38 C-12.36 38 -9.72 38 -7 38 C-7 38.33 -7 38.66 -7 39 C-9.64 39 -12.28 39 -15 39 C-14.566875 40.09699219 -14.13375 41.19398437 -13.6875 42.32421875 C-13.12456163 43.77847622 -12.5620859 45.23291283 -12 46.6875 C-11.71382812 47.40873047 -11.42765625 48.12996094 -11.1328125 48.87304688 C-9.6609498 52.71040321 -8.60385002 55.81566589 -9 60 C-11.13330359 56.80004462 -11.85952153 54.17733034 -12.9375 50.5 C-15.42325114 43.26736265 -18.91816424 39.34079558 -24.57421875 34.3046875 C-27.70088889 31.33409912 -28.794227 29.51622214 -29.37109375 25.265625 C-29.57105254 16.18514358 -27.37396951 11.89304174 -21.5625 5.1875 C-14.70364355 -0.66762136 -8.69643318 -0.34837344 0 0 Z " fill="#CB7C41" transform="translate(70,12)"/>
<path d="M0 0 C3.68734775 -0.08776185 7.37442347 -0.14064603 11.0625 -0.1875 C12.62000977 -0.22520508 12.62000977 -0.22520508 14.20898438 -0.26367188 C20.29159162 -0.32160147 24.62114303 0.09312836 30 3 C29.67 3.99 29.34 4.98 29 6 C28.57685784 12.59513576 28.57685784 12.59513576 32 18 C32.5 20.5 32.5 20.5 32 23 C27.89189189 27 27.89189189 27 25 27 C24.01 29.475 24.01 29.475 23 32 C21.68 32 20.36 32 19 32 C19.875 26.125 19.875 26.125 21 25 C21.16666667 22 21.16666667 22 21 19 C19.03177114 17.03177114 15.65191291 17.33751619 13 17 C13 14.36 13 11.72 13 9 C8.71 6.69 4.42 4.38 0 2 C0 1.34 0 0.68 0 0 Z " fill="#F3CF8C" transform="translate(109,128)"/>
<path d="M0 0 C12.70152122 -0.85950144 12.70152122 -0.85950144 17.0625 2 C21.06727298 5.54651537 23.5510647 9.85177016 24.30859375 15.1640625 C24.42925081 19.18123277 23.84736162 22.77666267 22.87890625 26.6640625 C21.76025123 32.14527019 22.36257476 36.58926891 23.5625 42 C23.74578857 42.89775146 23.92907715 43.79550293 24.11791992 44.72045898 C25.58426781 51.67536475 27.4037048 58.52681869 29.51196289 65.31445312 C31.42180083 71.64175876 31.42180083 71.64175876 30 75 C29.34 73.35 28.68 71.7 28 70 C27.01 70 26.02 70 25 70 C23.66081056 64.97803958 22.90962573 60.69769903 23.125 55.5 C23.31416353 47.38698631 21.06522694 39.7814801 19 32 C16.15977211 32 14.92814287 33.42644867 12.625 35.0625 C6.63115623 38.80427089 1.75106681 38.27597483 -5 37 C-4.34 35.35 -3.68 33.7 -3 32 C-1.93072266 31.99613281 -1.93072266 31.99613281 -0.83984375 31.9921875 C5.34279484 31.74255203 9.27326008 31.07927686 13.6953125 26.59375 C17.26455689 22.23371493 17.4427834 17.85113928 17.3125 12.37109375 C16.85124423 8.8713156 15.64156469 7.29399039 13 5 C8.73993318 2.34929176 4.96790418 1.49679042 0 1 C0 0.67 0 0.34 0 0 Z " fill="#92643D" transform="translate(60,13)"/>
<path d="M0 0 C2.26071155 3.39106733 3.65268823 6.91514137 5.125 10.6875 C5.40214844 11.38939453 5.67929688 12.09128906 5.96484375 12.81445312 C6.64635741 14.54173775 7.32359772 16.27070737 8 18 C13.63347278 18.69988155 19.18052398 19.12263668 24.85327148 19.29052734 C37.49967854 19.6759459 49.34528827 20.72517472 61 26 C60.5226207 30.29641368 57.99397386 32.0725589 55 35 C53.03791372 37.08178652 51.11293772 39.19683212 49.1875 41.3125 C48.68541016 41.86228516 48.18332031 42.41207031 47.66601562 42.97851562 C46.44296032 44.31805239 45.22132992 45.65888992 44 47 C43 45 43 45 43.125 42.125 C43.30962717 39.00715224 43.30962717 39.00715224 41.5 37.125 C39.12155147 33.75553126 39.67690605 31.07098372 40 27 C40.66 26.01 41.32 25.02 42 24 C35.01762154 21.41704496 27.93760233 21.55370011 20.5625 21.375 C19.25861328 21.33632812 17.95472656 21.29765625 16.61132812 21.2578125 C13.40769001 21.16393299 10.20405168 21.07824846 7 21 C6.35165346 19.730447 5.70642185 18.45930294 5.0625 17.1875 C4.70285156 16.47980469 4.34320313 15.77210937 3.97265625 15.04296875 C3 13 3 13 2 10 C1.01 9.67 0.02 9.34 -1 9 C-0.67 6.03 -0.34 3.06 0 0 Z " fill="#D39C55" transform="translate(97,107)"/>
<path d="M0 0 C2.50139515 3.75209273 2.92538035 7.3959264 3.6875 11.75 C5.52477424 21.60843395 8.28509752 31.04847855 11.31640625 40.59765625 C12.79654399 45.26132573 14.11045722 49.95684531 15.36694336 54.68530273 C15.85585817 56.47296234 16.41393136 58.24179407 17 60 C18.485 60.495 18.485 60.495 20 61 C16.7 61.66 13.4 62.32 10 63 C8.30401551 58.59044032 7.62924139 54.52361443 7.24609375 49.85546875 C7.18959385 47.98692794 7.18959385 47.98692794 6 47 C5.95936168 45.33382885 5.957279 43.66611905 6 42 C6.99 42 7.98 42 9 42 C9 40.68 9 39.36 9 38 C7.515 38.495 7.515 38.495 6 39 C3.07280399 36.54047473 2.22933287 34.26901825 1.17578125 30.6328125 C0.86962891 29.58222656 0.56347656 28.53164062 0.24804688 27.44921875 C-0.06068359 26.35222656 -0.36941406 25.25523438 -0.6875 24.125 C-1.16799805 22.49111328 -1.16799805 22.49111328 -1.65820312 20.82421875 C-4.35336971 11.4342354 -4.35336971 11.4342354 -4 7 C-2.5625 5.4375 -2.5625 5.4375 -1 4 C-0.28552357 1.89667109 -0.28552357 1.89667109 0 0 Z " fill="#D1A582" transform="translate(69,71)"/>
<path d="M0 0 C-0.20625 1.27875 -0.4125 2.5575 -0.625 3.875 C-1.50121507 11.87359188 0.97083208 19.12742138 3.34765625 26.68359375 C4 29 4 29 4.5 32.75 C4.83282832 36.01629216 4.83282832 36.01629216 6.375 38.75 C9.32052286 44.64104572 12.12523061 51.48334899 10 58 C9.03141531 59.030458 8.03460258 60.03584363 7 61 C2.36883406 46.6407759 -1.49443327 32.30733254 -4.47851562 17.5168457 C-5.14671548 14.2919055 -5.89141505 11.08647028 -6.65161133 7.88208008 C-7.13388061 5.27674446 -7.03678639 3.44385364 -6 1 C-2.69333333 -1.34666667 -2.69333333 -1.34666667 0 0 Z " fill="#EBD1B1" transform="translate(74,56)"/>
<path d="M0 0 C0.18175781 0.83144531 0.36351563 1.66289062 0.55078125 2.51953125 C0.80214844 3.60621094 1.05351563 4.69289062 1.3125 5.8125 C1.55613281 6.89144531 1.79976563 7.97039062 2.05078125 9.08203125 C2.99388143 11.98119105 3.57574116 13.22221018 6 15 C9.60040463 15.90010116 11.45026831 16.1832439 15 15 C15 12.36 15 9.72 15 7 C15.33 7 15.66 7 16 7 C16.34394547 12.73242442 16.38869294 17.09223781 13 22 C10.75 24 10.75 24 8 25 C3.92599947 24.42821045 1.71268605 23.69288922 -1.25 20.8125 C-4.92327044 14.90902966 -7.46073726 9.03158819 -6 2 C-3 0 -3 0 0 0 Z " fill="#8A2434" transform="translate(98,143)"/>
<path d="M0 0 C0.33 0 0.66 0 1 0 C3.49439933 24.75861464 5.18674038 49.08883296 5 74 C1.82450357 72.66898344 0.41183247 71.58710239 -1.140625 68.515625 C-1.48867187 67.82726562 -1.83671875 67.13890625 -2.1953125 66.4296875 C-2.71738281 65.35074219 -2.71738281 65.35074219 -3.25 64.25 C-3.79527344 63.19425781 -3.79527344 63.19425781 -4.3515625 62.1171875 C-6.4316566 57.91007988 -7.45288438 54.80057445 -7 50 C-5.35 49.34 -3.7 48.68 -2 48 C-1.54427083 49.62760417 -1.08854167 51.25520833 -0.6328125 52.8828125 C0.18233513 55.61003482 1.09077522 58.30288785 2 61 C2.23205973 47.12104323 2.02607762 33.4161767 0.71142578 19.59008789 C0.09790399 13.03655966 -0.11583711 6.58180016 0 0 Z " fill="#708073" transform="translate(163,325)"/>
<path d="M0 0 C1.32 0 2.64 0 4 0 C4.27263672 0.83144531 4.27263672 0.83144531 4.55078125 1.6796875 C4.80214844 2.40414063 5.05351563 3.12859375 5.3125 3.875 C5.55613281 4.59429688 5.79976562 5.31359375 6.05078125 6.0546875 C6.96335547 8.33994905 6.96335547 8.33994905 10 10 C14.64151266 10.34381575 17.76404684 9.8154085 22 8 C22.66 8.33 23.32 8.66 24 9 C23.67 10.32 23.34 11.64 23 13 C22.67 12.34 22.34 11.68 22 11 C21.236875 11.804375 20.47375 12.60875 19.6875 13.4375 C16.32155585 16.64688861 14.04854072 17.14967504 9.5625 17.1875 C8.80066406 17.20167969 8.03882813 17.21585938 7.25390625 17.23046875 C4.697168 16.96903451 3.16113155 16.3811053 1 15 C-1.09740836 11.85388747 -1.25328219 11.08811922 -1.1875 7.5 C-1.17783203 6.33984375 -1.17783203 6.33984375 -1.16796875 5.15625 C-1 3 -1 3 0 0 Z " fill="#8B2334" transform="translate(53,22)"/>
<path d="M0 0 C0.33 0.66 0.66 1.32 1 2 C2.65 2 4.3 2 6 2 C6.33 2.66 6.66 3.32 7 4 C8.82287297 4.93845254 10.68364553 5.80435092 12.5625 6.625 C14.356875 7.40875 16.15125 8.1925 18 9 C18 13.29 18 17.58 18 22 C17.67 20.68 17.34 19.36 17 18 C15.68 18.33 14.36 18.66 13 19 C12.443125 18.071875 11.88625 17.14375 11.3125 16.1875 C6.98828454 10.22709491 1.91404769 9.2803792 -5 8 C-3.68 7.01 -2.36 6.02 -1 5 C-4.3 5 -7.6 5 -11 5 C-8.09907498 3.06604999 -7.10325263 2.69868059 -3.8125 2.375 C-2.554375 2.25125 -1.29625 2.1275 0 2 C0 1.34 0 0.68 0 0 Z " fill="#EBAA5A" transform="translate(103,126)"/>
<path d="M0 0 C0.66 0 1.32 0 2 0 C2.144375 1.093125 2.28875 2.18625 2.4375 3.3125 C2.88288104 6.93122987 2.88288104 6.93122987 4 10 C9.25137673 11.97213275 15.23658369 11.68577301 20.375 9.6875 C22.58822212 8.26471435 24.29626511 6.98769071 26 5 C26.70703125 6.73828125 26.70703125 6.73828125 27 9 C25.63671875 11.10546875 25.63671875 11.10546875 23.6875 13.1875 C23.05199219 13.88230469 22.41648437 14.57710937 21.76171875 15.29296875 C18.48601468 18.46698799 15.68811573 18.27488752 11.31640625 18.21875 C7.01816936 17.81284567 4.13903243 15.74936344 0.625 13.4375 C-1.93017314 9.60474029 -1.49806806 5.48261256 -1 1 C-0.67 0.67 -0.34 0.34 0 0 Z " fill="#A42D44" transform="translate(50,27)"/>
<path d="M0 0 C12.70152122 -0.85950144 12.70152122 -0.85950144 17.0625 2 C21.13962024 5.61058409 23.6570824 9.97742633 24.2734375 15.41015625 C24.33080347 18.93816321 24.12286571 21.63140288 23 25 C20.39757586 26.64820195 19.13751221 27 16 27 C16.165 26.05125 16.33 25.1025 16.5 24.125 C17.80740539 15.32295595 17.80740539 15.32295595 15.375 7.0625 C10.6116073 2.9258695 6.22618479 1.62261848 0 1 C0 0.67 0 0.34 0 0 Z " fill="#A38A78" transform="translate(60,13)"/>
<path d="M0 0 C1.76923828 0.01353516 1.76923828 0.01353516 3.57421875 0.02734375 C4.47785156 0.03894531 5.38148437 0.05054688 6.3125 0.0625 C5.3225 0.7225 4.3325 1.3825 3.3125 2.0625 C3.86679688 2.37703125 4.42109375 2.6915625 4.9921875 3.015625 C5.71664062 3.44359375 6.44109375 3.8715625 7.1875 4.3125 C7.90679687 4.73015625 8.62609375 5.1478125 9.3671875 5.578125 C11.52124162 7.22178076 12.30390585 8.57817335 13.3125 11.0625 C10.74832617 13.62667383 8.78333523 14.32037287 5.25 14.4375 C1.3125 14.0625 1.3125 14.0625 -0.75 12.875 C-2.08576326 10.29252437 -1.52457827 8.78300437 -0.6875 6.0625 C-0.3575 5.4025 -0.0275 4.7425 0.3125 4.0625 C-1.3375 4.0625 -2.9875 4.0625 -4.6875 4.0625 C-4.6875 3.4025 -4.6875 2.7425 -4.6875 2.0625 C-9.1425 3.5475 -9.1425 3.5475 -13.6875 5.0625 C-9.26506678 0.33507138 -6.37943533 -0.06316273 0 0 Z " fill="#965A51" transform="translate(63.6875,11.9375)"/>
<path d="M0 0 C2.26071155 3.39106733 3.65268823 6.91514137 5.125 10.6875 C5.40214844 11.38939453 5.67929688 12.09128906 5.96484375 12.81445312 C6.64635741 14.54173775 7.32359772 16.27070737 8 18 C13.63347278 18.69988155 19.18052398 19.12263668 24.85327148 19.29052734 C37.49967854 19.6759459 49.34528827 20.72517472 61 26 C61 26.99 61 27.98 61 29 C54.98922864 27.36959185 48.98336072 25.72852643 43 24 C43 24.99 43 25.98 43 27 C42.34 26.67 41.68 26.34 41 26 C41.33 25.34 41.66 24.68 42 24 C35.01762154 21.41704496 27.93760233 21.55370011 20.5625 21.375 C19.25861328 21.33632812 17.95472656 21.29765625 16.61132812 21.2578125 C13.40769001 21.16393299 10.20405168 21.07824846 7 21 C6.35165346 19.730447 5.70642185 18.45930294 5.0625 17.1875 C4.70285156 16.47980469 4.34320313 15.77210937 3.97265625 15.04296875 C3 13 3 13 2 10 C1.01 9.67 0.02 9.34 -1 9 C-0.67 6.03 -0.34 3.06 0 0 Z " fill="#857151" transform="translate(97,107)"/>
<path d="M0 0 C5.1536304 2.6722528 8.72993179 4.99466509 10.875 10.61328125 C11.88181326 14.91583479 11.91135766 19.37555048 11.375 23.75 C10.715 24.74 10.055 25.73 9.375 26.75 C8.715 26.75 8.055 26.75 7.375 26.75 C7.34921875 25.82058594 7.3234375 24.89117187 7.296875 23.93359375 C6.96640405 14.095714 6.96640405 14.095714 2.375 5.75 C-2.32425958 2.43915802 -6.07314784 2.30226999 -11.625 2.75 C-14.03057853 3.61265968 -14.03057853 3.61265968 -15.625 4.75 C-15.625 3.76 -15.625 2.77 -15.625 1.75 C-10.61809545 -2.34655827 -5.90690355 -2.03686329 0 0 Z " fill="#F1CAA4" transform="translate(106.625,135.25)"/>
<path d="M0 0 C2.70334057 2.70334057 3.23864421 5.71917969 4.1875 9.3125 C4.37763672 9.97701172 4.56777344 10.64152344 4.76367188 11.32617188 C5.79817515 15.18551804 6.47858396 18.2199098 5 22 C2.9375 23.8125 2.9375 23.8125 1 25 C-0.17666004 22.75474054 -1.3414074 20.50455858 -2.5 18.25 C-2.83386719 17.61578125 -3.16773438 16.9815625 -3.51171875 16.328125 C-5.27175533 12.87989007 -6 10.95159931 -6 7 C-5.01 7 -4.02 7 -3 7 C-2.01 4.69 -1.02 2.38 0 0 Z " fill="#96BBA9" transform="translate(154,352)"/>
<path d="M0 0 C-0.20625 1.27875 -0.4125 2.5575 -0.625 3.875 C-1.13533861 8.35619245 -0.50224088 11.9384365 0.51953125 16.29296875 C1.38409204 21.16403078 1.15243835 26.07115996 1 31 C1.66 31 2.32 31 3 31 C2.67 33.97 2.34 36.94 2 40 C-0.38137798 37.61862202 -0.54130725 36.34783939 -1.21875 33.08984375 C-1.42886719 32.09919922 -1.63898438 31.10855469 -1.85546875 30.08789062 C-2.06816406 29.04826172 -2.28085938 28.00863281 -2.5 26.9375 C-2.92695791 24.90492157 -3.35403963 22.87236914 -3.78125 20.83984375 C-3.98476074 19.85491943 -4.18827148 18.86999512 -4.39794922 17.85522461 C-5.10462612 14.50381083 -5.87204737 11.16848249 -6.66259766 7.8359375 C-7.137856 5.24987185 -7.02812032 3.42342646 -6 1 C-2.69333333 -1.34666667 -2.69333333 -1.34666667 0 0 Z " fill="#E9CAAA" transform="translate(74,56)"/>
<path d="M0 0 C28.20409125 0.3690136 28.20409125 0.3690136 40 5 C40.92167969 5.29003906 41.84335938 5.58007812 42.79296875 5.87890625 C45 7 45 7 45.8125 9.125 C45.874375 9.74375 45.93625 10.3625 46 11 C45.46117187 10.82984375 44.92234375 10.6596875 44.3671875 10.484375 C30.06550939 6.27008741 14.90795887 3.56256449 0 3 C0 2.01 0 1.02 0 0 Z " fill="#CA8648" transform="translate(35,165)"/>
<path d="M0 0 C0.33 0 0.66 0 1 0 C1.01417969 0.89460937 1.02835937 1.78921875 1.04296875 2.7109375 C1.41761984 12.20884882 2.57361011 19.87540942 9.75 26.5625 C13.83638323 28.36993874 17.5681783 28.80303015 22 29 C19.56066895 31.43933105 18.68410972 31.37608173 15.3125 31.5 C10.4797727 31.38144825 7.88474555 30.30979452 4.46875 26.91796875 C-0.62790497 20.26249643 -2.72930998 12.27682026 -2 4 C-1 1.5 -1 1.5 0 0 Z " fill="#CF7C39" transform="translate(87,142)"/>
<path d="M0 0 C3.81234031 2.40376477 3.81234031 2.40376477 4.6171875 4.9609375 C4.70226562 5.75757812 4.78734375 6.55421875 4.875 7.375 C5.90136979 14.41703718 7.95432616 21.10444295 9.96826172 27.91357422 C10.35908936 29.24219482 10.35908936 29.24219482 10.7578125 30.59765625 C10.9964502 31.39695557 11.23508789 32.19625488 11.48095703 33.01977539 C12 35 12 35 12 37 C13.65 37 15.3 37 17 37 C17 38.32 17 39.64 17 41 C16.01 41 15.02 41 14 41 C14.33 41.804375 14.66 42.60875 15 43.4375 C16.20717135 47.73804795 16.17721353 51.56966181 16 56 C13.88447965 52.28011995 12.86417652 48.29241649 11.7578125 44.19140625 C11.54816864 43.42884018 11.33852478 42.66627411 11.12252808 41.88059998 C10.45274743 39.44229198 9.78850829 37.00252158 9.125 34.5625 C8.25522617 31.37557927 7.38256989 28.18946252 6.5078125 25.00390625 C6.29650696 24.2319693 6.08520142 23.46003235 5.86749268 22.66470337 C4.27619173 16.89218505 2.53867161 11.18159187 0.69482422 5.48413086 C0 3 0 3 0 0 Z " fill="#50453E" transform="translate(61,72)"/>
<path d="M0 0 C0.66 0.33 1.32 0.66 2 1 C1 4 1 4 -0.875 5.375 C-3.38120232 7.29150765 -4.4376415 9.28285478 -6 12 C-6.46148437 12.42023438 -6.92296875 12.84046875 -7.3984375 13.2734375 C-9.58582171 15.63154438 -10.6949421 18.22199986 -12.0625 21.125 C-14.77882353 26.88941176 -14.77882353 26.88941176 -17 28 C-17.20086443 24.28400809 -17.1519437 23.22791555 -15 20 C-14.55888435 18.11845117 -14.1890733 16.21937362 -13.875 14.3125 C-13.70742187 13.31863281 -13.53984375 12.32476562 -13.3671875 11.30078125 C-13.24601562 10.54152344 -13.12484375 9.78226563 -13 9 C-11.576875 8.87625 -11.576875 8.87625 -10.125 8.75 C-9.09375 8.5025 -8.0625 8.255 -7 8 C-5.87483915 6.16715557 -5.87483915 6.16715557 -5 4 C-2.375 1.75 -2.375 1.75 0 0 Z " fill="#E2B068" transform="translate(139,151)"/>
<path d="M0 0 C0.66 0.33 1.32 0.66 2 1 C2.49230769 7.4 2.49230769 7.4 0 10.4375 C-0.99 11.2109375 -0.99 11.2109375 -2 12 C-2.33 11.34 -2.66 10.68 -3 10 C-3.45375 10.825 -3.9075 11.65 -4.375 12.5 C-4.91125 13.325 -5.4475 14.15 -6 15 C-6.66 15 -7.32 15 -8 15 C-8.12375 15.639375 -8.2475 16.27875 -8.375 16.9375 C-8.58125 17.618125 -8.7875 18.29875 -9 19 C-9.66 19.33 -10.32 19.66 -11 20 C-11.65213292 22.02463255 -11.65213292 22.02463255 -12 24 C-12.66 24 -13.32 24 -14 24 C-13.52145356 19.69308206 -12.98569611 17.98569611 -10 15 C-8.43889331 12.27326698 -7.0254558 9.48989337 -5.59765625 6.69140625 C-4.00110387 4.00185958 -2.29991619 2.10121933 0 0 Z " fill="#93B4A2" transform="translate(134,161)"/>
<path d="M0 0 C0.33 0.66 0.66 1.32 1 2 C2.65 2 4.3 2 6 2 C6.33 2.66 6.66 3.32 7 4 C8.64363134 4.72159424 10.31050386 5.39351421 12 6 C10.02 6.99 10.02 6.99 8 8 C8.33 9.32 8.66 10.64 9 12 C8.40832031 11.79503906 7.81664063 11.59007812 7.20703125 11.37890625 C3.16339184 10.0002429 -0.76855249 8.68249153 -5 8 C-3.68 7.01 -2.36 6.02 -1 5 C-4.3 5 -7.6 5 -11 5 C-8.09907498 3.06604999 -7.10325263 2.69868059 -3.8125 2.375 C-2.554375 2.25125 -1.29625 2.1275 0 2 C0 1.34 0 0.68 0 0 Z " fill="#E7AB5E" transform="translate(103,126)"/>
<path d="M0 0 C1.125 3.75 1.125 3.75 0 6 C-0.23694459 10.26500258 -0.30474002 13.33953056 2 17 C2.66666667 18.33333333 3.33333333 19.66666667 4 21 C4.99 21.33 5.98 21.66 7 22 C7.68486725 23.32407669 8.34870203 24.65909241 9 26 C9.62519531 26.57234375 10.25039063 27.1446875 10.89453125 27.734375 C13.43109284 30.46388469 14.44619157 32.95665343 15.75 36.4375 C16.17796875 37.54996094 16.6059375 38.66242187 17.046875 39.80859375 C17.92822961 42.75968686 18.20514095 44.95137749 18 48 C15.86669641 44.80004462 15.14047847 42.17733034 14.0625 38.5 C11.57674886 31.26736265 8.08183576 27.34079558 2.42578125 22.3046875 C-0.77640393 19.26235376 -1.86000668 17.51522178 -2.265625 13.125 C-2.26046875 12.09375 -2.2553125 11.0625 -2.25 10 C-2.25515625 8.96875 -2.2603125 7.9375 -2.265625 6.875 C-2.00499165 4.05402722 -1.45296344 2.39854282 0 0 Z " fill="#815837" transform="translate(43,24)"/>
<path d="M0 0 C0 0.66 0 1.32 0 2 C-0.66 2 -1.32 2 -2 2 C-2.185625 2.928125 -2.37125 3.85625 -2.5625 4.8125 C-4 8 -4 8 -7.3125 9.6875 C-8.529375 10.120625 -9.74625 10.55375 -11 11 C-12.68535024 11.96817992 -14.36021682 12.95650161 -16 14 C-16.33 13.34 -16.66 12.68 -17 12 C-17.99 12 -18.98 12 -20 12 C-5.37175793 0 -5.37175793 0 0 0 Z " fill="#A76C3B" transform="translate(70,138)"/>
<path d="M0 0 C0.66 0 1.32 0 2 0 C2.86627405 2.91355841 3.71831006 5.83004328 4.5625 8.75 C4.80935547 9.575 5.05621094 10.4 5.31054688 11.25 C5.53935547 12.04921875 5.76816406 12.8484375 6.00390625 13.671875 C6.21861572 14.4050293 6.4333252 15.13818359 6.65454102 15.89355469 C7.03914672 18.23869816 6.72878764 19.75825808 6 22 C5.34 20.35 4.68 18.7 4 17 C3.01 17 2.02 17 1 17 C-0.70366626 10.91748904 -1.13253652 6.22895086 0 0 Z " fill="#EFE8CE" transform="translate(84,66)"/>
<path d="M0 0 C3.09233349 0.26889856 5.34360029 0.55534213 7.9375 2.3125 C9 4 9 4 8.75 6.125 C8 8 8 8 7 9 C1.74549098 9.45691383 1.74549098 9.45691383 -0.9375 7.8125 C-2 6 -2 6 -1.75 3.375 C-1 1 -1 1 0 0 Z " fill="#D06A64" transform="translate(64,17)"/>
<path d="M0 0 C1.485 0.99 1.485 0.99 3 2 C3.66 1.67 4.32 1.34 5 1 C6.2263757 3.45275141 6.11415314 5.0505781 6.09765625 7.7890625 C6.09282227 9.20058594 6.09282227 9.20058594 6.08789062 10.640625 C6.07951172 11.62546875 6.07113281 12.6103125 6.0625 13.625 C6.05798828 14.61757813 6.05347656 15.61015625 6.04882812 16.6328125 C6.03702145 19.0886016 6.020554 21.54427104 6 24 C5.67 24 5.34 24 5 24 C4.72285156 22.78441406 4.44570312 21.56882812 4.16015625 20.31640625 C3.79446102 18.73172693 3.42856525 17.14709388 3.0625 15.5625 C2.88009766 14.76005859 2.69769531 13.95761719 2.50976562 13.13085938 C1.90338992 9.25047271 1.90338992 9.25047271 0 6 C-0.04080783 4.00041636 -0.04254356 1.99954746 0 0 Z " fill="#C2E4C3" transform="translate(160,367)"/>
<path d="M0 0 C2.1875 -0.375 2.1875 -0.375 5 0 C7.875 2.6875 7.875 2.6875 10 6 C9.8125 8.875 9.8125 8.875 9 11 C5.58217544 10.74682781 4.72255923 9.71625376 2.25 7.1875 C0 4 0 4 0 0 Z " fill="#D97A65" transform="translate(100,139)"/>
<path d="M0 0 C0.99 0 1.98 0 3 0 C4.32229189 2.64458379 4.09677194 4.67761301 4.0625 7.625 C4.05347656 8.62789062 4.04445313 9.63078125 4.03515625 10.6640625 C4.02355469 11.43492188 4.01195313 12.20578125 4 13 C1.35261084 14.4606285 0.10551666 15 -3 15 C-2.125 8.125 -2.125 8.125 -1 7 C-0.63239269 4.67182036 -0.29758419 2.3381615 0 0 Z " fill="#F2D7B3" transform="translate(79,25)"/>
<path d="M0 0 C0.33 0 0.66 0 1 0 C1.34394547 5.73242442 1.38869294 10.09223781 -2 15 C-4.25 17 -4.25 17 -7 18 C-11.27919887 17.39941069 -13.39562907 16.58926166 -16.5 13.5625 C-16.995 12.716875 -17.49 11.87125 -18 11 C-17.67 10.01 -17.34 9.02 -17 8 C-17 8.66 -17 9.32 -17 10 C-16.34 10 -15.68 10 -15 10 C-14.5875 10.639375 -14.175 11.27875 -13.75 11.9375 C-11.40302106 14.70358232 -9.51991219 14.68711892 -6 15 C-5.67 14.01 -5.34 13.02 -5 12 C-4.34 11.67 -3.68 11.34 -3 11 C-2.67 10.01 -2.34 9.02 -2 8 C-1.34 8 -0.68 8 0 8 C0 5.36 0 2.72 0 0 Z " fill="#97283F" transform="translate(113,150)"/>
<path d="M0 0 C0.66 0.33 1.32 0.66 2 1 C1.38125 1.53625 0.7625 2.0725 0.125 2.625 C-2.19086933 4.88342127 -2.19086933 4.88342127 -2.9375 8 C-4.24513042 11.69213295 -5.65875427 13.01116325 -9 15 C-11.3125 14.75 -11.3125 14.75 -13 14 C-13 14.99 -13 15.98 -13 17 C-13.66 17 -14.32 17 -15 17 C-13.55022979 11.79049239 -10.29481756 9.13409172 -6.375 5.6875 C-5.76398437 5.13771484 -5.15296875 4.58792969 -4.5234375 4.02148438 C-3.02265427 2.67312444 -1.51226035 1.33547499 0 0 Z " fill="#865530" transform="translate(48,151)"/>
<path d="M0 0 C0.66 0 1.32 0 2 0 C1.94199219 0.65226562 1.88398437 1.30453125 1.82421875 1.9765625 C1.4645869 8.23460082 1.4645869 8.23460082 4.375 13.5625 C6.73909578 15.98658904 6.73909578 15.98658904 9 17 C8.67 17.99 8.34 18.98 8 20 C5.20898032 19.21800588 2.57615541 18.33981867 0 17 C-1 14.9375 -1 14.9375 -1 12 C-1.02320313 11.18273438 -1.04640625 10.36546875 -1.0703125 9.5234375 C-1.21346953 2.42693906 -1.21346953 2.42693906 0 0 Z " fill="#D3803B" transform="translate(45,27)"/>
<path d="M0 0 C8.4117883 -0.57136675 16.17853428 0.3564557 24.4375 1.875 C25.38447754 2.04870117 26.33145508 2.22240234 27.30712891 2.40136719 C32.00608049 3.3036326 36.49975207 4.33212848 41 6 C41.66 9.3 42.32 12.6 43 16 C41 14 41 14 39.875 11.0625 C37.34803139 6.93511794 34.49665784 6.08943418 30 5 C20.13968977 2.87739887 10.01967156 2.04649903 0 1 C0 0.67 0 0.34 0 0 Z " fill="#3F3429" transform="translate(35,168)"/>
<path d="M0 0 C4.20885247 0.11031086 8.41684554 0.24083992 12.625 0.375 C13.81480469 0.4059375 15.00460938 0.436875 16.23046875 0.46875 C17.38417969 0.50742188 18.53789063 0.54609375 19.7265625 0.5859375 C20.78439941 0.6173584 21.84223633 0.6487793 22.93212891 0.68115234 C26.19201999 1.01995688 28.93757455 1.85610583 32 3 C32 3.33 32 3.66 32 4 C21.27344291 4.10194194 10.68436922 4.07419152 0 3 C0 2.01 0 1.02 0 0 Z " fill="#C37A3D" transform="translate(35,165)"/>
<path d="M0 0 C2.31 0.66 4.62 1.32 7 2 C7 2.99 7 3.98 7 5 C6.071875 5.3403125 6.071875 5.3403125 5.125 5.6875 C2.38589791 7.37929835 1.94975528 8.99244161 1 12 C-0.32 12 -1.64 12 -3 12 C-2.40075776 7.80530429 -1.42500059 3.99000166 0 0 Z " fill="#F1C179" transform="translate(131,148)"/>
<path d="M0 0 C2.68300524 1.39309887 4.37827402 2.37536791 6.25 4.6875 C0.72120419 4.9388089 0.72120419 4.9388089 -1.625 3.6875 C-4.91574213 2.13891547 -8.1731984 2.3063654 -11.75 2.6875 C-14.15557853 3.55015968 -14.15557853 3.55015968 -15.75 4.6875 C-15.75 3.6975 -15.75 2.7075 -15.75 1.6875 C-10.68863954 -2.45361311 -5.95083435 -2.08279202 0 0 Z " fill="#ECC191" transform="translate(106.75,135.3125)"/>
<path d="M0 0 C0.33 0.99 0.66 1.98 1 3 C1.99 3.33 2.98 3.66 4 4 C2.6875 6.5 2.6875 6.5 1 9 C0.01 9 -0.98 9 -2 9 C-4.29947981 10.97571785 -4.29947981 10.97571785 -5 14.5 C-6 18 -6 18 -8 20 C-8.25 12.375 -8.25 12.375 -6 9 C-5.34 9 -4.68 9 -4 9 C-3.67 7.35 -3.34 5.7 -3 4 C-2.34 4 -1.68 4 -1 4 C-0.67 2.68 -0.34 1.36 0 0 Z " fill="#7BA299" transform="translate(126,176)"/>
<path d="M0 0 C0 0.99 0 1.98 0 3 C0.50633999 10.68128534 1.18788361 18.34537107 2 26 C1.67 25.34 1.34 24.68 1 24 C0.34 24 -0.32 24 -1 24 C-3.13584303 19.66023927 -3.33411896 15.62252353 -3.3125 10.875 C-3.32861328 10.15957031 -3.34472656 9.44414062 -3.36132812 8.70703125 C-3.36621308 3.48012512 -3.36621308 3.48012512 -1.48046875 1.0078125 C-0.74763672 0.50894531 -0.74763672 0.50894531 0 0 Z " fill="#627268" transform="translate(138,155)"/>
<path d="M0 0 C0.66 0.66 1.32 1.32 2 2 C0.35 2 -1.3 2 -3 2 C-2.67 3.98 -2.34 5.96 -2 8 C-4.97 7.505 -4.97 7.505 -8 7 C-8.66 7.99 -9.32 8.98 -10 10 C-10.80239884 6.79040466 -11.29531307 4.74812645 -10.0625 1.625 C-6.75275849 -0.98267513 -4.13889383 -0.39418036 0 0 Z " fill="#B14434" transform="translate(103,137)"/>
<path d="M0 0 C0.33 0 0.66 0 1 0 C1.67640509 4.33187088 2.33936494 8.66569839 3 13 C3.19078125 14.22074219 3.3815625 15.44148438 3.578125 16.69921875 C4.51193459 22.86903211 5.24963615 28.75909622 5 35 C1.46246078 29.69369117 1.68268351 24.34464326 1.28125 18.09375 C1.09727764 15.1505401 1.09727764 15.1505401 0.47265625 12.953125 C-0.15640755 10.35368783 -0.09428356 7.9198189 -0.0625 5.25 C-0.05347656 4.26515625 -0.04445312 3.2803125 -0.03515625 2.265625 C-0.02355469 1.51796875 -0.01195312 0.7703125 0 0 Z " fill="#424B44" transform="translate(155,264)"/>
<path d="M0 0 C0.66 0.33 1.32 0.66 2 1 C1.01 4.3 0.02 7.6 -1 11 C-5.36568695 10.12686261 -7.42547265 9.34897511 -11 7 C-10.360625 6.896875 -9.72125 6.79375 -9.0625 6.6875 C-8.381875 6.460625 -7.70125 6.23375 -7 6 C-6.67 5.01 -6.34 4.02 -6 3 C-5.01 2.67 -4.02 2.34 -3 2 C-3 2.66 -3 3.32 -3 4 C-2.34 4 -1.68 4 -1 4 C-0.67 2.68 -0.34 1.36 0 0 Z " fill="#D2A160" transform="translate(119,182)"/>
<path d="M0 0 C4.29 0.66 8.58 1.32 13 2 C13 3.65 13 5.3 13 7 C2.98974002 6.37970611 2.98974002 6.37970611 0 3 C0 2.01 0 1.02 0 0 Z " fill="#9F284F" transform="translate(53,37)"/>
<path d="M0 0 C0.33 0 0.66 0 1 0 C1 8.58 1 17.16 1 26 C-3.31638019 23.84180991 -3.82440551 23.13235351 -5.8125 19 C-6.25207031 18.113125 -6.69164062 17.22625 -7.14453125 16.3125 C-7.42683594 15.549375 -7.70914063 14.78625 -8 14 C-7.67 13.34 -7.34 12.68 -7 12 C-6.16151196 13.45537568 -5.32936066 14.91440373 -4.5 16.375 C-4.0359375 17.18710937 -3.571875 17.99921875 -3.09375 18.8359375 C-2 21 -2 21 -2 23 C-1.34 23 -0.68 23 0 23 C0 15.41 0 7.82 0 0 Z " fill="#3E4440" transform="translate(167,373)"/>
<path d="M0 0 C0 0.66 0 1.32 0 2 C-0.928125 2.4125 -1.85625 2.825 -2.8125 3.25 C-5.99623805 4.99793461 -6.91460506 6.1892503 -9 9 C-11.6875 10.25 -11.6875 10.25 -14 11 C-12.125 5.25 -12.125 5.25 -11 3 C-7.01550313 1.04534116 -4.47725284 0 0 0 Z " fill="#CBAA8F" transform="translate(59,14)"/>
<path d="M0 0 C1.98 0.66 3.96 1.32 6 2 C5.67 2.99 5.34 3.98 5 5 C5.99 5.66 6.98 6.32 8 7 C3.545 7.495 3.545 7.495 -1 8 C-3 5 -3 5 -2.625 2.8125 C-2.41875 2.214375 -2.2125 1.61625 -2 1 C-1.67 1.99 -1.34 2.98 -1 4 C-0.34 4.33 0.32 4.66 1 5 C0.67 3.35 0.34 1.7 0 0 Z " fill="#F2DCB7" transform="translate(87,123)"/>
<path d="M0 0 C1.65 0 3.3 0 5 0 C5 1.32 5 2.64 5 4 C4.01 4 3.02 4 2 4 C2.33 4.804375 2.66 5.60875 3 6.4375 C4.20717135 10.73804795 4.17721353 14.56966181 4 19 C0.73344615 12.8100177 -0.28739245 6.8974189 0 0 Z " fill="#B08E70" transform="translate(73,109)"/>
<path d="M0 0 C0 0.99 0 1.98 0 3 C0.99 3 1.98 3 3 3 C2.67 4.98 2.34 6.96 2 9 C1.67 8.34 1.34 7.68 1 7 C0.34 7 -0.32 7 -1 7 C-1.33 11.29 -1.66 15.58 -2 20 C-4.52826571 16.20760144 -4.36444901 14.51916778 -4 10 C-1.84210526 1.84210526 -1.84210526 1.84210526 0 0 Z " fill="#C5834B" transform="translate(46,20)"/>
<path d="M0 0 C2.39073445 3.82517513 2.55966552 7.59665524 3 12 C1.35 12 -0.3 12 -2 12 C-3.12377697 8.69564916 -2.89554742 6.9493138 -1.5625 3.75 C-1.27503906 3.04359375 -0.98757812 2.3371875 -0.69140625 1.609375 C-0.46324219 1.07828125 -0.23507813 0.5471875 0 0 Z " fill="#BAD9BD" transform="translate(142,198)"/>
<path d="M0 0 C2.64 0.33 5.28 0.66 8 1 C8 1.66 8 2.32 8 3 C10.64 3.33 13.28 3.66 16 4 C16.33 4.99 16.66 5.98 17 7 C17.66 7 18.32 7 19 7 C19 7.66 19 8.32 19 9 C16.03 8.01 13.06 7.02 10 6 C10 5.34 10 4.68 10 4 C9.36191406 3.87882813 8.72382812 3.75765625 8.06640625 3.6328125 C7.24011719 3.46523437 6.41382812 3.29765625 5.5625 3.125 C4.73878906 2.96257812 3.91507812 2.80015625 3.06640625 2.6328125 C2.38449219 2.42398438 1.70257813 2.21515625 1 2 C0.67 1.34 0.34 0.68 0 0 Z " fill="#BD9761" transform="translate(89,179)"/>
<path d="M0 0 C2.31459868 1.81817001 2.95377187 2.75615543 3.51171875 5.69921875 C3.59873047 7.17841797 3.59873047 7.17841797 3.6875 8.6875 C3.75324219 9.68136719 3.81898437 10.67523438 3.88671875 11.69921875 C3.92410156 12.45847656 3.96148437 13.21773437 4 14 C3.01 14.495 3.01 14.495 2 15 C-1.54076539 5.32612313 -1.54076539 5.32612313 -1 1 C-0.67 0.67 -0.34 0.34 0 0 Z " fill="#EFCFAC" transform="translate(79,102)"/>
<path d="M0 0 C11.63856502 -0.76681614 11.63856502 -0.76681614 14.9765625 1.11328125 C16.3125 2.5 16.3125 2.5 18 5 C17.01 5.495 17.01 5.495 16 6 C14.08203125 5.2578125 14.08203125 5.2578125 11.8125 4.125 C7.77640581 2.23103994 4.42563906 1.37665013 0 1 C0 0.67 0 0.34 0 0 Z " fill="#CFB69B" transform="translate(60,13)"/>
<path d="M0 0 C-0.66 3.96 -1.32 7.92 -2 12 C-5.105207 7.859724 -5.63945452 6.90248464 -5 2 C-2 0 -2 0 0 0 Z " fill="#8EAD9A" transform="translate(161,373)"/>
<path d="M0 0 C1.2065625 0.0309375 1.2065625 0.0309375 2.4375 0.0625 C2.1075 0.7225 1.7775 1.3825 1.4375 2.0625 C0.4475 2.0625 -0.5425 2.0625 -1.5625 2.0625 C-1.748125 3.2690625 -1.748125 3.2690625 -1.9375 4.5 C-2.14375 5.345625 -2.35 6.19125 -2.5625 7.0625 C-3.5525 7.5575 -3.5525 7.5575 -4.5625 8.0625 C-5.02773063 9.95783342 -5.02773063 9.95783342 -5.1875 12.125 C-5.31125 13.424375 -5.435 14.72375 -5.5625 16.0625 C-5.8925 16.0625 -6.2225 16.0625 -6.5625 16.0625 C-7.11778005 5.47104726 -7.11778005 5.47104726 -3.5625 1.0625 C-2.5625 0.0625 -2.5625 0.0625 0 0 Z " fill="#A53336" transform="translate(54.5625,19.9375)"/>
<path d="M0 0 C1.98 0.66 3.96 1.32 6 2 C5.67 4.31 5.34 6.62 5 9 C4.34 9 3.68 9 3 9 C0.78252188 6.69723426 0.03239994 5.47519908 -0.1875 2.25 C-0.125625 1.5075 -0.06375 0.765 0 0 Z " fill="#C0DDBC" transform="translate(112,191)"/>
<path d="M0 0 C3.3156514 6.35858688 5.24285288 12.88281703 6 20 C5.34 20.33 4.68 20.66 4 21 C3.87882812 20.43152344 3.75765625 19.86304687 3.6328125 19.27734375 C2.82399911 15.5505805 1.971808 11.90602666 0.875 8.25 C0.0827221 5.3072535 -0.18306075 3.02050241 0 0 Z " fill="#F1DCBE" transform="translate(79,93)"/>
<path d="M0 0 C2.23689267 3.355339 3.16735541 6.59630574 4.1875 10.4375 C4.47270508 11.44006836 4.47270508 11.44006836 4.76367188 12.46289062 C5.69706355 15.93813861 6.37080403 18.58608679 5 22 C3.00468832 19.00703247 2.54356766 17.39565075 1.9375 13.9375 C1.3221691 10.35212948 1.3221691 10.35212948 0 7 C-0.04022391 4.6670134 -0.04320247 2.33293334 0 0 Z " fill="#5A5750" transform="translate(85,66)"/>
<path d="M0 0 C2.29296875 0.54296875 2.29296875 0.54296875 5 2 C6.3598734 4.49260959 7.35965648 6.67521014 8.3125 9.3125 C8.57611328 9.97701172 8.83972656 10.64152344 9.11132812 11.32617188 C10.50652783 14.98993007 11.32630135 18.07679541 11 22 C8.19925626 17.7988844 6.98611005 13.22230862 5.4140625 8.4453125 C4.01576915 5.03842097 2.44014266 2.73088306 0 0 Z " fill="#4A3F38" transform="translate(50,50)"/>
<path d="M0 0 C4.8179976 4.8179976 6.77866736 12.44921585 8 19 C7.54296875 21.23046875 7.54296875 21.23046875 7 23 C5.82569926 19.7318568 4.66188744 16.46007485 3.5 13.1875 C3.16613281 12.25873047 2.83226563 11.32996094 2.48828125 10.37304688 C2.17246094 9.48037109 1.85664062 8.58769531 1.53125 7.66796875 C1.09135742 6.43469849 1.09135742 6.43469849 0.64257812 5.17651367 C0 3 0 3 0 0 Z " fill="#384747" transform="translate(84,202)"/>
<path d="M0 0 C2.31 0.66 4.62 1.32 7 2 C7 2.66 7 3.32 7 4 C8.65 4.33 10.3 4.66 12 5 C12 5.33 12 5.66 12 6 C9.36 6.33 6.72 6.66 4 7 C4 5.68 4 4.36 4 3 C2.68 3 1.36 3 0 3 C0 2.01 0 1.02 0 0 Z " fill="#718E81" transform="translate(92,181)"/>
<path d="M0 0 C0.33 0 0.66 0 1 0 C1.07476562 0.59167969 1.14953125 1.18335937 1.2265625 1.79296875 C1.96155191 6.21011098 2.56053499 9.15376205 6.125 12.0625 C7.07375 12.701875 8.0225 13.34125 9 14 C7.68 14.33 6.36 14.66 5 15 C4.34 14.01 3.68 13.02 3 12 C2.01 12.495 2.01 12.495 1 13 C-1.48887372 8.31506124 -0.85687773 5.0555786 0 0 Z " fill="#D37449" transform="translate(47,29)"/>
<path d="M0 0 C2.7058597 0.67646492 4.51516936 1.35717343 6.22265625 3.62109375 C9 8.40927419 9 8.40927419 9 11 C7.1875 10.9375 7.1875 10.9375 5 10 C3.375 6.625 3.375 6.625 2 3 C1.34 2.01 0.68 1.02 0 0 Z " fill="#A94838" transform="translate(105,139)"/>
<path d="M0 0 C0.33 0.66 0.66 1.32 1 2 C2.32 1.67 3.64 1.34 5 1 C5 2.98 5 4.96 5 7 C2 7 -1 7 -4 7 C-3.525625 6.5875 -3.05125 6.175 -2.5625 5.75 C-0.83733482 3.817815 -0.43415125 2.51807725 0 0 Z " fill="#D59458" transform="translate(75,38)"/>
<path d="M0 0 C0.33 0.66 0.66 1.32 1 2 C-0.48849775 6.09336882 -1.86933937 9.01164212 -5 12 C-5.71447643 14.10332891 -5.71447643 14.10332891 -6 16 C-6.66 16 -7.32 16 -8 16 C-7.52938232 11.76444092 -7.0889896 9.86017555 -4 7 C-2.5684768 4.71368238 -1.29579682 2.36818039 0 0 Z " fill="#9BA585" transform="translate(128,169)"/>
<path d="M0 0 C0.33 0.99 0.66 1.98 1 3 C-1.64 5.31 -4.28 7.62 -7 10 C-7.33 9.01 -7.66 8.02 -8 7 C-5.36 4.69 -2.72 2.38 0 0 Z " fill="#CF8043" transform="translate(53,149)"/>
<path d="M0 0 C0.33 0.99 0.66 1.98 1 3 C-3.90913862 7.00482361 -8.61592304 8.34446458 -15 8 C-15.66 7.34 -16.32 6.68 -17 6 C-15.91332031 5.97873047 -15.91332031 5.97873047 -14.8046875 5.95703125 C-8.10959038 5.62673979 -4.65109657 4.90250719 0 0 Z " fill="#DD7E53" transform="translate(74,39)"/>
<path d="M0 0 C0.33 0 0.66 0 1 0 C1 3.63 1 7.26 1 11 C-3 13 -3 13 -6 13 C-5.67 10.69 -5.34 8.38 -5 6 C-4.34 7.32 -3.68 8.64 -3 10 C-0.70424397 7.70424397 -0.67660401 6.99157475 -0.375 3.875 C-0.189375 1.956875 -0.189375 1.956875 0 0 Z " fill="#DABC9C" transform="translate(82,27)"/>
<path d="M0 0 C1.32 0.33 2.64 0.66 4 1 C4 1.66 4 2.32 4 3 C5.134375 3.28875 6.26875 3.5775 7.4375 3.875 C8.613125 4.24625 9.78875 4.6175 11 5 C11.33 5.66 11.66 6.32 12 7 C6.75900345 6.58894145 3.75960806 5.75960806 0 2 C0 1.34 0 0.68 0 0 Z " fill="#E9A656" transform="translate(93,164)"/>
<path d="M0 0 C0.66 0.33 1.32 0.66 2 1 C1 4 1 4 -0.875 5.375 C-3.36471151 7.27889704 -4.52131475 9.26443229 -6 12 C-7 10 -7 10 -6.375 7.125 C-4.81212182 3.57300413 -3.16503961 2.16555342 0 0 Z " fill="#D0A96A" transform="translate(139,151)"/>
<path d="M0 0 C0.66 0 1.32 0 2 0 C3.03115279 3.26913624 2.9638984 5.86041348 2.5625 9.25 C2.46066406 10.14203125 2.35882813 11.0340625 2.25390625 11.953125 C2.12822266 12.96632813 2.12822266 12.96632813 2 14 C0.35761168 11.07051553 -0.35115497 8.64838103 -0.6875 5.3125 C-0.77386719 4.52488281 -0.86023438 3.73726562 -0.94921875 2.92578125 C-0.96597656 2.29027344 -0.98273438 1.65476563 -1 1 C-0.67 0.67 -0.34 0.34 0 0 Z " fill="#E6C09D" transform="translate(68,57)"/>
<path d="M0 0 C0.66 0.33 1.32 0.66 2 1 C1.875 3.3125 1.875 3.3125 1 6 C-2.0625 7.8125 -2.0625 7.8125 -5 9 C-5.33 8.34 -5.66 7.68 -6 7 C-4.02 4.69 -2.04 2.38 0 0 Z " fill="#F1E0C0" transform="translate(79,49)"/>
<path d="M0 0 C0.66 0 1.32 0 2 0 C2.32097656 0.93585937 2.32097656 0.93585937 2.6484375 1.890625 C4.53556697 4.83585597 6.27476726 4.97087611 9.625 5.75 C10.62789062 5.99234375 11.63078125 6.2346875 12.6640625 6.484375 C13.43492188 6.65453125 14.20578125 6.8246875 15 7 C15 7.33 15 7.66 15 8 C9.75585282 8.31464883 6.46060581 7.83856733 2 5 C0.125 2.8125 0.125 2.8125 -1 1 C-0.67 0.67 -0.34 0.34 0 0 Z " fill="#9F283D" transform="translate(51,37)"/>
<path d="M0 0 C0.33 0 0.66 0 1 0 C1.33 3.3 1.66 6.6 2 10 C1.01 10.66 0.02 11.32 -1 12 C-2.45606519 7.47907032 -1.27032841 4.48351204 0 0 Z " fill="#A3C4B0" transform="translate(161,374)"/>
<path d="M0 0 C0.33 0.66 0.66 1.32 1 2 C1.66 2 2.32 2 3 2 C3.05399736 3.45792884 3.09279177 4.91642712 3.125 6.375 C3.14820312 7.18710938 3.17140625 7.99921875 3.1953125 8.8359375 C3 11 3 11 1 13 C0.1276588 10.00519083 -0.10829766 7.36424089 -0.0625 4.25 C-0.05347656 3.45078125 -0.04445313 2.6515625 -0.03515625 1.828125 C-0.02355469 1.22484375 -0.01195313 0.6215625 0 0 Z " fill="#9A2C31" transform="translate(92,145)"/>
<path d="M0 0 C0 0.66 0 1.32 0 2 C-0.66 2 -1.32 2 -2 2 C-2.2475 2.639375 -2.495 3.27875 -2.75 3.9375 C-4 6 -4 6 -6.125 6.75 C-7.053125 6.87375 -7.053125 6.87375 -8 7 C-8.33 6.01 -8.66 5.02 -9 4 C-2.25 0 -2.25 0 0 0 Z " fill="#91663D" transform="translate(70,138)"/>
<path d="M0 0 C-2.52788007 2.79872437 -4.20411134 4.45773019 -8 5 C-8 4.01 -8 3.02 -8 2 C-8.66 1.67 -9.32 1.34 -10 1 C-6.61981469 -0.04005702 -3.5219721 -0.08004482 0 0 Z " fill="#D98E4B" transform="translate(75,45)"/>
<path d="M0 0 C0.66 0.66 1.32 1.32 2 2 C1.625 4.625 1.625 4.625 1 7 C-0.875 6.6875 -0.875 6.6875 -3 6 C-3.66 5.01 -4.32 4.02 -5 3 C-4.360625 2.87625 -3.72125 2.7525 -3.0625 2.625 C-2.0415625 2.315625 -2.0415625 2.315625 -1 2 C-0.67 1.34 -0.34 0.68 0 0 Z " fill="#C85957" transform="translate(108,143)"/>
<path d="M0 0 C2.375 -0.1875 2.375 -0.1875 5 0 C5.66 0.99 6.32 1.98 7 3 C2.545 3.495 2.545 3.495 -2 4 C-2 3.34 -2 2.68 -2 2 C-1.34 2 -0.68 2 0 2 C0 1.34 0 0.68 0 0 Z " fill="#F8EBC2" transform="translate(96,125)"/>
<path d="M0 0 C2 1 2 1 3.125 4.25 C3.85463482 7.37700635 4.19234975 9.82622905 4 13 C2 12 2 12 0.875 8.75 C0.14536518 5.62299365 -0.19234975 3.17377095 0 0 Z " fill="#5E8A84" transform="translate(114,205)"/>
<path d="M0 0 C0.66 0 1.32 0 2 0 C1.38461538 7.50769231 1.38461538 7.50769231 -0.5625 10 C-1.036875 10.33 -1.51125 10.66 -2 11 C-2.25 3.375 -2.25 3.375 0 0 Z " fill="#79998A" transform="translate(120,185)"/>
<path d="M0 0 C2.33944736 0.28730055 4.6739143 0.61936779 7 1 C6.34 1.66 5.68 2.32 5 3 C4.01 3 3.02 3 2 3 C2.33 3.99 2.66 4.98 3 6 C2.01 6.495 2.01 6.495 1 7 C0.34 5.02 -0.32 3.04 -1 1 C-0.67 0.67 -0.34 0.34 0 0 Z " fill="#6C9795" transform="translate(79,178)"/>
<path d="M0 0 C0.66 0.66 1.32 1.32 2 2 C0.68 3.32 -0.64 4.64 -2 6 C-2.33 5.34 -2.66 4.68 -3 4 C-3.99 5.32 -4.98 6.64 -6 8 C-5.8125 5.6875 -5.8125 5.6875 -5 3 C-2.4375 1.1875 -2.4375 1.1875 0 0 Z " fill="#89B2A2" transform="translate(134,167)"/>
<path d="M0 0 C1.85486952 2.78230428 2.72462112 4.84363607 3.6875 8 C3.95949219 8.86625 4.23148437 9.7325 4.51171875 10.625 C5 13 5 13 4 16 C1.62526776 13.62526776 1.4828067 12.37628347 0.875 9.125 C0.70742187 8.26132813 0.53984375 7.39765625 0.3671875 6.5078125 C0 4 0 4 0 0 Z " fill="#636058" transform="translate(91,88)"/>
<path d="M0 0 C0 0.66 0 1.32 0 2 C-5.41538462 5.07692308 -5.41538462 5.07692308 -8.375 4.6875 C-8.91125 4.460625 -9.4475 4.23375 -10 4 C-4.5 0 -4.5 0 0 0 Z " fill="#E2BEA5" transform="translate(59,14)"/>
<path d="M0 0 C10.55808656 -0.55353075 10.55808656 -0.55353075 15 3 C11.92478317 4.53760842 9.65324882 3.36599236 6.375 2.5625 C5.18648438 2.27503906 3.99796875 1.98757812 2.7734375 1.69140625 C1.85820313 1.46324219 0.94296875 1.23507813 0 1 C0 0.67 0 0.34 0 0 Z " fill="#A54234" transform="translate(59,15)"/>
<path d="M0 0 C1.98 0.66 3.96 1.32 6 2 C6 2.66 6 3.32 6 4 C3.36 4.33 0.72 4.66 -2 5 C-1.34 3.35 -0.68 1.7 0 0 Z " fill="#6D8D80" transform="translate(106,188)"/>
<path d="M0 0 C3.8063457 0.67170806 7.35206816 1.72746564 11 3 C8.10765685 3.82638376 6.11257569 4 3 4 C2.34 4.66 1.68 5.32 1 6 C0.67 4.02 0.34 2.04 0 0 Z " fill="#7A8C7E" transform="translate(76,175)"/>
<path d="M0 0 C1.33454536 2.1980747 2.02787435 3.52613603 1.875 6.125 C1 8 1 8 -0.8125 9.3125 C-3.32299678 10.10151327 -4.55492066 9.87324262 -7 9 C-5.5459375 8.443125 -5.5459375 8.443125 -4.0625 7.875 C-0.68859031 6.28947638 -0.68859031 6.28947638 -0.125 2.8125 C-0.08375 1.884375 -0.0425 0.95625 0 0 Z " fill="#604B36" transform="translate(77,128)"/>
<path d="M0 0 C1.60332791 -0.08121924 3.20784026 -0.13929134 4.8125 -0.1875 C6.15248047 -0.23970703 6.15248047 -0.23970703 7.51953125 -0.29296875 C10.41647515 0.04918998 11.22555028 0.75393573 13 3 C11.39504433 2.88557539 9.79101881 2.75805306 8.1875 2.625 C7.29417969 2.55539063 6.40085937 2.48578125 5.48046875 2.4140625 C3 2 3 2 0 0 Z " fill="#BA7E49" transform="translate(52,168)"/>
<path d="M0 0 C0.33 0.66 0.66 1.32 1 2 C1.66 2.33 2.32 2.66 3 3 C1.12175109 4.87824891 -2.03935276 4.39102397 -4.5625 4.5625 C-5.76003906 4.64628906 -6.95757812 4.73007813 -8.19140625 4.81640625 C-9.11824219 4.87699219 -10.04507813 4.93757812 -11 5 C-8.09907498 3.06604999 -7.10325263 2.69868059 -3.8125 2.375 C-2.554375 2.25125 -1.29625 2.1275 0 2 C0 1.34 0 0.68 0 0 Z " fill="#DBB173" transform="translate(103,126)"/>
<path d="M0 0 C0 0.99 0 1.98 0 3 C0.99 3 1.98 3 3 3 C2.67 4.98 2.34 6.96 2 9 C1.67 8.34 1.34 7.68 1 7 C0.01 6.67 -0.98 6.34 -2 6 C-1.125 1.125 -1.125 1.125 0 0 Z " fill="#B47B58" transform="translate(46,20)"/>
<path d="M0 0 C1.67542976 0.28604898 3.34385343 0.61781233 5 1 C4.6875 2.9375 4.6875 2.9375 4 5 C3.01 5.33 2.02 5.66 1 6 C0.34 4.35 -0.32 2.7 -1 1 C-0.67 0.67 -0.34 0.34 0 0 Z " fill="#B43739" transform="translate(56,18)"/>
<path d="M0 0 C0.33 0 0.66 0 1 0 C2.97094808 4.92737019 3.1799928 8.78020872 3 14 C-0.16470185 9.25294723 -0.10927475 5.68228705 0 0 Z " fill="#65756B" transform="translate(157,285)"/>
<path d="M0 0 C0.66 0 1.32 0 2 0 C2.66 0.99 3.32 1.98 4 3 C3 6 3 6 1 8 C-0.35439668 5.29120665 -0.06501451 2.99066732 0 0 Z " fill="#C2E8CA" transform="translate(118,209)"/>
<path d="M0 0 C0.66 0.66 1.32 1.32 2 2 C1.625 4.125 1.625 4.125 1 6 C0.01 5.67 -0.98 5.34 -2 5 C-2.33 5.99 -2.66 6.98 -3 8 C-2.74438677 5.6568787 -2.40729228 3.32156597 -2 1 C-1.34 0.67 -0.68 0.34 0 0 Z " fill="#ADD3BC" transform="translate(122,213)"/>
<path d="M0 0 C0.33 0.99 0.66 1.98 1 3 C0 4 0 4 -2.5625 4.0625 C-3.7690625 4.0315625 -3.7690625 4.0315625 -5 4 C-5.33 3.01 -5.66 2.02 -6 1 C-4.02 0.67 -2.04 0.34 0 0 Z " fill="#D26B5C" transform="translate(107,142)"/>
<path d="M0 0 C2.10633718 1.70828921 2.93801608 2.52148416 3.29296875 5.26171875 C3.25816406 6.06222656 3.22335938 6.86273438 3.1875 7.6875 C3.16042969 8.49574219 3.13335937 9.30398437 3.10546875 10.13671875 C3.07066406 10.75160156 3.03585938 11.36648437 3 12 C0.7655402 7.96707255 0.45503257 4.55032566 0 0 Z " fill="#5C5044" transform="translate(74,116)"/>
<path d="M0 0 C0.66 0 1.32 0 2 0 C2.1875 2.875 2.1875 2.875 2 6 C1.01 6.66 0.02 7.32 -1 8 C-1.125 2.25 -1.125 2.25 0 0 Z " fill="#DB8443" transform="translate(45,27)"/>
<path d="M0 0 C2.59381229 3.89071844 2.63187808 6.36166385 3 11 C2.67 11.66 2.34 12.32 2 13 C1.34 12.67 0.68 12.34 0 12 C0 8.04 0 4.08 0 0 Z " fill="#85AE9C" transform="translate(142,304)"/>
<path d="M0 0 C0.66 1.32 1.32 2.64 2 4 C2.66 4 3.32 4 4 4 C4 5.65 4 7.3 4 9 C3.01 9.495 3.01 9.495 2 10 C1.34 6.7 0.68 3.4 0 0 Z " fill="#B8DBC6" transform="translate(127,247)"/>
<path d="M0 0 C0.99 0 1.98 0 3 0 C3.33 1.98 3.66 3.96 4 6 C1.525 5.01 1.525 5.01 -1 4 C-0.67 2.68 -0.34 1.36 0 0 Z " fill="#5F898A" transform="translate(109,192)"/>
<path d="M0 0 C2.64 0 5.28 0 8 0 C7.67 0.99 7.34 1.98 7 3 C6.01 3.33 5.02 3.66 4 4 C2.68 2.68 1.36 1.36 0 0 Z " fill="#E49263" transform="translate(101,167)"/>
<path d="M0 0 C0.33 0 0.66 0 1 0 C1.33 2.97 1.66 5.94 2 9 C1.01 9 0.02 9 -1 9 C-0.67 6.03 -0.34 3.06 0 0 Z " fill="#E6E0C9" transform="translate(81,53)"/>
<path d="M0 0 C0.66 0.33 1.32 0.66 2 1 C1 4 1 4 -2.0625 5.6875 C-3.031875 6.120625 -4.00125 6.55375 -5 7 C-3.70700306 4.11562221 -2.34058637 2.12780579 0 0 Z " fill="#A8B292" transform="translate(134,161)"/>
<path d="M0 0 C0.33 0.99 0.66 1.98 1 3 C2.32 2.01 3.64 1.02 5 0 C4.67 1.65 4.34 3.3 4 5 C2.35 5 0.7 5 -1 5 C-0.67 3.35 -0.34 1.7 0 0 Z " fill="#E1AA79" transform="translate(113,159)"/>
</svg>
