<?xml version="1.0" encoding="UTF-8"?>
<svg version="1.1" xmlns="http://www.w3.org/2000/svg" width="302" height="266">
<path d="M0 0 C6.78953383 5.77990328 10.47473804 18.00477661 14.1875 26 C14.94001016 27.60786759 15.69277944 29.21561393 16.44580078 30.82324219 C31.369912 62.77144861 31.369912 62.77144861 35.7265625 74.609375 C36.65602991 77.79381099 36.65602991 77.79381099 38 79 C37.98549828 81.78035751 37.8919049 84.5218661 37.74609375 87.296875 C37.69996445 88.21047791 37.65383514 89.12408081 37.60630798 90.06536865 C36.85086168 103.87123863 35.64202655 117.64874748 34.47094727 131.42431641 C34.12683098 135.47469557 33.79195449 139.52578239 33.45935917 143.57712173 C33.1985429 146.73808198 32.93202657 149.89854285 32.663908 153.0588913 C32.53799308 154.55289271 32.41399674 156.04705726 32.29207039 157.54138947 C30.56698923 178.59973613 30.56698923 178.59973613 26.32910156 182.38671875 C22.85346636 184.07101014 19.37775887 185.54480926 15.734375 186.8125 C15.03613617 187.06316727 14.33789734 187.31383453 13.61849976 187.57209778 C11.33207926 188.3903786 9.04156422 189.19624506 6.75 190 C4.32091677 190.85634521 1.89215856 191.71360528 -0.53646851 192.57124329 C-2.20276569 193.15949672 -3.8694573 193.74663402 -5.53652954 194.33268738 C-10.36179714 196.03666218 -15.1549486 197.80454176 -19.9263916 199.65383911 C-22.86782175 200.79179597 -25.81922969 201.90244389 -28.77185059 203.01098633 C-30.14041427 203.53254818 -31.50447212 204.06614422 -32.86291504 204.61352539 C-41.08001968 207.91526699 -48.3056138 209.33061834 -57.1340332 209.17431641 C-58.56932389 209.16115843 -58.56932389 209.16115843 -60.03361034 209.14773464 C-70.41771208 209.03137049 -80.79713413 208.72254223 -91.17578125 208.37890625 C-93.20785374 208.31383556 -95.23993296 208.248975 -97.27201843 208.18431091 C-101.48114699 208.04956642 -105.69018404 207.91232118 -109.89916992 207.77319336 C-115.27383075 207.59574072 -120.64867512 207.42474885 -126.02360249 207.25558567 C-130.19909587 207.1234614 -134.3744741 206.98794937 -138.54982567 206.85142326 C-140.53239789 206.78699894 -142.5150041 206.72361103 -144.49764442 206.66131783 C-147.26198276 206.57395933 -150.02613316 206.48201939 -152.7902832 206.38891602 C-153.59298141 206.36445908 -154.39567963 206.34000214 -155.22270203 206.31480408 C-160.5244642 206.12987597 -165.73307043 205.6384275 -171 205 C-172.87632046 191.07883176 -173.8719271 177.11499448 -174.80493164 163.10302734 C-175.05924679 159.2986656 -175.3230986 155.49505137 -175.58789062 151.69140625 C-176.01949578 145.41098562 -176.4027144 139.12876836 -176.76495361 132.84399414 C-176.96679866 129.54298112 -177.19896176 126.24672736 -177.44473743 122.94887161 C-177.67928675 119.67088244 -177.86455373 116.38997279 -178.05859375 113.109375 C-178.15753433 111.91024475 -178.25647491 110.7111145 -178.3584137 109.47564697 C-178.66049517 103.56690278 -178.62558385 99.93341204 -174.64453125 95.34863281 C-173.45080473 94.20986629 -172.23777177 93.0907306 -171 92 C-170.21753906 91.113125 -169.43507813 90.22625 -168.62890625 89.3125 C-164.50610859 84.69870753 -160.28347332 80.25048053 -155.87890625 75.90625 C-153.50867872 73.50152852 -151.32161791 70.9689709 -149.125 68.40625 C-147.38388528 66.43469363 -145.61454112 64.50894254 -143.8125 62.59375 C-143.23781982 61.98225098 -142.66313965 61.37075195 -142.07104492 60.74072266 C-140.9237319 59.52348454 -139.77300157 58.30945574 -138.6184082 57.09912109 C-132.31470252 50.40172883 -129.2792737 44.57167211 -127.25 35.625 C-126.91935547 34.23474609 -126.91935547 34.23474609 -126.58203125 32.81640625 C-126.04382561 30.54658245 -125.51684692 28.27476454 -125 26 C-124.12859375 25.97421875 -123.2571875 25.9484375 -122.359375 25.921875 C-120.57273437 25.83679687 -120.57273437 25.83679687 -118.75 25.75 C-117.00976562 25.68039063 -117.00976562 25.68039063 -115.234375 25.609375 C-111.80540019 25.26878007 -108.84504736 24.31920874 -105.60400391 23.16235352 C-98.86158893 20.87275986 -92.05608468 19.29330256 -85.1015625 17.79296875 C-83.7779703 17.50219179 -82.45451773 17.21077861 -81.13119507 16.91877747 C-77.66208982 16.15478111 -74.19142834 15.39812701 -70.72027588 14.64349365 C-65.25362039 13.45378865 -59.78938674 12.25299156 -54.32512665 11.05234146 C-52.29287228 10.60630492 -50.26024048 10.16201655 -48.2276001 9.71774292 C-41.29885252 8.19878404 -34.38389935 6.63353378 -27.48339844 4.99072266 C-26.79373426 4.82706491 -26.10407009 4.66340715 -25.393507 4.49479008 C-22.10482631 3.71349601 -18.81849633 2.92453754 -15.53457642 2.12333679 C-14.3686496 1.84456192 -13.20272278 1.56578705 -12.00146484 1.27856445 C-10.98369965 1.03104935 -9.96593445 0.78353424 -8.91732788 0.52851868 C-5.85922344 -0.02550383 -3.10092471 -0.18840987 0 0 Z " fill="#55978C" transform="translate(250,38)"/>
<path d="M0 0 C6.50091461 5.44889938 10.09718078 17.07750133 13.66088867 24.67529297 C14.81577269 27.13196167 15.98821524 29.57971208 17.16210938 32.02734375 C17.90732123 33.60366068 18.65149843 35.18046726 19.39453125 36.7578125 C19.74240189 37.48090607 20.09027252 38.20399963 20.44868469 38.94900513 C22.49327691 43.35258921 23.55455378 47.15908844 24 52 C13.74370604 51.06158774 3.73884194 49.89955414 -6.3359375 47.7265625 C-11.57783979 46.68712345 -16.8434145 46.05574611 -22.1484375 45.4296875 C-25 45 -25 45 -26 44 C-27.47396739 43.79231771 -28.9549126 43.63283983 -30.4375 43.5 C-34.78082192 43.10958904 -34.78082192 43.10958904 -37 42 C-36.51140068 47.41588257 -35.14443347 51.11501344 -32.4375 55.8125 C-29 61.82293763 -29 61.82293763 -29 64 C-27.98292969 64.12632813 -26.96585938 64.25265625 -25.91796875 64.3828125 C-22.2436328 64.96162115 -18.8713116 65.80859652 -15.3125 66.875 C-10.91152856 68.16558023 -6.5161338 69.40464682 -2.0625 70.5 C2.67156724 71.66914211 7.40321469 72.84470224 12.125 74.0625 C13.38570312 74.38347656 14.64640625 74.70445313 15.9453125 75.03515625 C19 76 19 76 21 78 C20.410979 77.90912109 19.82195801 77.81824219 19.21508789 77.72460938 C16.49856235 77.30950703 13.78059304 76.90470601 11.0625 76.5 C10.13630859 76.35691406 9.21011719 76.21382813 8.25585938 76.06640625 C3.07817058 75.30337843 -1.87297126 74.90857119 -7.10424805 75.00537109 C-11.23804289 74.99365912 -15.31196626 73.84401687 -19 72 C-18.67 72.99 -18.34 73.98 -18 75 C-18.495 74.67 -18.99 74.34 -19.5 74 C-23.0657405 72.5737038 -26.28029729 72.06648388 -30 73 C-36.0996451 77.70703206 -39.89468344 85.80683508 -42 93 C-42.33 92.34 -42.66 91.68 -43 91 C-44.56249809 92.31201173 -44.56249809 92.31201173 -46 94 C-46 94.99 -46 95.98 -46 97 C-46 97.99 -46 98.98 -46 100 C-49.465 100.99 -49.465 100.99 -53 102 C-53.103125 102.598125 -53.20625 103.19625 -53.3125 103.8125 C-54.10161794 106.32332981 -55.04744654 107.28175296 -57 109 C-57.66 109.66 -58.32 110.32 -59 111 C-58.67958603 113.60280568 -58.67958603 113.60280568 -58 116 C-62.625 119 -62.625 119 -66 119 C-66 120.65 -66 122.3 -66 124 C-66.598125 124.020625 -67.19625 124.04125 -67.8125 124.0625 C-70.38211829 124.87485626 -70.38211829 124.87485626 -71.5 128.25 C-71.73589844 128.88292969 -71.97179687 129.51585937 -72.21484375 130.16796875 C-73 132 -73 132 -75.0625 134.5625 C-77.21963859 137.27631952 -78.07439701 139.68325594 -79 143 C-80.32 142.67 -81.64 142.34 -83 142 C-84.83974098 146.54524241 -85.30463698 149.26444534 -84 154 C-82.29422025 157.04736583 -80.28442119 159.85223378 -78.25 162.6875 C-77.06996803 164.36955006 -75.89029134 166.05184941 -74.7109375 167.734375 C-74.10088867 168.59740234 -73.49083984 169.46042969 -72.86230469 170.34960938 C-69.81947565 174.680096 -66.85123414 179.06111002 -63.875 183.4375 C-62.8110693 184.99949785 -61.74604283 186.56075016 -60.6796875 188.12109375 C-60.23351074 188.7752124 -59.78733398 189.42933105 -59.32763672 190.10327148 C-57.92791811 192.10297981 -56.47459888 194.05503164 -55 196 C-55.33 196.66 -55.66 197.32 -56 198 C-57.64706939 196.06353897 -59.29295798 194.12610637 -60.9375 192.1875 C-61.43822021 191.59727051 -61.93894043 191.00704102 -62.45483398 190.39892578 C-65.53498314 186.75870504 -68.56649193 183.08511035 -71.5625 179.375 C-75.44219404 174.59838744 -79.53951756 170.06850568 -83.75 165.58203125 C-85.7462442 163.2912024 -87.16264115 161.10655559 -88.6875 158.5 C-92.53282571 153.33341981 -98.81255904 153.15002629 -104.79806519 152.26599121 C-111.56152351 151.44897317 -118.38392675 151.45185241 -125.1875 151.375 C-128.28527158 151.32608951 -131.38286975 151.26969786 -134.48046875 151.2109375 C-135.21562714 151.1981073 -135.95078552 151.1852771 -136.70822144 151.17205811 C-142.83112595 151.04744383 -148.90714748 150.62662536 -155 150 C-155.10441406 151.134375 -155.20882812 152.26875 -155.31640625 153.4375 C-155.91246057 158.19755421 -157.33471879 162.49530077 -158.9375 167 C-160.49108589 171.43017681 -161.99682299 175.79973474 -163.06640625 180.375 C-164 184 -164 184 -166 187 C-165.52028762 180.84369106 -164.66680314 174.82599693 -163.5546875 168.75390625 C-163.42016174 168.01224213 -163.28563599 167.270578 -163.14703369 166.50643921 C-162.58440877 163.4139806 -162.01918897 160.32224044 -161.43310547 157.23413086 C-159.73119644 148.22161931 -158.47423404 140.15947354 -160 131 C-160.15339844 129.72253906 -160.30679688 128.44507813 -160.46484375 127.12890625 C-160.69880859 125.36353516 -160.69880859 125.36353516 -160.9375 123.5625 C-162.16844325 114.06328973 -163.08180013 104.53364969 -164 95 C-164.94101563 95.50144531 -165.88203125 96.00289063 -166.8515625 96.51953125 C-170 98 -170 98 -172.375 97.6875 C-172.91125 97.460625 -173.4475 97.23375 -174 97 C-169.41467465 88.85634647 -162.48703391 82.42385537 -155.87890625 75.90625 C-153.50867872 73.50152852 -151.32161791 70.9689709 -149.125 68.40625 C-147.38388528 66.43469363 -145.61454112 64.50894254 -143.8125 62.59375 C-143.23781982 61.98225098 -142.66313965 61.37075195 -142.07104492 60.74072266 C-140.9237319 59.52348454 -139.77300157 58.30945574 -138.6184082 57.09912109 C-132.31470252 50.40172883 -129.2792737 44.57167211 -127.25 35.625 C-126.91935547 34.23474609 -126.91935547 34.23474609 -126.58203125 32.81640625 C-126.04382561 30.54658245 -125.51684692 28.27476454 -125 26 C-124.12859375 25.97421875 -123.2571875 25.9484375 -122.359375 25.921875 C-120.57273437 25.83679687 -120.57273437 25.83679687 -118.75 25.75 C-117.00976562 25.68039063 -117.00976562 25.68039063 -115.234375 25.609375 C-111.80540019 25.26878007 -108.84504736 24.31920874 -105.60400391 23.16235352 C-98.86158893 20.87275986 -92.05608468 19.29330256 -85.1015625 17.79296875 C-83.7779703 17.50219179 -82.45451773 17.21077861 -81.13119507 16.91877747 C-77.66208982 16.15478111 -74.19142834 15.39812701 -70.72027588 14.64349365 C-65.25362039 13.45378865 -59.78938674 12.25299156 -54.32512665 11.05234146 C-52.29287228 10.60630492 -50.26024048 10.16201655 -48.2276001 9.71774292 C-41.29885252 8.19878404 -34.38389935 6.63353378 -27.48339844 4.99072266 C-26.79373426 4.82706491 -26.10407009 4.66340715 -25.393507 4.49479008 C-22.10482631 3.71349601 -18.81849633 2.92453754 -15.53457642 2.12333679 C-14.3686496 1.84456192 -13.20272278 1.56578705 -12.00146484 1.27856445 C-10.98369965 1.03104935 -9.96593445 0.78353424 -8.91732788 0.52851868 C-5.85999492 -0.02536407 -3.10018035 -0.18564651 0 0 Z " fill="#8CC5AD" transform="translate(250,38)"/>
<path d="M0 0 C0.33 0.66 0.66 1.32 1 2 C1.556875 1.855625 2.11375 1.71125 2.6875 1.5625 C5.11387604 0.97230042 7.55038269 0.48342365 10 0 C10.12117188 0.79921875 10.24234375 1.5984375 10.3671875 2.421875 C11.20208892 7.89369047 12.05475615 13.358593 13 18.8125 C13.77970673 23.53440398 14.52309673 28.260477 15.1875 33 C15.36667969 34.2375 15.54585937 35.475 15.73046875 36.75 C16.69591249 47.13167109 14.3329726 57.64735765 12.5 67.8125 C12.0512341 70.3396931 11.60329061 72.8670324 11.15625 75.39453125 C10.95837891 76.49643799 10.76050781 77.59834473 10.55664062 78.73364258 C9.97471846 82.14835164 9.47537783 85.5689768 9 89 C9.16081055 88.43192627 9.32162109 87.86385254 9.48730469 87.27856445 C10.24004008 84.622783 10.99501732 81.96764343 11.75 79.3125 C12.00265625 78.41982422 12.2553125 77.52714844 12.515625 76.60742188 C14.57527715 69.37289369 16.76617017 62.1825228 19 55 C25.56162781 55.06776318 32.12269496 55.15785116 38.68383789 55.26245117 C40.90935573 55.29541823 43.13495152 55.32353492 45.3605957 55.34643555 C79.23678401 55.70430942 79.23678401 55.70430942 85.44921875 61.64453125 C86.18785156 62.68996094 86.92648438 63.73539063 87.6875 64.8125 C88.56336061 65.98567871 89.44103166 67.15750751 90.3203125 68.328125 C90.75504883 68.93333984 91.18978516 69.53855469 91.63769531 70.16210938 C93.94368346 73.27312707 96.51408826 76.14979789 99.0625 79.0625 C100.06268289 80.22789385 101.06139403 81.3945525 102.05859375 82.5625 C103.5257972 84.27868637 104.99439238 85.99349971 106.46923828 87.703125 C107.86075343 89.31767866 109.24372204 90.93918695 110.625 92.5625 C111.42164063 93.49191406 112.21828125 94.42132813 113.0390625 95.37890625 C114.92240951 97.89628841 115.89189421 100.08754495 117 103 C118.6459651 104.68711423 120.31237149 106.3545622 122 108 C123.3125 110.3125 123.3125 110.3125 124 112 C122.865625 111.979375 121.73125 111.95875 120.5625 111.9375 C117.18424326 111.58422523 117.18424326 111.58422523 116 113 C119.63 113 123.26 113 127 113 C127 113.33 127 113.66 127 114 C112.2603371 114.08711659 97.5553911 113.86665391 82.82421875 113.37890625 C80.79214626 113.31383556 78.76006704 113.248975 76.72798157 113.18431091 C72.51885301 113.04956642 68.30981596 112.91232118 64.10083008 112.77319336 C58.72616925 112.59574072 53.35132488 112.42474885 47.97639751 112.25558567 C43.80090413 112.1234614 39.6255259 111.98794937 35.45017433 111.85142326 C33.46760211 111.78699894 31.4849959 111.72361103 29.50235558 111.66131783 C26.73801724 111.57395933 23.97386684 111.48201939 21.2097168 111.38891602 C20.40701859 111.36445908 19.60432037 111.34000214 18.77729797 111.31480408 C13.4755358 111.12987597 8.26692957 110.6384275 3 110 C1.12367954 96.07883176 0.1280729 82.11499448 -0.80493164 68.10302734 C-1.05924679 64.2986656 -1.3230986 60.49505137 -1.58789062 56.69140625 C-2.10595009 49.13016862 -2.56478386 41.56641517 -3 34 C-3.08169348 32.64265509 -3.16346135 31.28531466 -3.24530029 29.92797852 C-3.48279725 25.92712004 -3.67905849 21.92517432 -3.87109375 17.921875 C-3.94489761 16.69760803 -4.01870148 15.47334106 -4.09474182 14.2119751 C-4.1426738 13.07564636 -4.19060577 11.93931763 -4.23999023 10.76855469 C-4.29050034 9.77233093 -4.34101044 8.77610718 -4.39305115 7.74969482 C-3.88866698 4.22114 -2.38880777 2.57469513 0 0 Z " fill="#408282" transform="translate(76,133)"/>
<path d="M0 0 C1.66434235 2.52992186 2.95980503 4.85034295 4.25 7.5625 C5.02223764 9.11192658 5.79704744 10.66007344 6.57421875 12.20703125 C6.96915527 13.00061035 7.3640918 13.79418945 7.77099609 14.61181641 C10.07558021 19.09005275 12.65853222 23.41933314 15.25683594 27.73266602 C18.87121432 33.9510471 18.87121432 33.9510471 18 38 C16.62721585 40.6897928 14.95935385 43.13926902 13.25 45.625 C12.23054625 47.15152665 11.21236158 48.67890143 10.1953125 50.20703125 C9.66583008 50.99674316 9.13634766 51.78645508 8.59082031 52.60009766 C6.03206206 56.46022559 3.58191205 60.3870841 1.125 64.3125 C-5.14112957 74.27917331 -11.55903168 84.14569477 -18 94 C-19.9375 93.6875 -19.9375 93.6875 -22 93 C-23.35287206 88.94138383 -23.43013249 84.96679819 -23.71875 80.71484375 C-23.83496737 78.03617684 -23.83496737 78.03617684 -25 76 C-25.33201709 72.97864452 -25.61824962 69.96545011 -25.875 66.9375 C-26.70677311 57.55421343 -27.78341176 48.21731305 -29.03466797 38.88061523 C-29.92569896 31.88596463 -30.15449446 25.04822473 -30 18 C-30.66 17.67 -31.32 17.34 -32 17 C-32.4140625 13.83984375 -32.4140625 13.83984375 -32.625 9.9375 C-32.69976562 8.64714844 -32.77453125 7.35679688 -32.8515625 6.02734375 C-32.90054688 5.02832031 -32.94953125 4.02929688 -33 3 C-29.1055108 2.40111207 -25.2094986 1.81350781 -21.31176758 1.23608398 C-19.33781479 0.94128068 -17.36518107 0.63768857 -15.39257812 0.33398438 C-14.14541016 0.15029297 -12.89824219 -0.03339844 -11.61328125 -0.22265625 C-10.46641846 -0.39547119 -9.31955566 -0.56828613 -8.13793945 -0.74633789 C-5.07978137 -0.9935507 -2.90140328 -0.98255328 0 0 Z " fill="#57A092" transform="translate(197,67)"/>
<path d="M0 0 C4.04286447 0.98825576 4.83550549 3.15696447 7.0222168 6.57397461 C10.52239745 12.66122456 13.49307769 19.00879804 16.47338867 25.36279297 C17.62827269 27.81946167 18.80071524 30.26721208 19.97460938 32.71484375 C20.71982123 34.29116068 21.46399843 35.86796726 22.20703125 37.4453125 C22.55490189 38.16840607 22.90277252 38.89149963 23.26118469 39.63650513 C25.30577691 44.04008921 26.36705378 47.84658844 26.8125 52.6875 C16.55620604 51.74908774 6.55134194 50.58705414 -3.5234375 48.4140625 C-8.76533979 47.37462345 -14.0309145 46.74324611 -19.3359375 46.1171875 C-22.1875 45.6875 -22.1875 45.6875 -23.1875 44.6875 C-24.66146739 44.47981771 -26.1424126 44.32033983 -27.625 44.1875 C-31.96832192 43.79708904 -31.96832192 43.79708904 -34.1875 42.6875 C-34.1875 43.6775 -34.1875 44.6675 -34.1875 45.6875 C-34.8475 45.6875 -35.5075 45.6875 -36.1875 45.6875 C-38.05812493 42.42581763 -39.90607576 39.15183978 -41.75 35.875 C-42.28302734 34.94623047 -42.81605469 34.01746094 -43.36523438 33.06054688 C-43.86474609 32.16787109 -44.36425781 31.27519531 -44.87890625 30.35546875 C-45.34498291 29.53328857 -45.81105957 28.7111084 -46.29125977 27.86401367 C-47.1875 25.6875 -47.1875 25.6875 -46.1875 22.6875 C-43.86049467 21.57911448 -41.58227624 20.61952801 -39.1875 19.6875 C-36.7309011 18.57588733 -34.27802902 17.45812509 -31.828125 16.33203125 C-30.45195848 15.70347916 -29.07565235 15.07523264 -27.69921875 14.44726562 C-25.55614274 13.46903363 -23.41390537 12.48913987 -21.27392578 11.50415039 C-19.19015631 10.54574925 -17.10324038 9.59452008 -15.015625 8.64453125 C-14.37498108 8.3477095 -13.73433716 8.05088776 -13.07427979 7.74507141 C-10.2486223 6.46602371 -8.32956913 5.6875 -5.1875 5.6875 C-5.1875 5.0275 -5.1875 4.3675 -5.1875 3.6875 C-7.4975 3.6875 -9.8075 3.6875 -12.1875 3.6875 C-12.1875 3.3575 -12.1875 3.0275 -12.1875 2.6875 C-8.14667913 1.68178458 -4.06965986 0.87776977 0 0 Z " fill="#77BF9C" transform="translate(247.1875,37.3125)"/>
<path d="M0 0 C0 0.66 0 1.32 0 2 C-0.69448242 2.30180176 -1.38896484 2.60360352 -2.10449219 2.91455078 C-5.32112868 4.31468976 -8.53556218 5.71982107 -11.75 7.125 C-12.84183594 7.599375 -13.93367188 8.07375 -15.05859375 8.5625 C-21.63544833 11.44230615 -28.07798772 14.48678213 -34.45019531 17.79638672 C-36.66195908 18.8404307 -38.61249029 19.52348057 -41 20 C-39.59300864 23.68001664 -37.95710629 27.14758306 -36.13671875 30.640625 C-35.57919922 31.71183594 -35.02167969 32.78304687 -34.44726562 33.88671875 C-33.86654297 34.99660156 -33.28582031 36.10648438 -32.6875 37.25 C-31.83381836 38.89162109 -31.83381836 38.89162109 -30.96289062 40.56640625 C-28.02536327 46.19863437 -25.04254055 51.78685675 -21.85864258 57.28417969 C-21 59 -21 59 -21 61 C-19.98292969 61.12632813 -18.96585937 61.25265625 -17.91796875 61.3828125 C-14.2436328 61.96162115 -10.8713116 62.80859652 -7.3125 63.875 C-2.91152856 65.16558023 1.4838662 66.40464682 5.9375 67.5 C10.67156724 68.66914211 15.40321469 69.84470224 20.125 71.0625 C21.38570313 71.38347656 22.64640625 71.70445313 23.9453125 72.03515625 C27 73 27 73 29 75 C28.410979 74.90912109 27.82195801 74.81824219 27.21508789 74.72460938 C24.49856235 74.30950703 21.78059304 73.90470601 19.0625 73.5 C18.13630859 73.35691406 17.21011719 73.21382813 16.25585938 73.06640625 C11.07817058 72.30337843 6.12702874 71.90857119 0.89575195 72.00537109 C-3.23804289 71.99365912 -7.31196626 70.84401687 -11 69 C-10.67 69.99 -10.34 70.98 -10 72 C-10.495 71.67 -10.99 71.34 -11.5 71 C-15.0657405 69.5737038 -18.28029729 69.06648388 -22 70 C-28.0996451 74.70703206 -31.89468344 82.80683508 -34 90 C-34.33 89.34 -34.66 88.68 -35 88 C-36.56249809 89.31201173 -36.56249809 89.31201173 -38 91 C-38 91.99 -38 92.98 -38 94 C-38 94.99 -38 95.98 -38 97 C-41.465 97.99 -41.465 97.99 -45 99 C-45.04125 99.5775 -45.0825 100.155 -45.125 100.75 C-46 103 -46 103 -48.75 104.75 C-52.32887628 107.22768358 -54.34687956 109.72595332 -56.875 113.25 C-57.2771875 113.80429688 -57.679375 114.35859375 -58.09375 114.9296875 C-59.0715348 116.27996175 -60.03708578 117.63908124 -61 119 C-61 115.37125817 -60.07145819 114.16383612 -58.140625 111.125 C-57.52501709 110.14861572 -56.90940918 109.17223145 -56.27514648 108.16625977 C-55.60684814 107.12139404 -54.9385498 106.07652832 -54.25 105 C-53.57203369 103.9287085 -52.89406738 102.85741699 -52.19555664 101.75366211 C-50.80447783 99.55654372 -49.41066557 97.36115366 -48.01416016 95.16748047 C-46.18135658 92.28520245 -44.35914061 89.39668306 -42.54296875 86.50390625 C-38.23952665 79.65524793 -38.23952665 79.65524793 -36.68359375 77.19140625 C-36.2541748 76.50449707 -35.82475586 75.81758789 -35.38232422 75.10986328 C-34.40093737 73.61195704 -33.36482425 72.14928249 -32.29345703 70.71435547 C-28.91608279 66.12248457 -28.91608279 66.12248457 -27.73046875 60.65234375 C-29.61336836 55.23538641 -32.39680553 50.48530662 -35.3125 45.5625 C-36.47704768 43.56484291 -37.63984387 41.56616362 -38.80078125 39.56640625 C-39.35072754 38.62168457 -39.90067383 37.67696289 -40.46728516 36.70361328 C-42.45501094 33.19738911 -44.24817052 29.62909861 -46 26 C-53.48378908 26.45868385 -60.78231046 27.17630498 -68.1484375 28.59765625 C-71.45864559 29.06471301 -74.66137994 29.06213313 -78 29 C-77.855625 29.92941406 -77.71125 30.85882813 -77.5625 31.81640625 C-77.376875 33.05261719 -77.19125 34.28882813 -77 35.5625 C-76.7215625 37.38974609 -76.7215625 37.38974609 -76.4375 39.25390625 C-75.32755855 48.75777992 -75.32755855 48.75777992 -77.0234375 51.890625 C-77.46945313 52.33921875 -77.91546875 52.7878125 -78.375 53.25 C-81.06345454 55.90747796 -81.06345454 55.90747796 -83 59 C-83.495 57.515 -83.495 57.515 -84 56 C-83.52949219 55.24332031 -83.05898437 54.48664063 -82.57421875 53.70703125 C-80.67094791 50.43416105 -80.68888138 48.43726467 -80.8125 44.6875 C-80.83957031 43.61886719 -80.86664063 42.55023438 -80.89453125 41.44921875 C-80.92933594 40.64097656 -80.96414062 39.83273438 -81 39 C-81.99 39 -82.98 39 -84 39 C-85.33981486 38.6937566 -86.67511887 38.36548445 -88 38 C-87.49396008 35.83125748 -87.00016187 34.00032373 -86 32 C-86.66 31.67 -87.32 31.34 -88 31 C-83.71146306 29.11304374 -79.47238653 27.41807378 -75 26 C-75 25.34 -75 24.68 -75 24 C-74.34 24 -73.68 24 -73 24 C-73 23.34 -73 22.68 -73 22 C-73.66 21.67 -74.32 21.34 -75 21 C-71.04 21 -67.08 21 -63 21 C-63 20.34 -63 19.68 -63 19 C-63.99 18.67 -64.98 18.34 -66 18 C-66 17.34 -66 16.68 -66 16 C-69.54518884 17.39759905 -69.54518884 17.39759905 -73 19 C-75.125 18.0625 -75.125 18.0625 -77 17 C-73.38856028 14.62394365 -70.2095714 13.35287281 -66.00732422 12.37426758 C-64.82194061 12.09420364 -63.63655701 11.81413971 -62.41525269 11.52558899 C-61.14126617 11.23483994 -59.86727966 10.94409088 -58.5546875 10.64453125 C-57.22045351 10.33535394 -55.8863181 10.02575091 -54.55227661 9.71574402 C-51.75785607 9.06864828 -48.96200476 8.42823716 -46.16503906 7.79223633 C-42.60814862 6.98266033 -39.05591535 6.15442039 -35.50462151 5.32068348 C-32.74905387 4.67642376 -29.99096509 4.04352888 -27.23205948 3.41373253 C-25.29258097 2.9685972 -23.35546239 2.51321861 -21.41842651 2.05757141 C-14.1553762 0.42555186 -7.44402961 -0.40611276 0 0 Z " fill="#DCEEC2" transform="translate(242,41)"/>
<path d="M0 0 C1.68814237 0.11600255 3.37550887 0.24331025 5.0625 0.375 C6.00222656 0.44460937 6.94195312 0.51421875 7.91015625 0.5859375 C11 1 11 1 14.29296875 1.94921875 C18.59286791 3.16805213 22.83119117 3.82049822 27.25 4.4375 C29.0157169 4.69337707 30.78133957 4.94990509 32.546875 5.20703125 C33.44470703 5.33674316 34.34253906 5.46645508 35.26757812 5.60009766 C39.6829174 6.2463026 44.09176743 6.93219194 48.5 7.625 C49.29438477 7.7480249 50.08876953 7.8710498 50.90722656 7.99780273 C54.31660955 8.53408106 57.66123495 9.12825252 61 10 C61.33 9.34 61.66 8.68 62 8 C63.44176565 11.16474116 64.87761654 14.33213326 66.3125 17.5 C66.71662109 18.386875 67.12074219 19.27375 67.53710938 20.1875 C69.39020848 24.28541022 71.17986845 28.37083854 72.73046875 32.59375 C73.65391086 35.79245555 73.65391086 35.79245555 75 37 C75.01665074 38.56423432 74.96308892 40.12935006 74.87890625 41.69140625 C74.83056641 42.63564453 74.78222656 43.57988281 74.73242188 44.55273438 C74.67634766 45.54595703 74.62027344 46.53917969 74.5625 47.5625 C74.51029297 48.55958984 74.45808594 49.55667969 74.40429688 50.58398438 C74.2741763 53.05627522 74.13919819 55.5282063 74 58 C73.67 58 73.34 58 73 58 C72.67 54.7 72.34 51.4 72 48 C68.08596759 52.82551942 64.68276997 57.36618307 62 63 C60.3125 64.875 60.3125 64.875 59 66 C59 61.5576804 59.66617086 60.48124772 62.02734375 56.8671875 C62.65447266 55.89652344 63.28160156 54.92585938 63.92773438 53.92578125 C64.92256836 52.41564453 64.92256836 52.41564453 65.9375 50.875 C67.23883263 48.87275409 68.53964063 46.87016707 69.83984375 44.8671875 C70.42113037 43.98144043 71.00241699 43.09569336 71.60131836 42.18310547 C73.00779495 40.07270321 73.00779495 40.07270321 74 38 C73.42636719 37.90203125 72.85273438 37.8040625 72.26171875 37.703125 C65.94550447 36.59131793 59.65672706 35.35313955 53.375 34.0625 C52.58826904 33.90491211 51.80153809 33.74732422 50.9909668 33.58496094 C46.20346783 32.5890414 41.64317293 31.28373576 37.02294922 29.68481445 C34.5031291 28.83179787 31.96260819 28.17696153 29.375 27.5625 C28.36566406 27.29824219 27.35632813 27.03398438 26.31640625 26.76171875 C22.94282845 25.92906203 22.94282845 25.92906203 19.21484375 25.51953125 C9.72271516 23.95176226 9.72271516 23.95176226 6.44287109 20.23583984 C2.84597816 14.96015143 -1.32559004 8.51365915 -0.71875 1.96484375 C-0.4815625 1.31644531 -0.244375 0.66804688 0 0 Z " fill="#438680" transform="translate(213,80)"/>
<path d="M0 0 C0.66 0.66 1.32 1.32 2 2 C2.99 1.67 3.98 1.34 5 1 C5.66 1.33 6.32 1.66 7 2 C7 2.66 7 3.32 7 4 C7.66 4.33 8.32 4.66 9 5 C9.921875 7.8359375 9.921875 7.8359375 10.75 11.375 C11.03359375 12.53773437 11.3171875 13.70046875 11.609375 14.8984375 C12 18 12 18 10 21 C9.32678716 18.75194998 8.66165877 16.50147776 8 14.25 C7.62875 12.99703125 7.2575 11.7440625 6.875 10.453125 C6 7 6 7 6 3 C4.70756532 4.1241176 3.41607925 5.24932592 2.125 6.375 C1.40570313 7.00148438 0.68640625 7.62796875 -0.0546875 8.2734375 C-1.4076598 9.47426834 -2.7208345 10.7208345 -4 12 C-4.0592611 13.98360247 -4.0592611 13.98360247 -3.6875 16.1875 C-3.57921875 16.98414062 -3.4709375 17.78078125 -3.359375 18.6015625 C-3.24078125 19.39304687 -3.1221875 20.18453125 -3 21 C-2.85304688 22.06347656 -2.85304688 22.06347656 -2.703125 23.1484375 C-2.47850691 24.76700902 -2.24071889 26.38374462 -2 28 C-2.495 26.515 -2.495 26.515 -3 25 C-9.32670347 27.72869272 -13.79676607 29.73913368 -17 36 C-18.5 34.6875 -18.5 34.6875 -20 33 C-20 32.01 -20 31.02 -20 30 C-24.71159953 33.42661784 -28.25036528 37.59518716 -32 42 C-32.33 42.33 -32.66 42.66 -33 43 C-33.63057022 50.15623874 -32.69312331 57.26919133 -31.78417969 64.3581543 C-30.97364758 70.80016609 -30.56472869 77.22378557 -30.24609375 83.70703125 C-30.04999424 86.33102949 -29.66007783 88.4841296 -29 91 C-28.87794671 93.67540816 -28.95532687 96.31961238 -29 99 C-27.80375 98.938125 -26.6075 98.87625 -25.375 98.8125 C-19.88139197 98.7952245 -14.8231231 100.04674909 -9.4921875 101.2734375 C-5.50232334 102.10354347 -1.60522537 102.46849593 2.453125 102.75 C4.89841069 102.99002804 7.11893868 103.47133995 9.5 104.0625 C17.26777251 105.58119911 26.25835726 107.27726075 34 105 C39.25141846 101.38876988 42.21347023 95.57305954 45 90 C45.66 90.33 46.32 90.66 47 91 C46.48308594 91.86882812 45.96617187 92.73765625 45.43359375 93.6328125 C44.7673591 94.79637725 44.10204267 95.96046809 43.4375 97.125 C42.77621094 98.26195312 42.11492187 99.39890625 41.43359375 100.5703125 C39.75810256 104.57870832 39.59210446 105.91966274 41 110 C42.72679301 113.03628725 44.71491527 115.85130905 46.75 118.6875 C47.93003197 120.36955006 49.10970866 122.05184941 50.2890625 123.734375 C50.89911133 124.59740234 51.50916016 125.46042969 52.13769531 126.34960938 C55.18052435 130.680096 58.14876586 135.06111002 61.125 139.4375 C62.1889307 140.99949785 63.25395717 142.56075016 64.3203125 144.12109375 C64.76648926 144.7752124 65.21266602 145.42933105 65.67236328 146.10327148 C67.07208189 148.10297981 68.52540112 150.05503164 70 152 C69.67 152.66 69.34 153.32 69 154 C67.35293061 152.06353897 65.70704202 150.12610637 64.0625 148.1875 C63.56177979 147.59727051 63.06105957 147.00704102 62.54516602 146.39892578 C59.46501686 142.75870504 56.43350807 139.08511035 53.4375 135.375 C49.55780596 130.59838744 45.46048244 126.06850568 41.25 121.58203125 C39.2537558 119.2912024 37.83735885 117.10655559 36.3125 114.5 C32.46717429 109.33341981 26.18744096 109.15002629 20.20193481 108.26599121 C13.43847649 107.44897317 6.61607325 107.45185241 -0.1875 107.375 C-3.28527158 107.32608951 -6.38286975 107.26969786 -9.48046875 107.2109375 C-10.21562714 107.1981073 -10.95078552 107.1852771 -11.70822144 107.17205811 C-17.83112595 107.04744383 -23.90714748 106.62662536 -30 106 C-30.10441406 107.134375 -30.20882812 108.26875 -30.31640625 109.4375 C-30.91246057 114.19755421 -32.33471879 118.49530077 -33.9375 123 C-35.49108589 127.43017681 -36.99682299 131.79973474 -38.06640625 136.375 C-39 140 -39 140 -41 143 C-40.52028762 136.84369106 -39.66680314 130.82599693 -38.5546875 124.75390625 C-38.42016174 124.01224213 -38.28563599 123.270578 -38.14703369 122.50643921 C-37.58440877 119.4139806 -37.01918897 116.32224044 -36.43310547 113.23413086 C-34.73119644 104.22161931 -33.47423404 96.15947354 -35 87 C-35.15339844 85.72253906 -35.30679688 84.44507813 -35.46484375 83.12890625 C-35.69880859 81.36353516 -35.69880859 81.36353516 -35.9375 79.5625 C-37.16844325 70.06328973 -38.08180013 60.53364969 -39 51 C-39.94101563 51.50144531 -40.88203125 52.00289062 -41.8515625 52.51953125 C-45 54 -45 54 -47.375 53.6875 C-47.91125 53.460625 -48.4475 53.23375 -49 53 C-44.41467465 44.85634647 -37.48703391 38.42385537 -30.87890625 31.90625 C-29.1136865 30.11534098 -27.45425244 28.27894877 -25.8125 26.375 C-18.0747361 17.41268172 -10.18489752 8.50787971 -1 1 C-0.67 0.67 -0.34 0.34 0 0 Z " fill="#DFF8CC" transform="translate(125,82)"/>
<path d="M0 0 C0.33 0.66 0.66 1.32 1 2 C1.556875 1.855625 2.11375 1.71125 2.6875 1.5625 C5.11387604 0.97230042 7.55038269 0.48342365 10 0 C10.12117188 0.79921875 10.24234375 1.5984375 10.3671875 2.421875 C11.20208892 7.89369047 12.05475615 13.358593 13 18.8125 C13.77970673 23.53440398 14.52309673 28.260477 15.1875 33 C15.36667969 34.2375 15.54585937 35.475 15.73046875 36.75 C16.69129037 47.07820529 14.34273686 57.51627207 12.5 67.625 C11.02909608 75.74438964 9.70312002 83.77715478 9 92 C8.5625 95.5625 8.5625 95.5625 8 98 C7.01 98.495 7.01 98.495 6 99 C6 96.69 6 94.38 6 92 C4.68 92 3.36 92 2 92 C1.93941406 91.22914063 1.87882812 90.45828125 1.81640625 89.6640625 C1.73261719 88.66117187 1.64882812 87.65828125 1.5625 86.625 C1.48128906 85.62726563 1.40007812 84.62953125 1.31640625 83.6015625 C1.15034374 81.02072387 1.15034374 81.02072387 0 79 C-0.28800106 75.99087899 -0.52279906 72.99592362 -0.71875 69.98046875 C-0.7815062 69.06195633 -0.84426239 68.14344391 -0.90892029 67.19709778 C-1.11176099 64.19425129 -1.30697188 61.19099255 -1.5 58.1875 C-1.56559113 57.17212158 -1.63118225 56.15674316 -1.69876099 55.1105957 C-2.09054636 49.00485597 -2.46763971 42.89834137 -2.83282471 36.79095459 C-2.93905409 35.01747855 -3.04646221 33.24407242 -3.15545654 31.47076416 C-3.45154659 26.64835199 -3.70897065 21.82609555 -3.9375 17 C-4.00710937 15.8349292 -4.07671875 14.6698584 -4.1484375 13.46948242 C-4.45771189 5.74523736 -4.45771189 5.74523736 -2.00390625 1.75 C-1.34261719 1.1725 -0.68132812 0.595 0 0 Z " fill="#70AE8F" transform="translate(76,133)"/>
<path d="M0 0 C0.66 0.66 1.32 1.32 2 2 C2.99 1.67 3.98 1.34 5 1 C5.66 1.33 6.32 1.66 7 2 C7 2.66 7 3.32 7 4 C7.66 4.33 8.32 4.66 9 5 C9.921875 7.8359375 9.921875 7.8359375 10.75 11.375 C11.03359375 12.53773437 11.3171875 13.70046875 11.609375 14.8984375 C12 18 12 18 10 21 C9.32678716 18.75194998 8.66165877 16.50147776 8 14.25 C7.62875 12.99703125 7.2575 11.7440625 6.875 10.453125 C6 7 6 7 6 3 C4.70756532 4.1241176 3.41607925 5.24932592 2.125 6.375 C1.40570313 7.00148438 0.68640625 7.62796875 -0.0546875 8.2734375 C-1.4076598 9.47426834 -2.7208345 10.7208345 -4 12 C-4.0592611 13.98360247 -4.0592611 13.98360247 -3.6875 16.1875 C-3.57921875 16.98414062 -3.4709375 17.78078125 -3.359375 18.6015625 C-3.24078125 19.39304687 -3.1221875 20.18453125 -3 21 C-2.85304688 22.06347656 -2.85304688 22.06347656 -2.703125 23.1484375 C-2.47850691 24.76700902 -2.24071889 26.38374462 -2 28 C-2.495 26.515 -2.495 26.515 -3 25 C-9.32670347 27.72869272 -13.79676607 29.73913368 -17 36 C-18.5 34.6875 -18.5 34.6875 -20 33 C-20 32.01 -20 31.02 -20 30 C-26.87743816 35.00177321 -32.40505612 40.49363263 -34 49 C-34.33 49 -34.66 49 -35 49 C-35.33 47.02 -35.66 45.04 -36 43 C-37.96756452 43.03122943 -37.96756452 43.03122943 -40 44 C-41.3045656 46.99615946 -41.3045656 46.99615946 -42 50 C-44.97 50.495 -44.97 50.495 -48 51 C-43.83487979 44.93082483 -39.03747451 39.91730864 -33.81176758 34.77832031 C-30.35954789 31.37772903 -27.07996324 27.91432724 -23.93359375 24.2265625 C-16.78495934 15.99480166 -9.4547965 7.91108365 -1 1 C-0.67 0.67 -0.34 0.34 0 0 Z " fill="#EAF8D0" transform="translate(125,82)"/>
<path d="M0 0 C0.99 0.495 0.99 0.495 2 1 C1.48308594 1.86882812 0.96617187 2.73765625 0.43359375 3.6328125 C-0.2326409 4.79637725 -0.89795733 5.96046809 -1.5625 7.125 C-2.22378906 8.26195312 -2.88507813 9.39890625 -3.56640625 10.5703125 C-5.24189744 14.57870832 -5.40789554 15.91966274 -4 20 C-2.27320699 23.03628725 -0.28508473 25.85130905 1.75 28.6875 C2.93003197 30.36955006 4.10970866 32.05184941 5.2890625 33.734375 C5.89911133 34.59740234 6.50916016 35.46042969 7.13769531 36.34960938 C10.18052435 40.680096 13.14876586 45.06111002 16.125 49.4375 C17.1889307 50.99949785 18.25395717 52.56075016 19.3203125 54.12109375 C19.76648926 54.7752124 20.21266602 55.42933105 20.67236328 56.10327148 C22.07208189 58.10297981 23.52540112 60.05503164 25 62 C24.505 62.99 24.505 62.99 24 64 C22.35293061 62.06353897 20.70704202 60.12610637 19.0625 58.1875 C18.56177979 57.59727051 18.06105957 57.00704102 17.54516602 56.39892578 C14.46501686 52.75870504 11.43350807 49.08511035 8.4375 45.375 C4.55780596 40.59838744 0.46048244 36.06850568 -3.75 31.58203125 C-5.7462442 29.2912024 -7.16264115 27.10655559 -8.6875 24.5 C-12.53374242 19.34289248 -18.77818352 19.1501403 -24.75924683 18.26922607 C-31.78421091 17.42517795 -38.87129126 17.41138282 -45.9375 17.3125 C-47.60354058 17.2792214 -49.26955724 17.24472262 -50.93554688 17.20898438 C-54.95689571 17.12531319 -58.97820174 17.05795283 -63 17 C-63 16.67 -63 16.34 -63 16 C-59.40968536 15.87917674 -55.81930936 15.76104634 -52.22875977 15.64746094 C-49.19106314 15.55099602 -46.15401574 15.44345558 -43.11694336 15.32910156 C-30.28678106 14.87249198 -30.28678106 14.87249198 -23.9296875 15.390625 C-16.2676981 16.3107605 -16.2676981 16.3107605 -9.27978516 13.76074219 C-5.21600442 9.75510382 -2.53762303 5.07524605 0 0 Z " fill="#D6F2C9" transform="translate(170,172)"/>
<path d="M0 0 C0 3.98279873 -1.50033467 4.94485349 -4 8 C-6.70034052 12.14764533 -8.60330429 16.22795633 -10 21 C-10.33 20.34 -10.66 19.68 -11 19 C-12.56249809 20.31201173 -12.56249809 20.31201173 -14 22 C-14 22.99 -14 23.98 -14 25 C-14 25.99 -14 26.98 -14 28 C-16.31 28.66 -18.62 29.32 -21 30 C-21.04125 30.5775 -21.0825 31.155 -21.125 31.75 C-22 34 -22 34 -24.75 35.75 C-28.32887628 38.22768358 -30.34687956 40.72595332 -32.875 44.25 C-33.47828125 45.08144531 -33.47828125 45.08144531 -34.09375 45.9296875 C-35.0715348 47.27996175 -36.03708578 48.63908124 -37 50 C-37 46.28986482 -35.94250707 44.95910869 -33.96484375 41.84375 C-33.31966797 40.82023437 -32.67449219 39.79671875 -32.00976562 38.7421875 C-30.98399414 37.13730469 -30.98399414 37.13730469 -29.9375 35.5 C-29.28072266 34.46101563 -28.62394531 33.42203125 -27.94726562 32.3515625 C-26.62819846 30.2670465 -25.30317801 28.18628554 -23.97216797 26.109375 C-22.64032763 24.0095584 -21.33250096 21.89434517 -20.04736328 19.765625 C-19.43489746 18.76015625 -18.82243164 17.7546875 -18.19140625 16.71875 C-17.64814697 15.81060547 -17.1048877 14.90246094 -16.54516602 13.96679688 C-16.03526123 13.31775391 -15.52535645 12.66871094 -15 12 C-14.01 12 -13.02 12 -12 12 C-11.34 10.35 -10.68 8.7 -10 7 C-9.34 7 -8.68 7 -8 7 C-7.67 7.66 -7.34 8.32 -7 9 C-4.69 6.03 -2.38 3.06 0 0 Z " fill="#DDF7C9" transform="translate(218,110)"/>
<path d="M0 0 C5.94626062 0.66520242 11.46017107 2.17366005 17.1875 3.875 C24.0663803 5.88985009 30.92053757 7.79771654 37.91796875 9.359375 C40 10 40 10 42 12 C41.410979 11.90912109 40.82195801 11.81824219 40.21508789 11.72460938 C37.49856235 11.30950703 34.78059304 10.90470601 32.0625 10.5 C30.67321289 10.28537109 30.67321289 10.28537109 29.25585938 10.06640625 C24.07817058 9.30337843 19.12702874 8.90857119 13.89575195 9.00537109 C9.76195711 8.99365912 5.68803374 7.84401687 2 6 C2.33 6.99 2.66 7.98 3 9 C2.505 8.67 2.01 8.34 1.5 8 C-2.09090894 6.56363642 -5.14456127 6.87148538 -9 7 C-9.33 6.01 -9.66 5.02 -10 4 C-7.36 4 -4.72 4 -2 4 C-1.34 2.68 -0.68 1.36 0 0 Z " fill="#C9ECC1" transform="translate(229,104)"/>
<path d="M0 0 C1.58206057 0.00667536 3.16410534 0.0186375 4.74609375 0.03515625 C5.55240234 0.03966797 6.35871094 0.04417969 7.18945312 0.04882812 C9.18753131 0.06065107 11.18557158 0.07858711 13.18359375 0.09765625 C13.18359375 0.42765625 13.18359375 0.75765625 13.18359375 1.09765625 C8.23359375 1.42765625 3.28359375 1.75765625 -1.81640625 2.09765625 C-1.48640625 4.26328125 -1.15640625 6.42890625 -0.81640625 8.66015625 C1.11999813 21.36780999 1.11999813 21.36780999 -0.83984375 24.98828125 C-1.28585938 25.436875 -1.731875 25.88546875 -2.19140625 26.34765625 C-4.87986079 29.00513421 -4.87986079 29.00513421 -6.81640625 32.09765625 C-7.14640625 31.10765625 -7.47640625 30.11765625 -7.81640625 29.09765625 C-7.34589844 28.34097656 -6.87539062 27.58429688 -6.390625 26.8046875 C-4.48735416 23.5318173 -4.50528763 21.53492092 -4.62890625 17.78515625 C-4.65597656 16.71652344 -4.68304688 15.64789063 -4.7109375 14.546875 C-4.74574219 13.73863281 -4.78054687 12.93039063 -4.81640625 12.09765625 C-5.80640625 12.09765625 -6.79640625 12.09765625 -7.81640625 12.09765625 C-9.15622111 11.79141285 -10.49152512 11.4631407 -11.81640625 11.09765625 C-11.31036633 8.92891373 -10.81656812 7.09797998 -9.81640625 5.09765625 C-10.47640625 4.76765625 -11.13640625 4.43765625 -11.81640625 4.09765625 C-10.68203125 3.62328125 -9.54765625 3.14890625 -8.37890625 2.66015625 C-2.4571019 0.06287364 -2.4571019 0.06287364 0 0 Z " fill="#CCEFD8" transform="translate(165.81640625,67.90234375)"/>
<path d="M0 0 C0.66 0.66 1.32 1.32 2 2 C2.99 1.67 3.98 1.34 5 1 C5.66 1.33 6.32 1.66 7 2 C7 2.66 7 3.32 7 4 C7.66 4.33 8.32 4.66 9 5 C9.921875 7.8359375 9.921875 7.8359375 10.75 11.375 C11.03359375 12.53773437 11.3171875 13.70046875 11.609375 14.8984375 C12 18 12 18 10 21 C9.32678716 18.75194998 8.66165877 16.50147776 8 14.25 C7.62875 12.99703125 7.2575 11.7440625 6.875 10.453125 C6 7 6 7 6 3 C1.55497442 6.74374727 -2.4610797 10.36279409 -6 15 C-7.64429829 16.68873879 -9.31384218 18.35305515 -11 20 C-12.27215781 21.26950748 -13.5429471 22.54038752 -14.8125 23.8125 C-15.875 24.875 -16.9375 25.9375 -18 27 C-18.33 26.01 -18.66 25.02 -19 24 C-18.34 24 -17.68 24 -17 24 C-17 23.01 -17 22.02 -17 21 C-16.01 21 -15.02 21 -14 21 C-13.97035156 19.99839844 -13.94070312 18.99679688 -13.91015625 17.96484375 C-13.18458253 12.88582773 -9.94934286 10.05954057 -6.4375 6.5625 C-5.82197266 5.92634766 -5.20644531 5.29019531 -4.57226562 4.63476562 C-3.06132924 3.0769785 -1.53240778 1.53667039 0 0 Z " fill="#E9F7D6" transform="translate(125,82)"/>
<path d="M0 0 C1.72357119 2.58535679 2.44735018 4.03811614 3.1875 6.9375 C3.45626953 7.94103516 3.45626953 7.94103516 3.73046875 8.96484375 C4.03268678 11.24680888 3.68756692 12.82026659 3 15 C3 14.01 3 13.02 3 12 C-3.32670347 14.72869272 -7.79676607 16.73913368 -11 23 C-12.68994811 21.5304799 -13.88123478 20.22505511 -14.9296875 18.23828125 C-15 16 -15 16 -12.76171875 13.30859375 C-11.74919548 12.33864702 -10.72378843 11.3820138 -9.6875 10.4375 C-5.51097706 6.52046124 -5.51097706 6.52046124 -2 2 C-1.34 2 -0.68 2 0 2 C0 1.34 0 0.68 0 0 Z " fill="#B5E5C5" transform="translate(119,95)"/>
<path d="M0 0 C1.65 5.61 3.3 11.22 5 17 C5.66 17 6.32 17 7 17 C8.6875 19.3125 8.6875 19.3125 10 22 C9.67 22.99 9.34 23.98 9 25 C7.68 25 6.36 25 5 25 C4.34 22.36 3.68 19.72 3 17 C2.01 17 1.02 17 0 17 C0 16.01 0 15.02 0 14 C-2.64 13.67 -5.28 13.34 -8 13 C-8.71749446 7.02087947 -8.71749446 7.02087947 -6.734375 4.19921875 C-2.60531026 0 -2.60531026 0 0 0 Z " fill="#87D5C7" transform="translate(131,85)"/>
<path d="M0 0 C6.3762103 1.04828634 9.55474566 6.98682366 13.10742188 11.93554688 C15.35100279 15.18783857 17.5581908 18.46276248 19.75 21.75 C21.24299639 23.97516946 22.73880023 26.19843613 24.234375 28.421875 C24.88631836 29.39737305 25.53826172 30.37287109 26.20996094 31.37792969 C27.75086707 33.63506714 29.33870131 35.83069028 31 38 C30.67 38.66 30.34 39.32 30 40 C23.91143032 32.84166293 17.86370021 25.66235634 11.97265625 18.33984375 C10.03887292 15.96612794 10.03887292 15.96612794 7.80859375 13.87890625 C5.50431112 11.48504028 5.04211732 9.12635197 4 6 C2.70529025 4.62913085 1.37849103 3.28659163 0 2 C0 1.34 0 0.68 0 0 Z " fill="#D4F2CF" transform="translate(164,196)"/>
<path d="M0 0 C1.78054736 2.67082104 2.83232044 5.04187844 4 8 C4.33 8.33 4.66 8.66 5 9 C5.01665074 10.56423432 4.96308892 12.12935006 4.87890625 13.69140625 C4.83056641 14.63564453 4.78222656 15.57988281 4.73242188 16.55273438 C4.67634766 17.54595703 4.62027344 18.53917969 4.5625 19.5625 C4.51029297 20.55958984 4.45808594 21.55667969 4.40429688 22.58398438 C4.2741763 25.05627522 4.13919819 27.5282063 4 30 C3.67 30 3.34 30 3 30 C2.505 25.05 2.505 25.05 2 20 C-1.91403241 24.82551942 -5.31723003 29.36618307 -8 35 C-9.6875 36.875 -9.6875 36.875 -11 38 C-11 33.5576804 -10.33382914 32.48124772 -7.97265625 28.8671875 C-7.34552734 27.89652344 -6.71839844 26.92585938 -6.07226562 25.92578125 C-5.07743164 24.41564453 -5.07743164 24.41564453 -4.0625 22.875 C-2.76116737 20.87275409 -1.46035937 18.87016707 -0.16015625 16.8671875 C0.42113037 15.98144043 1.00241699 15.09569336 1.60131836 14.18310547 C3.00779495 12.07270321 3.00779495 12.07270321 4 10 C2.93072266 9.81824219 2.93072266 9.81824219 1.83984375 9.6328125 C-3.55234841 8.68936031 -8.77235672 7.62637791 -14 6 C-14 5.67 -14 5.34 -14 5 C-12.52093108 4.97310784 -11.04172517 4.95365379 -9.5625 4.9375 C-8.73878906 4.92589844 -7.91507812 4.91429688 -7.06640625 4.90234375 C-5 5 -5 5 -4 6 C-1.7522025 3.94766315 -0.9977758 2.99332739 0 0 Z " fill="#337076" transform="translate(283,108)"/>
<path d="M0 0 C-1 3 -1 3 -4.1875 4.625 C-7.41184969 5.89741899 -10.55120353 6.57941506 -14 7 C-14.268125 8.175625 -14.53625 9.35125 -14.8125 10.5625 C-16.85615645 18.49916579 -19.45628713 23.10566134 -26 28 C-25.69964844 27.42121094 -25.39929688 26.84242187 -25.08984375 26.24609375 C-21.39244308 18.62600277 -19.79207197 10.22319551 -18 2 C-17.01257813 1.93941406 -16.02515625 1.87882812 -15.0078125 1.81640625 C-13.72648438 1.73261719 -12.44515625 1.64882813 -11.125 1.5625 C-9.84882813 1.48128906 -8.57265625 1.40007813 -7.2578125 1.31640625 C-4.53573738 1.05203205 -2.62506009 0 0 0 Z " fill="#8F8E7A" transform="translate(143,62)"/>
<path d="M0 0 C0.66 1.32 1.32 2.64 2 4 C1.52949219 4.60328125 1.05898437 5.2065625 0.57421875 5.828125 C-0.04839844 6.62734375 -0.67101562 7.4265625 -1.3125 8.25 C-1.92738281 9.03890625 -2.54226562 9.8278125 -3.17578125 10.640625 C-5.03068515 12.89731577 -5.03068515 12.89731577 -6.1875 15.26953125 C-8.66853426 17.63827732 -10.88473319 17.49261756 -14.20898438 17.50415039 C-15.02689453 17.48215576 -15.84480469 17.46016113 -16.6875 17.4375 C-17.52732422 17.4264624 -18.36714844 17.4154248 -19.23242188 17.40405273 C-28.29508433 17.16587613 -37.37819537 15.87393488 -46 13 C-46 12.34 -46 11.68 -46 11 C-41.81006189 10.04774134 -39.71215849 9.82390709 -36 12 C-35.01 12 -34.02 12 -33 12 C-32.67 12.66 -32.34 13.32 -32 14 C-28.95418731 14.46954261 -28.95418731 14.46954261 -25.4375 14.625 C-24.23996094 14.69976562 -23.04242188 14.77453125 -21.80859375 14.8515625 C-20.88175781 14.90054688 -19.95492187 14.94953125 -19 15 C-19 14.01 -19 13.02 -19 12 C-17.68 12 -16.36 12 -15 12 C-15 12.66 -15 13.32 -15 14 C-13.68 14 -12.36 14 -11 14 C-10.67 13.34 -10.34 12.68 -10 12 C-8.35636866 11.27840576 -6.68949614 10.60648579 -5 10 C-5 8.68 -5 7.36 -5 6 C-4.34 5.34 -3.68 4.68 -3 4 C-2.01 4.33 -1.02 4.66 0 5 C0 3.35 0 1.7 0 0 Z " fill="#83BD96" transform="translate(167,171)"/>
<path d="M0 0 C0.33 0 0.66 0 1 0 C1.09038099 5.15171623 0.84681133 9.91913204 0 15 C0.66 13.68 1.32 12.36 2 11 C2.33 11 2.66 11 3 11 C2.44315016 17.04972669 1.09450877 22.2889346 -0.9375 28 C-2.49108589 32.43017681 -3.99682299 36.79973474 -5.06640625 41.375 C-6 45 -6 45 -8 48 C-7.30650107 39.39194453 -5.89447724 30.95706555 -4.41601562 22.45678711 C-3.99682142 20.04420636 -3.58398133 17.6305974 -3.171875 15.21679688 C-2.90662126 13.67701933 -2.64100936 12.13730343 -2.375 10.59765625 C-2.25205566 9.87892838 -2.12911133 9.1602005 -2.00244141 8.41969299 C-1.49530542 5.5188533 -0.93301616 2.79904847 0 0 Z " fill="#CDEDC7" transform="translate(92,177)"/>
<path d="M0 0 C0.66 0 1.32 0 2 0 C2.33 1.65 2.66 3.3 3 5 C2.40445313 5.09410156 1.80890625 5.18820313 1.1953125 5.28515625 C-1.49172694 6.16011749 -2.38269297 7.24365267 -4.125 9.4375 C-5.70296618 11.39564974 -7.21849868 13.21849868 -9 15 C-9.74276031 16.97080157 -9.74276031 16.97080157 -10 19 C-9.67 19.66 -9.34 20.32 -9 21 C-9 22.99741663 -9.00228852 24.99492802 -9.02734375 26.9921875 C-8.99415832 29.42894645 -8.52218819 31.62114268 -8 34 C-7.7736378 35.55999012 -7.56683921 37.12288927 -7.375 38.6875 C-7.27960938 39.45449219 -7.18421875 40.22148437 -7.0859375 41.01171875 C-7 43 -7 43 -8 45 C-7.34 45.33 -6.68 45.66 -6 46 C-6.33 48.64 -6.66 51.28 -7 54 C-7.33 54 -7.66 54 -8 54 C-8.57935418 49.93026798 -9.14852599 45.85924352 -9.70898438 41.78686523 C-9.90031662 40.40660852 -10.09425177 39.02670968 -10.29101562 37.6472168 C-13.45159322 15.45060937 -13.45159322 15.45060937 -10.64453125 10.71166992 C-9.19998709 8.90622181 -7.8416348 7.39792486 -6 6 C-5.34 6 -4.68 6 -4 6 C-3.566875 5.071875 -3.566875 5.071875 -3.125 4.125 C-2 2 -2 2 0 0 Z " fill="#4F9082" transform="translate(103,112)"/>
<path d="M0 0 C-0.33 1.98 -0.66 3.96 -1 6 C-1.80824219 5.79503906 -2.61648437 5.59007812 -3.44921875 5.37890625 C-4.51785156 5.10949219 -5.58648437 4.84007812 -6.6875 4.5625 C-7.74324219 4.29566406 -8.79898438 4.02882812 -9.88671875 3.75390625 C-10.91410156 3.50511719 -11.94148438 3.25632813 -13 3 C-14.07507813 2.73896484 -14.07507813 2.73896484 -15.171875 2.47265625 C-18.89651782 1.8501676 -22.59677359 1.76624033 -26.36328125 1.68359375 C-27.55125557 1.6524221 -27.55125557 1.6524221 -28.76322937 1.62062073 C-31.27956928 1.55552196 -33.79600872 1.49642577 -36.3125 1.4375 C-38.02409861 1.394277 -39.73568735 1.35066152 -41.44726562 1.30664062 C-45.63140984 1.19988153 -49.81565362 1.09850365 -54 1 C-54 0.67 -54 0.34 -54 0 C-35.92049647 -0.78467287 -18.07968003 -1.16469693 0 0 Z " fill="#BBE0C4" transform="translate(161,188)"/>
<path d="M0 0 C6.1112924 1.0388092 12.07704464 2.15730278 18 4 C16.35821735 8.77609498 13.73453298 12.79382904 11 17 C9.9296875 13.25 9.9296875 13.25 10.5625 11 C11.13666014 8.37526794 10.36168444 7.24277438 9 5 C7.68 5 6.36 5 5 5 C5 4.34 5 3.68 5 3 C4.38125 3.20625 3.7625 3.4125 3.125 3.625 C2.42375 3.74875 1.7225 3.8725 1 4 C0.34 3.34 -0.32 2.68 -1 2 C-0.67 1.34 -0.34 0.68 0 0 Z M12 7 C13 9 13 9 13 9 Z " fill="#7CBD9D" transform="translate(269,114)"/>
<path d="M0 0 C0 0.99 0 1.98 0 3 C0.04125 4.010625 0.0825 5.02125 0.125 6.0625 C0 9 0 9 -2 11 C-2.39764263 12.98821313 -2.73775349 14.98944339 -3 17 C-3.33 17 -3.66 17 -4 17 C-4.33 15.02 -4.66 13.04 -5 11 C-6.96756452 11.03122943 -6.96756452 11.03122943 -9 12 C-10.3045656 14.99615946 -10.3045656 14.99615946 -11 18 C-12.98 18.33 -14.96 18.66 -17 19 C-12.13998705 11.84327206 -6.18597308 5.98784583 0 0 Z " fill="#D2EBC7" transform="translate(94,114)"/>
<path d="M0 0 C2.4375 0.75 2.4375 0.75 5 2 C5.8125 4.125 5.8125 4.125 6 6 C7.65 6.33 9.3 6.66 11 7 C10.979375 7.928125 10.95875 8.85625 10.9375 9.8125 C10.84230396 13.02286011 10.84230396 13.02286011 12 16 C12.99 16 13.98 16 15 16 C15 15.34 15 14.68 15 14 C15.66 14.33 16.32 14.66 17 15 C16.34 17.31 15.68 19.62 15 22 C10.86460595 18.14775005 7.77724826 14.03180437 4.6875 9.3125 C4.23310547 8.63638672 3.77871094 7.96027344 3.31054688 7.26367188 C0 2.26051457 0 2.26051457 0 0 Z " fill="#367678" transform="translate(180,212)"/>
<path d="M0 0 C20.295 0.495 20.295 0.495 41 1 C41 1.33 41 1.66 41 2 C28.79 2.33 16.58 2.66 4 3 C3.01 4.98 2.02 6.96 1 9 C0.34 8.67 -0.32 8.34 -1 8 C-0.67 5.36 -0.34 2.72 0 0 Z " fill="#2D7170" transform="translate(95,188)"/>
<path d="M0 0 C0.33 0.66 0.66 1.32 1 2 C1.556875 1.855625 2.11375 1.71125 2.6875 1.5625 C5.11387604 0.97230042 7.55038269 0.48342365 10 0 C11.38227951 8.32051741 12.4237919 16.58432901 13 25 C12.34 24.67 11.68 24.34 11 24 C10.57458167 21.19342076 10.24907781 18.44788188 10 15.625 C9.86186476 14.07481559 9.71631001 12.5252702 9.5625 10.9765625 C9.50191406 10.28643066 9.44132812 9.59629883 9.37890625 8.88525391 C9.05936855 6.67752187 9.05936855 6.67752187 7 4 C5.68428397 4.2547514 4.37239624 4.52934141 3.0625 4.8125 C2.33160156 4.96332031 1.60070312 5.11414063 0.84765625 5.26953125 C-0.06693359 5.63111328 -0.06693359 5.63111328 -1 6 C-1.33 6.99 -1.66 7.98 -2 9 C-1.125 1.125 -1.125 1.125 0 0 Z " fill="#9AC89C" transform="translate(76,133)"/>
<path d="M0 0 C2 3 2 3 1.625 5.1875 C1.41875 5.785625 1.2125 6.38375 1 7 C1 6.01 1 5.02 1 4 C-5.32670347 6.72869272 -9.79676607 8.73913368 -13 15 C-14.5625 13.75 -14.5625 13.75 -16 12 C-15.90801007 9.14831204 -15.01075158 8.01297605 -13.1875 5.8125 C-9.29024886 2.58334906 -5.90184221 3 -1 3 C-0.67 2.01 -0.34 1.02 0 0 Z " fill="#A5E2C7" transform="translate(121,103)"/>
<path d="M0 0 C0.66 0.33 1.32 0.66 2 1 C2 2.32 2 3.64 2 5 C3.134375 5.12375 4.26875 5.2475 5.4375 5.375 C6.613125 5.58125 7.78875 5.7875 9 6 C9.33 6.66 9.66 7.32 10 8 C8.02 8.66 6.04 9.32 4 10 C3.67 12.97 3.34 15.94 3 19 C1.17124596 16.25686894 0.27962972 14.22925051 -0.6875 11.125 C-1.09548828 9.86042969 -1.09548828 9.86042969 -1.51171875 8.5703125 C-2.05675573 5.70123781 -1.80225752 3.79088375 -1 1 C-0.67 0.67 -0.34 0.34 0 0 Z " fill="#6FC6B4" transform="translate(122,92)"/>
<path d="M0 0 C3.17515873 3.07732471 5.56769437 5.94654826 6.5 10.375 C5.76605566 14.22820779 3.69177663 17.16955609 1 20 C0.34 20 -0.32 20 -1 20 C-0.835 19.113125 -0.67 18.22625 -0.5 17.3125 C0.34061774 11.58209173 0.0781681 5.77575419 0 0 Z " fill="#5C9989" transform="translate(209,92)"/>
<path d="M0 0 C0.66 0.66 1.32 1.32 2 2 C2.99 1.67 3.98 1.34 5 1 C5.66 1.33 6.32 1.66 7 2 C7 2.66 7 3.32 7 4 C7.66 4.33 8.32 4.66 9 5 C9.921875 7.8359375 9.921875 7.8359375 10.75 11.375 C11.17539063 13.11910156 11.17539063 13.11910156 11.609375 14.8984375 C12 18 12 18 10 21 C9.32678716 18.75194998 8.66165877 16.50147776 8 14.25 C7.62875 12.99703125 7.2575 11.7440625 6.875 10.453125 C6 7 6 7 6 3 C3.36 5.31 0.72 7.62 -2 10 C-2.66 9.67 -3.32 9.34 -4 9 C-3.52418802 7.68628013 -3.04424851 6.37405454 -2.5625 5.0625 C-2.29566406 4.33160156 -2.02882813 3.60070312 -1.75390625 2.84765625 C-1 1 -1 1 0 0 Z " fill="#E6F8EA" transform="translate(125,82)"/>
<path d="M0 0 C2 2 2 2 2.125 4.625 C2.08375 5.40875 2.0425 6.1925 2 7 C1.36191406 6.91621094 0.72382813 6.83242188 0.06640625 6.74609375 C-0.75988281 6.64425781 -1.58617187 6.54242188 -2.4375 6.4375 C-3.26121094 6.33308594 -4.08492187 6.22867188 -4.93359375 6.12109375 C-5.61550781 6.08113281 -6.29742187 6.04117188 -7 6 C-7.33 6.33 -7.66 6.66 -8 7 C-9.66617115 7.04063832 -11.33388095 7.042721 -13 7 C-12.34 6.34 -11.68 5.68 -11 5 C-10.01 5 -9.02 5 -8 5 C-8 4.34 -8 3.68 -8 3 C-10.31 3 -12.62 3 -15 3 C-15 2.67 -15 2.34 -15 2 C-5.00312891 -0.48811014 -5.00312891 -0.48811014 0 0 Z " fill="#86C99E" transform="translate(250,38)"/>
<path d="M0 0 C0.33 0 0.66 0 1 0 C1.14781655 7.98209379 0.80086846 16.19623666 -1 24 C-1.66 24.33 -2.32 24.66 -3 25 C-3 22.69 -3 20.38 -3 18 C-4.32 18 -5.64 18 -7 18 C-7.3125 15.6875 -7.3125 15.6875 -7 13 C-5.7934375 12.38125 -5.7934375 12.38125 -4.5625 11.75 C-1.81733886 10.29492609 -1.81733886 10.29492609 -1.48046875 7.8515625 C-1.32905007 6.22445333 -1.21458781 4.59340231 -1.140625 2.9609375 C-1 1 -1 1 0 0 Z " fill="#5E9D8B" transform="translate(85,207)"/>
<path d="M0 0 C3.74926542 3.41000474 6.3298509 7.28016706 9.0625 11.5 C12.87336005 17.36022418 12.87336005 17.36022418 17 23 C16.67 23.66 16.34 24.32 16 25 C12.30654047 20.68877322 8.6403263 16.35617919 5 12 C4.30648437 11.17371094 3.61296875 10.34742188 2.8984375 9.49609375 C2.35445312 8.81675781 1.81046875 8.13742188 1.25 7.4375 C0.78078125 6.85871094 0.3115625 6.27992188 -0.171875 5.68359375 C-1 4 -1 4 -0.640625 1.78515625 C-0.42921875 1.19605469 -0.2178125 0.60695312 0 0 Z " fill="#BDE6CF" transform="translate(178,211)"/>
<path d="M0 0 C0.66 0.66 1.32 1.32 2 2 C1.01 2.495 1.01 2.495 0 3 C0.33 4.65 0.66 6.3 1 8 C-3.625 11 -3.625 11 -7 11 C-7 12.65 -7 14.3 -7 16 C-7.598125 16.12375 -8.19625 16.2475 -8.8125 16.375 C-11.26231348 16.95475985 -11.26231348 16.95475985 -14 19 C-12.57939484 14.47989267 -10.35457129 12.28002527 -7 9 C-4.60150001 6.04914836 -2.29310101 3.03323736 0 0 Z " fill="#99D3AE" transform="translate(191,146)"/>
<path d="M0 0 C0.66 0 1.32 0 2 0 C2 0.99 2 1.98 2 3 C2.66 3 3.32 3 4 3 C4 3.66 4 4.32 4 5 C5.98 4.67 7.96 4.34 10 4 C10 5.32 10 6.64 10 8 C7.36 8 4.72 8 2 8 C1.71125 8.94875 1.4225 9.8975 1.125 10.875 C0 14 0 14 -2 16 C-1.34 10.72 -0.68 5.44 0 0 Z " fill="#ECFCC6" transform="translate(93,178)"/>
<path d="M0 0 C0.33 1.32 0.66 2.64 1 4 C0.01 4.33 -0.98 4.66 -2 5 C-1.01 5.33 -0.02 5.66 1 6 C1.33 6.99 1.66 7.98 2 9 C0.59554165 11.2636564 -1.1967913 13.0208685 -3 15 C-3.33 14.01 -3.66 13.02 -4 12 C-5.70840281 13.63412443 -6.93453047 14.86906094 -8 17 C-8.66 17 -9.32 17 -10 17 C-8.51364884 12.78345644 -6.38750841 9.37521395 -3.875 5.6875 C-3.15054688 4.61886719 -2.42609375 3.55023438 -1.6796875 2.44921875 C-0.84824219 1.23685547 -0.84824219 1.23685547 0 0 Z " fill="#DCF6C7" transform="translate(214,105)"/>
<path d="M0 0 C0 0.99 0 1.98 0 3 C-0.45375 3.4125 -0.9075 3.825 -1.375 4.25 C-3.75529009 6.81338933 -4.18032075 9.65823073 -5 13 C-5.99 13 -6.98 13 -8 13 C-8 13.99 -8 14.98 -8 16 C-11 17 -11 17 -13 17 C-14.56266521 18.099763 -14.56266521 18.099763 -16.125 19.5 C-17.548125 20.7375 -17.548125 20.7375 -19 22 C-17.45872649 18.28731906 -15.19156766 16.01884302 -12.3125 13.25 C-7.97652067 9.0084179 -3.90986592 4.63487417 0 0 Z " fill="#929A84" transform="translate(116,90)"/>
<path d="M0 0 C0.99 0.33 1.98 0.66 3 1 C-1.44242974 5.82320943 -1.44242974 5.82320943 -4.5625 6.8125 C-7.97481388 8.47490932 -8.65957 10.82017963 -10.10546875 14.22265625 C-11 16 -11 16 -13 17 C-12.7293569 15.32201275 -12.37229359 13.65839874 -12 12 C-11.83886719 11.25234375 -11.67773438 10.5046875 -11.51171875 9.734375 C-10.86960961 7.29199667 -10.23014364 5.20896762 -9 3 C-5.4375 1.5 -5.4375 1.5 -2 1 C-1.34 0.67 -0.68 0.34 0 0 Z " fill="#A8A992" transform="translate(138,65)"/>
<path d="M0 0 C0.78761719 0.17144531 1.57523438 0.34289062 2.38671875 0.51953125 C4.3125 1.1875 4.3125 1.1875 5.3125 3.1875 C8.18432587 3.66368812 10.98370147 4.02917597 13.875 4.3125 C14.68130859 4.39886719 15.48761719 4.48523438 16.31835938 4.57421875 C18.31554064 4.78693628 20.31392737 4.98827855 22.3125 5.1875 C22.3125 5.5175 22.3125 5.8475 22.3125 6.1875 C11.84611729 6.72271275 1.28811562 5.51270521 -8.6875 2.1875 C-8.6875 1.5275 -8.6875 0.8675 -8.6875 0.1875 C-5.47293644 -0.84969328 -3.27824417 -0.75318337 0 0 Z " fill="#72AC8B" transform="translate(129.6875,181.8125)"/>
<path d="M0 0 C2.31 0.33 4.62 0.66 7 1 C6.01 2.1446875 6.01 2.1446875 5 3.3125 C2.70149462 5.84277939 2.70149462 5.84277939 3 9 C2.505 8.67 2.01 8.34 1.5 8 C-2.09090894 6.56363642 -5.14456127 6.87148538 -9 7 C-9.33 6.01 -9.66 5.02 -10 4 C-7.36 4 -4.72 4 -2 4 C-1.34 2.68 -0.68 1.36 0 0 Z " fill="#D9F3C3" transform="translate(229,104)"/>
<path d="M0 0 C0.33 0 0.66 0 1 0 C4.15967501 17.18073288 4.15967501 17.18073288 1.94921875 20.6484375 C0.70102314 22.15805461 -0.64748929 23.58308402 -2 25 C-2.66 25.99 -3.32 26.98 -4 28 C-4.33 27.01 -4.66 26.02 -5 25 C-4.00390625 23.30078125 -4.00390625 23.30078125 -2.5625 21.3125 C1.40472564 14.71506952 0.40952361 7.41692767 0 0 Z " fill="#C2EFD8" transform="translate(163,72)"/>
<path d="M0 0 C0.66 0 1.32 0 2 0 C2.67154933 1.28913487 3.33708859 2.58140204 4 3.875 C4.37125 4.59429687 4.7425 5.31359375 5.125 6.0546875 C6 8 6 8 6 10 C0.2190275 9.36934845 -5.3443706 8.34844868 -11 7 C-11 6.67 -11 6.34 -11 6 C-8.03 6.33 -5.06 6.66 -2 7 C-0.84188612 4.05270463 -0.84188612 4.05270463 -1 1 C-0.67 0.67 -0.34 0.34 0 0 Z " fill="#92DABB" transform="translate(268,80)"/>
<path d="M0 0 C0.99 0 1.98 0 3 0 C4.06546953 3.1964086 4.07427838 5.65747276 4 9 C4.66 8.34 5.32 7.68 6 7 C6.103125 7.78375 6.20625 8.5675 6.3125 9.375 C6.77595022 12.33045181 6.77595022 12.33045181 10 14 C7.03 14 4.06 14 1 14 C0.67 9.38 0.34 4.76 0 0 Z " fill="#6DAB8D" transform="translate(95,167)"/>
<path d="M0 0 C1.2065625 0.0309375 1.2065625 0.0309375 2.4375 0.0625 C-1.21582428 6.9934521 -5.08428798 13.63102529 -9.5625 20.0625 C-10.97823582 15.81529253 -9.32579613 13.6314976 -7.4375 9.75 C-7.14875 9.193125 -6.86 8.63625 -6.5625 8.0625 C-5.9025 8.0625 -5.2425 8.0625 -4.5625 8.0625 C-4.418125 6.928125 -4.27375 5.79375 -4.125 4.625 C-3.40786082 0.08311856 -3.40786082 0.08311856 0 0 Z " fill="#71AB8D" transform="translate(194.5625,131.9375)"/>
<path d="M0 0 C0.33 0 0.66 0 1 0 C0.58269589 5.04059443 0.03543994 9.33046131 -2 14 C-2.52028485 16.03677403 -2.98995233 18.07888836 -3.4375 20.1328125 C-4 22 -4 22 -6 25 C-5.37727768 17.5928819 -4.29512034 10.31805865 -3 3 C-2.34 3 -1.68 3 -1 3 C-0.67 2.01 -0.34 1.02 0 0 Z " fill="#C6ECD0" transform="translate(90,200)"/>
<path d="M0 0 C1.32 0.33 2.64 0.66 4 1 C3.01 1 2.02 1 1 1 C1.33 1.66 1.66 2.32 2 3 C4.52733235 3.65555119 4.52733235 3.65555119 7 4 C7 4.66 7 5.32 7 6 C6.34 6 5.68 6 5 6 C5 7.98 5 9.96 5 12 C3.02 12.99 3.02 12.99 1 14 C0.67 9.38 0.34 4.76 0 0 Z " fill="#68B8AC" transform="translate(164,70)"/>
<path d="M0 0 C0.99 4.29 1.98 8.58 3 13 C2.34 13 1.68 13 1 13 C1 12.01 1 11.02 1 10 C-0.32 9.67 -1.64 9.34 -3 9 C-3.12375 8.360625 -3.2475 7.72125 -3.375 7.0625 C-3.684375 6.0415625 -3.684375 6.0415625 -4 5 C-4.66 4.67 -5.32 4.34 -6 4 C-2.25 0 -2.25 0 0 0 Z " fill="#9FE2D4" transform="translate(131,85)"/>
<path d="M0 0 C1.2065625 0.0309375 1.2065625 0.0309375 2.4375 0.0625 C2.7675 3.0325 3.0975 6.0025 3.4375 9.0625 C0.81636292 9.0625 -1.07185112 8.74957555 -3.5625 8.0625 C-3.05646008 5.89375748 -2.56266187 4.06282373 -1.5625 2.0625 C-2.2225 1.7325 -2.8825 1.4025 -3.5625 1.0625 C-2.5625 0.0625 -2.5625 0.0625 0 0 Z " fill="#E1F6E4" transform="translate(157.5625,70.9375)"/>
<path d="M0 0 C1.0625 1.8125 1.0625 1.8125 2 4 C0.96806617 7.0958015 -0.15769019 8.20307716 -2.45703125 10.39453125 C-5.60539086 13.67041936 -8.26314213 17.37977591 -11 21 C-11 17.59538196 -10.36209242 16.60289807 -8.59375 13.76953125 C-8.09746094 12.96708984 -7.60117188 12.16464844 -7.08984375 11.33789062 C-6.56519531 10.50451172 -6.04054687 9.67113281 -5.5 8.8125 C-4.97535156 7.96751953 -4.45070312 7.12253906 -3.91015625 6.25195312 C-2.61267503 4.16418789 -1.30912197 2.0804784 0 0 Z " fill="#C8F0CA" transform="translate(192,139)"/>
<path d="M0 0 C0 3.98279873 -1.50033467 4.94485349 -4 8 C-6.70034052 12.14764533 -8.60330429 16.22795633 -10 21 C-10.33 20.34 -10.66 19.68 -11 19 C-11.99 19.33 -12.98 19.66 -14 20 C-12.42611782 14.869941 -9.23031385 11.25513685 -5.875 7.1875 C-5.31167969 6.49462891 -4.74835938 5.80175781 -4.16796875 5.08789062 C-2.784086 3.38735674 -1.39470449 1.69166006 0 0 Z " fill="#9CD1A1" transform="translate(218,110)"/>
<path d="M0 0 C1 3 1 3 -0.07421875 5.15625 C-0.60660156 5.9296875 -1.13898438 6.703125 -1.6875 7.5 C-2.20699219 8.2734375 -2.72648437 9.046875 -3.26171875 9.84375 C-4.99745295 11.99684051 -6.72163494 13.45130741 -9 15 C-7.61219205 11.10993227 -5.7847773 8.03441292 -3.375 4.6875 C-2.74335938 3.80449219 -2.11171875 2.92148438 -1.4609375 2.01171875 C-0.97882813 1.34785156 -0.49671875 0.68398437 0 0 Z M-10 15 C-9.67 15.99 -9.34 16.98 -9 18 C-10.40445835 20.2636564 -12.1967913 22.0208685 -14 24 C-14 20.00095031 -12.27413033 18.19799578 -10 15 Z " fill="#36767A" transform="translate(270,145)"/>
<path d="M0 0 C0.66 0 1.32 0 2 0 C2.33 1.65 2.66 3.3 3 5 C2.13375 5.0928125 2.13375 5.0928125 1.25 5.1875 C-1.25280694 5.86989878 -1.25280694 5.86989878 -3 8.5 C-5 11 -5 11 -7.25 11.8125 C-7.8275 11.874375 -8.405 11.93625 -9 12 C-8.75 10.125 -8.75 10.125 -8 8 C-6.67532254 7.3162955 -5.34136367 6.65035814 -4 6 C-2.8499169 4.03327085 -2.8499169 4.03327085 -2 2 C-1.34 1.34 -0.68 0.68 0 0 Z " fill="#5DA593" transform="translate(103,112)"/>
<path d="M0 0 C0.8125 1.625 0.8125 1.625 1 4 C-1.3125 7.25 -1.3125 7.25 -4 10 C-4.66 10 -5.32 10 -6 10 C-6.268125 10.78375 -6.53625 11.5675 -6.8125 12.375 C-8 15 -8 15 -11 17 C-11 16.01 -11 15.02 -11 14 C-10.34 14 -9.68 14 -9 14 C-9 12.02 -9 10.04 -9 8 C-7.35 8 -5.7 8 -4 8 C-3.896875 7.4225 -3.79375 6.845 -3.6875 6.25 C-2.90207202 3.67950842 -1.69495803 2.06342716 0 0 Z " fill="#37787D" transform="translate(252,172)"/>
<path d="M0 0 C0.66 0.33 1.32 0.66 2 1 C2 3.33333333 2 5.66666667 2 8 C-0.31 8.66 -2.62 9.32 -5 10 C-5.33 11.32 -5.66 12.64 -6 14 C-6.66 13.34 -7.32 12.68 -8 12 C-7.59007812 11.46890625 -7.18015625 10.9378125 -6.7578125 10.390625 C-6.21898437 9.68421875 -5.68015625 8.9778125 -5.125 8.25 C-4.59132812 7.55390625 -4.05765625 6.8578125 -3.5078125 6.140625 C-2.10761086 4.15277397 -1.02144735 2.20156614 0 0 Z " fill="#ACE0B6" transform="translate(202,130)"/>
<path d="M0 0 C1.32 0 2.64 0 4 0 C3.67 6.93 3.34 13.86 3 21 C2.67 21 2.34 21 2 21 C1.67 17.37 1.34 13.74 1 10 C0.01 9.67 -0.98 9.34 -2 9 C-0.35 6.36 1.3 3.72 3 1 C2.01 0.67 1.02 0.34 0 0 Z " fill="#3A6E6E" transform="translate(284,117)"/>
<path d="M0 0 C2.25028329 0.14139481 4.50022206 0.28828003 6.75 0.4375 C8.62945312 0.55931641 8.62945312 0.55931641 10.546875 0.68359375 C13.18317553 0.92515522 15.48037294 1.24283934 18 2 C18.33 3.65 18.66 5.3 19 7 C17.35 7 15.7 7 14 7 C14.66 6.67 15.32 6.34 16 6 C13.21433885 3.21433885 10.87039553 3.50759286 7 3 C4.6368615 2.40921538 2.33050743 1.71342064 0 1 C0 0.67 0 0.34 0 0 Z " fill="#93CA9A" transform="translate(244,112)"/>
<path d="M0 0 C0 0.66 0 1.32 0 2 C0.66 2.33 1.32 2.66 2 3 C0.04196493 3.05389087 -1.91648909 3.09274217 -3.875 3.125 C-4.96554688 3.14820312 -6.05609375 3.17140625 -7.1796875 3.1953125 C-10 3 -10 3 -12 1 C-8.00439392 -1.83022097 -4.57262677 -0.76210446 0 0 Z " fill="#E3FACB" transform="translate(242,107)"/>
<path d="M0 0 C2.30441554 3.45662331 2.25860135 4.94857881 2 9 C1.67 9.66 1.34 10.32 1 11 C-0.65 11 -2.3 11 -4 11 C-3.34 8.69 -2.68 6.38 -2 4 C-1.34 4 -0.68 4 0 4 C0 2.68 0 1.36 0 0 Z " fill="#B9EAD1" transform="translate(119,95)"/>
<path d="M0 0 C2.78992366 2.48740182 4.44594313 5.24218857 6.25 8.5 C6.79140625 9.4590625 7.3328125 10.418125 7.890625 11.40625 C9 14 9 14 8 17 C7.401875 16.030625 6.80375 15.06125 6.1875 14.0625 C4.28872491 10.76947958 4.28872491 10.76947958 1 10 C1.020625 9.0925 1.04125 8.185 1.0625 7.25 C1.0110245 4.57327412 0.7784983 2.53011948 0 0 Z " fill="#4A8A7F" transform="translate(197,70)"/>
<path d="M0 0 C0.33 0.99 0.66 1.98 1 3 C0 4 0 4 -2.5625 4.0625 C-3.7690625 4.0315625 -3.7690625 4.0315625 -5 4 C-5 3.34 -5 2.68 -5 2 C-8.54518884 3.39759905 -8.54518884 3.39759905 -12 5 C-14.125 4.0625 -14.125 4.0625 -16 3 C-10.92216681 0.07048085 -5.75857366 -0.1371089 0 0 Z " fill="#EEF8D2" transform="translate(181,55)"/>
<path d="M0 0 C1.32 0 2.64 0 4 0 C4 1.65 4 3.3 4 5 C4.99 5.33 5.98 5.66 7 6 C8.60769874 8.33116317 9.09530596 9.42816426 8.625 12.25 C8.41875 12.8275 8.2125 13.405 8 14 C5.66635648 11.07096942 3.95039164 8.11431797 2.3125 4.75 C1.65701172 3.41195312 1.65701172 3.41195312 0.98828125 2.046875 C0.66214844 1.37140625 0.33601562 0.6959375 0 0 Z " fill="#54967E" transform="translate(212,84)"/>
<path d="M0 0 C-1.28965176 1.37562854 -2.62689293 2.70766393 -4 4 C-4.66 4 -5.32 4 -6 4 C-5.67 4.99 -5.34 5.98 -5 7 C-5.66 7.66 -6.32 8.32 -7 9 C-8.5625 6.6875 -8.5625 6.6875 -10 4 C-9 1 -9 1 -6.6875 -0.25 C-3.90126985 -1.0275526 -2.66561622 -0.98726527 0 0 Z " fill="#6FB187" transform="translate(210,59)"/>
<path d="M0 0 C0.33 0 0.66 0 1 0 C1.28307925 7.24997422 0.50974035 13.90961228 -1 21 C-1.33 21 -1.66 21 -2 21 C-2.33 17.37 -2.66 13.74 -3 10 C-2.34 10 -1.68 10 -1 10 C-0.67 6.7 -0.34 3.4 0 0 Z " fill="#CFEEC1" transform="translate(93,153)"/>
<path d="M0 0 C3 3.75 3 3.75 3 6 C5.31 6.33 7.62 6.66 10 7 C10 7.33 10 7.66 10 8 C8.54207116 8.05399736 7.08357288 8.09279177 5.625 8.125 C4.81289062 8.14820312 4.00078125 8.17140625 3.1640625 8.1953125 C1 8 1 8 -1 6 C-1.66 6.66 -2.32 7.32 -3 8 C-3 6.68 -3 5.36 -3 4 C-2.34 3.67 -1.68 3.34 -1 3 C-0.67 2.01 -0.34 1.02 0 0 Z " fill="#DAF2C9" transform="translate(218,96)"/>
<path d="M0 0 C0 0.99 0 1.98 0 3 C-0.66 3.66 -1.32 4.32 -2 5 C-2.71408334 6.98356483 -3.38617742 8.98315437 -4 11 C-5.98 11.33 -7.96 11.66 -10 12 C-3.84965831 3.55353075 -3.84965831 3.55353075 0 0 Z " fill="#A0AD8E" transform="translate(87,121)"/>
<path d="M0 0 C1.485 0.99 1.485 0.99 3 2 C3 2.66 3 3.32 3 4 C3.66 4 4.32 4 5 4 C5.66 2.68 6.32 1.36 7 0 C8.32 0.66 9.64 1.32 11 2 C10.01 2.33 9.02 2.66 8 3 C8 3.66 8 4.32 8 5 C8.66 5.33 9.32 5.66 10 6 C2.25 5.125 2.25 5.125 0 4 C0 2.68 0 1.36 0 0 Z " fill="#347378" transform="translate(258,107)"/>
<path d="M0 0 C4.25209792 4.12324647 8.13635705 8.51282966 12 13 C11.01 13.495 11.01 13.495 10 14 C8 13 8 13 6.6875 10.75 C5.05721603 7.84208188 5.05721603 7.84208188 2.3125 5.375 C0 3 0 3 0 0 Z " fill="#387772" transform="translate(166,203)"/>
<path d="M0 0 C0.33 0.66 0.66 1.32 1 2 C3.02463255 2.65213292 3.02463255 2.65213292 5 3 C0.25 7.875 0.25 7.875 -2 9 C-2.6875 7.3125 -2.6875 7.3125 -3 5 C-1.5625 2.25 -1.5625 2.25 0 0 Z " fill="#DBEFCA" transform="translate(96,112)"/>
<path d="M0 0 C0.66 0.99 1.32 1.98 2 3 C0.63875 2.9690625 0.63875 2.9690625 -0.75 2.9375 C-3.81590438 2.85541504 -3.81590438 2.85541504 -5.9375 3.5625 C-9.06172646 4.2252147 -11.885931 3.53897348 -15 3 C-15 2.67 -15 2.34 -15 2 C-4.67407191 -0.57000877 -4.67407191 -0.57000877 0 0 Z " fill="#89A288" transform="translate(250,38)"/>
<path d="M0 0 C0.99 0 1.98 0 3 0 C5 5 7 10 9 15 C8.34 15 7.68 15 7 15 C5.82823482 12.87767021 4.66245215 10.75242209 3.5 8.625 C3.16613281 8.02171875 2.83226562 7.4184375 2.48828125 6.796875 C0 2.2265625 0 2.2265625 0 0 Z " fill="#67A785" transform="translate(204,68)"/>
<path d="M0 0 C3.79133356 0.54161908 5.66109564 1.99283725 8 5 C8.25 7.75 8.25 7.75 8 10 C7.34 10 6.68 10 6 10 C4.97388051 8.34928604 3.97691857 6.68029994 3 5 C2.443125 4.443125 1.88625 3.88625 1.3125 3.3125 C0.879375 2.879375 0.44625 2.44625 0 2 C0 1.34 0 0.68 0 0 Z " fill="#E9F8C9" transform="translate(164,196)"/>
<path d="M0 0 C0.33 0 0.66 0 1 0 C0.67 6.93 0.34 13.86 0 21 C-0.33 21 -0.66 21 -1 21 C-2.51708428 6.21867882 -2.51708428 6.21867882 0 0 Z " fill="#316D71" transform="translate(284,155)"/>
<path d="M0 0 C0.66 0 1.32 0 2 0 C3.6875 2.3125 3.6875 2.3125 5 5 C4.67 5.99 4.34 6.98 4 8 C2.68 8 1.36 8 0 8 C-0.38063221 5.6739143 -0.71269945 3.33944736 -1 1 C-0.67 0.67 -0.34 0.34 0 0 Z " fill="#B6E8CD" transform="translate(136,102)"/>
<path d="M0 0 C2.475 0.495 2.475 0.495 5 1 C5.33 3.31 5.66 5.62 6 8 C5.01 8 4.02 8 3 8 C0 2.25 0 2.25 0 0 Z " fill="#E3F8CA" transform="translate(200,69)"/>
<path d="M0 0 C2.95064148 -0.2208564 5.68368231 -0.28060989 8.625 -0.1875 C9.42679688 -0.17396484 10.22859375 -0.16042969 11.0546875 -0.14648438 C13.03674378 -0.11109051 15.01845551 -0.05728234 17 0 C17 0.33 17 0.66 17 1 C7.595 1.99 7.595 1.99 -2 3 C-1.34 2.01 -0.68 1.02 0 0 Z " fill="#DCF6DC" transform="translate(162,68)"/>
<path d="M0 0 C0.33 0.66 0.66 1.32 1 2 C0.04737966 3.48285242 -0.91228405 4.96118201 -1.875 6.4375 C-2.40867187 7.26121094 -2.94234375 8.08492187 -3.4921875 8.93359375 C-5 11 -5 11 -7 12 C-6.34 9.36 -5.68 6.72 -5 4 C-3.68 3.67 -2.36 3.34 -1 3 C-0.67 2.01 -0.34 1.02 0 0 Z " fill="#5BA291" transform="translate(263,153)"/>
<path d="M0 0 C2 3 2 3 1.625 5.6875 C1.41875 6.450625 1.2125 7.21375 1 8 C1.66 8.33 2.32 8.66 3 9 C2.67 11.64 2.34 14.28 2 17 C1.67 17 1.34 17 1 17 C0.63917123 14.35491639 0.28604648 11.70920453 -0.0625 9.0625 C-0.16626953 8.30775391 -0.27003906 7.55300781 -0.37695312 6.77539062 C-0.62665638 4.85525872 -0.81790281 2.92771856 -1 1 C-0.67 0.67 -0.34 0.34 0 0 Z " fill="#5A9A83" transform="translate(94,149)"/>
<path d="M0 0 C4.29 0.33 8.58 0.66 13 1 C13 2.32 13 3.64 13 5 C12.505 4.67 12.01 4.34 11.5 4 C7.90909106 2.56363642 4.85543873 2.87148538 1 3 C0.67 2.01 0.34 1.02 0 0 Z " fill="#A0D59D" transform="translate(219,108)"/>
<path d="M0 0 C2.8290723 2.8290723 3.37611108 3.38144425 4 7 C3.34 7 2.68 7 2 7 C2 8.65 2 10.3 2 12 C1.01 12.495 1.01 12.495 0 13 C0 8.71 0 4.42 0 0 Z " fill="#54937F" transform="translate(209,92)"/>
<path d="M0 0 C0 0.66 0 1.32 0 2 C-3.37097383 3.49821059 -5.20442119 4 -9 4 C-9 3.01 -9 2.02 -9 1 C-5.8035914 -0.06546953 -3.34252724 -0.07427838 0 0 Z " fill="#489B93" transform="translate(174,70)"/>
<path d="M0 0 C2.475 0.99 2.475 0.99 5 2 C5.33 4.31 5.66 6.62 6 9 C0.42857143 3.85714286 0.42857143 3.85714286 0 0 Z " fill="#48867A" transform="translate(174,203)"/>
<path d="M0 0 C0.33 0 0.66 0 1 0 C0.8858134 1.93816735 0.75826577 3.87555099 0.625 5.8125 C0.55539063 6.89144531 0.48578125 7.97039062 0.4140625 9.08203125 C0 12 0 12 -2 15 C-2 11.04 -2 7.08 -2 3 C-1.34 3 -0.68 3 0 3 C0 2.01 0 1.02 0 0 Z " fill="#609C86" transform="translate(88,191)"/>
<path d="M0 0 C3.36338044 3.36338044 4 6.28835716 4 11 C3.34 11 2.68 11 2 11 C1.67 11.66 1.34 12.32 1 13 C0.67 8.71 0.34 4.42 0 0 Z " fill="#5BAA99" transform="translate(167,93)"/>
<path d="M0 0 C0.33 0 0.66 0 1 0 C1.9375 3.125 1.9375 3.125 2 7 C-0.02546791 9.4443474 -2.38465465 11.2194781 -5 13 C-4.70351562 12.43796875 -4.40703125 11.8759375 -4.1015625 11.296875 C-2.99056497 8.98032695 -2.16535294 6.69290908 -1.375 4.25 C-1.11460938 3.45078125 -0.85421875 2.6515625 -0.5859375 1.828125 C-0.39257812 1.22484375 -0.19921875 0.6215625 0 0 Z " fill="#5F6356" transform="translate(122,77)"/>
<path d="M0 0 C-3.96 1.98 -3.96 1.98 -8 4 C-8.99 3.34 -9.98 2.68 -11 2 C-10.34 2 -9.68 2 -9 2 C-9 1.34 -9 0.68 -9 0 C-5.32431536 -0.91892116 -3.83619425 -0.95904856 0 0 Z " fill="#B1B6A0" transform="translate(169,57)"/>
<path d="M0 0 C0.66 0.33 1.32 0.66 2 1 C0.02 4.63 -1.96 8.26 -4 12 C-4.66 11.01 -5.32 10.02 -6 9 C-4.02 6.03 -2.04 3.06 0 0 Z " fill="#CBEECC" transform="translate(170,172)"/>
<path d="M0 0 C1.32 0.33 2.64 0.66 4 1 C3.67 3.97 3.34 6.94 3 10 C0.70366176 6.55549263 0.45983515 4.06187717 0 0 Z " fill="#57A99A" transform="translate(122,101)"/>
<path d="M0 0 C-2.87164566 2.70272533 -4.30991841 3.94791837 -8.3125 4.25 C-9.199375 4.1675 -10.08625 4.085 -11 4 C-7.35237315 0.18657193 -5.28949249 -0.11498897 0 0 Z " fill="#6EB387" transform="translate(223,53)"/>
<path d="M0 0 C0.66 0.66 1.32 1.32 2 2 C-3.445 3.485 -3.445 3.485 -9 5 C-8.67 4.01 -8.34 3.02 -8 2 C-6.22265625 1.19921875 -6.22265625 1.19921875 -4.0625 0.6875 C-3.35222656 0.50574219 -2.64195312 0.32398438 -1.91015625 0.13671875 C-0.96462891 0.06904297 -0.96462891 0.06904297 0 0 Z " fill="#346D75" transform="translate(216,240)"/>
<path d="M0 0 C1.65 0.33 3.3 0.66 5 1 C4.67 1.99 4.34 2.98 4 4 C3.67 3.67 3.34 3.34 3 3 C2.01 4.485 2.01 4.485 1 6 C0.34 6 -0.32 6 -1 6 C-0.67 4.02 -0.34 2.04 0 0 Z " fill="#347679" transform="translate(87,218)"/>
<path d="M0 0 C0.66 0.66 1.32 1.32 2 2 C-0.46153846 5.81538462 -0.46153846 5.81538462 -3.1875 6.75 C-3.785625 6.8325 -4.38375 6.915 -5 7 C-4.60196439 4.11424181 -4.20990931 3.17810487 -1.9375 1.25 C-1.298125 0.8375 -0.65875 0.425 0 0 Z " fill="#599E8D" transform="translate(99,117)"/>
<path d="M0 0 C0.66 0.33 1.32 0.66 2 1 C2 1.66 2 2.32 2 3 C1.01 3.33 0.02 3.66 -1 4 C-2.68711423 5.6459651 -4.3545622 7.31237149 -6 9 C-6.99 9.495 -6.99 9.495 -8 10 C-6.34908222 5.70761377 -3.26245434 3.1206085 0 0 Z " fill="#F3F3E3" transform="translate(137,69)"/>
<path d="M0 0 C0.33 2.64 0.66 5.28 1 8 C-1.53731364 6.73134318 -1.78646846 5.50290879 -3 3 C-3.66 2.34 -4.32 1.68 -5 1 C-3 0 -3 0 0 0 Z " fill="#A6D4A5" transform="translate(86,133)"/>
<path d="M0 0 C0 2.33333333 0 4.66666667 0 7 C-1.98 7 -3.96 7 -6 7 C-4.02 4.69 -2.04 2.38 0 0 Z " fill="#B1BA9D" transform="translate(94,114)"/>
<path d="M0 0 C4.19469571 0.59924224 8.00999834 1.57499941 12 3 C8.61725734 4.12758089 7.23221777 3.81750262 3.8125 3.0625 C2.91144531 2.86785156 2.01039063 2.67320313 1.08203125 2.47265625 C0.39496094 2.31667969 -0.29210937 2.16070312 -1 2 C-0.67 1.34 -0.34 0.68 0 0 Z " fill="#B4E5C4" transform="translate(259,112)"/>
<path d="M0 0 C0.66 0 1.32 0 2 0 C2.66 2.97 3.32 5.94 4 9 C2.62437146 7.71034824 1.29233607 6.37310707 0 5 C0 4.34 0 3.68 0 3 C-0.66 2.67 -1.32 2.34 -2 2 C-1.34 1.34 -0.68 0.68 0 0 Z " fill="#B6E9DC" transform="translate(129,85)"/>
<path d="M0 0 C0.33 0 0.66 0 1 0 C1 3.3 1 6.6 1 10 C0.34 10 -0.32 10 -1 10 C-1.33 10.66 -1.66 11.32 -2 12 C-1.85831863 10.56208484 -1.71148957 9.1246763 -1.5625 7.6875 C-1.48128906 6.88699219 -1.40007812 6.08648437 -1.31640625 5.26171875 C-1 3 -1 3 0 0 Z " fill="#696C5F" transform="translate(125,64)"/>
<path d="M0 0 C-0.66 1.65 -1.32 3.3 -2 5 C-2.66 4.67 -3.32 4.34 -4 4 C-4 3.34 -4 2.68 -4 2 C-5.65 2.33 -7.3 2.66 -9 3 C-9 2.34 -9 1.68 -9 1 C-5.846632 0.29925156 -3.27275026 0 0 0 Z " fill="#3D847B" transform="translate(196,66)"/>
<path d="M0 0 C0.99 0 1.98 0 3 0 C3.33 1.32 3.66 2.64 4 4 C2.68 4.33 1.36 4.66 0 5 C-0.33 4.01 -0.66 3.02 -1 2 C-0.67 1.34 -0.34 0.68 0 0 Z M-3 4 C-2.67 4.66 -2.34 5.32 -2 6 C-2.66 5.67 -3.32 5.34 -4 5 C-3.67 4.67 -3.34 4.34 -3 4 Z " fill="#F3F6DF" transform="translate(143,62)"/>
<path d="M0 0 C0.99 0.33 1.98 0.66 3 1 C2.64950425 4.24208567 2.43778819 5.61527704 -0.0625 7.8125 C-0.701875 8.204375 -1.34125 8.59625 -2 9 C-2 8.01 -2 7.02 -2 6 C-1.34 6 -0.68 6 0 6 C0 4.02 0 2.04 0 0 Z " fill="#428685" transform="translate(243,180)"/>
<path d="M0 0 C0.99 0.33 1.98 0.66 3 1 C2.21625 1.763125 1.4325 2.52625 0.625 3.3125 C-2.07257717 5.90891805 -2.07257717 5.90891805 -4 9 C-3.46930939 5.17902761 -2.50298434 2.93828597 0 0 Z " fill="#C6C7B2" transform="translate(132,71)"/>
<path d="M0 0 C-0.33 0.99 -0.66 1.98 -1 3 C-5.62 3 -10.24 3 -15 3 C-15 2.67 -15 2.34 -15 2 C-14.22914063 1.93941406 -13.45828125 1.87882812 -12.6640625 1.81640625 C-11.15972656 1.69072266 -11.15972656 1.69072266 -9.625 1.5625 C-8.62726563 1.48128906 -7.62953125 1.40007813 -6.6015625 1.31640625 C-4.12756995 1.01551526 -2.44698344 0 0 0 Z " fill="#717568" transform="translate(143,62)"/>
<path d="M0 0 C3.24299151 2.38957269 5.50902342 4.2047869 7 8 C5.1875 7.8125 5.1875 7.8125 3 7 C0 2.82142857 0 2.82142857 0 0 Z " fill="#33726F" transform="translate(159,195)"/>
<path d="M0 0 C0.66 0 1.32 0 2 0 C1.50168276 3.68754757 0.89932357 5.60490662 -2 8 C-3 5 -3 5 -1.6875 2.3125 C-1.130625 1.549375 -0.57375 0.78625 0 0 Z " fill="#DBF6CD" transform="translate(91,196)"/>
<path d="M0 0 C0.99 0.33 1.98 0.66 3 1 C1.68775452 4.93673644 0.08089673 7.22719294 -3 10 C-2.01 6.7 -1.02 3.4 0 0 Z " fill="#72B491" transform="translate(175,160)"/>
<path d="M0 0 C-6 4 -6 4 -8.1875 3.625 C-8.785625 3.41875 -9.38375 3.2125 -10 3 C-9 1 -9 1 -7.25 0.375 C-4.79549443 -0.03408426 -2.4840589 -0.06900164 0 0 Z " fill="#DBF6C8" transform="translate(86,132)"/>
<path d="M0 0 C1 3 1 3 0 6 C-0.99 6.33 -1.98 6.66 -3 7 C-3.1875 4.625 -3.1875 4.625 -3 2 C-2.01 1.34 -1.02 0.68 0 0 Z " fill="#4C8D87" transform="translate(81,218)"/>
<path d="M0 0 C0.33 1.32 0.66 2.64 1 4 C0.01 4.33 -0.98 4.66 -2 5 C-2.73323796 7.01508358 -2.73323796 7.01508358 -3 9 C-3.66 9 -4.32 9 -5 9 C-3.7508258 5.54074837 -2.32472205 2.85306797 0 0 Z " fill="#CEEFC9" transform="translate(214,105)"/>
<path d="M0 0 C0 0.66 0 1.32 0 2 C-3.50776784 3.60355101 -6.14354879 4.22036864 -10 4 C-7.02096266 1.02096266 -4.19714671 0 0 0 Z " fill="#7CBA8C" transform="translate(229,49)"/>
<path d="M0 0 C0.99 0 1.98 0 3 0 C2.34 1.98 1.68 3.96 1 6 C0.01 6 -0.98 6 -2 6 C-1.34 4.02 -0.68 2.04 0 0 Z " fill="#86C5A9" transform="translate(176,164)"/>
<path d="M0 0 C0.99 1.32 1.98 2.64 3 4 C2.38125 4.28875 1.7625 4.5775 1.125 4.875 C-1.13325765 5.93720042 -1.13325765 5.93720042 -3 8 C-3 6.68 -3 5.36 -3 4 C-2.34 3.67 -1.68 3.34 -1 3 C-0.67 2.01 -0.34 1.02 0 0 Z " fill="#C9EAC3" transform="translate(218,96)"/>
<path d="M0 0 C2 0 2 0 3.4375 1.375 C3.953125 1.91125 4.46875 2.4475 5 3 C5.99 3.66 6.98 4.32 8 5 C5.36 5 2.72 5 0 5 C0 3.35 0 1.7 0 0 Z " fill="#78D2C3" transform="translate(123,93)"/>
<path d="M0 0 C1.32 0.66 2.64 1.32 4 2 C-0.455 3.485 -0.455 3.485 -5 5 C-4.67 4.01 -4.34 3.02 -4 2 C-2.68 2 -1.36 2 0 2 C0 1.34 0 0.68 0 0 Z " fill="#D8F6C7" transform="translate(231,44)"/>
</svg>
