<?xml version="1.0" encoding="UTF-8"?>
<svg version="1.1" xmlns="http://www.w3.org/2000/svg" width="238" height="222">
<path d="M0 0 C1.25570801 0.13954102 2.51141602 0.27908203 3.80517578 0.42285156 C46.23819745 5.23819745 46.23819745 5.23819745 56 15 C56.6713148 19.48063596 56.93665933 23.64704763 54.3125 27.4375 C52 29 52 29 49.515625 30.21484375 C45.40196814 33.13400708 44.771467 36.93358598 43.453125 41.63671875 C42.76317051 46.75784651 44.50319413 49.67690857 47 54 C48.41455316 58.95093606 48.06204237 63.2867603 46 68 C43.9756731 70.99721236 41.57133077 73.46586751 39 76 C37.82244141 77.19302734 37.82244141 77.19302734 36.62109375 78.41015625 C31.38679757 83.45723468 26.41567317 86.99921256 20.0625 90.4375 C15.17258521 93.12075499 12.17347707 95.26648011 10.375 100.75 C10.14039063 101.67554687 9.90578125 102.60109375 9.6640625 103.5546875 C8.68742107 107.15102593 6.90992356 108.75142271 4 111 C3.47019531 111.41636719 2.94039062 111.83273438 2.39453125 112.26171875 C-8.43253351 119.94916559 -23.19334159 121.08335725 -36 123 C-36.59293721 137.82343022 -35.01000001 149.19183372 -27 162 C-26.65694824 162.57717773 -26.31389648 163.15435547 -25.96044922 163.74902344 C-17.5394049 177.86382176 -8.96905017 182.68042558 6.4375 187.80078125 C10 189 10 189 12 190 C12.25 192.3125 12.25 192.3125 12 195 C8.48415896 198.58217766 3.60475723 199.63344943 -1.0625 201.0625 C-1.85849609 201.31837891 -2.65449219 201.57425781 -3.47460938 201.83789062 C-13.50054885 204.96546918 -23.17758183 206.31026078 -33.66796875 206.30078125 C-34.74645584 206.30506638 -35.82494293 206.3093515 -36.93611145 206.31376648 C-39.20422672 206.31947255 -41.47236027 206.32003777 -43.74047852 206.31567383 C-47.16129749 206.31252413 -50.58124126 206.33598587 -54.00195312 206.36132812 C-66.03568509 206.39667141 -77.29740728 205.9422097 -89 203 C-89.90177979 202.77997314 -90.80355957 202.55994629 -91.73266602 202.33325195 C-93.90303243 201.7711764 -96.04359273 201.15478941 -98.1875 200.5 C-99.23260742 200.20029297 -99.23260742 200.20029297 -100.29882812 199.89453125 C-104.21748824 198.72600392 -107.70434022 197.45273142 -111 195 C-111.3125 192.3125 -111.3125 192.3125 -111 190 C-106.42811682 187.93176713 -101.81430268 186.24296074 -97.0625 184.625 C-86.24877305 180.9250823 -86.24877305 180.9250823 -79.4375 172.3125 C-79.0559375 171.44109375 -78.674375 170.5696875 -78.28125 169.671875 C-76.92826944 166.85041553 -75.31521921 164.56082132 -73.4375 162.0625 C-66.735094 152.80471045 -64.82176511 142.9293263 -64.875 131.75 C-64.87113281 130.92242187 -64.86726563 130.09484375 -64.86328125 129.2421875 C-64.47758929 125.30690311 -64.47758929 125.30690311 -66 122 C-67.97415009 121.66815678 -69.94953144 121.34228766 -71.92993164 121.05004883 C-84.41218807 119.19921001 -95.47853462 117.15245553 -104 107 C-105.75056239 103.81207489 -107 100.70108411 -107 97 C-107.69609375 96.73316406 -108.3921875 96.46632813 -109.109375 96.19140625 C-125.28896785 89.52279028 -134.2935388 80.29496637 -142 65 C-143.03330559 61.90008323 -143.07501853 59.90742984 -142.9921875 56.66796875 C-142.97542969 55.62189453 -142.95867187 54.57582031 -142.94140625 53.49804688 C-142.89736695 51.30255828 -142.84536783 49.10721398 -142.78515625 46.91210938 C-142.61910587 39.00438807 -142.61910587 39.00438807 -146 32 C-148.13946923 30.15595079 -148.13946923 30.15595079 -150.5625 28.8125 C-153.67016457 26.96014821 -154.940064 26.08990401 -157 23 C-157.33035235 18.47671392 -156.6357342 14.92283996 -154.0625 11.1875 C-143.93719282 3.95513773 -130.99178515 2.73031002 -119 1 C-117.94264648 0.84611816 -116.88529297 0.69223633 -115.79589844 0.53369141 C-78.11900907 -4.61722829 -37.76193266 -4.2617119 0 0 Z " fill="#E5A156" transform="translate(167,7)"/>
<path d="M0 0 C58.72205438 1.72205438 58.72205438 1.72205438 73 16 C73.6713148 20.48063596 73.93665933 24.64704763 71.3125 28.4375 C69 30 69 30 66.515625 31.21484375 C62.40196814 34.13400708 61.771467 37.93358598 60.453125 42.63671875 C59.76317051 47.75784651 61.50319413 50.67690857 64 55 C65.41455316 59.95093606 65.06204237 64.2867603 63 69 C60.9756731 71.99721236 58.57133077 74.46586751 56 77 C54.82244141 78.19302734 54.82244141 78.19302734 53.62109375 79.41015625 C48.38679757 84.45723468 43.41567317 87.99921256 37.0625 91.4375 C32.17258521 94.12075499 29.17347707 96.26648011 27.375 101.75 C27.14039063 102.67554687 26.90578125 103.60109375 26.6640625 104.5546875 C25.68742107 108.15102593 23.90992356 109.75142271 21 112 C20.47019531 112.41636719 19.94039062 112.83273438 19.39453125 113.26171875 C8.56746649 120.94916559 -6.19334159 122.08335725 -19 124 C-19.59293721 138.82343022 -18.01000001 150.19183372 -10 163 C-9.65694824 163.57717773 -9.31389648 164.15435547 -8.96044922 164.74902344 C-0.5394049 178.86382176 8.03094983 183.68042558 23.4375 188.80078125 C27 190 27 190 29 191 C29.25 193.3125 29.25 193.3125 29 196 C25.48415896 199.58217766 20.60475723 200.63344943 15.9375 202.0625 C15.14150391 202.31837891 14.34550781 202.57425781 13.52539062 202.83789062 C3.49945115 205.96546918 -6.17758183 207.31026078 -16.66796875 207.30078125 C-17.74645584 207.30506638 -18.82494293 207.3093515 -19.93611145 207.31376648 C-22.20422672 207.31947255 -24.47236027 207.32003777 -26.74047852 207.31567383 C-30.16129749 207.31252413 -33.58124126 207.33598587 -37.00195312 207.36132812 C-49.03568509 207.39667141 -60.29740728 206.9422097 -72 204 C-72.90177979 203.77997314 -73.80355957 203.55994629 -74.73266602 203.33325195 C-76.90303243 202.7711764 -79.04359273 202.15478941 -81.1875 201.5 C-82.23260742 201.20029297 -82.23260742 201.20029297 -83.29882812 200.89453125 C-87.21748824 199.72600392 -90.70434022 198.45273142 -94 196 C-94.3125 193.3125 -94.3125 193.3125 -94 191 C-93.505 192.98 -93.505 192.98 -93 195 C-92.195625 194.7525 -91.39125 194.505 -90.5625 194.25 C-86.9963607 193.99974461 -86.21441255 194.15276627 -83.1875 195.625 C-58.06527896 207.44236056 -29.36315862 204.59078966 -3 198 C-7.95 198 -12.9 198 -18 198 C-22 189.25 -22 189.25 -22 187 C-22.98097656 186.96261719 -23.96195312 186.92523438 -24.97265625 186.88671875 C-50.54677101 185.71845539 -50.54677101 185.71845539 -57 180 C-51 181 -51 181 -48.5 181.53125 C-43.53553972 182.19613307 -38.62706939 182.10445284 -33.625 182.0625 C-32.60277344 182.05798828 -31.58054687 182.05347656 -30.52734375 182.04882812 C-28.01816806 182.037103 -25.5091151 182.02069176 -23 182 C-23.52604677 177.98239008 -24.33180401 174.9635068 -26.3125 171.4375 C-31.7214208 161.07432131 -34.19901653 150.23940632 -34.0625 138.625 C-34.05798828 137.88894531 -34.05347656 137.15289062 -34.04882812 136.39453125 C-34.03715142 134.59631842 -34.01922011 132.79814803 -34 131 C-36.64 130.67 -39.28 130.34 -42 130 C-42 127.36 -42 124.72 -42 122 C-41.19892822 121.96559814 -40.39785645 121.93119629 -39.57250977 121.89575195 C-35.90098806 121.72475538 -32.23219438 121.51890889 -28.5625 121.3125 C-26.67241211 121.23225586 -26.67241211 121.23225586 -24.74414062 121.15039062 C-17.35777384 120.70682291 -10.79467943 119.99742182 -5 115 C-4.505 113.515 -4.505 113.515 -4 112 C-4.33 111.34 -4.66 110.68 -5 110 C-8.74875162 108.75041613 -12.25829638 108.84420902 -16.1640625 108.82421875 C-17.84937988 108.80408802 -19.5346828 108.78271697 -21.2199707 108.76025391 C-22.10302887 108.74907532 -22.98608704 108.73789673 -23.89590454 108.72637939 C-40.5419922 108.48923496 -56.70370118 107.72329619 -73 104 C-74.01239746 103.77022461 -75.02479492 103.54044922 -76.06787109 103.30371094 C-77.07027832 103.0565332 -78.07268555 102.80935547 -79.10546875 102.5546875 C-80.47481567 102.21800049 -80.47481567 102.21800049 -81.87182617 101.87451172 C-82.57412354 101.58592285 -83.2764209 101.29733398 -84 101 C-84.33 100.01 -84.66 99.02 -85 98 C-83.59814453 98.18175781 -83.59814453 98.18175781 -82.16796875 98.3671875 C-78.55577576 98.83185941 -74.9407081 99.27101126 -71.32519531 99.70898438 C-69.16922312 99.97882046 -67.01876773 100.27560726 -64.8671875 100.578125 C-54.36377127 101.96417785 -43.89223514 102.21399173 -33.3125 102.25 C-32.62374786 102.25517639 -31.93499573 102.26035278 -31.22537231 102.26568604 C-22.06717034 102.31996454 -13.19204658 101.70931478 -4.12182617 100.42871094 C-1 100 -1 100 1 100 C1 99.34 1 98.68 1 98 C4.46153846 95 4.46153846 95 7 95 C6.67 94.01 6.34 93.02 6 92 C6.763125 91.62875 7.52625 91.2575 8.3125 90.875 C12.71612531 87.80270327 14.0213555 83.88403748 14.9375 78.75 C15.38461207 73.23561778 13.75035528 68.73626136 11 64 C4.97900556 57.70532399 -2.77313473 54.26896894 -11.38085938 53.55102539 C-12.67954704 53.44059906 -12.67954704 53.44059906 -14.00447083 53.32794189 C-14.94143295 53.25194763 -15.87839508 53.17595337 -16.84375 53.09765625 C-17.82885056 53.01561951 -18.81395111 52.93358276 -19.8289032 52.84906006 C-23.05226852 52.58260658 -26.27607296 52.32206315 -29.5 52.0625 C-30.59680084 51.97318207 -31.69360168 51.88386414 -32.82363892 51.7918396 C-49.37029409 50.4486606 -65.9156638 49.31966053 -82.4960022 48.49424744 C-84.42377122 48.39738021 -86.35129584 48.29568693 -88.27880859 48.19384766 C-90.822789 48.06132434 -93.36747139 47.9418061 -95.91259766 47.83349609 C-97.77537354 47.73609131 -97.77537354 47.73609131 -99.67578125 47.63671875 C-100.77446533 47.58604248 -101.87314941 47.53536621 -103.00512695 47.4831543 C-106.30844306 46.95023976 -108.21241753 45.79169974 -111 44 C-114.74989866 43.69388582 -117.31536315 44.07884079 -121 45 C-121.66 41.04 -122.32 37.08 -123 33 C-119.91646917 33.64490188 -116.83317146 34.29088421 -113.75 34.9375 C-112.87730469 35.11990234 -112.00460938 35.30230469 -111.10546875 35.49023438 C-110.26113281 35.66748047 -109.41679688 35.84472656 -108.546875 36.02734375 C-107.77182617 36.18968506 -106.99677734 36.35202637 -106.19824219 36.51928711 C-104.82500717 36.81958695 -103.45706266 37.14679262 -102.10009766 37.51367188 C-81.26309476 42.33898108 -58.07876339 41.28598149 -36.875 41.25 C-35.71768372 41.24904327 -34.56036743 41.24808655 -33.36798096 41.24710083 C-8.03453564 41.37417874 -8.03453564 41.37417874 17 38 C22.30810874 37.02504125 27.62992307 36.49880161 33 36 C32.80528889 34.05000871 32.80528889 34.05000871 32 32 C30.0162233 30.71563266 30.0162233 30.71563266 28 30 C28.99 29.74605469 29.98 29.49210937 31 29.23046875 C37.80798 27.46361738 44.49107925 25.70181616 51 23 C52.2065625 22.62875 52.2065625 22.62875 53.4375 22.25 C55.39597037 20.95341525 55.39597037 20.95341525 55.75 17.5 C55.88075446 15.66943757 56 13.8352263 56 12 C41.04349869 6.76522454 24.67553591 5.72593336 9 4 C9 3.34 9 2.68 9 2 C6.03 1.67 3.06 1.34 0 1 C0 0.67 0 0.34 0 0 Z " fill="#C2602C" transform="translate(150,6)"/>
<path d="M0 0 C0 0.33 0 0.66 0 1 C-5.28 1.66 -10.56 2.32 -16 3 C-11.41864035 3.91627193 -8.40552332 3.94102411 -3.8203125 3.57421875 C7.00569977 2.81716386 17.82703118 2.81392493 28.67529297 2.81469727 C32.12610005 2.8124993 35.57659235 2.79423783 39.02734375 2.77539062 C50.57951984 2.74535677 61.58682892 3.14832687 73 5 C75.75086868 5.35991043 78.50589141 5.68058284 81.26171875 6 C82.66214396 6.16637577 84.06253465 6.33304246 85.46289062 6.5 C87.5816491 6.75119934 89.70050036 7.00152438 91.81958008 7.25 C116.37016761 10.13465882 116.37016761 10.13465882 123 13 C122.67 14.65 122.34 16.3 122 18 C121.34 18 120.68 18 120 18 C119.67 18.99 119.34 19.98 119 21 C115.8125 22.0625 115.8125 22.0625 112 23 C108.40360867 24.09455388 105.12138976 25.42412287 101.75 27.0625 C97.48707444 29.01996582 93.62761552 29.5725825 88.96875 29.82421875 C86.99817406 29.78801906 86.99817406 29.78801906 86 31 C83.43317904 31.2131616 80.88389866 31.37701016 78.3125 31.5 C76.89177095 31.56980834 75.47118881 31.64268016 74.05078125 31.71875 C73.10199097 31.76418945 73.10199097 31.76418945 72.1340332 31.81054688 C69.90990296 31.97057951 69.90990296 31.97057951 67.39575195 32.50927734 C62.79036208 33.17480568 58.2643448 33.14264998 53.6171875 33.1328125 C52.6077005 33.13376923 51.5982135 33.13472595 50.55813599 33.13571167 C48.41815122 33.13639122 46.27816438 33.13455263 44.13818359 33.13037109 C40.93452028 33.12509797 37.73100226 33.13028272 34.52734375 33.13671875 C21.65475662 33.14133379 8.84694856 32.81249219 -4 32 C-5.18062012 31.92700684 -6.36124023 31.85401367 -7.57763672 31.77880859 C-43.32927154 29.39982339 -43.32927154 29.39982339 -54.625 21.0625 C-56.31284695 18.53072958 -56.33163545 16.98471903 -56 14 C-47.69776832 8.8111052 -39.69535468 7.72743754 -30.07421875 6.5625 C-26.84228339 6.18077238 -26.84228339 6.18077238 -24 4 C-28.95 4 -33.9 4 -39 4 C-39 3.67 -39 3.34 -39 3 C-34.93902453 2.48709211 -30.87603944 1.99214717 -26.8125 1.5 C-25.68134766 1.35691406 -24.55019531 1.21382813 -23.38476562 1.06640625 C-15.55150824 0.1290934 -7.88630989 -0.17635811 0 0 Z " fill="#C46E33" transform="translate(80,6)"/>
<path d="M0 0 C0.99 0 1.98 0 3 0 C4.4783226 2.95664519 4.06032783 5.74229737 4 9 C6.64 9.33 9.28 9.66 12 10 C12.02578125 10.969375 12.0515625 11.93875 12.078125 12.9375 C12.61744584 27.16768647 14.9544885 42.61903389 22.8125 54.8125 C24.34453425 57.63466836 23.73837647 58.96110366 23 62 C19.54174064 62.05898369 16.0836138 62.09392131 12.625 62.125 C11.65949219 62.14175781 10.69398437 62.15851563 9.69921875 62.17578125 C3.22261957 62.21924836 -2.706577 61.53232671 -9 60 C-5.56132794 61.48699332 -2.3846802 62.41430809 1.3125 63 C2.35019531 63.17402344 3.38789062 63.34804687 4.45703125 63.52734375 C7.06923705 63.87582986 9.57656339 64.11135118 12.19921875 64.25390625 C23.03743276 64.96050628 23.03743276 64.96050628 25.90625 68.05859375 C27.25850772 71.07702616 28 73.69044215 28 77 C35.26 76.67 42.52 76.34 50 76 C46.92179408 78.05213728 45.62513123 78.36534812 42.0625 78.78125 C41.08410156 78.90113281 40.10570312 79.02101563 39.09765625 79.14453125 C38.07542969 79.26183594 37.05320312 79.37914062 36 79.5 C30.15480253 80.19169437 24.36563858 80.89633433 18.59375 82.0625 C-0.06472878 85.55094052 -18.65672767 83.82073456 -35.93920898 76.13793945 C-39.86359245 74.39417017 -42.68146277 73.68400947 -47 74 C-47 72.35 -47 70.7 -47 69 C-45.80503906 68.62488281 -44.61007813 68.24976563 -43.37890625 67.86328125 C-27.7469183 63.69617772 -27.7469183 63.69617772 -16.875 52.8125 C-16.41222656 51.85472656 -15.94945313 50.89695313 -15.47265625 49.91015625 C-13.97789992 46.95632742 -12.26460271 44.41936801 -10.3125 41.75 C-7.56606013 37.9463023 -5.62392969 34.39416269 -4 30 C-3.34 30 -2.68 30 -2 30 C-1.16897 26.31803434 -0.81892266 22.81284545 -0.68359375 19.04296875 C-0.62075195 17.37524414 -0.62075195 17.37524414 -0.55664062 15.67382812 C-0.51732422 14.52333984 -0.47800781 13.37285156 -0.4375 12.1875 C-0.37272461 10.43276367 -0.37272461 10.43276367 -0.30664062 8.64257812 C-0.20081721 5.76182969 -0.09873175 2.88099877 0 0 Z " fill="#E39C52" transform="translate(104,127)"/>
<path d="M0 0 C7.28590016 -0.04682155 14.57176665 -0.08211748 21.85778809 -0.10362434 C25.24281211 -0.11395864 28.62773149 -0.12792229 32.01269531 -0.15087891 C47.95294385 -0.2510209 63.34220131 -0.24017296 79 3 C79 3.66 79 4.32 79 5 C79.99515625 5.03738281 80.9903125 5.07476563 82.015625 5.11328125 C113.47257521 6.50551926 113.47257521 6.50551926 126 13 C126.75 16.25 126.75 16.25 127 20 C124.35042642 23.97436037 120.35251162 25.42114774 116 27 C115.26007813 27.26941406 114.52015625 27.53882812 113.7578125 27.81640625 C109.5265645 29.29093207 105.46364253 30.42773814 101 31 C101.99 31.33 102.98 31.66 104 32 C104 33.65 104 35.3 104 37 C100.57964252 38.82419065 97.85555073 39.09153667 94.0625 39 C89.90893191 38.90783503 86.91309295 39.52172044 83 41 C66.61106837 43.71035283 49.68264224 43.24151045 33.125 43.25 C31.93834747 43.25067474 30.75169495 43.25134949 29.52908325 43.25204468 C3.69960772 43.22881224 -22.28857598 42.97762359 -47.34375 35.98828125 C-50.85143462 34.8695325 -50.85143462 34.8695325 -54 35 C-54 34.34 -54 33.68 -54 33 C-55.485 33.495 -55.485 33.495 -57 34 C-57.99 32.02 -58.98 30.04 -60 28 C-60.99 28 -61.98 28 -63 28 C-63.99 28 -64.98 28 -66 28 C-66 27.34 -66 26.68 -66 26 C-66.66 26 -67.32 26 -68 26 C-68.41112828 15.51622875 -68.41112828 15.51622875 -66 12 C-55.66273734 5.36854849 -43.75788257 4.70962068 -31.8125 4.125 C-30.68851807 4.06352783 -29.56453613 4.00205566 -28.40649414 3.9387207 C-27.35067139 3.899646 -26.29484863 3.86057129 -25.20703125 3.8203125 C-23.77580933 3.76254639 -23.77580933 3.76254639 -22.31567383 3.70361328 C-21.16941528 3.85032471 -21.16941528 3.85032471 -20 4 C-19.34 4.99 -18.68 5.98 -18 7 C-18.96655518 7.11275269 -18.96655518 7.11275269 -19.95263672 7.2277832 C-22.92792506 7.58018307 -25.9013843 7.94626424 -28.875 8.3125 C-29.88820312 8.43044922 -30.90140625 8.54839844 -31.9453125 8.66992188 C-40.02459252 9.67983188 -47.74270319 11.17966497 -55 15 C-55.41870553 17.33071879 -55.41870553 17.33071879 -55 20 C-43.64524979 32.0644221 -19.28110686 31.05522841 -4 32 C-3.30795471 32.0437677 -2.61590942 32.0875354 -1.90289307 32.13262939 C11.29669633 32.94723385 24.46409746 33.15693544 37.68701172 33.13037109 C40.92029327 33.12492369 44.1534409 33.13040091 47.38671875 33.13671875 C49.46354197 33.13605926 51.54036511 33.13478078 53.6171875 33.1328125 C54.5734201 33.13483673 55.52965271 33.13686096 56.51486206 33.13894653 C61.1357536 33.12268987 65.44832682 32.89010877 70 32 C71.34820865 31.88031004 72.69881974 31.78349812 74.05078125 31.71875 C74.74880859 31.68136719 75.44683594 31.64398438 76.16601562 31.60546875 C77.61648973 31.53419887 79.06701241 31.46391172 80.51757812 31.39453125 C84.05711729 31.51434024 84.05711729 31.51434024 87 30 C89.51489516 29.71606022 92.02989582 29.5518876 94.5546875 29.37890625 C97.25068778 29.1367506 97.25068778 29.1367506 100 27 C100.845625 26.835 101.69125 26.67 102.5625 26.5 C105.16854564 26.19851753 105.16854564 26.19851753 107 24 C108.32 24 109.64 24 111 24 C111.66 23.34 112.32 22.68 113 22 C113.99 21.87625 114.98 21.7525 116 21.625 C119.12114709 21.34069672 119.12114709 21.34069672 120.375 18.9375 C120.58125 18.298125 120.7875 17.65875 121 17 C121.66 17 122.32 17 123 17 C123 16.01 123 15.02 123 14 C114.53609222 12.55623032 106.06078526 11.2251655 97.5625 10 C96.35271484 9.82557373 95.14292969 9.65114746 93.89648438 9.47143555 C85.41336758 8.27577221 76.93394209 7.30667055 68.39672852 6.59570312 C67.60580811 6.52931641 66.8148877 6.46292969 66 6.39453125 C65.319375 6.34143799 64.63875 6.28834473 63.9375 6.23364258 C62 6 62 6 60.18876648 5.4934845 C57.74199744 4.94183013 55.55026519 4.87291595 53.04223633 4.87060547 C52.05633011 4.86745331 51.07042389 4.86430115 50.05464172 4.86105347 C48.45944954 4.86408981 48.45944954 4.86408981 46.83203125 4.8671875 C45.72381516 4.86623077 44.61559906 4.86527405 43.47380066 4.86428833 C41.12096093 4.86360737 38.76811933 4.86545579 36.4152832 4.86962891 C32.87121154 4.87491247 29.32727049 4.86971556 25.78320312 4.86328125 C14.62776374 4.8619055 3.57385484 4.96324941 -7.5402832 5.98095703 C-11.49552751 6.00272748 -14.27211134 5.25189176 -18 4 C-18 3.67 -18 3.34 -18 3 C-11.97403427 1.9287172 -6.11090483 1.90054585 0 2 C0 1.34 0 0.68 0 0 Z " fill="#E6A053" transform="translate(80,5)"/>
<path d="M0 0 C0 0.66 0 1.32 0 2 C-1.32 2.33 -2.64 2.66 -4 3 C-4.59293721 17.82343022 -3.01000001 29.19183372 5 42 C5.34305176 42.57717773 5.68610352 43.15435547 6.03955078 43.74902344 C14.4605951 57.86382176 23.03094983 62.68042558 38.4375 67.80078125 C42 69 42 69 44 70 C44.25 72.3125 44.25 72.3125 44 75 C40.48415896 78.58217766 35.60475723 79.63344943 30.9375 81.0625 C30.14150391 81.31837891 29.34550781 81.57425781 28.52539062 81.83789062 C18.49945115 84.96546918 8.82241817 86.31026078 -1.66796875 86.30078125 C-2.74645584 86.30506638 -3.82494293 86.3093515 -4.93611145 86.31376648 C-7.20422672 86.31947255 -9.47236027 86.32003777 -11.74047852 86.31567383 C-15.16129749 86.31252413 -18.58124126 86.33598587 -22.00195312 86.36132812 C-34.03568509 86.39667141 -45.29740728 85.9422097 -57 83 C-57.90177979 82.77997314 -58.80355957 82.55994629 -59.73266602 82.33325195 C-61.90303243 81.7711764 -64.04359273 81.15478941 -66.1875 80.5 C-66.88423828 80.30019531 -67.58097656 80.10039062 -68.29882812 79.89453125 C-72.21748824 78.72600392 -75.70434022 77.45273142 -79 75 C-79.3125 72.3125 -79.3125 72.3125 -79 70 C-78.67 71.32 -78.34 72.64 -78 74 C-77.195625 73.7525 -76.39125 73.505 -75.5625 73.25 C-71.9963607 72.99974461 -71.21441255 73.15276627 -68.1875 74.625 C-43.06527896 86.44236056 -14.36315862 83.59078966 12 77 C7.05 77 2.1 77 -3 77 C-7 68.25 -7 68.25 -7 66 C-7.98097656 65.96261719 -8.96195312 65.92523438 -9.97265625 65.88671875 C-35.54677101 64.71845539 -35.54677101 64.71845539 -42 59 C-36 60 -36 60 -33.5 60.53125 C-28.53553972 61.19613307 -23.62706939 61.10445284 -18.625 61.0625 C-17.60277344 61.05798828 -16.58054688 61.05347656 -15.52734375 61.04882812 C-13.01816806 61.037103 -10.5091151 61.02069176 -8 61 C-8.52604677 56.98239008 -9.33180401 53.9635068 -11.3125 50.4375 C-16.7214208 40.07432131 -19.19901653 29.23940632 -19.0625 17.625 C-19.05798828 16.88894531 -19.05347656 16.15289062 -19.04882812 15.39453125 C-19.03715142 13.59631842 -19.01922011 11.79814803 -19 10 C-21.64 9.67 -24.28 9.34 -27 9 C-27 6.36 -27 3.72 -27 1 C-17.98865693 0.3668316 -9.04028922 -0.1723784 0 0 Z " fill="#BD5F2D" transform="translate(135,127)"/>
<path d="M0 0 C1.58578857 0.20786133 1.58578857 0.20786133 3.20361328 0.41992188 C16.01392482 2.01628856 28.70060664 2.38137479 41.59716797 2.53173828 C44.22902689 2.56538892 46.86051723 2.6104099 49.4921875 2.65625 C50.68894608 2.66416565 50.68894608 2.66416565 51.90988159 2.67224121 C59.00111475 2.80036647 59.00111475 2.80036647 62 5 C62.75 7.125 62.75 7.125 63 9 C57.31679286 13.84744138 52.58310305 16.29831708 45.0703125 16.73046875 C43.78125 16.81103516 42.4921875 16.89160156 41.1640625 16.97460938 C39.81772335 17.04585725 38.47136894 17.11681725 37.125 17.1875 C35.75513662 17.26898549 34.38534321 17.35165654 33.015625 17.43554688 C29.67758586 17.63535908 26.33931843 17.82309298 23 18 C23 17.34 23 16.68 23 16 C22.01 16 21.02 16 20 16 C20.01047363 16.73114014 20.02094727 17.46228027 20.03173828 18.21557617 C20.07340289 21.53951559 20.09935956 24.86339995 20.125 28.1875 C20.14175781 29.33798828 20.15851563 30.48847656 20.17578125 31.67382812 C20.18222656 32.78564453 20.18867187 33.89746094 20.1953125 35.04296875 C20.20578613 36.06414795 20.21625977 37.08532715 20.22705078 38.13745117 C19.98999632 41.12612167 19.25617102 43.29423369 18 46 C17.24294573 43.72883718 16.93399004 42.29343925 17.46484375 39.93359375 C18.20759379 35.86202239 18.14466371 31.87937999 18.125 27.75 C18.12886719 26.92242187 18.13273437 26.09484375 18.13671875 25.2421875 C18.52241071 21.30690311 18.52241071 21.30690311 17 18 C14.16864137 17.50629671 11.34121579 17.05391052 8.5 16.625 C2.06619383 15.61270557 -3.90572117 14.36999732 -10 12 C-6.25 10.875 -6.25 10.875 -4 12 C-1.95944995 12.07065617 0.08334257 12.08421976 2.125 12.0625 C3.22070312 12.05347656 4.31640625 12.04445313 5.4453125 12.03515625 C6.28835937 12.02355469 7.13140625 12.01195313 8 12 C7.67 11.67 7.34 11.34 7 11 C5.9275 11.020625 4.855 11.04125 3.75 11.0625 C0.19791392 11.00329857 -1.85105168 10.52676282 -5 9 C-5 6.36 -5 3.72 -5 1 C-3.35 1 -1.7 1 0 1 C0 0.67 0 0.34 0 0 Z " fill="#E2A158" transform="translate(84,111)"/>
<path d="M0 0 C1.0725 0.45375 2.145 0.9075 3.25 1.375 C9.96774542 3.87653807 17.05161373 4.86076984 24.1875 5.25 C35.04113704 5.96450659 35.04113704 5.96450659 37.90625 9.05859375 C39.25850772 12.07702616 40 14.69044215 40 18 C47.26 17.67 54.52 17.34 62 17 C58.89761589 19.06825608 57.52312318 19.38247062 53.921875 19.81640625 C52.92542969 19.94080078 51.92898437 20.06519531 50.90234375 20.19335938 C49.86207031 20.31517578 48.82179688 20.43699219 47.75 20.5625 C45.70309233 20.81353585 43.65621654 21.06483178 41.609375 21.31640625 C40.64451172 21.43258301 39.67964844 21.54875977 38.68554688 21.66845703 C35.4495296 22.06795807 32.22520804 22.52168525 29 23 C29 22.67 29 22.34 29 22 C28.11328613 21.92483154 27.22657227 21.84966309 26.31298828 21.7722168 C22.97604681 21.48423418 19.64022369 21.18673192 16.3046875 20.88305664 C14.86979636 20.75432145 13.4345734 20.62922444 11.99902344 20.50805664 C3.70851122 19.80561784 -4.12076693 18.85087347 -12 16 C-13.010625 15.67 -14.02125 15.34 -15.0625 15 C-17 14 -17 14 -18 11 C-16.91332031 10.52820313 -16.91332031 10.52820313 -15.8046875 10.046875 C-6.64805575 6.58679329 -6.64805575 6.58679329 0 0 Z " fill="#E6B066" transform="translate(92,186)"/>
<path d="M0 0 C58.72205438 1.72205438 58.72205438 1.72205438 73 16 C73.3359375 18.2421875 73.3359375 18.2421875 73.375 20.875 C73.40335937 21.73867188 73.43171875 22.60234375 73.4609375 23.4921875 C72.82177773 26.96964996 71.85820584 27.90456688 69 30 C66.03017291 31.27763552 62.99064619 32.14896165 59.875 33 C58.5132666 33.38019287 58.5132666 33.38019287 57.12402344 33.76806641 C42.87709927 37.55908313 27.77995269 40.40196524 13 40 C19.22489868 36.72861708 26.09529869 36.64134577 33 36 C32.80528889 34.05000871 32.80528889 34.05000871 32 32 C30.0162233 30.71563266 30.0162233 30.71563266 28 30 C28.99 29.74605469 29.98 29.49210937 31 29.23046875 C37.80798 27.46361738 44.49107925 25.70181616 51 23 C51.804375 22.7525 52.60875 22.505 53.4375 22.25 C55.39597037 20.95341525 55.39597037 20.95341525 55.75 17.5 C55.88075446 15.66943757 56 13.8352263 56 12 C41.04349869 6.76522454 24.67553591 5.72593336 9 4 C9 3.34 9 2.68 9 2 C6.03 1.67 3.06 1.34 0 1 C0 0.67 0 0.34 0 0 Z " fill="#D88D46" transform="translate(150,6)"/>
<path d="M0 0 C0.6703125 0.06832031 1.340625 0.13664063 2.03125 0.20703125 C2.69125 1.19703125 3.35125 2.18703125 4.03125 3.20703125 C3.38687988 3.28219971 2.74250977 3.35736816 2.07861328 3.43481445 C-0.89667506 3.78721432 -3.8701343 4.15329549 -6.84375 4.51953125 C-7.85695312 4.63748047 -8.87015625 4.75542969 -9.9140625 4.87695312 C-17.99334252 5.88686313 -25.71145319 7.38669622 -32.96875 11.20703125 C-33.38745553 13.53775004 -33.38745553 13.53775004 -32.96875 16.20703125 C-27.28766274 22.24318646 -18.61629782 23.68429188 -10.78125 25.14453125 C-9.93208008 25.30856445 -9.08291016 25.47259766 -8.20800781 25.64160156 C-5.46283535 26.17017514 -2.71587588 26.68871456 0.03125 27.20703125 C2.0222457 27.58796572 4.0131303 27.96948129 6.00390625 28.3515625 C11.01159883 29.3109978 16.02094984 30.26131194 21.03125 31.20703125 C21.03125 32.19703125 21.03125 33.18703125 21.03125 34.20703125 C3.87783611 34.37005208 -11.41323249 33.49777383 -27.97680664 28.76367188 C-31.10573686 27.88930481 -33.69405316 27.20703125 -36.96875 27.20703125 C-37.62875 25.88703125 -38.28875 24.56703125 -38.96875 23.20703125 C-39.62875 23.53703125 -40.28875 23.86703125 -40.96875 24.20703125 C-41.95875 24.20703125 -42.94875 24.20703125 -43.96875 24.20703125 C-43.96875 23.54703125 -43.96875 22.88703125 -43.96875 22.20703125 C-44.62875 22.20703125 -45.28875 22.20703125 -45.96875 22.20703125 C-46.37987828 11.72326 -46.37987828 11.72326 -43.96875 8.20703125 C-32.41249739 0.79358618 -18.35556328 0.58426835 -5.0390625 0.26416016 C-3.3577086 0.21776431 -1.6779188 0.11701276 0 0 Z " fill="#F4D087" transform="translate(57.96875,8.79296875)"/>
<path d="M0 0 C1.26026798 2.52053595 0.91874445 3.8542098 0.5625 6.625 C0.40974609 7.85089844 0.40974609 7.85089844 0.25390625 9.1015625 C0.17011719 9.72804688 0.08632812 10.35453125 0 11 C0.66 11 1.32 11 2 11 C2.66 11.66 3.32 12.32 4 13 C4.33 12.34 4.66 11.68 5 11 C7.99324263 12.0975223 8.84610901 12.67682892 10.25 15.625 C10.4975 16.40875 10.745 17.1925 11 18 C11.99 18 12.98 18 14 18 C16.10827055 21.16240582 16.33817465 22.50657469 16.625 26.1875 C16.69976563 27.08855469 16.77453125 27.98960938 16.8515625 28.91796875 C16.92503906 29.94857422 16.92503906 29.94857422 17 31 C17.60070312 30.67773438 18.20140625 30.35546875 18.8203125 30.0234375 C21.79693496 28.6258119 23.73604962 28.60832595 27 29 C32.57894737 32.15789474 32.57894737 32.15789474 34 35 C34.14851844 36.93359586 34.22130833 38.87342097 34.25 40.8125 C34.27578125 41.85019531 34.3015625 42.88789062 34.328125 43.95703125 C33.88259364 48.08880423 32.07042151 50.52179887 29.6875 53.8125 C27.08087156 55.64679409 25.09377193 55.38672149 22 55 C20.9805881 54.01979625 19.97753644 53.02196992 19 52 C16.93618425 52.32843384 16.93618425 52.32843384 15 53 C13 52 13 52 12 49 C11.95216776 47.22329809 11.96238171 45.44473368 12.0078125 43.66796875 C12.02457031 42.62189453 12.04132812 41.57582031 12.05859375 40.49804688 C12.10263305 38.30255828 12.15463217 36.10721398 12.21484375 33.91210938 C12.38089413 26.00438807 12.38089413 26.00438807 9 19 C6.86053077 17.15595079 6.86053077 17.15595079 4.4375 15.8125 C1.32983543 13.96014821 0.059936 13.08990401 -2 10 C-2.01171875 7.7734375 -2.01171875 7.7734375 -1.6875 5.375 C-1.58824219 4.57835937 -1.48898437 3.78171875 -1.38671875 2.9609375 C-1 1 -1 1 0 0 Z " fill="#AB997E" transform="translate(12,20)"/>
<path d="M0 0 C4.27854315 3.34842507 6.63928585 6.58672657 7.44140625 11.953125 C7.66307178 17.98814775 7.71559979 22.05559026 3.625 26.75 C0.41051114 29.89834711 -1.14101525 30.94273435 -5.75 31.25 C-9.87541372 31.16015433 -12.61289095 30.52063929 -16 28 C-19.55549597 21.48159073 -19.32832857 15.29619042 -19 8 C-18.01 8 -17.02 8 -16 8 C-15.01 9.485 -15.01 9.485 -14 11 C-12.02 10.67 -10.04 10.34 -8 10 C-7.67 8.02 -7.34 6.04 -7 4 C-8.32 3.01 -9.64 2.02 -11 1 C-7.28109537 -0.23963488 -3.85779104 -0.67812733 0 0 Z " fill="#618B8D" transform="translate(120,61)"/>
<path d="M0 0 C7.28590016 -0.04682155 14.57176665 -0.08211748 21.85778809 -0.10362434 C25.24281211 -0.11395864 28.62773149 -0.12792229 32.01269531 -0.15087891 C47.95294385 -0.2510209 63.34220131 -0.24017296 79 3 C79 3.66 79 4.32 79 5 C79.99515625 5.03738281 80.9903125 5.07476563 82.015625 5.11328125 C113.47257521 6.50551926 113.47257521 6.50551926 126 13 C126.75 16.25 126.75 16.25 127 20 C124.34794229 23.97808657 120.35181568 25.41286722 116 27 C114.89011719 27.42152344 114.89011719 27.42152344 113.7578125 27.8515625 C109.3626076 29.43502016 105.73949328 30.36457641 101 30 C103.2707306 27.7292694 104.44327553 27.47586407 107.5 26.6875 C112.89819646 25.12610306 118.41973305 23.32950175 123 20 C124.31290303 17.43975403 124.31290303 17.43975403 125 15 C106.5265217 10.41635501 87.33826572 8.17440513 68.39624023 6.59545898 C67.60548096 6.52915283 66.81472168 6.46284668 66 6.39453125 C65.319375 6.34143799 64.63875 6.28834473 63.9375 6.23364258 C62 6 62 6 60.18876648 5.4934845 C57.74199744 4.94183013 55.55026519 4.87291595 53.04223633 4.87060547 C52.05633011 4.86745331 51.07042389 4.86430115 50.05464172 4.86105347 C48.45944954 4.86408981 48.45944954 4.86408981 46.83203125 4.8671875 C45.72381516 4.86623077 44.61559906 4.86527405 43.47380066 4.86428833 C41.12096093 4.86360737 38.76811933 4.86545579 36.4152832 4.86962891 C32.87121154 4.87491247 29.32727049 4.86971556 25.78320312 4.86328125 C14.62776374 4.8619055 3.57385484 4.96324941 -7.5402832 5.98095703 C-11.49552751 6.00272748 -14.27211134 5.25189176 -18 4 C-18 3.67 -18 3.34 -18 3 C-11.97403427 1.9287172 -6.11090483 1.90054585 0 2 C0 1.34 0 0.68 0 0 Z " fill="#E8AF6A" transform="translate(80,5)"/>
<path d="M0 0 C0.66 0 1.32 0 2 0 C6.97270142 5.18890583 8.21308696 11.58326958 8.4375 18.5 C8.26335327 25.04185962 7.08590913 29.78517561 2.50390625 34.55859375 C-0.87985768 37.53731861 -3.59948354 38.82850819 -8.0625 39.375 C-13.41822077 38.86493136 -17.53179484 36.96278837 -22 34 C-24.125 31.1875 -24.125 31.1875 -25 29 C-24.67 28.67 -24.34 28.34 -24 28 C-21.62426939 28.08590547 -19.24932879 28.19401588 -16.875 28.3125 C-12.06867907 28.44295242 -8.40686994 28.40632833 -4.625 25.125 C-1.07902342 21.36080948 -0.8634306 18.77338179 -0.875 13.625 C-0.87242188 12.48289062 -0.86984375 11.34078125 -0.8671875 10.1640625 C-0.9761732 7.56763848 -1.23538757 5.46375117 -2 3 C-1.01 3 -0.02 3 1 3 C0.67 2.01 0.34 1.02 0 0 Z " fill="#D37F3C" transform="translate(127,63)"/>
<path d="M0 0 C4.15819848 1.98870362 5.43326056 4.50037462 6.9375 8.6875 C8.21661458 13.71471775 8.64499765 18.35655968 6 23 C2.44992525 25.59238017 -1.48999097 25.92349865 -5.75 26.5625 C-9 26 -9 26 -11.4375 23.8125 C-14.27574871 18.82442887 -13.29504354 12.52387068 -13 7 C-13.66 6.67 -14.32 6.34 -15 6 C-10.392104 0.0097352 -7.43312457 -0.86311845 0 0 Z " fill="#708E86" transform="translate(207,52)"/>
<path d="M0 0 C2.24535448 0.2051045 4.48567472 0.42927311 6.7265625 0.6796875 C9.19201073 0.92093661 11.61466674 1.08188839 14.0859375 1.1953125 C24.9532177 1.87203866 24.9532177 1.87203866 27.9140625 5.0625 C29.25829198 8.07976329 30 10.69452581 30 14 C37.26 13.67 44.52 13.34 52 13 C48.89761589 15.06825608 47.52312318 15.38247062 43.921875 15.81640625 C42.42720703 16.00299805 42.42720703 16.00299805 40.90234375 16.19335938 C39.86207031 16.31517578 38.82179687 16.43699219 37.75 16.5625 C35.70309233 16.81353585 33.65621654 17.06483178 31.609375 17.31640625 C30.64451172 17.43258301 29.67964844 17.54875977 28.68554688 17.66845703 C25.4495296 18.06795807 22.22520804 18.52168525 19 19 C19 18.67 19 18.34 19 18 C17.66195312 17.92652344 17.66195312 17.92652344 16.296875 17.8515625 C15.12640625 17.77679688 13.9559375 17.70203125 12.75 17.625 C11.58984375 17.55539063 10.4296875 17.48578125 9.234375 17.4140625 C6.29305666 17.03751692 4.50050989 16.5225877 2 15 C2.804375 14.34 3.60875 13.68 4.4375 13 C7.75148924 9.12020772 7.74577025 6.99985175 8 2 C5.36 1.67 2.72 1.34 0 1 C0 0.67 0 0.34 0 0 Z " fill="#E0954D" transform="translate(102,190)"/>
<path d="M0 0 C2.42478018 4.46670034 3.99116447 9.29695763 5.70117188 14.06835938 C6.85113048 17.20648171 7.91813735 19.87438003 9.75390625 22.69140625 C11.32786618 25.60742606 10.76828801 26.86809843 10 30 C-13.78877436 30.61916858 -13.78877436 30.61916858 -24 27 C-24 25.35 -24 23.7 -24 22 C-16.41 22.33 -8.82 22.66 -1 23 C-1 22.34 -1 21.68 -1 21 C-1.66 20.67 -2.32 20.34 -3 20 C-2.88613541 17.22829605 -2.75939222 14.45821954 -2.625 11.6875 C-2.57859375 10.50897461 -2.57859375 10.50897461 -2.53125 9.30664062 C-2.49257812 8.54931641 -2.45390625 7.79199219 -2.4140625 7.01171875 C-2.3826416 6.31522217 -2.3512207 5.61872559 -2.31884766 4.90112305 C-2 3 -2 3 0 0 Z " fill="#E1954B" transform="translate(117,159)"/>
<path d="M0 0 C0 0.66 0 1.32 0 2 C-6.625 5 -6.625 5 -10 5 C-7.68166319 8.47750522 -7.01530432 8.57582862 -3.125 9.5625 C-2.26132813 9.79066406 -1.39765625 10.01882812 -0.5078125 10.25390625 C9.03301023 12.28319037 18.52685264 13.42474972 28.25 14.125 C29.95736328 14.25455078 29.95736328 14.25455078 31.69921875 14.38671875 C34.46582357 14.59595777 37.23269192 14.80031721 40 15 C30.50733354 21.3284443 12.67385979 19.36630943 1.93945312 17.45507812 C-4.23705465 15.91639976 -10.12923641 13.7207184 -15.93920898 11.13793945 C-19.86359245 9.39417017 -22.68146277 8.68400947 -27 9 C-27 7.68 -27 6.36 -27 5 C-23.44254137 3.961009 -19.87841256 2.94705842 -16.3125 1.9375 C-14.80139648 1.49567383 -14.80139648 1.49567383 -13.25976562 1.04492188 C-12.28330078 0.77099609 -11.30683594 0.49707031 -10.30078125 0.21484375 C-9.40528564 -0.04176025 -8.50979004 -0.29836426 -7.5871582 -0.56274414 C-4.75272705 -1.04179163 -2.75974851 -0.7328883 0 0 Z " fill="#F0CB9C" transform="translate(84,192)"/>
<path d="M0 0 C0.33 0 0.66 0 1 0 C1.92017937 7.82152466 1.92017937 7.82152466 -0.3359375 10.7109375 C-2 12.0625 -2 12.0625 -5 14 C-2.525 14.495 -2.525 14.495 0 15 C-0.66 16.65 -1.32 18.3 -2 20 C3.82748619 22.42811925 9.7757491 22.61727907 16 23 C16 23.66 16 24.32 16 25 C13.2915983 25.02714434 10.58347279 25.04690846 7.875 25.0625 C6.73417969 25.07506836 6.73417969 25.07506836 5.5703125 25.08789062 C1.2610356 25.10646509 -2.75516474 24.86117265 -7 24 C-7.0928125 25.60875 -7.0928125 25.60875 -7.1875 27.25 C-8 31 -8 31 -10.375 33.375 C-13 35 -13 35 -16 36 C-16.7115625 35.80535156 -17.423125 35.61070312 -18.15625 35.41015625 C-22.30598134 34.81163731 -25.57275171 36.13859145 -29.5 37.4375 C-38.49636189 40.36636739 -38.49636189 40.36636739 -43 40 C-40.25351537 37.25351537 -37.07512467 36.72576104 -33.4375 35.6875 C-21.08367121 32.15796085 -21.08367121 32.15796085 -12.875 22.8125 C-12.41222656 21.85472656 -11.94945313 20.89695313 -11.47265625 19.91015625 C-9.97789992 16.95632742 -8.26460271 14.41936801 -6.3125 11.75 C-3.56606013 7.9463023 -1.62392969 4.39416269 0 0 Z " fill="#E5CCA3" transform="translate(100,157)"/>
<path d="M0 0 C3.37909451 -0.30719041 5.40357459 -0.34529892 8.375 1.375 C10.89083944 5.43904833 10.6345585 9.34657099 10 14 C8.6875 16.9375 8.6875 16.9375 7 19 C6.3503125 19.8971875 6.3503125 19.8971875 5.6875 20.8125 C2.99581798 22.70664661 1.20093523 22.51214964 -2 22 C-4.57285724 19.827365 -6.48996919 18.02006162 -8 15 C-8.06996014 13.29297265 -8.08440154 11.58331997 -8.0625 9.875 C-8.05347656 8.96492188 -8.04445313 8.05484375 -8.03515625 7.1171875 C-8.02355469 6.41851562 -8.01195313 5.71984375 -8 5 C-7.34 5 -6.68 5 -6 5 C-5.67 5.66 -5.34 6.32 -5 7 C-3.68 6.67 -2.36 6.34 -1 6 C-0.67 4.02 -0.34 2.04 0 0 Z " fill="#688E8D" transform="translate(36,53)"/>
<path d="M0 0 C0.6703125 0.06832031 1.340625 0.13664063 2.03125 0.20703125 C2.69125 1.19703125 3.35125 2.18703125 4.03125 3.20703125 C3.38687988 3.28219971 2.74250977 3.35736816 2.07861328 3.43481445 C-0.89667506 3.78721432 -3.8701343 4.15329549 -6.84375 4.51953125 C-7.85695312 4.63748047 -8.87015625 4.75542969 -9.9140625 4.87695312 C-17.72727985 5.85360529 -26.1128596 7.05691457 -32.96875 11.20703125 C-33.78046228 13.76223046 -33.78046228 13.76223046 -33.96875 16.20703125 C-34.62875 16.20703125 -35.28875 16.20703125 -35.96875 16.20703125 C-35.96875 14.88703125 -35.96875 13.56703125 -35.96875 12.20703125 C-37.28875 12.20703125 -38.60875 12.20703125 -39.96875 12.20703125 C-39.95714844 12.89410156 -39.94554687 13.58117188 -39.93359375 14.2890625 C-39.92005859 15.64064453 -39.92005859 15.64064453 -39.90625 17.01953125 C-39.89464844 17.91285156 -39.88304687 18.80617188 -39.87109375 19.7265625 C-39.96875 22.20703125 -39.96875 22.20703125 -40.96875 25.20703125 C-41.95875 24.87703125 -42.94875 24.54703125 -43.96875 24.20703125 C-43.96875 23.54703125 -43.96875 22.88703125 -43.96875 22.20703125 C-44.62875 22.20703125 -45.28875 22.20703125 -45.96875 22.20703125 C-46.37987828 11.72326 -46.37987828 11.72326 -43.96875 8.20703125 C-32.41249739 0.79358618 -18.35556328 0.58426835 -5.0390625 0.26416016 C-3.3577086 0.21776431 -1.6779188 0.11701276 0 0 Z " fill="#ECC37D" transform="translate(57.96875,8.79296875)"/>
<path d="M0 0 C3.17658059 1.53896451 5.72803955 3.28609656 8 6 C8.70703125 8.203125 8.70703125 8.203125 9 10 C3.26294821 7.32270916 3.26294821 7.32270916 1.625 5.3125 C-1.19491649 3.03487514 -4.49144748 3.82744824 -8 4 C-7.01 5.485 -7.01 5.485 -6 7 C-6.1875 10.0625 -6.1875 10.0625 -7 13 C-10 15 -10 15 -12.6875 14.625 C-13.450625 14.41875 -14.21375 14.2125 -15 14 C-15.33 13.01 -15.66 12.02 -16 11 C-16.99 11 -17.98 11 -19 11 C-18.88544319 12.91731918 -18.75793742 14.8338675 -18.625 16.75 C-18.55539063 17.81734375 -18.48578125 18.8846875 -18.4140625 19.984375 C-18.02002895 22.8541288 -17.30383271 24.47713671 -16 27 C-16 28.32 -16 29.64 -16 31 C-18.375 30.6875 -18.375 30.6875 -21 30 C-24.26981217 25.09528175 -23.53644862 19.73117259 -23 14 C-21.58748819 8.75594416 -18.45215018 4.41953261 -14.18359375 1.078125 C-9.59801422 -1.18595362 -4.92371819 -0.98995392 0 0 Z " fill="#E8CFA6" transform="translate(120,58)"/>
<path d="M0 0 C0.66 0.33 1.32 0.66 2 1 C3.14888581 4.44665742 3.2039347 7.24351905 3.25 10.875 C3.27578125 12.08929688 3.3015625 13.30359375 3.328125 14.5546875 C2.90137724 19.03553896 1.29487319 21.32790885 -1.39453125 24.80078125 C-3.57218826 26.42740096 -5.00329318 26.30420464 -7.6875 26.1875 C-8.49574219 26.16042969 -9.30398437 26.13335937 -10.13671875 26.10546875 C-10.75160156 26.07066406 -11.36648437 26.03585938 -12 26 C-11.67 26.66 -11.34 27.32 -11 28 C-10.34 28 -9.68 28 -9 28 C-8.67 29.98 -8.34 31.96 -8 34 C-14.23840599 29.73962518 -17.84971646 23.81387206 -21 17 C-20.67 16.34 -20.34 15.68 -20 15 C-19.01 15.33 -18.02 15.66 -17 16 C-16.67 15.34 -16.34 14.68 -16 14 C-15.67 14.99 -15.34 15.98 -15 17 C-9.52853883 17.62237712 -9.52853883 17.62237712 -4.80859375 15.37109375 C-2.59520115 12.46930259 -2.25548355 10.41338605 -1.8125 6.8125 C-1.06944444 1.06944444 -1.06944444 1.06944444 0 0 Z " fill="#CA8241" transform="translate(47,57)"/>
<path d="M0 0 C1.65 0 3.3 0 5 0 C4.01 0.495 4.01 0.495 3 1 C3.33 1.99 3.66 2.98 4 4 C6.83322843 4.80358512 9.55499261 5.44738282 12.4375 6 C14.00091786 6.30119724 15.56229418 6.61324843 17.12109375 6.9375 C18.16414673 7.13666016 18.16414673 7.13666016 19.22827148 7.33984375 C21 8 21 8 23 11 C20.03 10.505 20.03 10.505 17 10 C17 12.64 17 15.28 17 18 C21.40914783 19.10228696 25.48382401 19.07654536 30 19 C30 19.66 30 20.32 30 21 C22.53164839 22.81050948 15.90629875 22.34707994 9 19 C5.9296281 16.98028692 3.28687884 14.89061485 1 12 C0.5 8.5625 0.5 8.5625 1 6 C0.67 6 0.34 6 0 6 C0 4.02 0 2.04 0 0 Z " fill="#EBB367" transform="translate(62,102)"/>
<path d="M0 0 C4.15819848 1.98870362 5.43326056 4.50037462 6.9375 8.6875 C8.21661458 13.71471775 8.64499765 18.35655968 6 23 C2.44992525 25.59238017 -1.48999097 25.92349865 -5.75 26.5625 C-9 26 -9 26 -11.4375 23.5 C-13.35064319 19.21455925 -13.319758 16.63649105 -13 12 C-11 15 -11 15 -9.9375 17.5 C-7.06657256 21.2044225 -3.42236717 21.85964117 1 23 C3.10428384 17.87080814 3.21755666 13.4389165 3 8 C2.32517578 8.75216797 2.32517578 8.75216797 1.63671875 9.51953125 C1.09660156 10.00808594 0.55648437 10.49664062 0 11 C-2.1875 10.6875 -2.1875 10.6875 -4 10 C-4.33 8.02 -4.66 6.04 -5 4 C-6.78141747 3.13641377 -6.78141747 3.13641377 -9 3 C-11.27144074 4.85432087 -11.27144074 4.85432087 -13 7 C-13.66 6.67 -14.32 6.34 -15 6 C-10.392104 0.0097352 -7.43312457 -0.86311845 0 0 Z " fill="#B5BFAB" transform="translate(207,52)"/>
<path d="M0 0 C4.39660094 0.03975227 8.22072941 0.9827084 12.4375 2.1875 C12.125 5.5625 12.125 5.5625 11.4375 9.1875 C4.94625857 13.51499429 -5.10458113 11.18188918 -12.5625 10.1875 C-12.5625 9.1975 -12.5625 8.2075 -12.5625 7.1875 C-10.84765625 5.6171875 -10.84765625 5.6171875 -8.625 4.0625 C-7.89410156 3.54429687 -7.16320312 3.02609375 -6.41015625 2.4921875 C-5.80042969 2.06164062 -5.19070312 1.63109375 -4.5625 1.1875 C-3.5625 0.1875 -3.5625 0.1875 0 0 Z " fill="#F0C27C" transform="translate(97.5625,189.8125)"/>
<path d="M0 0 C0.99 0 1.98 0 3 0 C7.38799113 16.18071728 4.35081212 30.24026657 -3 45 C-5.31 45 -7.62 45 -10 45 C-6.375 40.125 -6.375 40.125 -3 39 C-3.02320312 38.40832031 -3.04640625 37.81664062 -3.0703125 37.20703125 C-3.08835937 36.41683594 -3.10640625 35.62664062 -3.125 34.8125 C-3.14820312 34.03519531 -3.17140625 33.25789063 -3.1953125 32.45703125 C-3 30 -3 30 -2.01367188 27.71875 C-0.88378029 24.68828934 -0.68521225 22.26939818 -0.5859375 19.04296875 C-0.52792969 17.37524414 -0.52792969 17.37524414 -0.46875 15.67382812 C-0.4378125 14.52333984 -0.406875 13.37285156 -0.375 12.1875 C-0.33632812 11.01767578 -0.29765625 9.84785156 -0.2578125 8.64257812 C-0.1637487 5.76187436 -0.07810123 2.88117346 0 0 Z " fill="#F0D7B0" transform="translate(104,127)"/>
<path d="M0 0 C10.90394018 -0.35470649 21.58807818 0.0577988 32.4375 1.25 C34.03343994 1.41399292 34.03343994 1.41399292 35.66162109 1.58129883 C52.5662893 3.57864636 52.5662893 3.57864636 58.83374023 8.41503906 C60 10 60 10 60.0625 13.4375 C59.00583577 16.98043301 58.34634414 18.29246239 55.140625 20.08984375 C48.28204993 23.00598972 41.5060265 25.31651919 34 25 C36.2707306 22.7292694 37.44327553 22.47586407 40.5 21.6875 C45.89819646 20.12610306 51.41973305 18.32950175 56 15 C57.31290303 12.43975403 57.31290303 12.43975403 58 10 C39.04608503 5.29714892 19.36889196 3.28576986 0 1 C0 0.67 0 0.34 0 0 Z " fill="#F0CA96" transform="translate(147,10)"/>
<path d="M0 0 C3.97935485 0.31013236 7.95844547 0.62353991 11.9375 0.9375 C13.05447266 1.02451172 14.17144531 1.11152344 15.32226562 1.20117188 C21.56391121 1.69537842 27.78166031 2.26804273 34 3 C34 3.33 34 3.66 34 4 C31.36 4.33 28.72 4.66 26 5 C26.0721875 6.09957031 26.144375 7.19914062 26.21875 8.33203125 C26.74163067 16.56483868 27.16045021 24.74572826 27 33 C26.67 33 26.34 33 26 33 C25.67 28.05 25.34 23.1 25 18 C24.34 18 23.68 18 23 18 C22.67 14.37 22.34 10.74 22 7 C18.87110801 6.217777 16.8599909 5.88566682 13.75 5.9375 C12.5125 5.958125 11.275 5.97875 10 6 C9.67 6.66 9.34 7.32 9 8 C8.34 8 7.68 8 7 8 C7 9.65 7 11.3 7 13 C6.34 13 5.68 13 5 13 C4.34 10.69 3.68 8.38 3 6 C2.34 6 1.68 6 1 6 C0.67 4.02 0.34 2.04 0 0 Z " fill="#E7A75C" transform="translate(45,52)"/>
<path d="M0 0 C0.66 0 1.32 0 2 0 C4.98402129 4.99733686 4.72308397 10.36148353 4 16 C2.0625 19.25 2.0625 19.25 -1 21 C-4.15981399 21.67424602 -6.84684083 21.72984516 -10 21 C-13.0625 18.625 -13.0625 18.625 -15 16 C-15 15.34 -15 14.68 -15 14 C-14.39671875 14.05800781 -13.7934375 14.11601563 -13.171875 14.17578125 C-7.97169593 14.52830058 -7.97169593 14.52830058 -3.5625 12.0625 C-1.56351197 8.14448346 -0.71500291 4.31824124 0 0 Z " fill="#4E7982" transform="translate(119,65)"/>
<path d="M0 0 C2.31 0 4.62 0 7 0 C5.02 0.99 5.02 0.99 3 2 C2.33839159 18.54021037 4.65022681 31.56029452 15 45 C14.67 45.66 14.34 46.32 14 47 C13.01 46.34 12.02 45.68 11 45 C10.19304687 44.94714844 9.38609375 44.89429688 8.5546875 44.83984375 C6 44 6 44 3.9453125 40.87890625 C3.30259184 39.45579963 2.69826402 38.01497741 2.125 36.5625 C1.81618896 35.7885791 1.50737793 35.0146582 1.18920898 34.21728516 C-2.63493467 23.184497 -1.10277367 11.42054177 0 0 Z " fill="#A96E3E" transform="translate(128,128)"/>
<path d="M0 0 C7.38952521 -0.04658928 14.77901811 -0.08200308 22.16866112 -0.10362434 C25.60093799 -0.1140078 29.03311348 -0.12806596 32.46533203 -0.15087891 C36.42218766 -0.17701074 40.37900397 -0.18651771 44.3359375 -0.1953125 C45.55300385 -0.20563507 46.77007019 -0.21595764 48.02401733 -0.22659302 C54.93016958 -0.22749203 61.29502491 0.30862362 68 2 C68 2.33 68 2.66 68 3 C67.31920883 2.99777939 66.63841766 2.99555878 65.93699646 2.99327087 C58.78165213 2.97096059 51.62631785 2.95598725 44.47094727 2.94506836 C41.80881765 2.94064354 39.14674353 2.93327481 36.48461914 2.92456055 C17.62947897 2.81409376 17.62947897 2.81409376 -1.19165039 3.77514648 C-4.7897873 4.06323517 -8.32891302 4.09970193 -11.9375 4.0625 C-13.10152344 4.05347656 -14.26554687 4.04445313 -15.46484375 4.03515625 C-16.30144531 4.02355469 -17.13804688 4.01195312 -18 4 C-18 3.67 -18 3.34 -18 3 C-11.97403427 1.9287172 -6.11090483 1.90054585 0 2 C0 1.34 0 0.68 0 0 Z " fill="#BFA37D" transform="translate(80,5)"/>
<path d="M0 0 C0.33 0 0.66 0 1 0 C1.83943817 6.71550537 1.83943817 6.71550537 -0.48828125 10.27734375 C-5.08848315 15.54424157 -5.08848315 15.54424157 -8 17 C-13.48169104 17.36544607 -17.42427149 17.40519331 -22 14 C-23.93170283 10.67944514 -25.3064666 7.5930741 -24.56640625 3.74609375 C-24.37949219 3.16988281 -24.19257812 2.59367187 -24 2 C-23.66226563 2.49371094 -23.32453125 2.98742187 -22.9765625 3.49609375 C-22.53054687 4.13675781 -22.08453125 4.77742188 -21.625 5.4375 C-21.18414062 6.07558594 -20.74328125 6.71367188 -20.2890625 7.37109375 C-18.67689 9.40829354 -17.56427922 9.91242032 -15.01171875 10.30859375 C-10.40418811 10.6530883 -10.40418811 10.6530883 -6.3671875 8.765625 C-4.84471107 6.98633567 -4.84471107 6.98633567 -3 4 C-1 1 -1 1 0 0 Z " fill="#99B19B" transform="translate(126,75)"/>
<path d="M0 0 C0 0.66 0 1.32 0 2 C-6.625 5 -6.625 5 -10 5 C-8.35 6.98 -6.7 8.96 -5 11 C-8 13 -8 13 -10.75 12.8125 C-14 12 -14 12 -17.5 10.4375 C-21.00877748 8.99639496 -23.26039447 8.72637033 -27 9 C-27 7.68 -27 6.36 -27 5 C-23.44254137 3.961009 -19.87841256 2.94705842 -16.3125 1.9375 C-14.80139648 1.49567383 -14.80139648 1.49567383 -13.25976562 1.04492188 C-12.28330078 0.77099609 -11.30683594 0.49707031 -10.30078125 0.21484375 C-9.40528564 -0.04176025 -8.50979004 -0.29836426 -7.5871582 -0.56274414 C-4.75272705 -1.04179163 -2.75974851 -0.7328883 0 0 Z " fill="#ECCDA6" transform="translate(84,192)"/>
<path d="M0 0 C1.69834931 3.39669862 0.89986581 7.22376545 0.7421875 10.95703125 C1.0387598 14.45748306 1.82774792 16.25715636 4 19 C9.08071212 19.68394202 13.22306191 18.55981652 18 17 C16.69998671 19.90002964 15.46214056 21.97137403 13 24 C9.66447034 24.99500546 6.46788384 25.29360678 3 25 C0 22.6875 0 22.6875 -2 20 C-2.66 19.34 -3.32 18.68 -4 18 C-4.17201285 15.45770841 -4.23257617 13.03850004 -4.1875 10.5 C-4.18685547 9.81035156 -4.18621094 9.12070313 -4.18554688 8.41015625 C-4.14055525 3.28111049 -4.14055525 3.28111049 -3 1 C-2.01 0.67 -1.02 0.34 0 0 Z " fill="#C58A4E" transform="translate(194,58)"/>
<path d="M0 0 C21.0595433 0.61758192 42.77707086 2.92666026 63 9 C63 9.33 63 9.66 63 10 C44.90115617 8.76524943 26.95672666 6.54665528 9 4 C9 3.34 9 2.68 9 2 C6.03 1.67 3.06 1.34 0 1 C0 0.67 0 0.34 0 0 Z " fill="#91714A" transform="translate(150,6)"/>
<path d="M0 0 C3.59184704 3.10204972 4.82009952 6.3662526 5.3359375 11.05078125 C5.42884675 18.80870328 5.04247746 24.7886462 -0.49609375 30.55859375 C-3.93660892 33.58727668 -6.63282109 34.86596285 -11.1875 35.3125 C-15.77614442 34.9363816 -19.18154895 33.5518429 -23 31 C-23.33 30.34 -23.66 29.68 -24 29 C-23.34 29.33 -22.68 29.66 -22 30 C-17.3327071 31.5557643 -13.06911608 31.52930877 -8.3125 30.3125 C-4.2447394 28.00377101 -1.57036357 24.85554536 1 21 C1.16972473 18.14919982 1.23291579 15.40935265 1.1875 12.5625 C1.18685547 11.79873047 1.18621094 11.03496094 1.18554688 10.24804688 C1.15730713 6.64277218 0.97635524 3.4900439 0 0 Z " fill="#C2662D" transform="translate(130,67)"/>
<path d="M0 0 C1.75 0.4375 3.5 0.875 5.25 1.3125 C6.22453125 1.55613281 7.1990625 1.79976562 8.203125 2.05078125 C10.31968837 2.57992209 12.43293563 3.1255413 14.52832031 3.7331543 C23.06563117 6.10068646 31.45725566 6.74080978 40.25 7.1875 C41.68886207 7.26913181 43.12766527 7.35180804 44.56640625 7.43554688 C48.04367755 7.63570243 51.52152325 7.8218544 55 8 C50.03113687 11.96566714 46.18323034 11.30486218 40 11 C38.57880859 10.97099609 38.57880859 10.97099609 37.12890625 10.94140625 C27.15395108 10.51335226 17.68129775 7.9436535 8.06201172 5.44311523 C5.86267418 4.89495088 5.86267418 4.89495088 3 5 C3 4.34 3 3.68 3 3 C2.01 3.33 1.02 3.66 0 4 C0 2.66666667 0 1.33333333 0 0 Z " fill="#EBAE61" transform="translate(23,35)"/>
<path d="M0 0 C4.84015316 1.76534644 9.2835127 4.19536725 13.8125 6.625 C14.60076172 7.04523438 15.38902344 7.46546875 16.20117188 7.8984375 C18.13535326 8.9300009 20.06823983 9.96391172 22 11 C22 11.66 22 12.32 22 13 C23.98 13 25.96 13 28 13 C25.50790876 15.49209124 23.32096644 16.07953265 19.84765625 16.4296875 C12.15803957 15.26938869 4.15039968 8.53191077 -1 3 C-0.67 2.01 -0.34 1.02 0 0 Z " fill="#D28140" transform="translate(145,184)"/>
<path d="M0 0 C3.2491944 5.16800998 2.11765695 11.11715274 2 17 C-2.29 17 -6.58 17 -11 17 C-10.12351076 14.71992317 -9.22538436 12.45297098 -8.3125 10.1875 C-8.06822266 9.54490234 -7.82394531 8.90230469 -7.57226562 8.24023438 C-5.81870995 3.95623126 -4.21899586 1.93340696 0 0 Z " fill="#F4D696" transform="translate(111,159)"/>
<path d="M0 0 C0.33 1.32 0.66 2.64 1 4 C1.804375 3.7525 2.60875 3.505 3.4375 3.25 C7.64283907 2.95488849 9.40218487 3.92348353 13.08203125 5.75390625 C17.67541993 7.71547384 22.49212503 8.91688755 27.32348633 10.16064453 C29.24250158 10.6837188 31.12618894 11.33287307 33 12 C33.495 13.485 33.495 13.485 34 15 C27.52962558 14.37799449 21.54861335 12.93193037 15.3125 11.125 C13.92708008 10.74021484 13.92708008 10.74021484 12.51367188 10.34765625 C3.53196508 7.77406424 3.53196508 7.77406424 0 5 C-0.3125 2.3125 -0.3125 2.3125 0 0 Z " fill="#854E2E" transform="translate(56,197)"/>
<path d="M0 0 C0.66 0.99 1.32 1.98 2 3 C1.03706945 6.50156564 -0.27406083 8.64808504 -3 11 C-5.04296875 11.94921875 -5.04296875 11.94921875 -7.1875 12.6875 C-8.26064453 13.06455078 -8.26064453 13.06455078 -9.35546875 13.44921875 C-9.89816406 13.63097656 -10.44085938 13.81273438 -11 14 C-10.67 14.66 -10.34 15.32 -10 16 C-9.34 16 -8.68 16 -8 16 C-7.67 17.98 -7.34 19.96 -7 22 C-13.23840599 17.73962518 -16.84971646 11.81387206 -20 5 C-19.67 4.34 -19.34 3.68 -19 3 C-18.01 3.33 -17.02 3.66 -16 4 C-15.67 3.34 -15.34 2.68 -15 2 C-14.67 2.99 -14.34 3.98 -14 5 C-11.03 5 -8.06 5 -5 5 C-5 5.66 -5 6.32 -5 7 C-8.3 7 -11.6 7 -15 7 C-15 7.99 -15 8.98 -15 10 C-9.78392589 10.50100323 -9.78392589 10.50100323 -5.125 8.75 C-3.92594436 6.88480233 -2.94095527 5.00737125 -2 3 C-1.34 2.01 -0.68 1.02 0 0 Z " fill="#B5733F" transform="translate(46,69)"/>
<path d="M0 0 C0 3 0 3 -2 6 C-2 6.99 -2 7.98 -2 9 C-6.06398528 11.70932352 -9.23913759 11.40161932 -14 11 C-17.3145721 10.15372627 -18.51452118 9.78601333 -20.3125 6.875 C-20.539375 6.25625 -20.76625 5.6375 -21 5 C-20.67 4.67 -20.34 4.34 -20 4 C-16.90203479 4.04155807 -13.81582168 4.12691861 -10.72265625 4.30273438 C-6.9630782 4.40244813 -5.17254527 4.11630997 -2.015625 1.98828125 C-1.35046875 1.33214844 -0.6853125 0.67601563 0 0 Z " fill="#DC8D44" transform="translate(123,87)"/>
<path d="M0 0 C0.33 0.66 0.66 1.32 1 2 C2.32 1.67 3.64 1.34 5 1 C7.35582065 5.62816733 7.23521469 9.75534135 7.125 14.8125 C7.11597656 15.60076172 7.10695313 16.38902344 7.09765625 17.20117188 C7.07422504 19.13424666 7.03835838 21.0671638 7 23 C6.67 23 6.34 23 6 23 C5.93941406 22.16855469 5.87882812 21.33710938 5.81640625 20.48046875 C5.69072266 18.85044922 5.69072266 18.85044922 5.5625 17.1875 C5.48128906 16.10855469 5.40007812 15.02960938 5.31640625 13.91796875 C5.09787539 10.94010095 5.09787539 10.94010095 4 8 C1.47636012 8.62533375 1.47636012 8.62533375 -1 10 C-1.63141012 12.23135047 -1.63141012 12.23135047 -2 15 C-3.21832554 17.73615612 -4.60562967 20.34619841 -6 23 C-2.04 23.33 1.92 23.66 6 24 C6 24.33 6 24.66 6 25 C0.72 25.33 -4.56 25.66 -10 26 C-9.44570312 24.87722656 -8.89140625 23.75445312 -8.3203125 22.59765625 C-7.58804382 21.08617859 -6.8563011 19.57444604 -6.125 18.0625 C-5.76019531 17.32708984 -5.39539063 16.59167969 -5.01953125 15.83398438 C-2.52886677 10.64887377 -1.00359427 5.66218168 0 0 Z " fill="#E5B774" transform="translate(107,152)"/>
<path d="M0 0 C2.88790749 4.33186123 3.35800659 8.09625782 2.5625 13.1875 C1.86737026 15.6439382 1.43197013 16.69620792 -0.671875 18.17578125 C-5.01000544 19.94970668 -9.35277475 20.80432745 -14 20 C-17.20830844 16.70942724 -18.22601203 14.11874602 -18.25 9.625 C-18.1675 8.42875 -18.085 7.2325 -18 6 C-16 9 -16 9 -14.9375 11.5 C-12.06657256 15.2044225 -8.42236717 15.85964117 -4 17 C-3.566875 15.5459375 -3.566875 15.5459375 -3.125 14.0625 C-2 11 -2 11 0 10 C0 6.7 0 3.4 0 0 Z " fill="#B4A689" transform="translate(212,58)"/>
<path d="M0 0 C1.8871875 0.0309375 1.8871875 0.0309375 3.8125 0.0625 C3.8125 0.3925 3.8125 0.7225 3.8125 1.0625 C1.5025 1.3925 -0.8075 1.7225 -3.1875 2.0625 C-2.1975 3.5475 -2.1975 3.5475 -1.1875 5.0625 C-1.375 8.125 -1.375 8.125 -2.1875 11.0625 C-5.1875 13.0625 -5.1875 13.0625 -7.875 12.6875 C-8.638125 12.48125 -9.40125 12.275 -10.1875 12.0625 C-10.5175 11.0725 -10.8475 10.0825 -11.1875 9.0625 C-11.8475 9.0625 -12.5075 9.0625 -13.1875 9.0625 C-11.74286047 5.69167442 -9.94086875 3.48212708 -7.1875 1.0625 C-4.43671116 0.14557039 -2.82801087 -0.04636083 0 0 Z " fill="#B5C3BC" transform="translate(115.1875,59.9375)"/>
<path d="M0 0 C3 0.25 3 0.25 5 2.25 C3.35 2.25 1.7 2.25 0 2.25 C0.061875 3.673125 0.061875 3.673125 0.125 5.125 C0 8.25 0 8.25 -2 10.25 C-4.125 9.875 -4.125 9.875 -6 9.25 C-6 8.59 -6 7.93 -6 7.25 C-6.66 7.25 -7.32 7.25 -8 7.25 C-7.34650367 14.80038422 -7.34650367 14.80038422 -6 22.25 C-7.32 21.92 -8.64 21.59 -10 21.25 C-10.13494246 18.6441111 -10.23402299 16.04517889 -10.3125 13.4375 C-10.35439453 12.69951172 -10.39628906 11.96152344 -10.43945312 11.20117188 C-10.48828125 9.04296875 -10.48828125 9.04296875 -10 5.25 C-7.60546875 3.36328125 -7.60546875 3.36328125 -5 2.25 C-3 0.25 -3 0.25 0 0 Z " fill="#A8BEAC" transform="translate(36,50.75)"/>
<path d="M0 0 C1.65 0.33 3.3 0.66 5 1 C4.81308335 5.81310383 4.62868069 9.83577651 2.3125 14.125 C0 16 0 16 -3.0625 16.5 C-6.18111649 15.96917166 -7.13758747 15.4832167 -9 13 C-8.67 12.01 -8.34 11.02 -8 10 C-7.21625 10.04125 -6.4325 10.0825 -5.625 10.125 C-2.83883881 10.28728734 -2.83883881 10.28728734 -1 8 C-0.54188325 6.02764667 -0.54188325 6.02764667 -0.375 3.875 C-0.25125 2.59625 -0.1275 1.3175 0 0 Z " fill="#537A81" transform="translate(39,55)"/>
<path d="M0 0 C1.32 0 2.64 0 4 0 C4 1.32 4 2.64 4 4 C4.66 4 5.32 4 6 4 C6.268125 4.598125 6.53625 5.19625 6.8125 5.8125 C7.98493467 7.97224808 9.19369282 9.35790256 11 11 C9.35 12.65 7.7 14.3 6 16 C3 15 3 15 1.9375 13.0625 C1.628125 12.381875 1.31875 11.70125 1 11 C0.34 10.34 -0.32 9.68 -1 9 C-0.9765625 6.8359375 -0.9765625 6.8359375 -0.625 4.375 C-0.51414062 3.55773437 -0.40328125 2.74046875 -0.2890625 1.8984375 C-0.19367187 1.27195312 -0.09828125 0.64546875 0 0 Z " fill="#F4D790" transform="translate(18,21)"/>
<path d="M0 0 C3.16407745 2.47623452 5.85013787 5.09046876 7 9 C6.8125 12.625 6.8125 12.625 6 16 C5.01 16.66 4.02 17.32 3 18 C2.93941406 17.32453125 2.87882812 16.6490625 2.81640625 15.953125 C2.73261719 15.06109375 2.64882812 14.1690625 2.5625 13.25 C2.48128906 12.36828125 2.40007812 11.4865625 2.31640625 10.578125 C2.03761535 8.30649548 1.61209423 6.20148177 1 4 C-0.98 4.99 -2.96 5.98 -5 7 C-5.433125 6.38125 -5.86625 5.7625 -6.3125 5.125 C-7.99740483 2.7802755 -7.99740483 2.7802755 -11 1 C-7.28109537 -0.23963488 -3.85779104 -0.67812733 0 0 Z " fill="#6F9087" transform="translate(120,61)"/>
<path d="M0 0 C0.66 0.33 1.32 0.66 2 1 C0.25980143 2.53347285 -1.48840645 4.05383658 -3.25 5.5625 C-3.78488037 6.02068115 -4.31976074 6.4788623 -4.87084961 6.95092773 C-8.56235014 10.02583071 -12.27748076 12.34412618 -16.5625 14.5625 C-20.75821141 16.85505865 -22.72785324 18.34962103 -24.25 22.9375 C-24.77414658 25.16462387 -24.77414658 25.16462387 -25 27 C-26.07174763 23.34811918 -25.76411467 20.73567172 -25 17 C-23.68 16.67 -22.36 16.34 -21 16 C-20.67 14.02 -20.34 12.04 -20 10 C-16.7 9.67 -13.4 9.34 -10 9 C-10 7.68 -10 6.36 -10 5 C-8.38007835 4.13624104 -6.75388139 3.28424146 -5.125 2.4375 C-4.22007812 1.96183594 -3.31515625 1.48617187 -2.3828125 0.99609375 C-1.59648437 0.66738281 -0.81015625 0.33867188 0 0 Z " fill="#734229" transform="translate(202,84)"/>
<path d="M0 0 C1.65 0 3.3 0 5 0 C1.66770464 3.02569192 -0.74740157 3.39484708 -5.1875 3.5625 C-8.31599298 3.64474176 -8.31599298 3.64474176 -11 4 C-11.33 4.66 -11.66 5.32 -12 6 C-10.68 6.66 -9.36 7.32 -8 8 C-13.4389165 8.21755666 -17.87080814 8.10428384 -23 6 C-23 4.35 -23 2.7 -23 1 C-15.41 1.33 -7.82 1.66 0 2 C0 1.34 0 0.68 0 0 Z " fill="#E5A75B" transform="translate(116,180)"/>
<path d="M0 0 C-0.87786684 4.74048094 -2.90646123 7.9905796 -6.4375 11.25 C-11.20603518 14.50656061 -15.37026474 14.09382892 -21 14 C-21 13.67 -21 13.34 -21 13 C-19.3603125 12.814375 -19.3603125 12.814375 -17.6875 12.625 C-13.92618198 12.24535199 -13.92618198 12.24535199 -11 10 C-11 9.01 -11 8.02 -11 7 C-9.54015073 3.84979894 -8.60441105 2.3173158 -5.5 0.6875 C-3 0 -3 0 0 0 Z " fill="#D47C3B" transform="translate(132,85)"/>
<path d="M0 0 C4.37934119 0.51958285 8.68803391 1.05675742 13 2 C13 2.66 13 3.32 13 4 C10.25034772 4.19511725 7.50057868 4.38136433 4.75 4.5625 C3.58404297 4.64661133 3.58404297 4.64661133 2.39453125 4.73242188 C1.64042969 4.78076172 0.88632813 4.82910156 0.109375 4.87890625 C-0.58188477 4.9260376 -1.27314453 4.97316895 -1.98535156 5.02172852 C-4 5 -4 5 -5.8359375 4.52734375 C-8.8091104 3.80283411 -11.67715474 3.77745578 -14.734375 3.68359375 C-16.02988281 3.64169922 -17.32539063 3.59980469 -18.66015625 3.55664062 C-20.02343476 3.51683329 -21.38671606 3.47712094 -22.75 3.4375 C-24.12891875 3.39427726 -25.50782526 3.35066179 -26.88671875 3.30664062 C-30.2577119 3.20056042 -33.62877826 3.0985015 -37 3 C-37 2.67 -37 2.34 -37 2 C-24.79 1.67 -12.58 1.34 0 1 C0 0.67 0 0.34 0 0 Z " fill="#E3A35E" transform="translate(146,6)"/>
<path d="M0 0 C1.65 0 3.3 0 5 0 C5 2.64 5 5.28 5 8 C9.40914783 9.10228696 13.48382401 9.07654536 18 9 C18 9.66 18 10.32 18 11 C10.8999955 12.72121321 5.37933832 12.50238182 -1 9 C-2.4375 6.8125 -2.4375 6.8125 -3 5 C-2.01 5 -1.02 5 0 5 C0 3.35 0 1.7 0 0 Z " fill="#E8BC7B" transform="translate(74,112)"/>
<path d="M0 0 C0.66 0 1.32 0 2 0 C2.55839416 10.65085158 2.55839416 10.65085158 -1 15 C-1.6496875 15.8971875 -1.6496875 15.8971875 -2.3125 16.8125 C-4.91912844 18.64679409 -6.90622807 18.38672149 -10 18 C-11.875 16.625 -11.875 16.625 -13 15 C-13 14.34 -13 13.68 -13 13 C-11.741875 13.0825 -10.48375 13.165 -9.1875 13.25 C-5.88720613 13.25827257 -5.88720613 13.25827257 -3.125 11.5625 C-1.48700821 7.8315187 -0.72602333 3.99739907 0 0 Z " fill="#9CA88E" transform="translate(44,57)"/>
<path d="M0 0 C0.76957031 0.06566162 1.53914063 0.13132324 2.33203125 0.19897461 C2.99203125 1.18897461 3.65203125 2.17897461 4.33203125 3.19897461 C-3.0794533 4.48195184 -10.14077273 5.4541338 -17.66796875 5.19897461 C-17.66796875 4.86897461 -17.66796875 4.53897461 -17.66796875 4.19897461 C-22.28796875 4.19897461 -26.90796875 4.19897461 -31.66796875 4.19897461 C-25.39671758 1.06334903 -19.56356444 0.94127993 -12.66796875 0.63647461 C-11.33378906 0.57169922 -11.33378906 0.57169922 -9.97265625 0.50561523 C-4.98347041 0.29843348 -4.98347041 0.29843348 0 0 Z " fill="#C8A474" transform="translate(57.66796875,8.801025390625)"/>
<path d="M0 0 C3.22086438 3.22086438 2.98077511 6.96185573 3.0625 11.375 C3.041875 12.24125 3.02125 13.1075 3 14 C1.68 14.33 0.36 14.66 -1 15 C-1 15.99 -1 16.98 -1 18 C0.32 18.33 1.64 18.66 3 19 C3 19.99 3 20.98 3 22 C0.6875 22.25 0.6875 22.25 -2 22 C-3.875 20.3125 -3.875 20.3125 -5 18 C-4.82665008 14.79302657 -3.78975044 12.51817809 -2.5 9.5625 C-1.12049408 6.28617344 -0.4278842 3.5086504 0 0 Z " fill="#F1CA84" transform="translate(51,66)"/>
<path d="M0 0 C0.33 0 0.66 0 1 0 C1 1.98 1 3.96 1 6 C0.34 6 -0.32 6 -1 6 C-1.33 7.65 -1.66 9.3 -2 11 C-2.66 11 -3.32 11 -4 11 C-4 11.66 -4 12.32 -4 13 C-5.00804688 13.12246094 -6.01609375 13.24492187 -7.0546875 13.37109375 C-12.10030451 14.17539508 -16.81950629 15.66113924 -21.6953125 17.16015625 C-24.64745604 17.91040549 -26.98018208 18.17663086 -30 18 C-27.25406093 15.25406093 -24.07520748 14.72407545 -20.4375 13.6875 C-9.10874834 10.53841646 -9.10874834 10.53841646 -0.9375 2.6875 C-0.628125 1.800625 -0.31875 0.91375 0 0 Z " fill="#877B68" transform="translate(87,179)"/>
<path d="M0 0 C0.99 0 1.98 0 3 0 C6.19445342 11.77954699 5.52315129 22.36101808 2 34 C1.67 34 1.34 34 1 34 C0.875 27.375 0.875 27.375 2 24 C2.08021999 22.59175107 2.10765977 21.18002769 2.09765625 19.76953125 C2.09443359 18.96708984 2.09121094 18.16464844 2.08789062 17.33789062 C2.07532227 16.08782227 2.07532227 16.08782227 2.0625 14.8125 C2.05573242 13.5450293 2.05573242 13.5450293 2.04882812 12.25195312 C2.03705403 10.16793845 2.0191189 8.08396023 2 6 C1.67 9.96 1.34 13.92 1 18 C0.67 18 0.34 18 0 18 C0 12.06 0 6.12 0 0 Z " fill="#F2CE97" transform="translate(104,127)"/>
<path d="M0 0 C7.1178153 2.03807293 14.06707281 4.40344742 21 7 C21.1796875 11.7890625 21.1796875 11.7890625 19.5625 13.6875 C15.87571449 15.57585355 12.05492345 16.26352886 8 17 C10.5654594 14.4345406 12.47686668 14.45953913 16 14 C16.2165625 13.0409375 16.2165625 13.0409375 16.4375 12.0625 C17 10 17 10 18 9 C17.07767578 8.83564453 17.07767578 8.83564453 16.13671875 8.66796875 C15.32847656 8.50941406 14.52023438 8.35085937 13.6875 8.1875 C12.88699219 8.03667969 12.08648437 7.88585937 11.26171875 7.73046875 C8.71804514 6.90893686 7.78130973 5.93964837 6 4 C4.02379014 2.95377125 2.0262871 1.94560065 0 1 C0 0.67 0 0.34 0 0 Z " fill="#784D31" transform="translate(158,190)"/>
<path d="M0 0 C0.33 0 0.66 0 1 0 C1.4205507 2.94385489 1.4877635 5.12318704 0.015625 7.76953125 C-1.56109852 9.66071368 -2.8212276 10.83570512 -5 12 C-9.57272601 12.34029589 -13.67955889 11.44014704 -18 10 C-17.67 9.01 -17.34 8.02 -17 7 C-16.01257813 6.93941406 -15.02515625 6.87882813 -14.0078125 6.81640625 C-12.72648437 6.73261719 -11.44515625 6.64882812 -10.125 6.5625 C-8.84882812 6.48128906 -7.57265625 6.40007812 -6.2578125 6.31640625 C-3.11699848 6.20793973 -3.11699848 6.20793973 -1 5 C-0.34444881 2.47266765 -0.34444881 2.47266765 0 0 Z " fill="#E2A458" transform="translate(109,194)"/>
<path d="M0 0 C0 0.33 0 0.66 0 1 C-5.28 1.66 -10.56 2.32 -16 3 C-13.525 3.495 -13.525 3.495 -11 4 C-11 4.33 -11 4.66 -11 5 C-13.14576637 5.02685938 -15.29162645 5.04633088 -17.4375 5.0625 C-18.63246094 5.07410156 -19.82742187 5.08570313 -21.05859375 5.09765625 C-24 5 -24 5 -25 4 C-27.35313555 3.92728259 -29.70833668 3.91629132 -32.0625 3.9375 C-33.35285156 3.94652344 -34.64320312 3.95554687 -35.97265625 3.96484375 C-36.97167969 3.97644531 -37.97070312 3.98804688 -39 4 C-39 3.67 -39 3.34 -39 3 C-34.93902453 2.48709211 -30.87603944 1.99214717 -26.8125 1.5 C-25.68134766 1.35691406 -24.55019531 1.21382813 -23.38476562 1.06640625 C-15.55150824 0.1290934 -7.88630989 -0.17635811 0 0 Z " fill="#897558" transform="translate(80,6)"/>
<path d="M0 0 C1.26026798 2.52053595 0.91874445 3.8542098 0.5625 6.625 C0.40974609 7.85089844 0.40974609 7.85089844 0.25390625 9.1015625 C0.17011719 9.72804688 0.08632812 10.35453125 0 11 C0.66 11 1.32 11 2 11 C2.66 11.66 3.32 12.32 4 13 C4.33 12.34 4.66 11.68 5 11 C8.2562095 12.12283086 8.97713495 12.95850416 10.6875 16.0625 C11.120625 17.031875 11.55375 18.00125 12 19 C12.33 19.33 12.66 19.66 13 20 C13.04063832 21.66617115 13.042721 23.33388095 13 25 C12.34 24.01 11.68 23.02 11 22 C8.41772108 19.20253117 5.98753566 16.99169044 2.8125 14.875 C0 13 0 13 -2 10 C-2.01171875 7.7734375 -2.01171875 7.7734375 -1.6875 5.375 C-1.58824219 4.57835937 -1.48898437 3.78171875 -1.38671875 2.9609375 C-1 1 -1 1 0 0 Z " fill="#907C5C" transform="translate(12,20)"/>
<path d="M0 0 C28.11037975 -0.25974684 28.11037975 -0.25974684 36 5 C27.91441851 4.31815695 19.86619017 3.42356986 11.8125 2.4375 C10.09836914 2.22963867 10.09836914 2.22963867 8.34960938 2.01757812 C5.56622527 1.67984533 2.7830309 1.34062888 0 1 C0 0.67 0 0.34 0 0 Z " fill="#E7BA83" transform="translate(147,10)"/>
<path d="M0 0 C0.66 0 1.32 0 2 0 C1.875 2.25 1.875 2.25 1 5 C-6.36411447 11.23117378 -15.53265684 13.59713433 -25 14 C-22.6120592 11.6120592 -21.23091381 11.64618276 -18 11 C-17.34 10.34 -16.68 9.68 -16 9 C-14.68 9 -13.36 9 -12 9 C-11.34 8.34 -10.68 7.68 -10 7 C-9.01 6.87625 -8.02 6.7525 -7 6.625 C-3.87885291 6.34069672 -3.87885291 6.34069672 -2.625 3.9375 C-2.315625 2.9784375 -2.315625 2.9784375 -2 2 C-1.34 2 -0.68 2 0 2 C0 1.34 0 0.68 0 0 Z " fill="#D08D4D" transform="translate(203,20)"/>
<path d="M0 0 C1.78409802 3.06246747 2.22880021 5.22079273 2.125 8.75 C2.10695313 9.54921875 2.08890625 10.3484375 2.0703125 11.171875 C2.03550781 12.07679688 2.03550781 12.07679688 2 13 C1.34 13 0.68 13 0 13 C-1.38232443 11.37373596 -2.71937515 9.7074998 -4 8 C-4.33 8.66 -4.66 9.32 -5 10 C-5.66 10 -6.32 10 -7 10 C-5.64615385 3.47692308 -5.64615385 3.47692308 -2.375 1.0625 C-1.199375 0.5365625 -1.199375 0.5365625 0 0 Z " fill="#F1CB89" transform="translate(111,159)"/>
<path d="M0 0 C7.31626261 -0.18463754 14.31570029 0.5302655 21.5625 1.5 C22.66658203 1.64308594 23.77066406 1.78617188 24.90820312 1.93359375 C27.6061765 2.2839799 30.3033556 2.63955269 33 3 C33 3.33 33 3.66 33 4 C32.07767578 4.07347656 32.07767578 4.07347656 31.13671875 4.1484375 C30.32847656 4.22320312 29.52023438 4.29796875 28.6875 4.375 C27.88699219 4.44460937 27.08648437 4.51421875 26.26171875 4.5859375 C23.72775559 4.89564426 23.72775559 4.89564426 21 7 C21 6.01 21 5.02 21 4 C20.40574219 3.95101562 19.81148437 3.90203125 19.19921875 3.8515625 C12.71654025 3.26681078 6.38595599 2.25048188 0 1 C0 0.67 0 0.34 0 0 Z " fill="#E6A75D" transform="translate(58,36)"/>
<path d="M0 0 C2 3 2 3 3 5 C6.02934491 5.65772428 6.02934491 5.65772428 9 6 C8.125 9.875 8.125 9.875 7 11 C3.5625 11.1875 3.5625 11.1875 0 11 C-0.66 10.34 -1.32 9.68 -2 9 C-2 7.68 -2 6.36 -2 5 C-1.34 5 -0.68 5 0 5 C0 3.35 0 1.7 0 0 Z " fill="#55797D" transform="translate(199,62)"/>
<path d="M0 0 C0.33 0 0.66 0 1 0 C1.08160748 1.89510699 1.13946459 3.79124504 1.1875 5.6875 C1.22230469 6.74324219 1.25710937 7.79898438 1.29296875 8.88671875 C0.96377345 12.38496744 0.00297627 14.1557737 -2 17 C-2.391875 17.598125 -2.78375 18.19625 -3.1875 18.8125 C-6.25026436 20.81913872 -9.41267887 20.17642563 -13 20 C-13 19.34 -13 18.68 -13 18 C-12.16855469 17.70996094 -12.16855469 17.70996094 -11.3203125 17.4140625 C-10.23363281 17.02347656 -10.23363281 17.02347656 -9.125 16.625 C-8.40570313 16.36976562 -7.68640625 16.11453125 -6.9453125 15.8515625 C-4.32061589 14.70259892 -3.21132238 13.42264475 -1.9375 10.875 C-0.75045646 7.23473316 -0.38730567 3.80850571 0 0 Z " fill="#BD682E" transform="translate(49,63)"/>
<path d="M0 0 C2.31 0.33 4.62 0.66 7 1 C3.52179367 3.31880422 0.8416981 3.81807149 -3.25 4.625 C-5.17585937 5.01558594 -5.17585937 5.01558594 -7.140625 5.4140625 C-10.83167633 5.97444479 -14.27412457 6.1061778 -18 6 C-16.10573326 3.43716852 -14.98808632 2.99743038 -11.8125 2.3125 C-7.83662187 1.98660835 -3.98651391 1.93006116 0 2 C0 1.34 0 0.68 0 0 Z " fill="#7D4B2D" transform="translate(153,122)"/>
<path d="M0 0 C-0.33 0.33 -0.66 0.66 -1 1 C-0.34 1.66 0.32 2.32 1 3 C1 3.66 1 4.32 1 5 C-0.32 5 -1.64 5 -3 5 C-2.34414811 8.60992379 -2.34414811 8.60992379 -1 12 C-1.99 13.485 -1.99 13.485 -3 15 C-3.3403125 13.081875 -3.3403125 13.081875 -3.6875 11.125 C-4.1693992 8.92647455 -4.1693992 8.92647455 -5 7 C-7.41499457 5.53335352 -7.41499457 5.53335352 -10 5 C-10.66 4.34 -11.32 3.68 -12 3 C-9.69 3 -7.38 3 -5 3 C-5.33 2.01 -5.66 1.02 -6 0 C-2.25 -1.125 -2.25 -1.125 0 0 Z " fill="#CBA36D" transform="translate(65,97)"/>
<path d="M0 0 C13.23063878 -0.2133974 13.23063878 -0.2133974 19 1 C19.33 1.66 19.66 2.32 20 3 C16.04 3 12.08 3 8 3 C7.67 3.66 7.34 4.32 7 5 C6.34 5 5.68 5 5 5 C5 6.65 5 8.3 5 10 C4.34 10 3.68 10 3 10 C2.01 6.7 1.02 3.4 0 0 Z " fill="#F1CE89" transform="translate(47,55)"/>
<path d="M0 0 C6.27 0.66 12.54 1.32 19 2 C19 2.66 19 3.32 19 4 C16.2915983 4.02714434 13.58347279 4.04690846 10.875 4.0625 C9.73417969 4.07506836 9.73417969 4.07506836 8.5703125 4.08789062 C4.2610356 4.10646509 0.24483526 3.86117265 -4 3 C-4 4.65 -4 6.3 -4 8 C-4.33 8 -4.66 8 -5 8 C-5 6.02 -5 4.04 -5 2 C-3.35 2 -1.7 2 0 2 C0 1.34 0 0.68 0 0 Z " fill="#F0CA91" transform="translate(97,178)"/>
<path d="M0 0 C2.64624284 0.14021805 5.29184578 0.28689776 7.9375 0.4375 C9.06961914 0.49647461 9.06961914 0.49647461 10.22460938 0.55664062 C15.88671875 0.88671875 15.88671875 0.88671875 17 2 C17.25386802 5.90999424 17.18523307 9.83274702 17.1875 13.75 C17.19974609 14.84828125 17.21199219 15.9465625 17.22460938 17.078125 C17.22750977 18.67140625 17.22750977 18.67140625 17.23046875 20.296875 C17.23457764 21.26979492 17.23868652 22.24271484 17.24291992 23.24511719 C16.98493718 26.17082294 16.22139817 28.3436027 15 31 C14.24294573 28.72883718 13.93399004 27.29343925 14.46484375 24.93359375 C15.20759379 20.86202239 15.14466371 16.87937999 15.125 12.75 C15.12886719 11.92242187 15.13273437 11.09484375 15.13671875 10.2421875 C15.52241071 6.30690311 15.52241071 6.30690311 14 3 C11.65276034 2.602507 9.29671452 2.25631277 6.9375 1.9375 C5.64714844 1.76089844 4.35679688 1.58429688 3.02734375 1.40234375 C1.52880859 1.20318359 1.52880859 1.20318359 0 1 C0 0.67 0 0.34 0 0 Z " fill="#4C453A" transform="translate(87,126)"/>
<path d="M0 0 C4.96916636 0.51405169 9.29026351 1.23384882 14 3 C13.67 3.66 13.34 4.32 13 5 C11.35 4.67 9.7 4.34 8 4 C8.02320313 4.62648438 8.04640625 5.25296875 8.0703125 5.8984375 C8.09738281 7.12433594 8.09738281 7.12433594 8.125 8.375 C8.14820313 9.18710937 8.17140625 9.99921875 8.1953125 10.8359375 C8 13 8 13 6 15 C5.01 14.67 4.02 14.34 3 14 C3.495 13.649375 3.99 13.29875 4.5 12.9375 C6.73063966 10.05625711 6.19980621 7.52990974 6 4 C3.69 3.34 1.38 2.68 -1 2 C-0.67 1.34 -0.34 0.68 0 0 Z " fill="#D29555" transform="translate(200,14)"/>
<path d="M0 0 C1.32 0 2.64 0 4 0 C4.6331684 9.01134307 5.1723784 17.95971078 5 27 C4.67 27 4.34 27 4 27 C3.67 22.05 3.34 17.1 3 12 C2.34 12 1.68 12 1 12 C0.67 8.04 0.34 4.08 0 0 Z " fill="#EFC47E" transform="translate(67,58)"/>
<path d="M0 0 C0.33 0 0.66 0 1 0 C1.33 5.61 1.66 11.22 2 17 C3.32 17.66 4.64 18.32 6 19 C5.67 19.99 5.34 20.98 5 22 C1.47928987 20.82642996 0.76550111 20.2090579 -1 17 C-1.24012667 14.36432397 -1.33036419 11.99688175 -1.25 9.375 C-1.24484375 8.694375 -1.2396875 8.01375 -1.234375 7.3125 C-1.15529337 2.31058673 -1.15529337 2.31058673 0 0 Z " fill="#D47D3C" transform="translate(191,59)"/>
<path d="M0 0 C2.64 0.99 5.28 1.98 8 3 C8 3.33 8 3.66 8 4 C6.453125 4.3403125 6.453125 4.3403125 4.875 4.6875 C1.91309644 5.5089186 0.04607707 6.58852963 -2.25 8.625 C-5 11 -5 11 -8 11 C-7.34 9.68 -6.68 8.36 -6 7 C-5.34 7 -4.68 7 -4 7 C-3.71125 6.401875 -3.4225 5.80375 -3.125 5.1875 C-2 3 -2 3 0 0 Z " fill="#E4A85D" transform="translate(92,186)"/>
<path d="M0 0 C-0.39143023 2.27029534 -0.88741278 3.83408198 -2.1875 5.75 C-4.78687216 7.54267046 -6.92339216 7.20510719 -10 7 C-10.33 5.68 -10.66 4.36 -11 3 C-9.54293274 2.49632243 -8.08429904 1.99717444 -6.625 1.5 C-5.81289062 1.2215625 -5.00078125 0.943125 -4.1640625 0.65625 C-2 0 -2 0 0 0 Z " fill="#699698" transform="translate(117,73)"/>
<path d="M0 0 C0.33 0.66 0.66 1.32 1 2 C2.32 1.67 3.64 1.34 5 1 C7.35582065 5.62816733 7.23521469 9.75534135 7.125 14.8125 C7.11597656 15.60076172 7.10695313 16.38902344 7.09765625 17.20117188 C7.07422504 19.13424666 7.03835838 21.0671638 7 23 C6.67 23 6.34 23 6 23 C5.67 17.39 5.34 11.78 5 6 C3.35 6 1.7 6 0 6 C0 4.02 0 2.04 0 0 Z " fill="#EAB26B" transform="translate(107,152)"/>
<path d="M0 0 C4.34161825 -0.04952706 8.68308575 -0.08577954 13.02490234 -0.10986328 C14.50116847 -0.11990591 15.97741479 -0.13354265 17.45361328 -0.15087891 C19.57850034 -0.17520421 21.70312385 -0.1865004 23.828125 -0.1953125 C25.1059082 -0.20578613 26.38369141 -0.21625977 27.70019531 -0.22705078 C30.77469299 -0.01550278 32.43738352 0.36873092 35 2 C34.67 2.66 34.34 3.32 34 4 C33.01 4 32.02 4 31 4 C31 3.34 31 2.68 31 2 C20.77 1.67 10.54 1.34 0 1 C0 0.67 0 0.34 0 0 Z " fill="#DD8945" transform="translate(111,114)"/>
<path d="M0 0 C2.31 0 4.62 0 7 0 C7 0.66 7 1.32 7 2 C8.32 2.33 9.64 2.66 11 3 C7.93753253 4.78409802 5.77920727 5.22880021 2.25 5.125 C1.45078125 5.10695313 0.6515625 5.08890625 -0.171875 5.0703125 C-0.77515625 5.04710938 -1.3784375 5.02390625 -2 5 C-1.34 3.35 -0.68 1.7 0 0 Z " fill="#D9914B" transform="translate(129,122)"/>
<path d="M0 0 C2.71278947 1.02898911 3.80918941 1.63846415 5.1875 4.25 C7.9015977 8.36794133 11.84157395 10.46309858 16 13 C15.67 13.66 15.34 14.32 15 15 C14.34 15 13.68 15 13 15 C12.38125 14.3503125 12.38125 14.3503125 11.75 13.6875 C9.96692446 11.76477751 9.96692446 11.76477751 6.875 10.6875 C4 9 4 9 3.125 5.8125 C3.08375 4.884375 3.0425 3.95625 3 3 C2.01 3.33 1.02 3.66 0 4 C0 2.68 0 1.36 0 0 Z " fill="#F1D4A8" transform="translate(35,82)"/>
<path d="M0 0 C0.99 0 1.98 0 3 0 C3 3.3 3 6.6 3 10 C2.34 10 1.68 10 1 10 C0.67 10.99 0.34 11.98 0 13 C-1.80017973 8.55249714 -2.19432474 5.66872399 -1 1 C-0.67 0.67 -0.34 0.34 0 0 Z " fill="#5A7F84" transform="translate(196,57)"/>
<path d="M0 0 C-3.81101032 2.01654858 -7.77523247 3.33898717 -11.85546875 4.70703125 C-14.27203319 5.83778837 -14.27203319 5.83778837 -14.80078125 8.63671875 C-14.89939453 9.80654297 -14.89939453 9.80654297 -15 11 C-15.66 11 -16.32 11 -17 11 C-17.48442907 4.58131488 -17.48442907 4.58131488 -15.4375 2.125 C-10.51764065 -0.14570432 -5.33743762 -0.13018141 0 0 Z " fill="#EAB568" transform="translate(39,14)"/>
<path d="M0 0 C12.19673577 -0.39700044 12.19673577 -0.39700044 18 2 C18.33 2.99 18.66 3.98 19 5 C12.42465139 4.37968409 6.33307408 2.85102717 0 1 C0 0.67 0 0.34 0 0 Z " fill="#744B2F" transform="translate(71,207)"/>
<path d="M0 0 C0.99 0.33 1.98 0.66 3 1 C4.50524531 4.54377754 4.09752721 8.46706136 4.0625 12.25 C4.05347656 13.51328125 4.04445312 14.7765625 4.03515625 16.078125 C4.02355469 17.04234375 4.01195312 18.0065625 4 19 C2.35 19.66 0.7 20.32 -1 21 C-0.67386719 20.4740625 -0.34773438 19.948125 -0.01171875 19.40625 C1.28768319 16.31578051 1.22968276 13.84394258 1.1875 10.5 C1.18105469 9.3759375 1.17460938 8.251875 1.16796875 7.09375 C1.0295553 4.54436746 0.74334614 2.4262818 0 0 Z " fill="#C18A53" transform="translate(125,66)"/>
<path d="M0 0 C2 3 2 3 3.25 5.5625 C5.47220644 8.65771611 7.36892189 9.11240313 11 10 C11 10.66 11 11.32 11 12 C3.64321608 12.48241206 3.64321608 12.48241206 1 10.5 C-0.44831655 6.87920862 -0.19435828 3.88716564 0 0 Z " fill="#93AB98" transform="translate(194,64)"/>
<path d="M0 0 C-0.33 0.66 -0.66 1.32 -1 2 C-3.31804663 2.44332642 -5.65674091 2.7814034 -8 3.0625 C-12.32759678 3.22405132 -12.32759678 3.22405132 -16 5 C-17.99958364 5.04080783 -20.00045254 5.04254356 -22 5 C-15.06489475 0.3765965 -8.19566047 -0.46196834 0 0 Z " fill="#EDCF9F" transform="translate(41,12)"/>
<path d="M0 0 C2.31 0 4.62 0 7 0 C5.02 0.99 5.02 0.99 3 2 C2.67 7.94 2.34 13.88 2 20 C1.67 20 1.34 20 1 20 C-0.05619003 15.71702469 -0.11702092 11.57014354 -0.0625 7.1875 C-0.05798828 6.49462891 -0.05347656 5.80175781 -0.04882812 5.08789062 C-0.03713156 3.39188932 -0.01919924 1.69593297 0 0 Z " fill="#433224" transform="translate(128,128)"/>
<path d="M0 0 C0 3 0 3 -2 6 C-2 6.99 -2 7.98 -2 9 C-3.98 9.33 -5.96 9.66 -8 10 C-7.34 9.01 -6.68 8.02 -6 7 C-8.97 6.67 -11.94 6.34 -15 6 C-15 5.34 -15 4.68 -15 4 C-14.33613281 4.04640625 -13.67226562 4.0928125 -12.98828125 4.140625 C-7.11883743 4.42511557 -7.11883743 4.42511557 -1.875 2 C-0.946875 1.01 -0.946875 1.01 0 0 Z " fill="#C78E50" transform="translate(123,87)"/>
<path d="M0 0 C0.66 0 1.32 0 2 0 C1.67 1.65 1.34 3.3 1 5 C3.31 5 5.62 5 8 5 C7.67 5.99 7.34 6.98 7 8 C5.02 8.33 3.04 8.66 1 9 C0.34 7.68 -0.32 6.36 -1 5 C-1.66 5 -2.32 5 -3 5 C-1.125 1.125 -1.125 1.125 0 0 Z " fill="#90ABA0" transform="translate(105,64)"/>
<path d="M0 0 C0.66 0 1.32 0 2 0 C2.06058594 0.80824219 2.12117188 1.61648437 2.18359375 2.44921875 C2.26738281 3.51785156 2.35117187 4.58648437 2.4375 5.6875 C2.55931641 7.27111328 2.55931641 7.27111328 2.68359375 8.88671875 C2.96451681 11.65086297 3.40156852 14.28945741 4 17 C2.68 16.67 1.36 16.34 0 16 C0 10.72 0 5.44 0 0 Z " fill="#DBD2B3" transform="translate(26,56)"/>
<path d="M0 0 C0.33 0 0.66 0 1 0 C1.51202529 3.13615492 1.67139297 5.87999737 1 9 C-1.33188764 11.82281136 -4.0008706 13.91801508 -7 16 C-7 12.63497392 -6.4508149 11.83733775 -4.625 9.125 C-2.69643256 6.16385679 -1.15532729 3.36095213 0 0 Z " fill="#736758" transform="translate(100,157)"/>
<path d="M0 0 C0 5.28 0 10.56 0 16 C-2.42581871 13.57418129 -2.96355664 11.92566131 -3.09765625 8.51953125 C-3.08605469 7.62621094 -3.07445313 6.73289063 -3.0625 5.8125 C-3.05347656 4.91144531 -3.04445313 4.01039063 -3.03515625 3.08203125 C-3.02355469 2.39496094 -3.01195313 1.70789063 -3 1 C-1 0 -1 0 0 0 Z " fill="#D48A48" transform="translate(128,136)"/>
<path d="M0 0 C0.66 0.66 1.32 1.32 2 2 C2.33 1.34 2.66 0.68 3 0 C3.66 0 4.32 0 5 0 C4.88655624 2.1464753 4.75893655 4.29220592 4.625 6.4375 C4.55539063 7.63246094 4.48578125 8.82742187 4.4140625 10.05859375 C4.27742187 11.02925781 4.14078125 11.99992187 4 13 C3.01 13.495 3.01 13.495 2 14 C2.33 11.36 2.66 8.72 3 6 C1.68 6.33 0.36 6.66 -1 7 C-0.67 4.69 -0.34 2.38 0 0 Z " fill="#A75C30" transform="translate(172,100)"/>
<path d="M0 0 C0.66 0 1.32 0 2 0 C5.20105218 4.80157828 5.25593353 9.91596979 4.5625 15.5625 C4.376875 16.366875 4.19125 17.17125 4 18 C3.67 18 3.34 18 3 18 C2.01 12.06 1.02 6.12 0 0 Z " fill="#CDB190" transform="translate(24,38)"/>
<path d="M0 0 C4.368381 1.19137664 7.47980364 2.12277483 10 6 C10.3275473 9.36000139 10.23112667 12.63582298 10 16 C9.67 16 9.34 16 9 16 C9 13.36 9 10.72 9 8 C8.01 8 7.02 8 6 8 C6 7.01 6 6.02 6 5 C5.195625 4.731875 4.39125 4.46375 3.5625 4.1875 C2.716875 3.795625 1.87125 3.40375 1 3 C0.67 2.01 0.34 1.02 0 0 Z " fill="#906740" transform="translate(213,16)"/>
<path d="M0 0 C0.99 0 1.98 0 3 0 C3.3690205 9.41002278 3.3690205 9.41002278 1 14 C0.67 14 0.34 14 0 14 C0.020625 12.9275 0.04125 11.855 0.0625 10.75 C0.14516436 7.21993579 0.14516436 7.21993579 -0.5625 4.75 C-1 3 -1 3 0 0 Z " fill="#EAD1A9" transform="translate(102,154)"/>
<path d="M0 0 C0.625 1.8125 0.625 1.8125 1 4 C0.01 5.485 0.01 5.485 -1 7 C1.1385485 9.1385485 2.13275314 9.42655063 5 10 C5 10.99 5 11.98 5 13 C2.6875 13.25 2.6875 13.25 0 13 C-1.875 11.3125 -1.875 11.3125 -3 9 C-2.74454157 5.59388766 -1.6483487 2.96702767 0 0 Z " fill="#F0BD6F" transform="translate(49,75)"/>
<path d="M0 0 C3.96 0 7.92 0 12 0 C12 0.66 12 1.32 12 2 C12.99 2.33 13.98 2.66 15 3 C4.44191344 3.18451025 4.44191344 3.18451025 0 2 C0 1.34 0 0.68 0 0 Z " fill="#E0A85F" transform="translate(99,177)"/>
<path d="M0 0 C5.94155844 5.74350649 5.94155844 5.74350649 6.125 9.6875 C6.08375 10.450625 6.0425 11.21375 6 12 C5.01 12 4.02 12 3 12 C2.49166409 10.75336669 1.99368855 9.50250613 1.5 8.25 C1.2215625 7.55390625 0.943125 6.8578125 0.65625 6.140625 C0 4 0 4 0 0 Z " fill="#859E90" transform="translate(101,77)"/>
<path d="M0 0 C0 3 0 3 -1.875 5.1875 C-4 7 -4 7 -6 7 C-6 6.01 -6 5.02 -6 4 C-8.31 4 -10.62 4 -13 4 C-13 3.67 -13 3.34 -13 3 C-11.96875 2.87625 -10.9375 2.7525 -9.875 2.625 C-6.37883154 2.06110186 -3.31602373 1.21317941 0 0 Z " fill="#B98550" transform="translate(211,75)"/>
<path d="M0 0 C-6.04617311 3.14619868 -12.08847232 5.53165598 -19 5 C-16.66828982 2.66828982 -15.1450503 2.31061716 -12 1.4375 C-3.72807925 -0.88296614 -3.72807925 -0.88296614 0 0 Z " fill="#EDC28A" transform="translate(200,30)"/>
<path d="M0 0 C3.85103301 0.53675903 5.31797587 2.11600923 7.75 5.0625 C8.36359375 5.79597656 8.9771875 6.52945313 9.609375 7.28515625 C10.06828125 7.85105469 10.5271875 8.41695312 11 9 C7.25983417 9 6.54723807 8.0658409 3.8125 5.625 C3.09707031 4.99851562 2.38164063 4.37203125 1.64453125 3.7265625 C0 2 0 2 0 0 Z " fill="#A9987A" transform="translate(63,112)"/>
<path d="M0 0 C3.40312738 1.05875074 6.01353231 2.00902154 9 4 C9 4.66 9 5.32 9 6 C10.65 5.67 12.3 5.34 14 5 C14 6.32 14 7.64 14 9 C8.40440609 7.60110152 4.29704147 4.74082545 0 1 C0 0.67 0 0.34 0 0 Z " fill="#9A8772" transform="translate(39,91)"/>
<path d="M0 0 C0.99 0 1.98 0 3 0 C3.33 2.31 3.66 4.62 4 7 C3.34 6.67 2.68 6.34 2 6 C1.67 9.96 1.34 13.92 1 18 C0.67 18 0.34 18 0 18 C0 12.06 0 6.12 0 0 Z " fill="#DCC09B" transform="translate(104,127)"/>
<path d="M0 0 C0.99 0 1.98 0 3 0 C2.67 2.97 2.34 5.94 2 9 C1.01 9 0.02 9 -1 9 C-1.09765625 2.84765625 -1.09765625 2.84765625 -1 1 C-0.67 0.67 -0.34 0.34 0 0 Z " fill="#C8763A" transform="translate(172,106)"/>
<path d="M0 0 C-0.66 0.66 -1.32 1.32 -2 2 C-1.67 2.99 -1.34 3.98 -1 5 C-3.64 4.67 -6.28 4.34 -9 4 C-9.33 3.01 -9.66 2.02 -10 1 C-6.61981469 -0.04005702 -3.5219721 -0.08004482 0 0 Z " fill="#E9C187" transform="translate(62,96)"/>
<path d="M0 0 C0.66 0.33 1.32 0.66 2 1 C1.0409375 1.7425 1.0409375 1.7425 0.0625 2.5 C-2.81515269 5.98806387 -2.70230736 8.53461041 -3 13 C-3.66 13 -4.32 13 -5 13 C-5.05422947 11.5629191 -5.09289723 10.12524538 -5.125 8.6875 C-5.14820313 7.88699219 -5.17140625 7.08648437 -5.1953125 6.26171875 C-5 4 -5 4 -3 1 C-2.01 0.67 -1.02 0.34 0 0 Z " fill="#F1D5A5" transform="translate(17,18)"/>
<path d="M0 0 C4.37934119 0.51958285 8.68803391 1.05675742 13 2 C13 2.66 13 3.32 13 4 C9.04 4 5.08 4 1 4 C1.33 3.34 1.66 2.68 2 2 C1.34 1.34 0.68 0.68 0 0 Z " fill="#D09E62" transform="translate(146,6)"/>
<path d="M0 0 C0.99 0 1.98 0 3 0 C2.6875 3.375 2.6875 3.375 2 7 C-1.52679099 9.35119399 -3.02879485 9.21443452 -7.1875 9.125 C-8.27417969 9.10695312 -9.36085938 9.08890625 -10.48046875 9.0703125 C-11.72763672 9.03550781 -11.72763672 9.03550781 -13 9 C-13 8.67 -13 8.34 -13 8 C-9.37 8 -5.74 8 -2 8 C-2 7.34 -2 6.68 -2 6 C-1.34 6 -0.68 6 0 6 C0 4.02 0 2.04 0 0 Z " fill="#EFB86F" transform="translate(107,192)"/>
<path d="M0 0 C0 0.66 0 1.32 0 2 C-1.62318979 2.36237263 -3.2486358 2.71465157 -4.875 3.0625 C-5.77992187 3.25972656 -6.68484375 3.45695313 -7.6171875 3.66015625 C-10 4 -10 4 -12 3 C-12 2.34 -12 1.68 -12 1 C-7.58774263 -0.47075246 -4.51718381 -1.36884358 0 0 Z " fill="#F2D6AC" transform="translate(84,192)"/>
<path d="M0 0 C0.66 0.66 1.32 1.32 2 2 C-6.19256018 4.43326039 -6.19256018 4.43326039 -9.5625 2.625 C-10.036875 2.08875 -10.51125 1.5525 -11 1 C-7.07703567 -0.30765478 -4.13997567 -0.1971417 0 0 Z " fill="#87AA9D" transform="translate(120,61)"/>
<path d="M0 0 C1.22589844 0.01353516 1.22589844 0.01353516 2.4765625 0.02734375 C3.41628906 0.04474609 3.41628906 0.04474609 4.375 0.0625 C4.705 0.7225 5.035 1.3825 5.375 2.0625 C4.17875 1.959375 2.9825 1.85625 1.75 1.75 C-1.74059679 1.71894487 -3.46224368 2.3010682 -6.125 4.5625 C-6.95 5.3875 -7.775 6.2125 -8.625 7.0625 C-9.285 6.7325 -9.945 6.4025 -10.625 6.0625 C-7.11585383 1.50060998 -5.76245572 -0.0823208 0 0 Z " fill="#E7CCA3" transform="translate(202.625,51.9375)"/>
<path d="M0 0 C1.93922422 0.45098238 3.87633594 0.91105559 5.8125 1.375 C6.89144531 1.63023438 7.97039063 1.88546875 9.08203125 2.1484375 C12 3 12 3 15 5 C11.04 5 7.08 5 3 5 C3 4.34 3 3.68 3 3 C2.01 3.33 1.02 3.66 0 4 C0 2.66666667 0 1.33333333 0 0 Z " fill="#E5B56B" transform="translate(23,35)"/>
<path d="M0 0 C5.75 0.75 5.75 0.75 8 3 C8 3.99 8 4.98 8 6 C5.125 5.8125 5.125 5.8125 2 5 C0.625 2.4375 0.625 2.4375 0 0 Z " fill="#D17D3C" transform="translate(135,172)"/>
<path d="M0 0 C2.38672669 2.96283313 4.7353371 5.94270509 7 9 C6.67 9.66 6.34 10.32 6 11 C3.69 10.01 1.38 9.02 -1 8 C-0.67 5.36 -0.34 2.72 0 0 Z " fill="#7C5534" transform="translate(136,164)"/>
<path d="M0 0 C1.65 0 3.3 0 5 0 C4.01 0.495 4.01 0.495 3 1 C3.33 3.97 3.66 6.94 4 10 C3.01 10 2.02 10 1 10 C0.67 6.7 0.34 3.4 0 0 Z " fill="#EED1A3" transform="translate(62,102)"/>
<path d="M0 0 C2.69082872 0.17635452 5.32851446 0.61835921 8 1 C8 2.32 8 3.64 8 5 C5.36 4.67 2.72 4.34 0 4 C-0.33 3.01 -0.66 2.02 -1 1 C-0.67 0.67 -0.34 0.34 0 0 Z " fill="#D68D4A" transform="translate(31,75)"/>
<path d="M0 0 C0.33 0 0.66 0 1 0 C1.03738281 0.83144531 1.07476562 1.66289063 1.11328125 2.51953125 C1.17902344 3.60621094 1.24476562 4.69289063 1.3125 5.8125 C1.37050781 6.89144531 1.42851563 7.97039062 1.48828125 9.08203125 C2.03068507 12.17497517 2.55289624 13.13022903 5 15 C5.66 14.34 6.32 13.68 7 13 C7 14.32 7 15.64 7 17 C4.625 16.6875 4.625 16.6875 2 16 C-0.42130331 12.36804504 -0.21022785 10.61650652 -0.125 6.3125 C-0.09792969 4.54326172 -0.09792969 4.54326172 -0.0703125 2.73828125 C-0.04710938 1.83464844 -0.02390625 0.93101563 0 0 Z " fill="#EECB9A" transform="translate(97,72)"/>
<path d="M0 0 C0.66 0.33 1.32 0.66 2 1 C2 1.66 2 2.32 2 3 C4.97 3 7.94 3 11 3 C11 3.66 11 4.32 11 5 C10.30132812 4.98839844 9.60265625 4.97679688 8.8828125 4.96484375 C7.97273438 4.95582031 7.06265625 4.94679688 6.125 4.9375 C5.22007813 4.92589844 4.31515625 4.91429688 3.3828125 4.90234375 C0.9831415 4.83750743 0.9831415 4.83750743 -1 6 C-1.99 5.01 -2.98 4.02 -4 3 C-3.67 2.34 -3.34 1.68 -3 1 C-2.01 1.33 -1.02 1.66 0 2 C0 1.34 0 0.68 0 0 Z " fill="#B89A69" transform="translate(30,71)"/>
<path d="M0 0 C0.33 0.99 0.66 1.98 1 3 C-1 5 -1 5 -3.625 5.125 C-4.40875 5.08375 -5.1925 5.0425 -6 5 C-6.33 3.68 -6.66 2.36 -7 1 C-3.535 0.505 -3.535 0.505 0 0 Z " fill="#353937" transform="translate(207,68)"/>
<path d="M0 0 C0.33 0.99 0.66 1.98 1 3 C2.65 3 4.3 3 6 3 C5.34 4.32 4.68 5.64 4 7 C2.68 6.67 1.36 6.34 0 6 C0 5.34 0 4.68 0 4 C-0.66 4 -1.32 4 -2 4 C-1.34 2.68 -0.68 1.36 0 0 Z " fill="#99ADA8" transform="translate(30,54)"/>
<path d="M0 0 C0.33 0.99 0.66 1.98 1 3 C3.64 3 6.28 3 9 3 C5.31282562 5.45811625 3.35654296 5.31118164 -1 5 C-1.99 4.34 -2.98 3.68 -4 3 C-2.68 2.01 -1.36 1.02 0 0 Z " fill="#DC8B46" transform="translate(131,202)"/>
<path d="M0 0 C0.825 0.598125 1.65 1.19625 2.5 1.8125 C6.12292799 4.24800901 9.88416763 5.58074746 14 7 C10.57809319 8.1406356 9.73829769 7.83489425 6.4375 6.6875 C5.25994141 6.29111328 5.25994141 6.29111328 4.05859375 5.88671875 C2 5 2 5 0 3 C0 2.01 0 1.02 0 0 Z " fill="#E8B26B" transform="translate(24,25)"/>
<path d="M0 0 C-8.1 4.95 -8.1 4.95 -13 6 C-12 3 -12 3 -10.29296875 1.796875 C-9.59816406 1.45140625 -8.90335938 1.1059375 -8.1875 0.75 C-7.50042969 0.39421875 -6.81335938 0.0384375 -6.10546875 -0.328125 C-3.64922558 -1.11193544 -2.39957614 -0.84119973 0 0 Z " fill="#8D7F6B" transform="translate(26,14)"/>
<path d="M0 0 C3.63 0 7.26 0 11 0 C11 0.33 11 0.66 11 1 C8.69 1 6.38 1 4 1 C4 3.64 4 6.28 4 9 C3.67 8.01 3.34 7.02 3 6 C2.34 6 1.68 6 1 6 C1.20625 5.38125 1.4125 4.7625 1.625 4.125 C1.74875 3.42375 1.8725 2.7225 2 2 C1.34 1.34 0.68 0.68 0 0 Z " fill="#B06939" transform="translate(124,127)"/>
<path d="M0 0 C5.56890517 0.47986031 10.67067568 1.29915181 16 3 C16 3.33 16 3.66 16 4 C11.05 3.67 6.1 3.34 1 3 C0.67 2.01 0.34 1.02 0 0 Z " fill="#6B5138" transform="translate(197,12)"/>
<path d="M0 0 C1.98 0 3.96 0 6 0 C5.01 0.495 5.01 0.495 4 1 C4 1.99 4 2.98 4 4 C4.66 4.33 5.32 4.66 6 5 C4.02 5 2.04 5 0 5 C0 3.35 0 1.7 0 0 Z " fill="#EBB165" transform="translate(93,181)"/>
<path d="M0 0 C1.65 0 3.3 0 5 0 C5 2.31 5 4.62 5 7 C3.29115995 5.37660195 1.62553283 3.70680947 0 2 C0 1.34 0 0.68 0 0 Z " fill="#F5D896" transform="translate(74,112)"/>
<path d="M0 0 C0.66 0.33 1.32 0.66 2 1 C-0.97 3.64 -3.94 6.28 -7 9 C-8 7 -8 7 -7.4375 5.0625 C-5.43479316 2.18905106 -3.21374108 1.27210585 0 0 Z " fill="#62422A" transform="translate(202,84)"/>
<path d="M0 0 C1.70840281 1.63412443 2.93453047 2.86906094 4 5 C4.66 5 5.32 5 6 5 C6.33 6.98 6.66 8.96 7 11 C1.21538462 6.81538462 1.21538462 6.81538462 0.125 2.6875 C0.08375 1.800625 0.0425 0.91375 0 0 Z " fill="#B5A285" transform="translate(32,80)"/>
<path d="M0 0 C0.66 0 1.32 0 2 0 C3.625 2 3.625 2 5 4 C4.34 4 3.68 4 3 4 C3.33 6.31 3.66 8.62 4 11 C3.01 11.495 3.01 11.495 2 12 C1.93941406 11.38511719 1.87882813 10.77023438 1.81640625 10.13671875 C1.73261719 9.32847656 1.64882812 8.52023438 1.5625 7.6875 C1.48128906 6.88699219 1.40007812 6.08648437 1.31640625 5.26171875 C1.04734307 2.83912821 1.04734307 2.83912821 0 0 Z " fill="#D08545" transform="translate(127,63)"/>
<path d="M0 0 C0 0.33 0 0.66 0 1 C-2.31 1.33 -4.62 1.66 -7 2 C-7 2.66 -7 3.32 -7 4 C-9.375 4.625 -9.375 4.625 -12 5 C-12.66 4.34 -13.32 3.68 -14 3 C-8.99067246 -0.00559652 -5.67276511 -0.29341888 0 0 Z " fill="#AABFA5" transform="translate(119,60)"/>
<path d="M0 0 C0.99 0 1.98 0 3 0 C3 2.64 3 5.28 3 8 C2.01 7.67 1.02 7.34 0 7 C0 4.69 0 2.38 0 0 Z " fill="#F6D99E" transform="translate(18,21)"/>
<path d="M0 0 C0.33 1.32 0.66 2.64 1 4 C1.928125 3.773125 2.85625 3.54625 3.8125 3.3125 C4.864375 3.209375 5.91625 3.10625 7 3 C7.99 3.99 8.98 4.98 10 6 C6.7 5.67 3.4 5.34 0 5 C0 3.35 0 1.7 0 0 Z " fill="#AC683B" transform="translate(56,197)"/>
<path d="M0 0 C0.625 1.875 0.625 1.875 1 4 C0.34 4.66 -0.32 5.32 -1 6 C-2.32 6 -3.64 6 -5 6 C-3.63016497 2.83884224 -3.0109362 2.0072908 0 0 Z " fill="#699798" transform="translate(37,60)"/>
<path d="M0 0 C0.66 2.31 1.32 4.62 2 7 C1.484375 6.525625 0.96875 6.05125 0.4375 5.5625 C-2.66782675 3.57190593 -5.36632504 3.34939182 -9 3 C-9 2.67 -9 2.34 -9 2 C-2.25 0 -2.25 0 0 0 Z " fill="#A7764E" transform="translate(209,49)"/>
<path d="M0 0 C2.64 0 5.28 0 8 0 C7.01 0.495 7.01 0.495 6 1 C6 1.66 6 2.32 6 3 C4.02 3.33 2.04 3.66 0 4 C0 2.68 0 1.36 0 0 Z " fill="#F1CB83" transform="translate(93,191)"/>
<path d="M0 0 C2.52259061 1.97420135 2.9929808 2.96745642 3.6875 6.1875 C3.790625 7.115625 3.89375 8.04375 4 9 C3.34 9 2.68 9 2 9 C0.61061923 7.03852126 -0.7260411 5.03833424 -2 3 C-1.34 3 -0.68 3 0 3 C0 2.01 0 1.02 0 0 Z " fill="#A56438" transform="translate(143,175)"/>
<path d="M0 0 C2.46800047 1.15173355 4.04783565 2.04783565 6 4 C5.67 4.66 5.34 5.32 5 6 C3.68 5.67 2.36 5.34 1 5 C0.67 3.35 0.34 1.7 0 0 Z " fill="#689593" transform="translate(200,62)"/>
<path d="M0 0 C1.32 0.33 2.64 0.66 4 1 C4.33 2.32 4.66 3.64 5 5 C3.35 5 1.7 5 0 5 C0 3.35 0 1.7 0 0 Z " fill="#ABBFB5" transform="translate(203,56)"/>
<path d="M0 0 C0.33 0 0.66 0 1 0 C1 2.97 1 5.94 1 9 C0.01 9 -0.98 9 -2 9 C-1.125 2.25 -1.125 2.25 0 0 Z " fill="#968772" transform="translate(100,157)"/>
<path d="M0 0 C0.66 0 1.32 0 2 0 C2.33 2.64 2.66 5.28 3 8 C2.01 8.66 1.02 9.32 0 10 C0 6.7 0 3.4 0 0 Z " fill="#689192" transform="translate(123,69)"/>
<path d="M0 0 C2.64 0.33 5.28 0.66 8 1 C8 1.66 8 2.32 8 3 C5.36 3 2.72 3 0 3 C0 2.01 0 1.02 0 0 Z " fill="#95B9A2" transform="translate(197,73)"/>
<path d="M0 0 C3.5 -0.3125 3.5 -0.3125 7 0 C7.66 0.66 8.32 1.32 9 2 C5.37 2.33 1.74 2.66 -2 3 C-1.34 2.01 -0.68 1.02 0 0 Z " fill="#E9D5B1" transform="translate(110,58)"/>
<path d="M0 0 C0 3.28176588 -0.47835901 5.10888212 -2 8 C-4.125 8.8125 -4.125 8.8125 -6 9 C-5.67 8.01 -5.34 7.02 -5 6 C-4.34 6 -3.68 6 -3 6 C-2.87625 5.38125 -2.7525 4.7625 -2.625 4.125 C-2 2 -2 2 0 0 Z " fill="#C7894C" transform="translate(44,70)"/>
<path d="M0 0 C0.33 0 0.66 0 1 0 C1.125 7.625 1.125 7.625 0 11 C-1.32 10.67 -2.64 10.34 -4 10 C-3.525625 9.46375 -3.05125 8.9275 -2.5625 8.375 C-0.71813924 5.57157164 -0.37543153 3.30379742 0 0 Z " fill="#81A8A0" transform="translate(43,60)"/>
<path d="M0 0 C0.66 0.33 1.32 0.66 2 1 C1.67 1.99 1.34 2.98 1 4 C-0.32 4 -1.64 4 -3 4 C-3.33 4.99 -3.66 5.98 -4 7 C-4.33 6.01 -4.66 5.02 -5 4 C-3.35 2.68 -1.7 1.36 0 0 Z " fill="#E7BF73" transform="translate(21,17)"/>
<path d="M0 0 C3.375 -0.125 3.375 -0.125 7 0 C7.66 0.66 8.32 1.32 9 2 C6.21176345 3.0326802 5.1322726 3.04509293 2.25 2.0625 C1.5075 1.711875 0.765 1.36125 0 1 C0 0.67 0 0.34 0 0 Z " fill="#B6683B" transform="translate(70,205)"/>
<path d="M0 0 C0.99 0 1.98 0 3 0 C1.52307692 4.67692308 1.52307692 4.67692308 -1.125 6.3125 C-2.053125 6.6528125 -2.053125 6.6528125 -3 7 C-3 6.01 -3 5.02 -3 4 C-2.01 4 -1.02 4 0 4 C0 2.68 0 1.36 0 0 Z " fill="#8E5231" transform="translate(192,89)"/>
<path d="M0 0 C1.32 0.33 2.64 0.66 4 1 C3.67 1.99 3.34 2.98 3 4 C1.35 4 -0.3 4 -2 4 C-2.33 3.34 -2.66 2.68 -3 2 C-2.01 2 -1.02 2 0 2 C0 1.34 0 0.68 0 0 Z " fill="#9AB3A2" transform="translate(110,87)"/>
<path d="M0 0 C0.33 1.32 0.66 2.64 1 4 C-3.455 4.495 -3.455 4.495 -8 5 C-7.67 4.01 -7.34 3.02 -7 2 C-4.69 2 -2.38 2 0 2 C0 1.34 0 0.68 0 0 Z " fill="#A3B3B4" transform="translate(113,65)"/>
<path d="M0 0 C2.475 0.99 2.475 0.99 5 2 C5 3.65 5 5.3 5 7 C4.67 5.68 4.34 4.36 4 3 C2.02 3 0.04 3 -2 3 C-1.34 2.01 -0.68 1.02 0 0 Z " fill="#80A197" transform="translate(198,54)"/>
<path d="M0 0 C2.31 0 4.62 0 7 0 C7.33 0.66 7.66 1.32 8 2 C6.35 2.66 4.7 3.32 3 4 C3 3.34 3 2.68 3 2 C2.01 1.67 1.02 1.34 0 1 C0 0.67 0 0.34 0 0 Z " fill="#F4D6A7" transform="translate(71,201)"/>
<path d="M0 0 C0.99 0.66 1.98 1.32 3 2 C-0.75 5 -0.75 5 -3 5 C-2.625 3.0625 -2.625 3.0625 -2 1 C-1.34 0.67 -0.68 0.34 0 0 Z " fill="#884A29" transform="translate(168,116)"/>
<path d="M0 0 C5.75 0.875 5.75 0.875 8 2 C7.67 3.32 7.34 4.64 7 6 C7 5.34 7 4.68 7 4 C6.21625 3.71125 5.4325 3.4225 4.625 3.125 C2 2 2 2 0 0 Z " fill="#4B443C" transform="translate(53,100)"/>
<path d="M0 0 C0.99 0 1.98 0 3 0 C3.103125 0.61875 3.20625 1.2375 3.3125 1.875 C3.87525373 4.36526484 3.87525373 4.36526484 7 6 C6.67 6.66 6.34 7.32 6 8 C1.125 3.375 1.125 3.375 0 0 Z " fill="#EBBD79" transform="translate(39,84)"/>
<path d="M0 0 C2.97 0.33 5.94 0.66 9 1 C9 1.33 9 1.66 9 2 C7.02 2 5.04 2 3 2 C3 2.66 3 3.32 3 4 C2.01 4 1.02 4 0 4 C0 2.68 0 1.36 0 0 Z " fill="#82ABA4" transform="translate(107,85)"/>
<path d="M0 0 C0.66 0.33 1.32 0.66 2 1 C2.40729228 3.32156597 2.74438677 5.6568787 3 8 C0.9375 6.25 0.9375 6.25 -1 4 C-0.75 1.75 -0.75 1.75 0 0 Z " fill="#E7DAB6" transform="translate(100,80)"/>
<path d="M0 0 C0.99 0 1.98 0 3 0 C3.66 1.32 4.32 2.64 5 4 C3.35 4.33 1.7 4.66 0 5 C0 3.35 0 1.7 0 0 Z " fill="#71948C" transform="translate(101,69)"/>
<path d="M0 0 C1.98 0 3.96 0 6 0 C6 0.99 6 1.98 6 3 C4.02 3.33 2.04 3.66 0 4 C0 2.68 0 1.36 0 0 Z " fill="#7A9D94" transform="translate(36,53)"/>
<path d="M0 0 C2.97 0 5.94 0 9 0 C9.33 0.99 9.66 1.98 10 3 C6.7 2.34 3.4 1.68 0 1 C0 0.67 0 0.34 0 0 Z " fill="#C08E54" transform="translate(188,12)"/>
</svg>
