<?xml version="1.0" encoding="UTF-8"?>
<!DOCTYPE svg PUBLIC "-//W3C//DTD SVG 1.1//EN" "http://www.w3.org/Graphics/SVG/1.1/DTD/svg11.dtd">
<svg xmlns="http://www.w3.org/2000/svg" version="1.1" width="154px" height="422px" style="shape-rendering:geometricPrecision; text-rendering:geometricPrecision; image-rendering:optimizeQuality; fill-rule:evenodd; clip-rule:evenodd" xmlns:xlink="http://www.w3.org/1999/xlink">
<g><path style="opacity:1" fill="#caa869" d="M 39.5,17.5 C 39.5,17.1667 39.5,16.8333 39.5,16.5C 46.1667,16.5 52.8333,16.5 59.5,16.5C 66.1667,17.1667 72.8333,17.8333 79.5,18.5C 71.8333,18.5 64.1667,18.5 56.5,18.5C 50.828,18.2401 45.1613,17.9068 39.5,17.5 Z"/></g>
<g><path style="opacity:1" fill="#c8682e" d="M 79.5,18.5 C 84.5,18.5 89.5,18.5 94.5,18.5C 95.9102,22.7039 96.5769,27.0372 96.5,31.5C 91.9,31.2796 87.5667,31.9462 83.5,33.5C 82.3065,33.0296 81.6399,32.0296 81.5,30.5C 80.7018,26.5107 80.0351,22.5107 79.5,18.5 Z"/></g>
<g><path style="opacity:1" fill="#da8e44" d="M 94.5,18.5 C 98.8333,18.5 103.167,18.5 107.5,18.5C 107.5,21.1667 107.5,23.8333 107.5,26.5C 108.5,26.5 109.5,26.5 110.5,26.5C 110.263,27.791 110.596,28.791 111.5,29.5C 111.833,30.8333 112.167,32.1667 112.5,33.5C 107.657,32.8625 102.99,33.5292 98.5,35.5C 95.8333,35.5 93.1667,35.5 90.5,35.5C 91.0577,34.2101 92.0577,33.3768 93.5,33C 90.1996,33.0455 86.8663,33.2122 83.5,33.5C 87.5667,31.9462 91.9,31.2796 96.5,31.5C 96.5769,27.0372 95.9102,22.7039 94.5,18.5 Z"/></g>
<g><path style="opacity:1" fill="#87603c" d="M 59.5,16.5 C 75.0249,16.2051 90.5249,16.5385 106,17.5C 106.833,17.8333 107.667,18.1667 108.5,18.5C 109.705,21.4496 110.705,24.4496 111.5,27.5C 111.5,28.1667 111.5,28.8333 111.5,29.5C 110.596,28.791 110.263,27.791 110.5,26.5C 109.5,26.5 108.5,26.5 107.5,26.5C 107.5,23.8333 107.5,21.1667 107.5,18.5C 103.167,18.5 98.8333,18.5 94.5,18.5C 89.5,18.5 84.5,18.5 79.5,18.5C 72.8333,17.8333 66.1667,17.1667 59.5,16.5 Z"/></g>
<g><path style="opacity:1" fill="#58523e" d="M 39.5,16.5 C 39.5,16.8333 39.5,17.1667 39.5,17.5C 37.2642,22.3198 35.2642,27.3198 33.5,32.5C 33.0679,33.7095 32.4013,34.7095 31.5,35.5C 32.6983,30.7619 34.1983,26.0952 36,21.5C 36.5494,19.2404 37.716,17.5738 39.5,16.5 Z"/></g>
<g><path style="opacity:1" fill="#f8ebba" d="M 63.5,39.5 C 63.5,39.8333 63.5,40.1667 63.5,40.5C 56.3647,39.3669 49.3647,37.7002 42.5,35.5C 40.6833,33.9878 39.6833,31.9878 39.5,29.5C 40.0424,26.3971 41.3757,23.5638 43.5,21C 47.8333,20.3333 52.1667,20.3333 56.5,21C 57.3923,25.7638 57.3923,30.5971 56.5,35.5C 55.448,35.3505 54.448,35.5172 53.5,36C 56.8394,37.2963 60.1727,38.463 63.5,39.5 Z"/></g>
<g><path style="opacity:1" fill="#efd78a" d="M 39.5,17.5 C 45.1613,17.9068 50.828,18.2401 56.5,18.5C 58.2419,21.1445 58.9086,24.1445 58.5,27.5C 59.3468,29.0291 60.0135,30.6958 60.5,32.5C 59.0516,35.7583 60.0516,38.0916 63.5,39.5C 60.1727,38.463 56.8394,37.2963 53.5,36C 54.448,35.5172 55.448,35.3505 56.5,35.5C 57.3923,30.5971 57.3923,25.7638 56.5,21C 52.1667,20.3333 47.8333,20.3333 43.5,21C 41.3757,23.5638 40.0424,26.3971 39.5,29.5C 37.6032,30.6496 35.6032,31.6496 33.5,32.5C 35.2642,27.3198 37.2642,22.3198 39.5,17.5 Z"/></g>
<g><path style="opacity:0.929" fill="#513e2e" d="M 111.5,27.5 C 113.072,30.2154 114.072,33.2154 114.5,36.5C 113.599,35.7095 112.932,34.7095 112.5,33.5C 112.167,32.1667 111.833,30.8333 111.5,29.5C 111.5,28.8333 111.5,28.1667 111.5,27.5 Z"/></g>
<g><path style="opacity:1" fill="#e7b258" d="M 56.5,18.5 C 64.1667,18.5 71.8333,18.5 79.5,18.5C 80.0351,22.5107 80.7018,26.5107 81.5,30.5C 81.6399,32.0296 82.3065,33.0296 83.5,33.5C 86.8663,33.2122 90.1996,33.0455 93.5,33C 92.0577,33.3768 91.0577,34.2101 90.5,35.5C 87.4745,35.231 84.8078,36.0643 82.5,38C 83.2524,38.6708 83.5858,39.5041 83.5,40.5C 83.0248,42.7837 82.0248,44.7837 80.5,46.5C 76.8333,49.8333 73.1667,53.1667 69.5,56.5C 67.8372,58.4385 67.1706,60.7718 67.5,63.5C 65.6203,63.7709 64.287,63.1042 63.5,61.5C 64.4972,61.5299 65.1639,61.0299 65.5,60C 67.4093,55.9061 68.076,51.7395 67.5,47.5C 66.5,48.1667 65.5,48.8333 64.5,49.5C 64.1667,49 63.8333,48.5 63.5,48C 64.7498,44.737 66.0831,41.5704 67.5,38.5C 61.1004,37.1283 61.4338,36.1283 68.5,35.5C 67.479,31.721 65.3124,28.721 62,26.5C 60.9887,27.3366 59.8221,27.67 58.5,27.5C 58.9086,24.1445 58.2419,21.1445 56.5,18.5 Z"/></g>
<g><path style="opacity:1" fill="#fcfbe1" d="M 42.5,35.5 C 49.3647,37.7002 56.3647,39.3669 63.5,40.5C 64.1667,40.5 64.5,40.8333 64.5,41.5C 63.8333,41.5 63.1667,41.5 62.5,41.5C 59.8333,41.5 57.1667,41.5 54.5,41.5C 54.6621,43.5273 54.4955,45.5273 54,47.5C 52.0067,50.6606 50.5067,53.9939 49.5,57.5C 48.1667,57.5 46.8333,57.5 45.5,57.5C 45.5,56.5 45.5,55.5 45.5,54.5C 42.1359,55.1272 40.1359,53.7939 39.5,50.5C 41.0749,46.6026 42.7415,42.7693 44.5,39C 43.0267,38.2904 42.3601,37.1238 42.5,35.5 Z"/></g>
<g><path style="opacity:0.906" fill="#493a2a" d="M 114.5,36.5 C 115.738,38.2143 116.405,40.2143 116.5,42.5C 114.926,40.8984 114.259,38.8984 114.5,36.5 Z"/></g>
<g><path style="opacity:1" fill="#faf6c8" d="M 42.5,35.5 C 42.3601,37.1238 43.0267,38.2904 44.5,39C 42.7415,42.7693 41.0749,46.6026 39.5,50.5C 40.1359,53.7939 42.1359,55.1272 45.5,54.5C 45.5,55.5 45.5,56.5 45.5,57.5C 46.8333,57.5 48.1667,57.5 49.5,57.5C 50.5067,53.9939 52.0067,50.6606 54,47.5C 54.4955,45.5273 54.6621,43.5273 54.5,41.5C 57.1667,41.5 59.8333,41.5 62.5,41.5C 60.7354,42.4614 58.7354,42.7947 56.5,42.5C 57.0571,46.634 56.0571,50.3007 53.5,53.5C 54.9753,56.2454 54.3087,58.412 51.5,60C 48.4786,60.8494 45.4786,61.6827 42.5,62.5C 42.5,60.5 42.5,58.5 42.5,56.5C 41.0695,56.5792 39.7362,56.2458 38.5,55.5C 37.52,52.9135 37.1866,50.2469 37.5,47.5C 36.5,47.5 35.5,47.5 34.5,47.5C 34.5433,44.9122 35.5433,42.7456 37.5,41C 36.8617,39.2933 36.8617,37.46 37.5,35.5C 39.1667,35.5 40.8333,35.5 42.5,35.5 Z"/></g>
<g><path style="opacity:0.784" fill="#807a5c" d="M 30.5,39.5 C 30.8294,42.2282 30.1628,44.5615 28.5,46.5C 28.4095,43.8478 29.0762,41.5145 30.5,39.5 Z"/></g>
<g><path style="opacity:1" fill="#5f4531" d="M 116.5,43.5 C 118.072,46.2154 119.072,49.2154 119.5,52.5C 117.528,49.9164 116.528,46.9164 116.5,43.5 Z"/></g>
<g><path style="opacity:1" fill="#c6632d" d="M 90.5,35.5 C 93.1667,35.5 95.8333,35.5 98.5,35.5C 99.3149,36.4293 100.148,37.4293 101,38.5C 107.473,53.4411 111.64,69.1078 113.5,85.5C 116.498,84.6584 119.498,84.1584 122.5,84C 110.62,88.8867 98.2868,92.0534 85.5,93.5C 77.842,92.9589 70.1753,92.4589 62.5,92C 69.346,91.8283 76.0126,91.3283 82.5,90.5C 84.8333,90.5 87.1667,90.5 89.5,90.5C 88.9254,73.5275 86.9254,56.8608 83.5,40.5C 83.5858,39.5041 83.2524,38.6708 82.5,38C 84.8078,36.0643 87.4745,35.231 90.5,35.5 Z"/></g>
<g><path style="opacity:1" fill="#d78541" d="M 112.5,33.5 C 112.932,34.7095 113.599,35.7095 114.5,36.5C 114.259,38.8984 114.926,40.8984 116.5,42.5C 116.5,42.8333 116.5,43.1667 116.5,43.5C 116.528,46.9164 117.528,49.9164 119.5,52.5C 119.5,52.8333 119.5,53.1667 119.5,53.5C 119.41,56.1522 120.076,58.4855 121.5,60.5C 121.41,63.1522 122.076,65.4855 123.5,67.5C 123.294,70.4951 123.96,73.1617 125.5,75.5C 126.434,76.5676 126.768,77.901 126.5,79.5C 125.839,84.3931 126.839,88.7265 129.5,92.5C 129.159,96.1595 129.825,99.4928 131.5,102.5C 131.54,107.193 131.873,111.859 132.5,116.5C 131.414,116.38 130.747,115.713 130.5,114.5C 129.833,111.833 129.167,109.167 128.5,106.5C 129.331,104.527 129.498,102.527 129,100.5C 127.386,101.023 125.886,102.356 124.5,104.5C 123.833,101.167 123.167,97.8333 122.5,94.5C 121.828,95.9492 121.161,97.2825 120.5,98.5C 119.343,95.7273 118.676,92.7273 118.5,89.5C 109.041,92.6145 99.3746,94.9479 89.5,96.5C 91.459,126.804 92.7923,157.137 93.5,187.5C 93.5116,201.188 93.0116,214.855 92,228.5C 91.7599,230.852 90.9265,232.852 89.5,234.5C 90.0459,229.594 88.5459,228.594 85,231.5C 82.5933,229.125 83.0933,228.125 86.5,228.5C 86.1744,224.116 86.5078,219.783 87.5,215.5C 87.4743,219.78 88.3077,224.114 90,228.5C 90.346,226.782 90.846,225.115 91.5,223.5C 91.1114,214.93 90.4448,206.264 89.5,197.5C 90.1916,195.665 89.8583,193.832 88.5,192C 89.7376,192.077 90.7376,191.911 91.5,191.5C 90.7528,187.862 90.0862,184.195 89.5,180.5C 90.3895,164.809 90.7228,149.142 90.5,133.5C 90.519,130.761 89.8523,128.261 88.5,126C 88.8376,116.54 88.8376,107.04 88.5,97.5C 88.5,97.1667 88.5,96.8333 88.5,96.5C 89.2625,95.7321 90.2625,95.2321 91.5,95C 89.5273,94.5045 87.5273,94.3379 85.5,94.5C 85.5,94.1667 85.5,93.8333 85.5,93.5C 98.2868,92.0534 110.62,88.8867 122.5,84C 119.498,84.1584 116.498,84.6584 113.5,85.5C 111.64,69.1078 107.473,53.4411 101,38.5C 100.148,37.4293 99.3149,36.4293 98.5,35.5C 102.99,33.5292 107.657,32.8625 112.5,33.5 Z"/></g>
<g><path style="opacity:1" fill="#5e5541" d="M 27.5,50.5 C 27.552,52.9029 27.2186,55.2362 26.5,57.5C 26.5,57.8333 26.5,58.1667 26.5,58.5C 25.6515,60.8876 24.6515,63.2209 23.5,65.5C 24.0756,60.1906 25.409,55.1906 27.5,50.5 Z"/></g>
<g><path style="opacity:1" fill="#cc7b34" d="M 80.5,46.5 C 81.7562,46.4614 82.7562,46.9614 83.5,48C 81.9368,49.736 80.2701,51.236 78.5,52.5C 75.8615,53.65 73.8615,55.4833 72.5,58C 74.702,61.5996 75.8687,65.4329 76,69.5C 73.2739,65.3812 71.1072,61.0479 69.5,56.5C 73.1667,53.1667 76.8333,49.8333 80.5,46.5 Z"/></g>
<g><path style="opacity:1" fill="#f5e9a8" d="M 39.5,29.5 C 39.6833,31.9878 40.6833,33.9878 42.5,35.5C 40.8333,35.5 39.1667,35.5 37.5,35.5C 36.8617,37.46 36.8617,39.2933 37.5,41C 35.5433,42.7456 34.5433,44.9122 34.5,47.5C 35.5,47.5 36.5,47.5 37.5,47.5C 37.1866,50.2469 37.52,52.9135 38.5,55.5C 39.7362,56.2458 41.0695,56.5792 42.5,56.5C 42.5,58.5 42.5,60.5 42.5,62.5C 45.4786,61.6827 48.4786,60.8494 51.5,60C 54.3087,58.412 54.9753,56.2454 53.5,53.5C 56.0571,50.3007 57.0571,46.634 56.5,42.5C 58.7354,42.7947 60.7354,42.4614 62.5,41.5C 63.1667,41.5 63.8333,41.5 64.5,41.5C 60.5925,47.6423 56.9258,53.9756 53.5,60.5C 49.5302,62.1636 45.5302,63.8303 41.5,65.5C 40.376,64.086 39.376,62.586 38.5,61C 37.552,60.5172 36.552,60.3505 35.5,60.5C 34.8413,57.5448 34.5079,54.5448 34.5,51.5C 32.4357,51.687 30.4357,52.187 28.5,53C 29.6123,55.1079 28.9457,56.6079 26.5,57.5C 27.2186,55.2362 27.552,52.9029 27.5,50.5C 27.2322,48.901 27.5655,47.5676 28.5,46.5C 30.1628,44.5615 30.8294,42.2282 30.5,39.5C 30.2322,37.901 30.5655,36.5676 31.5,35.5C 32.4013,34.7095 33.0679,33.7095 33.5,32.5C 35.6032,31.6496 37.6032,30.6496 39.5,29.5 Z"/></g>
<g><path style="opacity:0.878" fill="#56412f" d="M 119.5,53.5 C 120.924,55.5145 121.59,57.8478 121.5,60.5C 120.076,58.4855 119.41,56.1522 119.5,53.5 Z"/></g>
<g><path style="opacity:1" fill="#f2da8c" d="M 53.5,60.5 C 51.174,64.4825 48.8407,68.4825 46.5,72.5C 43.644,74.8765 40.3107,76.2098 36.5,76.5C 35.5224,76.0233 34.6891,75.3567 34,74.5C 33.7043,68.9597 32.0377,63.9597 29,59.5C 27.0924,62.3323 26.259,61.999 26.5,58.5C 26.5,58.1667 26.5,57.8333 26.5,57.5C 28.9457,56.6079 29.6123,55.1079 28.5,53C 30.4357,52.187 32.4357,51.687 34.5,51.5C 34.5079,54.5448 34.8413,57.5448 35.5,60.5C 36.552,60.3505 37.552,60.5172 38.5,61C 39.376,62.586 40.376,64.086 41.5,65.5C 45.5302,63.8303 49.5302,62.1636 53.5,60.5 Z"/></g>
<g><path style="opacity:0.729" fill="#54402f" d="M 121.5,60.5 C 122.924,62.5145 123.59,64.8478 123.5,67.5C 122.076,65.4855 121.41,63.1522 121.5,60.5 Z"/></g>
<g><path style="opacity:1" fill="#cb7e35" d="M 65.5,71.5 C 64.2485,69.9991 63.2485,68.3325 62.5,66.5C 63.484,63.9296 64.6507,63.9296 66,66.5C 68.2401,69.9527 69.5735,73.6194 70,77.5C 68.6366,75.3162 67.1366,73.3162 65.5,71.5 Z"/></g>
<g><path style="opacity:0.992" fill="#645943" d="M 23.5,66.5 C 23.6918,70.9019 22.6918,74.9019 20.5,78.5C 20.8984,74.2393 21.8984,70.2393 23.5,66.5 Z"/></g>
<g><path style="opacity:0.839" fill="#604833" d="M 123.5,67.5 C 124.768,69.9052 125.435,72.5718 125.5,75.5C 123.96,73.1617 123.294,70.4951 123.5,67.5 Z"/></g>
<g><path style="opacity:1" fill="#f0cb78" d="M 63.5,61.5 C 62.2545,57.1538 60.9212,56.8205 59.5,60.5C 59.7186,62.6931 60.3852,64.6931 61.5,66.5C 60.6851,67.8366 59.5185,68.8366 58,69.5C 57.6466,72.5385 56.4799,75.2052 54.5,77.5C 53.0019,75.8413 51.5019,74.1747 50,72.5C 48.7387,72.7591 47.7387,73.4258 47,74.5C 46.8198,77.9555 46.1532,81.2889 45,84.5C 42.381,83.2708 39.881,83.6041 37.5,85.5C 34.7239,83.8702 31.7239,83.2035 28.5,83.5C 28.5,82.5 28.5,81.5 28.5,80.5C 29.5,80.5 30.5,80.5 31.5,80.5C 31.8204,77.1016 31.487,73.7683 30.5,70.5C 29.914,70.7093 29.414,71.0426 29,71.5C 28.8038,69.7139 27.9705,68.3805 26.5,67.5C 24.4767,72.8106 22.6433,78.1439 21,83.5C 20.51,82.2068 20.3433,80.8734 20.5,79.5C 20.5,79.1667 20.5,78.8333 20.5,78.5C 22.6918,74.9019 23.6918,70.9019 23.5,66.5C 23.5,66.1667 23.5,65.8333 23.5,65.5C 24.6515,63.2209 25.6515,60.8876 26.5,58.5C 26.259,61.999 27.0924,62.3323 29,59.5C 32.0377,63.9597 33.7043,68.9597 34,74.5C 34.6891,75.3567 35.5224,76.0233 36.5,76.5C 40.3107,76.2098 43.644,74.8765 46.5,72.5C 48.8407,68.4825 51.174,64.4825 53.5,60.5C 56.9258,53.9756 60.5925,47.6423 64.5,41.5C 64.5,40.8333 64.1667,40.5 63.5,40.5C 63.5,40.1667 63.5,39.8333 63.5,39.5C 60.0516,38.0916 59.0516,35.7583 60.5,32.5C 60.0135,30.6958 59.3468,29.0291 58.5,27.5C 59.8221,27.67 60.9887,27.3366 62,26.5C 65.3124,28.721 67.479,31.721 68.5,35.5C 61.4338,36.1283 61.1004,37.1283 67.5,38.5C 66.0831,41.5704 64.7498,44.737 63.5,48C 63.8333,48.5 64.1667,49 64.5,49.5C 65.5,48.8333 66.5,48.1667 67.5,47.5C 68.076,51.7395 67.4093,55.9061 65.5,60C 65.1639,61.0299 64.4972,61.5299 63.5,61.5 Z"/></g>
<g><path style="opacity:1" fill="#e1974a" d="M 83.5,40.5 C 86.9254,56.8608 88.9254,73.5275 89.5,90.5C 87.1667,90.5 84.8333,90.5 82.5,90.5C 80.1667,90.5 77.8333,90.5 75.5,90.5C 77.1867,89.0824 79.02,87.7491 81,86.5C 81.3333,86.8333 81.6667,87.1667 82,87.5C 82.0243,83.1182 83.191,79.1182 85.5,75.5C 86.2311,72.1274 86.5644,68.7941 86.5,65.5C 85.3679,60.9087 84.7012,56.2421 84.5,51.5C 82.5,51.8333 80.5,52.1667 78.5,52.5C 80.2701,51.236 81.9368,49.736 83.5,48C 82.7562,46.9614 81.7562,46.4614 80.5,46.5C 82.0248,44.7837 83.0248,42.7837 83.5,40.5 Z"/></g>
<g><path style="opacity:1" fill="#eab765" d="M 61.5,66.5 C 61.8333,66.5 62.1667,66.5 62.5,66.5C 63.2485,68.3325 64.2485,69.9991 65.5,71.5C 66.167,73.8194 66.3336,76.1527 66,78.5C 65.6667,78.1667 65.3333,77.8333 65,77.5C 64.2155,79.286 63.0488,80.786 61.5,82C 62.1667,82.3333 62.8333,82.6667 63.5,83C 61.085,84.4653 60.085,86.632 60.5,89.5C 48.5116,87.6686 36.5116,86.1686 24.5,85C 25.4158,85.2784 26.0825,85.7784 26.5,86.5C 41.2411,95.0141 57.2411,98.5141 74.5,97C 71.0006,96.62 67.6672,95.7866 64.5,94.5C 71.5,94.5 78.5,94.5 85.5,94.5C 87.5273,94.3379 89.5273,94.5045 91.5,95C 90.2625,95.2321 89.2625,95.7321 88.5,96.5C 80.0364,97.5555 71.7031,98.5555 63.5,99.5C 62.7939,101.876 61.1273,103.21 58.5,103.5C 58.8432,101.517 58.1765,100.183 56.5,99.5C 54.8333,99.5 53.1667,99.5 51.5,99.5C 43.2341,97.3563 35.0674,94.6896 27,91.5C 26.228,91.6448 25.5613,91.9781 25,92.5C 23.7468,97.773 22.9135,103.106 22.5,108.5C 20.7635,113.911 19.7635,119.578 19.5,125.5C 17.9085,135.958 17.2419,146.624 17.5,157.5C 17.2159,167.676 18.3825,177.676 21,187.5C 21.6914,185.109 22.6914,185.109 24,187.5C 24.6667,184.833 25.3333,184.833 26,187.5C 27.9751,186.522 29.6418,185.189 31,183.5C 33.3809,184.538 35.3809,183.872 37,181.5C 37.3333,182.167 37.6667,182.833 38,183.5C 39.3561,182.62 40.8561,182.286 42.5,182.5C 39.4405,184.047 36.7738,186.214 34.5,189C 35.1667,189.333 35.8333,189.667 36.5,190C 34.8659,190.494 33.1992,190.66 31.5,190.5C 29.691,194.088 27.3577,197.422 24.5,200.5C 21.0613,197.607 20.0613,198.274 21.5,202.5C 20.8607,205.475 20.3607,208.475 20,211.5C 19.3333,210.833 18.6667,210.167 18,209.5C 17.5345,202.916 15.7012,196.916 12.5,191.5C 11.6372,175.851 11.3039,160.184 11.5,144.5C 11.2307,140.069 11.564,135.735 12.5,131.5C 14.4145,123.749 15.4145,115.749 15.5,107.5C 15.5,106.833 15.5,106.167 15.5,105.5C 17.7388,100.518 18.7388,95.1843 18.5,89.5C 18.322,85.8776 18.9886,82.5443 20.5,79.5C 20.3433,80.8734 20.51,82.2068 21,83.5C 22.6433,78.1439 24.4767,72.8106 26.5,67.5C 27.9705,68.3805 28.8038,69.7139 29,71.5C 29.414,71.0426 29.914,70.7093 30.5,70.5C 31.487,73.7683 31.8204,77.1016 31.5,80.5C 30.5,80.5 29.5,80.5 28.5,80.5C 28.5,81.5 28.5,82.5 28.5,83.5C 31.7239,83.2035 34.7239,83.8702 37.5,85.5C 39.881,83.6041 42.381,83.2708 45,84.5C 46.1532,81.2889 46.8198,77.9555 47,74.5C 47.7387,73.4258 48.7387,72.7591 50,72.5C 51.5019,74.1747 53.0019,75.8413 54.5,77.5C 56.4799,75.2052 57.6466,72.5385 58,69.5C 59.5185,68.8366 60.6851,67.8366 61.5,66.5 Z"/></g>
<g><path style="opacity:1" fill="#e5a551" d="M 75.5,90.5 C 62.5471,90.939 49.7138,89.939 37,87.5C 35.9302,87.528 35.0968,87.8614 34.5,88.5C 31.994,87.2504 29.3274,86.5838 26.5,86.5C 26.0825,85.7784 25.4158,85.2784 24.5,85C 36.5116,86.1686 48.5116,87.6686 60.5,89.5C 60.085,86.632 61.085,84.4653 63.5,83C 62.8333,82.6667 62.1667,82.3333 61.5,82C 63.0488,80.786 64.2155,79.286 65,77.5C 65.3333,77.8333 65.6667,78.1667 66,78.5C 66.3336,76.1527 66.167,73.8194 65.5,71.5C 67.1366,73.3162 68.6366,75.3162 70,77.5C 69.5735,73.6194 68.2401,69.9527 66,66.5C 64.6507,63.9296 63.484,63.9296 62.5,66.5C 62.1667,66.5 61.8333,66.5 61.5,66.5C 60.3852,64.6931 59.7186,62.6931 59.5,60.5C 60.9212,56.8205 62.2545,57.1538 63.5,61.5C 64.287,63.1042 65.6203,63.7709 67.5,63.5C 67.1706,60.7718 67.8372,58.4385 69.5,56.5C 71.1072,61.0479 73.2739,65.3812 76,69.5C 75.8687,65.4329 74.702,61.5996 72.5,58C 73.8615,55.4833 75.8615,53.65 78.5,52.5C 80.5,52.1667 82.5,51.8333 84.5,51.5C 84.7012,56.2421 85.3679,60.9087 86.5,65.5C 86.5644,68.7941 86.2311,72.1274 85.5,75.5C 83.191,79.1182 82.0243,83.1182 82,87.5C 81.6667,87.1667 81.3333,86.8333 81,86.5C 79.02,87.7491 77.1867,89.0824 75.5,90.5 Z"/></g>
<g><path style="opacity:1" fill="#7b5639" d="M 126.5,79.5 C 128.118,83.5749 129.118,87.9082 129.5,92.5C 126.839,88.7265 125.839,84.3931 126.5,79.5 Z"/></g>
<g><path style="opacity:1" fill="#f0c885" d="M 26.5,86.5 C 29.3274,86.5838 31.994,87.2504 34.5,88.5C 44.2926,91.475 54.2926,93.475 64.5,94.5C 67.6672,95.7866 71.0006,96.62 74.5,97C 57.2411,98.5141 41.2411,95.0141 26.5,86.5 Z"/></g>
<g><path style="opacity:1" fill="#c57534" d="M 34.5,88.5 C 35.0968,87.8614 35.9302,87.528 37,87.5C 49.7138,89.939 62.5471,90.939 75.5,90.5C 77.8333,90.5 80.1667,90.5 82.5,90.5C 76.0126,91.3283 69.346,91.8283 62.5,92C 70.1753,92.4589 77.842,92.9589 85.5,93.5C 85.5,93.8333 85.5,94.1667 85.5,94.5C 78.5,94.5 71.5,94.5 64.5,94.5C 54.2926,93.475 44.2926,91.475 34.5,88.5 Z"/></g>
<g><path style="opacity:1" fill="#c45e2b" d="M 120.5,98.5 C 126.221,131.255 128.721,164.255 128,197.5C 125.983,216.959 117.15,232.293 101.5,243.5C 89.1384,250.33 76.1384,252.163 62.5,249C 64.4727,248.505 66.4727,248.338 68.5,248.5C 71.0098,248.073 73.3432,247.407 75.5,246.5C 82.3321,245 86.9988,241 89.5,234.5C 90.9265,232.852 91.7599,230.852 92,228.5C 93.0116,214.855 93.5116,201.188 93.5,187.5C 92.7923,157.137 91.459,126.804 89.5,96.5C 99.3746,94.9479 109.041,92.6145 118.5,89.5C 118.676,92.7273 119.343,95.7273 120.5,98.5 Z"/></g>
<g><path style="opacity:0.502" fill="#534939" d="M 18.5,89.5 C 18.7388,95.1843 17.7388,100.518 15.5,105.5C 15.8711,99.9245 16.8711,94.5911 18.5,89.5 Z"/></g>
<g><path style="opacity:1" fill="#de9348" d="M 88.5,97.5 C 88.8376,107.04 88.8376,116.54 88.5,126C 89.8523,128.261 90.519,130.761 90.5,133.5C 90.7228,149.142 90.3895,164.809 89.5,180.5C 90.0862,184.195 90.7528,187.862 91.5,191.5C 90.7376,191.911 89.7376,192.077 88.5,192C 89.8583,193.832 90.1916,195.665 89.5,197.5C 90.4448,206.264 91.1114,214.93 91.5,223.5C 90.846,225.115 90.346,226.782 90,228.5C 88.3077,224.114 87.4743,219.78 87.5,215.5C 86.5078,219.783 86.1744,224.116 86.5,228.5C 83.0933,228.125 82.5933,229.125 85,231.5C 88.5459,228.594 90.0459,229.594 89.5,234.5C 86.9988,241 82.3321,245 75.5,246.5C 75.6845,243.827 76.8511,243.16 79,244.5C 79.6172,243.551 79.4506,242.718 78.5,242C 81.8978,239.735 82.3978,236.902 80,233.5C 79.1733,211.261 79.34,189.094 80.5,167C 80,166.5 79.5,166 79,165.5C 78.5848,156.907 79.0848,148.407 80.5,140C 79.3465,127.392 79.3465,114.892 80.5,102.5C 86.2611,102.291 86.5945,101.458 81.5,100C 83.8076,99.0093 86.1409,98.176 88.5,97.5 Z"/></g>
<g><path style="opacity:1" fill="#f5d898" d="M 51.5,99.5 C 52.8721,101.089 54.5388,102.422 56.5,103.5C 55.1961,106.092 53.1961,107.925 50.5,109C 44.0067,108.742 38.0067,110.242 32.5,113.5C 31.6858,115.766 31.1858,118.1 31,120.5C 30.51,119.207 30.3433,117.873 30.5,116.5C 28.8333,116.5 27.1667,116.5 25.5,116.5C 25.7852,118.288 25.4519,119.955 24.5,121.5C 23.914,121.291 23.414,120.957 23,120.5C 22.5012,116.514 22.3345,112.514 22.5,108.5C 22.9135,103.106 23.7468,97.773 25,92.5C 25.5613,91.9781 26.228,91.6448 27,91.5C 35.0674,94.6896 43.2341,97.3563 51.5,99.5 Z"/></g>
<g><path style="opacity:0.388" fill="#372e26" d="M 129.5,92.5 C 130.785,95.5885 131.451,98.9219 131.5,102.5C 129.825,99.4928 129.159,96.1595 129.5,92.5 Z"/></g>
<g><path style="opacity:1" fill="#e1994d" d="M 88.5,96.5 C 88.5,96.8333 88.5,97.1667 88.5,97.5C 86.1409,98.176 83.8076,99.0093 81.5,100C 86.5945,101.458 86.2611,102.291 80.5,102.5C 79.3465,114.892 79.3465,127.392 80.5,140C 79.0848,148.407 78.5848,156.907 79,165.5C 79.5,166 80,166.5 80.5,167C 79.34,189.094 79.1733,211.261 80,233.5C 82.3978,236.902 81.8978,239.735 78.5,242C 79.4506,242.718 79.6172,243.551 79,244.5C 76.8511,243.16 75.6845,243.827 75.5,246.5C 73.3432,247.407 71.0098,248.073 68.5,248.5C 63.9714,247.727 59.3047,247.06 54.5,246.5C 53.6412,242.998 54.6412,242.665 57.5,245.5C 62.1292,246.481 66.7959,246.648 71.5,246C 68.7021,244.402 65.7021,243.235 62.5,242.5C 63.727,241.41 64.5604,240.076 65,238.5C 65.414,238.957 65.914,239.291 66.5,239.5C 67.1771,228.606 67.8438,217.772 68.5,207C 67.1667,185.333 67.1667,163.667 68.5,142C 67.1955,141.196 66.5288,140.029 66.5,138.5C 67.3706,134.016 68.7039,129.683 70.5,125.5C 68.4451,118.31 67.4451,110.976 67.5,103.5C 66.5,103.5 65.5,103.5 64.5,103.5C 64.33,102.178 64.6634,101.011 65.5,100C 64.9056,99.5357 64.2389,99.369 63.5,99.5C 71.7031,98.5555 80.0364,97.5555 88.5,96.5 Z"/></g>
<g><path style="opacity:1" fill="#64462f" d="M 131.5,102.5 C 134.268,114.215 135.935,126.215 136.5,138.5C 135.167,131.167 133.833,123.833 132.5,116.5C 131.873,111.859 131.54,107.193 131.5,102.5 Z"/></g>
<g><path style="opacity:1" fill="#6c573c" d="M 15.5,107.5 C 15.4145,115.749 14.4145,123.749 12.5,131.5C 12.6962,123.263 13.6962,115.263 15.5,107.5 Z"/></g>
<g><path style="opacity:1" fill="#f4cf8c" d="M 51.5,99.5 C 53.1667,99.5 54.8333,99.5 56.5,99.5C 57.225,109.48 56.725,119.48 55,129.5C 53.1754,132.327 51.3421,135.161 49.5,138C 47.3309,136.886 45.4976,137.386 44,139.5C 42.6667,138.833 41.6667,137.833 41,136.5C 39.7402,139.428 37.5735,141.261 34.5,142C 34.8333,142.333 35.1667,142.667 35.5,143C 33.6711,143.273 32.1711,144.107 31,145.5C 30.586,145.043 30.086,144.709 29.5,144.5C 28.1934,145.816 26.6934,146.816 25,147.5C 23.5701,147.306 22.0701,147.306 20.5,147.5C 19.7137,140.416 19.3804,133.083 19.5,125.5C 19.7635,119.578 20.7635,113.911 22.5,108.5C 22.3345,112.514 22.5012,116.514 23,120.5C 23.414,120.957 23.914,121.291 24.5,121.5C 25.4519,119.955 25.7852,118.288 25.5,116.5C 27.1667,116.5 28.8333,116.5 30.5,116.5C 30.3433,117.873 30.51,119.207 31,120.5C 31.1858,118.1 31.6858,115.766 32.5,113.5C 38.0067,110.242 44.0067,108.742 50.5,109C 53.1961,107.925 55.1961,106.092 56.5,103.5C 54.5388,102.422 52.8721,101.089 51.5,99.5 Z"/></g>
<g><path style="opacity:1" fill="#e4a051" d="M 63.5,99.5 C 64.2389,99.369 64.9056,99.5357 65.5,100C 64.6634,101.011 64.33,102.178 64.5,103.5C 65.5,103.5 66.5,103.5 67.5,103.5C 67.4451,110.976 68.4451,118.31 70.5,125.5C 68.7039,129.683 67.3706,134.016 66.5,138.5C 66.5288,140.029 67.1955,141.196 68.5,142C 67.1667,163.667 67.1667,185.333 68.5,207C 67.8438,217.772 67.1771,228.606 66.5,239.5C 65.914,239.291 65.414,238.957 65,238.5C 64.5604,240.076 63.727,241.41 62.5,242.5C 65.7021,243.235 68.7021,244.402 71.5,246C 66.7959,246.648 62.1292,246.481 57.5,245.5C 57.6107,244.883 57.944,244.383 58.5,244C 56.9903,242.649 55.9903,240.982 55.5,239C 55.1727,228.308 55.5061,217.475 56.5,206.5C 55.8333,204.167 55.1667,201.833 54.5,199.5C 54.8875,192.213 54.8875,184.879 54.5,177.5C 55.2597,171.196 55.593,164.863 55.5,158.5C 56.1942,153.195 56.5276,147.862 56.5,142.5C 56.9322,129.486 57.5989,116.486 58.5,103.5C 61.1273,103.21 62.7939,101.876 63.5,99.5 Z"/></g>
<g><path style="opacity:1" fill="#f2c57e" d="M 56.5,99.5 C 58.1765,100.183 58.8432,101.517 58.5,103.5C 57.5989,116.486 56.9322,129.486 56.5,142.5C 54.7705,148.79 52.9372,155.123 51,161.5C 49.647,160.315 48.4803,158.981 47.5,157.5C 43.408,161.077 38.5747,163.077 33,163.5C 32,162.833 31,162.167 30,161.5C 26.8349,161.754 23.6683,162.087 20.5,162.5C 19.6751,160.64 18.6751,158.974 17.5,157.5C 17.2419,146.624 17.9085,135.958 19.5,125.5C 19.3804,133.083 19.7137,140.416 20.5,147.5C 22.0701,147.306 23.5701,147.306 25,147.5C 26.6934,146.816 28.1934,145.816 29.5,144.5C 30.086,144.709 30.586,145.043 31,145.5C 32.1711,144.107 33.6711,143.273 35.5,143C 35.1667,142.667 34.8333,142.333 34.5,142C 37.5735,141.261 39.7402,139.428 41,136.5C 41.6667,137.833 42.6667,138.833 44,139.5C 45.4976,137.386 47.3309,136.886 49.5,138C 51.3421,135.161 53.1754,132.327 55,129.5C 56.725,119.48 57.225,109.48 56.5,99.5 Z"/></g>
<g><path style="opacity:1" fill="#d17c39" d="M 132.5,116.5 C 132.334,121.844 132.501,127.177 133,132.5C 134.371,142.887 135.871,153.221 137.5,163.5C 136.177,177.518 135.177,191.518 134.5,205.5C 134.5,206.167 134.5,206.833 134.5,207.5C 133.013,212.132 130.679,216.466 127.5,220.5C 126.732,221.263 126.232,222.263 126,223.5C 124.16,222.167 123.66,222.334 124.5,224C 122.081,225.509 121.081,227.675 121.5,230.5C 120.448,230.351 119.448,230.517 118.5,231C 119.252,231.671 119.586,232.504 119.5,233.5C 118.883,233.389 118.383,233.056 118,232.5C 116.562,233.9 115.729,235.567 115.5,237.5C 110.829,239.509 106.162,241.509 101.5,243.5C 117.15,232.293 125.983,216.959 128,197.5C 128.721,164.255 126.221,131.255 120.5,98.5C 121.161,97.2825 121.828,95.9492 122.5,94.5C 123.167,97.8333 123.833,101.167 124.5,104.5C 125.886,102.356 127.386,101.023 129,100.5C 129.498,102.527 129.331,104.527 128.5,106.5C 129.167,109.167 129.833,111.833 130.5,114.5C 130.747,115.713 131.414,116.38 132.5,116.5 Z"/></g>
<g><path style="opacity:1" fill="#a76b3b" d="M 132.5,116.5 C 133.833,123.833 135.167,131.167 136.5,138.5C 139.332,156.624 139.998,174.957 138.5,193.5C 136.956,197.418 135.623,201.418 134.5,205.5C 135.177,191.518 136.177,177.518 137.5,163.5C 135.871,153.221 134.371,142.887 133,132.5C 132.501,127.177 132.334,121.844 132.5,116.5 Z"/></g>
<g><path style="opacity:0.792" fill="#786443" d="M 11.5,144.5 C 11.3039,160.184 11.6372,175.851 12.5,191.5C 12.5,192.833 12.5,194.167 12.5,195.5C 10.9554,185.884 10.2887,176.05 10.5,166C 10.5003,158.659 10.8337,151.492 11.5,144.5 Z"/></g>
<g><path style="opacity:1" fill="#f1bd70" d="M 56.5,142.5 C 56.5276,147.862 56.1942,153.195 55.5,158.5C 54.6773,161.977 54.1773,165.644 54,169.5C 53.2733,171.953 52.2733,174.286 51,176.5C 50.586,176.043 50.086,175.709 49.5,175.5C 47.523,177.557 46.023,179.891 45,182.5C 44.2303,181.402 43.397,181.402 42.5,182.5C 40.8561,182.286 39.3561,182.62 38,183.5C 37.6667,182.833 37.3333,182.167 37,181.5C 35.3809,183.872 33.3809,184.538 31,183.5C 29.6418,185.189 27.9751,186.522 26,187.5C 25.3333,184.833 24.6667,184.833 24,187.5C 22.6914,185.109 21.6914,185.109 21,187.5C 18.3825,177.676 17.2159,167.676 17.5,157.5C 18.6751,158.974 19.6751,160.64 20.5,162.5C 23.6683,162.087 26.8349,161.754 30,161.5C 31,162.167 32,162.833 33,163.5C 38.5747,163.077 43.408,161.077 47.5,157.5C 48.4803,158.981 49.647,160.315 51,161.5C 52.9372,155.123 54.7705,148.79 56.5,142.5 Z"/></g>
<g><path style="opacity:1" fill="#e9af61" d="M 55.5,158.5 C 55.593,164.863 55.2597,171.196 54.5,177.5C 53.8335,182.017 53.1669,186.683 52.5,191.5C 50.7721,193.226 48.7721,194.559 46.5,195.5C 45.7492,194.624 45.2492,193.624 45,192.5C 43.8904,194.037 42.3904,194.703 40.5,194.5C 40.5,195.5 40.5,196.5 40.5,197.5C 39.1667,197.5 37.8333,197.5 36.5,197.5C 35.3022,200.836 32.9689,203.169 29.5,204.5C 29.3054,207.037 29.6388,209.703 30.5,212.5C 26.7104,212.008 26.0437,212.841 28.5,215C 26.4078,215.953 26.0745,217.286 27.5,219C 25.8446,220.444 25.178,222.278 25.5,224.5C 28.8884,223.835 29.8884,224.835 28.5,227.5C 29.8936,229.646 30.5603,231.979 30.5,234.5C 33.7415,236.719 37.4082,237.886 41.5,238C 41.1667,238.333 40.8333,238.667 40.5,239C 42.5568,239.305 44.5568,239.305 46.5,239C 47.2638,241.069 47.7638,243.236 48,245.5C 48.9947,246.066 49.828,246.733 50.5,247.5C 50.5,247.833 50.5,248.167 50.5,248.5C 50.1667,248.5 49.8333,248.5 49.5,248.5C 46.8068,247.153 44.1401,245.82 41.5,244.5C 41.0269,243.094 40.0269,242.427 38.5,242.5C 37.0892,240.086 35.0892,238.419 32.5,237.5C 30.8333,236.5 29.5,235.167 28.5,233.5C 28.4456,231.368 27.4456,230.035 25.5,229.5C 25.573,227.973 24.9063,226.973 23.5,226.5C 22.6618,226.158 22.3284,225.492 22.5,224.5C 22.573,222.973 21.9063,221.973 20.5,221.5C 20.5979,219.447 19.9313,217.78 18.5,216.5C 18.2671,213.458 17.2671,210.792 15.5,208.5C 15.8294,205.772 15.1628,203.438 13.5,201.5C 12.6586,199.621 12.3253,197.621 12.5,195.5C 12.5,194.167 12.5,192.833 12.5,191.5C 15.7012,196.916 17.5345,202.916 18,209.5C 18.6667,210.167 19.3333,210.833 20,211.5C 20.3607,208.475 20.8607,205.475 21.5,202.5C 20.0613,198.274 21.0613,197.607 24.5,200.5C 27.3577,197.422 29.691,194.088 31.5,190.5C 33.1992,190.66 34.8659,190.494 36.5,190C 35.8333,189.667 35.1667,189.333 34.5,189C 36.7738,186.214 39.4405,184.047 42.5,182.5C 43.397,181.402 44.2303,181.402 45,182.5C 46.023,179.891 47.523,177.557 49.5,175.5C 50.086,175.709 50.586,176.043 51,176.5C 52.2733,174.286 53.2733,171.953 54,169.5C 54.1773,165.644 54.6773,161.977 55.5,158.5 Z"/></g>
<g><path style="opacity:1" fill="#e9a757" d="M 54.5,177.5 C 54.8875,184.879 54.8875,192.213 54.5,199.5C 55.1667,201.833 55.8333,204.167 56.5,206.5C 55.5061,217.475 55.1727,228.308 55.5,239C 55.9903,240.982 56.9903,242.649 58.5,244C 57.944,244.383 57.6107,244.883 57.5,245.5C 54.6412,242.665 53.6412,242.998 54.5,246.5C 52.8049,245.174 51.4716,245.507 50.5,247.5C 49.828,246.733 48.9947,246.066 48,245.5C 47.7638,243.236 47.2638,241.069 46.5,239C 44.5568,239.305 42.5568,239.305 40.5,239C 40.8333,238.667 41.1667,238.333 41.5,238C 37.4082,237.886 33.7415,236.719 30.5,234.5C 30.5603,231.979 29.8936,229.646 28.5,227.5C 29.8884,224.835 28.8884,223.835 25.5,224.5C 25.178,222.278 25.8446,220.444 27.5,219C 26.0745,217.286 26.4078,215.953 28.5,215C 26.0437,212.841 26.7104,212.008 30.5,212.5C 29.6388,209.703 29.3054,207.037 29.5,204.5C 32.9689,203.169 35.3022,200.836 36.5,197.5C 37.8333,197.5 39.1667,197.5 40.5,197.5C 40.5,196.5 40.5,195.5 40.5,194.5C 42.3904,194.703 43.8904,194.037 45,192.5C 45.2492,193.624 45.7492,194.624 46.5,195.5C 48.7721,194.559 50.7721,193.226 52.5,191.5C 53.1669,186.683 53.8335,182.017 54.5,177.5 Z"/></g>
<g><path style="opacity:0.533" fill="#56402e" d="M 138.5,193.5 C 138.039,199.164 136.706,204.497 134.5,209.5C 134.5,208.833 134.5,208.167 134.5,207.5C 134.5,206.833 134.5,206.167 134.5,205.5C 135.623,201.418 136.956,197.418 138.5,193.5 Z"/></g>
<g><path style="opacity:0.871" fill="#6e5a3d" d="M 13.5,201.5 C 15.1628,203.438 15.8294,205.772 15.5,208.5C 14.3882,206.401 13.7215,204.067 13.5,201.5 Z"/></g>
<g><path style="opacity:1" fill="#8a5e39" d="M 134.5,207.5 C 134.5,208.167 134.5,208.833 134.5,209.5C 132.956,214.919 130.622,219.919 127.5,224.5C 127.5,223.167 127.5,221.833 127.5,220.5C 130.679,216.466 133.013,212.132 134.5,207.5 Z"/></g>
<g><path style="opacity:0.616" fill="#5b4e3a" d="M 15.5,208.5 C 17.2671,210.792 18.2671,213.458 18.5,216.5C 16.7329,214.208 15.7329,211.542 15.5,208.5 Z"/></g>
<g><path style="opacity:0.216" fill="#483e2d" d="M 18.5,216.5 C 19.9313,217.78 20.5979,219.447 20.5,221.5C 19.0687,220.22 18.4021,218.553 18.5,216.5 Z"/></g>
<g><path style="opacity:0.118" fill="#41392e" d="M 20.5,221.5 C 21.9063,221.973 22.573,222.973 22.5,224.5C 21.0937,224.027 20.427,223.027 20.5,221.5 Z"/></g>
<g><path style="opacity:1" fill="#a96f39" d="M 127.5,220.5 C 127.5,221.833 127.5,223.167 127.5,224.5C 125.547,228.12 122.881,231.12 119.5,233.5C 119.586,232.504 119.252,231.671 118.5,231C 119.448,230.517 120.448,230.351 121.5,230.5C 121.081,227.675 122.081,225.509 124.5,224C 123.66,222.334 124.16,222.167 126,223.5C 126.232,222.263 126.732,221.263 127.5,220.5 Z"/></g>
<g><path style="opacity:0.039" fill="#3d362e" d="M 23.5,226.5 C 24.9063,226.973 25.573,227.973 25.5,229.5C 24.0937,229.027 23.427,228.027 23.5,226.5 Z"/></g>
<g><path style="opacity:1" fill="#6b573e" d="M 25.5,229.5 C 27.4456,230.035 28.4456,231.368 28.5,233.5C 27.0256,232.564 26.0256,231.23 25.5,229.5 Z"/></g>
<g><path style="opacity:1" fill="#8f6238" d="M 119.5,233.5 C 119.167,235.833 117.833,237.167 115.5,237.5C 115.729,235.567 116.562,233.9 118,232.5C 118.383,233.056 118.883,233.389 119.5,233.5 Z"/></g>
<g><path style="opacity:0.808" fill="#64523d" d="M 32.5,237.5 C 35.0892,238.419 37.0892,240.086 38.5,242.5C 35.9108,241.581 33.9108,239.914 32.5,237.5 Z"/></g>
<g><path style="opacity:0.898" fill="#62513c" d="M 38.5,242.5 C 40.0269,242.427 41.0269,243.094 41.5,244.5C 39.9731,244.573 38.9731,243.906 38.5,242.5 Z"/></g>
<g><path style="opacity:1" fill="#bb7f45" d="M 115.5,237.5 C 114.167,239.5 112.5,241.167 110.5,242.5C 107.996,243.584 105.663,244.917 103.5,246.5C 103.167,246.5 102.833,246.5 102.5,246.5C 101.596,245.791 101.263,244.791 101.5,243.5C 106.162,241.509 110.829,239.509 115.5,237.5 Z"/></g>
<g><path style="opacity:0.106" fill="#443025" d="M 110.5,242.5 C 109.542,243.962 108.376,245.295 107,246.5C 106.819,249.695 106.319,252.695 105.5,255.5C 105.793,252.246 105.126,249.246 103.5,246.5C 105.663,244.917 107.996,243.584 110.5,242.5 Z"/></g>
<g><path style="opacity:1" fill="#e28d49" d="M 101.5,243.5 C 101.263,244.791 101.596,245.791 102.5,246.5C 85.4388,254.93 68.1055,255.596 50.5,248.5C 50.5,248.167 50.5,247.833 50.5,247.5C 51.4716,245.507 52.8049,245.174 54.5,246.5C 59.3047,247.06 63.9714,247.727 68.5,248.5C 66.4727,248.338 64.4727,248.505 62.5,249C 76.1384,252.163 89.1384,250.33 101.5,243.5 Z"/></g>
<g><path style="opacity:0.753" fill="#543d2b" d="M 41.5,244.5 C 44.1401,245.82 46.8068,247.153 49.5,248.5C 48.6314,250.717 48.298,253.05 48.5,255.5C 47.5309,253.337 46.6976,251.004 46,248.5C 44.0077,247.672 42.5077,246.339 41.5,244.5 Z"/></g>
<g><path style="opacity:1" fill="#c4612c" d="M 102.5,246.5 C 102.833,246.5 103.167,246.5 103.5,246.5C 105.126,249.246 105.793,252.246 105.5,255.5C 105.5,256.167 105.167,256.5 104.5,256.5C 104.167,256.5 103.833,256.5 103.5,256.5C 100.055,257.093 96.7213,258.093 93.5,259.5C 88.8759,269.071 85.7092,279.071 84,289.5C 82.9887,290.337 81.8221,290.67 80.5,290.5C 80.5,289.5 80.5,288.5 80.5,287.5C 81.611,278.513 83.2777,269.513 85.5,260.5C 80.1667,260.5 74.8333,260.5 69.5,260.5C 64.4768,259.745 59.4768,258.745 54.5,257.5C 53.1932,256.847 51.8599,256.18 50.5,255.5C 49.8933,255.624 49.56,255.957 49.5,256.5C 49.1667,256.5 48.8333,256.5 48.5,256.5C 48.5,256.167 48.5,255.833 48.5,255.5C 48.298,253.05 48.6314,250.717 49.5,248.5C 49.8333,248.5 50.1667,248.5 50.5,248.5C 68.1055,255.596 85.4388,254.93 102.5,246.5 Z"/></g>
<g><path style="opacity:1" fill="#c9783a" d="M 103.5,256.5 C 101.748,258.246 100.415,260.246 99.5,262.5C 98.0937,262.973 97.427,263.973 97.5,265.5C 91.7556,272.01 89.089,279.677 89.5,288.5C 86.9038,290.059 84.2371,291.726 81.5,293.5C 80.6143,292.675 80.281,291.675 80.5,290.5C 81.8221,290.67 82.9887,290.337 84,289.5C 85.7092,279.071 88.8759,269.071 93.5,259.5C 96.7213,258.093 100.055,257.093 103.5,256.5 Z"/></g>
<g><path style="opacity:0.216" fill="#322a25" d="M 103.5,256.5 C 103.833,256.5 104.167,256.5 104.5,256.5C 103.581,259.089 101.914,261.089 99.5,262.5C 100.415,260.246 101.748,258.246 103.5,256.5 Z"/></g>
<g><path style="opacity:0.776" fill="#3e352b" d="M 48.5,256.5 C 48.8333,256.5 49.1667,256.5 49.5,256.5C 53.9574,259.418 56.9574,263.418 58.5,268.5C 55.5732,264.233 52.2398,260.233 48.5,256.5 Z"/></g>
<g><path style="opacity:1" fill="#d57f3b" d="M 69.5,260.5 C 74.8333,260.5 80.1667,260.5 85.5,260.5C 83.2777,269.513 81.611,278.513 80.5,287.5C 80.2416,282.875 80.2416,278.375 80.5,274C 78.4106,270.983 77.0773,267.649 76.5,264C 74.4522,262.168 72.1189,261.001 69.5,260.5 Z"/></g>
<g><path style="opacity:0.129" fill="#312a21" d="M 99.5,262.5 C 99.573,264.027 98.9063,265.027 97.5,265.5C 97.427,263.973 98.0937,262.973 99.5,262.5 Z"/></g>
<g><path style="opacity:0.624" fill="#484234" d="M 59.5,270.5 C 61.2132,271.635 61.8799,273.302 61.5,275.5C 60.4625,274.07 59.7959,272.403 59.5,270.5 Z"/></g>
<g><path style="opacity:1" fill="#dc964a" d="M 54.5,257.5 C 59.4768,258.745 64.4768,259.745 69.5,260.5C 72.1189,261.001 74.4522,262.168 76.5,264C 77.0773,267.649 78.4106,270.983 80.5,274C 80.2416,278.375 80.2416,282.875 80.5,287.5C 80.5,288.5 80.5,289.5 80.5,290.5C 80.281,291.675 80.6143,292.675 81.5,293.5C 84.2371,291.726 86.9038,290.059 89.5,288.5C 90.209,289.404 91.209,289.737 92.5,289.5C 92.9731,290.906 93.9731,291.573 95.5,291.5C 96.5,291.833 97.1667,292.5 97.5,293.5C 97.5,294.167 97.5,294.833 97.5,295.5C 95.8333,295.5 94.1667,295.5 92.5,295.5C 90.8523,294.19 89.1856,292.857 87.5,291.5C 85.0693,292.36 83.736,294.027 83.5,296.5C 83.1667,296.5 82.8333,296.5 82.5,296.5C 81.713,294.896 80.3797,294.229 78.5,294.5C 79.1197,290.698 78.2863,287.365 76,284.5C 75.6667,284.833 75.3333,285.167 75,285.5C 74.8285,278.321 74.3285,271.321 73.5,264.5C 66.5932,263.21 60.2598,260.876 54.5,257.5 Z"/></g>
<g><path style="opacity:1" fill="#eecb88" d="M 49.5,256.5 C 49.56,255.957 49.8933,255.624 50.5,255.5C 51.8599,256.18 53.1932,256.847 54.5,257.5C 60.2598,260.876 66.5932,263.21 73.5,264.5C 73.5,273.5 73.5,282.5 73.5,291.5C 73.1667,291.5 72.8333,291.5 72.5,291.5C 70.1098,289.98 67.4432,288.98 64.5,288.5C 64.8412,284.84 64.1745,281.507 62.5,278.5C 61.596,277.791 61.2627,276.791 61.5,275.5C 61.8799,273.302 61.2132,271.635 59.5,270.5C 58.6618,270.158 58.3284,269.492 58.5,268.5C 56.9574,263.418 53.9574,259.418 49.5,256.5 Z"/></g>
<g><path style="opacity:0.059" fill="#45372c" d="M 97.5,265.5 C 95.0696,270.699 92.9029,276.032 91,281.5C 90.1093,284.498 90.6093,287.164 92.5,289.5C 91.209,289.737 90.209,289.404 89.5,288.5C 89.089,279.677 91.7556,272.01 97.5,265.5 Z"/></g>
<g><path style="opacity:1" fill="#706449" d="M 62.5,278.5 C 64.1745,281.507 64.8412,284.84 64.5,288.5C 64.0269,289.906 63.0269,290.573 61.5,290.5C 60.8333,290.5 60.1667,290.5 59.5,290.5C 61.6308,289.341 62.9641,287.508 63.5,285C 62.5769,282.959 62.2436,280.792 62.5,278.5 Z"/></g>
<g><path style="opacity:1" fill="#e4ad55" d="M 73.5,264.5 C 74.3285,271.321 74.8285,278.321 75,285.5C 75.3333,285.167 75.6667,284.833 76,284.5C 78.2863,287.365 79.1197,290.698 78.5,294.5C 76.7121,293.64 75.0455,292.64 73.5,291.5C 73.5,282.5 73.5,273.5 73.5,264.5 Z"/></g>
<g><path style="opacity:0.039" fill="#3a322a" d="M 92.5,289.5 C 94.0269,289.427 95.0269,290.094 95.5,291.5C 93.9731,291.573 92.9731,290.906 92.5,289.5 Z"/></g>
<g><path style="opacity:1" fill="#ede4b1" d="M 59.5,290.5 C 60.1667,290.5 60.8333,290.5 61.5,290.5C 62.5903,291.857 63.9236,292.857 65.5,293.5C 57.0565,294.49 54.0565,299.157 56.5,307.5C 55.2502,307.423 54.4169,306.756 54,305.5C 53.5172,306.448 53.3505,307.448 53.5,308.5C 53.1667,308.5 52.8333,308.5 52.5,308.5C 51.8069,301.234 54.1403,295.234 59.5,290.5 Z"/></g>
<g><path style="opacity:1" fill="#645b43" d="M 59.5,290.5 C 54.1403,295.234 51.8069,301.234 52.5,308.5C 52.9802,311.443 53.9802,314.11 55.5,316.5C 55.5,317.167 55.5,317.833 55.5,318.5C 49.9979,311.471 49.1645,303.804 53,295.5C 54.7772,293.21 56.9438,291.543 59.5,290.5 Z"/></g>
<g><path style="opacity:1" fill="#6e5036" d="M 97.5,293.5 C 99.5869,294.585 100.92,296.251 101.5,298.5C 100.167,297.5 98.8333,296.5 97.5,295.5C 97.5,294.833 97.5,294.167 97.5,293.5 Z"/></g>
<g><path style="opacity:1" fill="#fbf7d9" d="M 65.5,293.5 C 68.8819,293.726 71.8819,294.726 74.5,296.5C 73.4372,308.296 67.4372,311.962 56.5,307.5C 54.0565,299.157 57.0565,294.49 65.5,293.5 Z"/></g>
<g><path style="opacity:1" fill="#fcfcef" d="M 62.5,294.5 C 64.5,295.167 66.5,295.833 68.5,296.5C 69.8686,300.074 69.2019,302.907 66.5,305C 63.6912,305.312 61.0245,304.812 58.5,303.5C 58.2148,301.712 58.5481,300.045 59.5,298.5C 60.984,297.533 61.984,296.2 62.5,294.5 Z"/></g>
<g><path style="opacity:1" fill="#d17d3d" d="M 92.5,295.5 C 94.1667,295.5 95.8333,295.5 97.5,295.5C 98.8333,296.5 100.167,297.5 101.5,298.5C 102.254,303.463 102.587,308.463 102.5,313.5C 100.273,315.229 99.2733,317.562 99.5,320.5C 98.5,320.5 97.5,320.5 96.5,320.5C 100.182,311.291 98.8489,302.958 92.5,295.5 Z"/></g>
<g><path style="opacity:0.533" fill="#6f4e34" d="M 101.5,298.5 C 102.991,301.186 103.657,304.186 103.5,307.5C 103.495,309.696 103.162,311.696 102.5,313.5C 102.587,308.463 102.254,303.463 101.5,298.5 Z"/></g>
<g><path style="opacity:1" fill="#f6e39d" d="M 64.5,288.5 C 67.4432,288.98 70.1098,289.98 72.5,291.5C 72.4609,293.359 73.2942,294.692 75,295.5C 75.4966,297.81 75.6633,300.143 75.5,302.5C 73.4463,306.058 70.7797,309.225 67.5,312C 63.1328,312.364 58.9661,312.53 55,312.5C 54.2086,311.255 53.7086,309.922 53.5,308.5C 53.3505,307.448 53.5172,306.448 54,305.5C 54.4169,306.756 55.2502,307.423 56.5,307.5C 67.4372,311.962 73.4372,308.296 74.5,296.5C 71.8819,294.726 68.8819,293.726 65.5,293.5C 63.9236,292.857 62.5903,291.857 61.5,290.5C 63.0269,290.573 64.0269,289.906 64.5,288.5 Z"/></g>
<g><path style="opacity:1" fill="#edd079" d="M 75.5,302.5 C 75.1195,308.157 72.4529,312.323 67.5,315C 64.3523,314.893 61.1856,314.393 58,313.5C 56.2509,313.748 55.4176,314.748 55.5,316.5C 53.9802,314.11 52.9802,311.443 52.5,308.5C 52.8333,308.5 53.1667,308.5 53.5,308.5C 53.7086,309.922 54.2086,311.255 55,312.5C 58.9661,312.53 63.1328,312.364 67.5,312C 70.7797,309.225 73.4463,306.058 75.5,302.5 Z"/></g>
<g><path style="opacity:1" fill="#e5ab53" d="M 82.5,296.5 C 82.8333,296.5 83.1667,296.5 83.5,296.5C 84.4916,296.328 85.1583,296.662 85.5,297.5C 85.2965,299.39 85.9632,300.89 87.5,302C 86.1416,305.073 84.9749,308.24 84,311.5C 81.7349,313.722 79.5683,316.055 77.5,318.5C 77.8333,319.167 78.1667,319.833 78.5,320.5C 74.7496,322.084 71.083,322.418 67.5,321.5C 69.256,320.448 69.9227,318.781 69.5,316.5C 76.07,313.377 79.07,308.044 78.5,300.5C 79.5,300.5 80.5,300.5 81.5,300.5C 81.4326,299.041 81.7659,297.708 82.5,296.5 Z"/></g>
<g><path style="opacity:1" fill="#7d5435" d="M 102.5,313.5 C 102.293,316.241 101.293,318.574 99.5,320.5C 99.2733,317.562 100.273,315.229 102.5,313.5 Z"/></g>
<g><path style="opacity:1" fill="#eabf61" d="M 72.5,291.5 C 72.8333,291.5 73.1667,291.5 73.5,291.5C 75.0455,292.64 76.7121,293.64 78.5,294.5C 80.3797,294.229 81.713,294.896 82.5,296.5C 81.7659,297.708 81.4326,299.041 81.5,300.5C 80.5,300.5 79.5,300.5 78.5,300.5C 79.07,308.044 76.07,313.377 69.5,316.5C 69.9227,318.781 69.256,320.448 67.5,321.5C 66.2101,320.942 65.3768,319.942 65,318.5C 61.2801,321.215 58.6135,320.215 57,315.5C 56.6174,316.056 56.1174,316.389 55.5,316.5C 55.4176,314.748 56.2509,313.748 58,313.5C 61.1856,314.393 64.3523,314.893 67.5,315C 72.4529,312.323 75.1195,308.157 75.5,302.5C 75.6633,300.143 75.4966,297.81 75,295.5C 73.2942,294.692 72.4609,293.359 72.5,291.5 Z"/></g>
<g><path style="opacity:1" fill="#c7682f" d="M 92.5,295.5 C 98.8489,302.958 100.182,311.291 96.5,320.5C 96.5,321.5 96.5,322.5 96.5,323.5C 94.5,323.833 92.5,324.167 90.5,324.5C 90.5,325.833 90.5,327.167 90.5,328.5C 85.903,330.972 80.903,332.139 75.5,332C 76.5908,333.55 77.9242,334.717 79.5,335.5C 77.4352,335.483 75.4352,335.15 73.5,334.5C 70.3732,333.875 67.3732,332.875 64.5,331.5C 64.5,330.167 64.5,328.833 64.5,327.5C 67.4857,328.355 70.4857,328.855 73.5,329C 73.9574,328.586 74.2907,328.086 74.5,327.5C 73.0186,326.52 71.6853,325.353 70.5,324C 85.473,324.365 91.973,317.199 90,302.5C 89.0041,300.34 87.5041,298.673 85.5,297.5C 85.1583,296.662 84.4916,296.328 83.5,296.5C 83.736,294.027 85.0693,292.36 87.5,291.5C 89.1856,292.857 90.8523,294.19 92.5,295.5 Z"/></g>
<g><path style="opacity:0.831" fill="#604a32" d="M 56.5,320.5 C 57.5832,320.539 58.5832,320.873 59.5,321.5C 61.2425,323.563 62.9092,325.563 64.5,327.5C 64.5,328.833 64.5,330.167 64.5,331.5C 63.8333,332.167 63.1667,332.833 62.5,333.5C 62.6621,331.473 62.4955,329.473 62,327.5C 60.3335,325.004 58.5002,322.671 56.5,320.5 Z"/></g>
<g><path style="opacity:1" fill="#df9c4b" d="M 85.5,297.5 C 87.5041,298.673 89.0041,300.34 90,302.5C 91.973,317.199 85.473,324.365 70.5,324C 71.6853,325.353 73.0186,326.52 74.5,327.5C 74.2907,328.086 73.9574,328.586 73.5,329C 70.4857,328.855 67.4857,328.355 64.5,327.5C 62.9092,325.563 61.2425,323.563 59.5,321.5C 58.5832,320.873 57.5832,320.539 56.5,320.5C 56.1667,319.833 55.8333,319.167 55.5,318.5C 55.5,317.833 55.5,317.167 55.5,316.5C 56.1174,316.389 56.6174,316.056 57,315.5C 58.6135,320.215 61.2801,321.215 65,318.5C 65.3768,319.942 66.2101,320.942 67.5,321.5C 71.083,322.418 74.7496,322.084 78.5,320.5C 78.1667,319.833 77.8333,319.167 77.5,318.5C 79.5683,316.055 81.7349,313.722 84,311.5C 84.9749,308.24 86.1416,305.073 87.5,302C 85.9632,300.89 85.2965,299.39 85.5,297.5 Z"/></g>
<g><path style="opacity:0.039" fill="#39332e" d="M 94.5,326.5 C 93.612,329.054 93.2786,331.721 93.5,334.5C 92.8333,334.5 92.5,334.167 92.5,333.5C 91.9898,330.612 92.6565,328.279 94.5,326.5 Z"/></g>
<g><path style="opacity:1" fill="#9d6135" d="M 96.5,320.5 C 97.5,320.5 98.5,320.5 99.5,320.5C 98.5569,323.109 96.8903,325.109 94.5,326.5C 92.6565,328.279 91.9898,330.612 92.5,333.5C 91.8333,333.167 91.1667,332.833 90.5,332.5C 90.5,331.167 90.5,329.833 90.5,328.5C 90.5,327.167 90.5,325.833 90.5,324.5C 92.5,324.167 94.5,323.833 96.5,323.5C 96.5,322.5 96.5,321.5 96.5,320.5 Z"/></g>
<g><path style="opacity:0.075" fill="#393127" d="M 62.5,333.5 C 62.7062,336.495 62.0395,339.162 60.5,341.5C 60.5651,338.572 61.2318,335.905 62.5,333.5 Z"/></g>
<g><path style="opacity:1" fill="#de9248" d="M 73.5,334.5 C 75.4352,335.15 77.4352,335.483 79.5,335.5C 80.8333,335.5 82.1667,335.5 83.5,335.5C 83.423,339.215 83.7564,342.881 84.5,346.5C 83.9621,352.315 84.9621,357.815 87.5,363C 85.5273,363.495 83.5273,363.662 81.5,363.5C 78.9158,363.431 76.9158,362.265 75.5,360C 76.3279,359.085 77.3279,358.419 78.5,358C 76.968,357.3 75.968,356.134 75.5,354.5C 77.3025,347.78 76.6359,341.114 73.5,334.5 Z"/></g>
<g><path style="opacity:0.565" fill="#43352b" d="M 94.5,339.5 C 97.3168,345.129 100.65,350.462 104.5,355.5C 99.1056,351.442 95.7723,346.109 94.5,339.5 Z"/></g>
<g><path style="opacity:1" fill="#e7a355" d="M 64.5,331.5 C 67.3732,332.875 70.3732,333.875 73.5,334.5C 76.6359,341.114 77.3025,347.78 75.5,354.5C 75.968,356.134 76.968,357.3 78.5,358C 77.3279,358.419 76.3279,359.085 75.5,360C 76.9158,362.265 78.9158,363.431 81.5,363.5C 81.5,363.833 81.5,364.167 81.5,364.5C 77.4338,364.693 73.4338,364.36 69.5,363.5C 69.9516,360.124 70.6182,356.791 71.5,353.5C 70.7895,350.327 69.6229,347.327 68,344.5C 67.6667,341.5 67.3333,338.5 67,335.5C 65.5187,334.529 64.6854,333.196 64.5,331.5 Z"/></g>
<g><path style="opacity:0.227" fill="#3c352b" d="M 60.5,341.5 C 59.0568,347.721 56.0568,353.054 51.5,357.5C 54.5035,352.159 57.5035,346.825 60.5,341.5 Z"/></g>
<g><path style="opacity:1" fill="#e8b76c" d="M 64.5,331.5 C 64.6854,333.196 65.5187,334.529 67,335.5C 67.3333,338.5 67.6667,341.5 68,344.5C 69.6229,347.327 70.7895,350.327 71.5,353.5C 70.6182,356.791 69.9516,360.124 69.5,363.5C 68.5,363.5 67.5,363.5 66.5,363.5C 67.1667,361.5 67.8333,359.5 68.5,357.5C 66.0225,357.949 64.0225,357.283 62.5,355.5C 63.7287,354.719 65.062,354.219 66.5,354C 64.9736,352.411 63.8069,350.577 63,348.5C 59.2764,352.263 55.7764,356.263 52.5,360.5C 49.5336,363.118 48.867,366.285 50.5,370C 54.473,371.499 58.473,371.666 62.5,370.5C 63.2458,369.264 63.5792,367.93 63.5,366.5C 65.5,366.5 67.5,366.5 69.5,366.5C 75.7377,368.703 75.7377,370.703 69.5,372.5C 69.7093,373.086 70.0426,373.586 70.5,374C 68.1902,374.497 65.8568,374.663 63.5,374.5C 57.4067,373.548 51.4067,372.215 45.5,370.5C 45.5,369.167 45.5,367.833 45.5,366.5C 46.7232,362.951 48.7232,359.951 51.5,357.5C 56.0568,353.054 59.0568,347.721 60.5,341.5C 62.0395,339.162 62.7062,336.495 62.5,333.5C 63.1667,332.833 63.8333,332.167 64.5,331.5 Z"/></g>
<g><path style="opacity:1" fill="#f3cd88" d="M 69.5,363.5 C 73.4338,364.36 77.4338,364.693 81.5,364.5C 89.3011,364.706 89.3011,365.372 81.5,366.5C 77.5,366.5 73.5,366.5 69.5,366.5C 67.5,366.5 65.5,366.5 63.5,366.5C 64.0906,365.849 64.7573,365.182 65.5,364.5C 62.8443,362.276 59.8443,360.609 56.5,359.5C 55.1508,359.846 53.8175,360.179 52.5,360.5C 55.7764,356.263 59.2764,352.263 63,348.5C 63.8069,350.577 64.9736,352.411 66.5,354C 65.062,354.219 63.7287,354.719 62.5,355.5C 64.0225,357.283 66.0225,357.949 68.5,357.5C 67.8333,359.5 67.1667,361.5 66.5,363.5C 67.5,363.5 68.5,363.5 69.5,363.5 Z"/></g>
<g><path style="opacity:1" fill="#c77639" d="M 90.5,332.5 C 91.1667,332.833 91.8333,333.167 92.5,333.5C 92.5,334.167 92.8333,334.5 93.5,334.5C 94.3007,336.042 94.634,337.708 94.5,339.5C 95.7723,346.109 99.1056,351.442 104.5,355.5C 105.5,355.833 106.167,356.5 106.5,357.5C 106.427,359.027 107.094,360.027 108.5,360.5C 108.427,362.027 109.094,363.027 110.5,363.5C 110.5,364.833 110.5,366.167 110.5,367.5C 109.448,369.256 107.781,369.923 105.5,369.5C 105.245,366.984 104.411,364.65 103,362.5C 98.5897,357.764 94.5897,352.764 91,347.5C 88.1098,342.427 87.9431,337.427 90.5,332.5 Z"/></g>
<g><path style="opacity:0.329" fill="#513a26" d="M 106.5,357.5 C 107.906,357.973 108.573,358.973 108.5,360.5C 107.094,360.027 106.427,359.027 106.5,357.5 Z"/></g>
<g><path style="opacity:0.243" fill="#3f2d23" d="M 108.5,360.5 C 109.906,360.973 110.573,361.973 110.5,363.5C 109.094,363.027 108.427,362.027 108.5,360.5 Z"/></g>
<g><path style="opacity:1" fill="#d5803d" d="M 84.5,346.5 C 85.8577,352.871 89.5243,357.538 95.5,360.5C 97.8824,364.506 98.8824,368.839 98.5,373.5C 95.1667,373.833 91.8333,374.167 88.5,374.5C 86.6948,372.803 84.3615,371.97 81.5,372C 89.4715,369.836 89.4715,368.002 81.5,366.5C 89.3011,365.372 89.3011,364.706 81.5,364.5C 81.5,364.167 81.5,363.833 81.5,363.5C 83.5273,363.662 85.5273,363.495 87.5,363C 84.9621,357.815 83.9621,352.315 84.5,346.5 Z"/></g>
<g><path style="opacity:1" fill="#4e3724" d="M 110.5,363.5 C 112.008,365.181 113.008,367.181 113.5,369.5C 112.222,369.218 111.222,368.551 110.5,367.5C 110.5,366.167 110.5,364.833 110.5,363.5 Z"/></g>
<g><path style="opacity:1" fill="#f5da9a" d="M 63.5,366.5 C 63.5792,367.93 63.2458,369.264 62.5,370.5C 58.473,371.666 54.473,371.499 50.5,370C 48.867,366.285 49.5336,363.118 52.5,360.5C 53.8175,360.179 55.1508,359.846 56.5,359.5C 59.8443,360.609 62.8443,362.276 65.5,364.5C 64.7573,365.182 64.0906,365.849 63.5,366.5 Z"/></g>
<g><path style="opacity:0.898" fill="#41382e" d="M 45.5,366.5 C 45.5,367.833 45.5,369.167 45.5,370.5C 44.5,370.833 43.8333,371.5 43.5,372.5C 41.9505,373.441 40.2838,374.107 38.5,374.5C 41.5497,372.451 43.883,369.784 45.5,366.5 Z"/></g>
<g><path style="opacity:0.09" fill="#352823" d="M 113.5,369.5 C 115.027,369.427 116.027,370.094 116.5,371.5C 115.833,371.5 115.167,371.5 114.5,371.5C 114.167,370.833 113.833,370.167 113.5,369.5 Z"/></g>
<g><path style="opacity:1" fill="#e1974c" d="M 69.5,366.5 C 73.5,366.5 77.5,366.5 81.5,366.5C 89.4715,368.002 89.4715,369.836 81.5,372C 84.3615,371.97 86.6948,372.803 88.5,374.5C 80.1667,375.833 71.8333,375.833 63.5,374.5C 65.8568,374.663 68.1902,374.497 70.5,374C 70.0426,373.586 69.7093,373.086 69.5,372.5C 75.7377,370.703 75.7377,368.703 69.5,366.5 Z"/></g>
<g><path style="opacity:0.553" fill="#4a382d" d="M 116.5,371.5 C 118.153,371.66 119.486,372.326 120.5,373.5C 118.62,373.771 117.287,373.104 116.5,371.5 Z"/></g>
<g><path style="opacity:0.863" fill="#453428" d="M 120.5,373.5 C 123.67,374.265 126.67,375.265 129.5,376.5C 125.919,376.862 122.919,375.862 120.5,373.5 Z"/></g>
<g><path style="opacity:1" fill="#c3602c" d="M 90.5,328.5 C 90.5,329.833 90.5,331.167 90.5,332.5C 87.9431,337.427 88.1098,342.427 91,347.5C 94.5897,352.764 98.5897,357.764 103,362.5C 104.411,364.65 105.245,366.984 105.5,369.5C 107.781,369.923 109.448,369.256 110.5,367.5C 111.222,368.551 112.222,369.218 113.5,369.5C 113.833,370.167 114.167,370.833 114.5,371.5C 111.916,371.569 109.916,372.735 108.5,375C 115.1,379.645 122.433,382.311 130.5,383C 132.75,385.422 135.083,387.589 137.5,389.5C 136.198,391.822 134.198,393.155 131.5,393.5C 126.433,394.594 121.433,395.927 116.5,397.5C 116.628,395.345 116.128,393.345 115,391.5C 108.853,387.836 103.353,383.336 98.5,378C 88.6071,379.253 78.6071,379.753 68.5,379.5C 59.8203,378.159 51.487,375.826 43.5,372.5C 43.8333,371.5 44.5,370.833 45.5,370.5C 51.4067,372.215 57.4067,373.548 63.5,374.5C 71.8333,375.833 80.1667,375.833 88.5,374.5C 91.8333,374.167 95.1667,373.833 98.5,373.5C 98.8824,368.839 97.8824,364.506 95.5,360.5C 89.5243,357.538 85.8577,352.871 84.5,346.5C 83.7564,342.881 83.423,339.215 83.5,335.5C 82.1667,335.5 80.8333,335.5 79.5,335.5C 77.9242,334.717 76.5908,333.55 75.5,332C 80.903,332.139 85.903,330.972 90.5,328.5 Z"/></g>
<g><path style="opacity:0.992" fill="#5c503f" d="M 34.5,376.5 C 34.5,376.833 34.5,377.167 34.5,377.5C 31.302,378.787 27.9686,379.453 24.5,379.5C 27.5502,377.899 30.8835,376.899 34.5,376.5 Z"/></g>
<g><path style="opacity:1" fill="#cd7c3d" d="M 114.5,371.5 C 115.167,371.5 115.833,371.5 116.5,371.5C 117.287,373.104 118.62,373.771 120.5,373.5C 122.919,375.862 125.919,376.862 129.5,376.5C 132.754,376.794 135.421,378.127 137.5,380.5C 138.299,383.43 138.632,386.43 138.5,389.5C 138.167,389.5 137.833,389.5 137.5,389.5C 135.083,387.589 132.75,385.422 130.5,383C 122.433,382.311 115.1,379.645 108.5,375C 109.916,372.735 111.916,371.569 114.5,371.5 Z"/></g>
<g><path style="opacity:1" fill="#db8d45" d="M 116.5,397.5 C 116.167,398.167 115.833,398.833 115.5,399.5C 112.482,399.335 109.482,399.502 106.5,400C 104.073,401.591 101.407,402.425 98.5,402.5C 94.3628,402.854 90.3628,402.354 86.5,401C 87.5,400.667 88.5,400.333 89.5,400C 87.2852,398.956 84.9519,398.29 82.5,398C 84.8333,397.667 87.1667,397.333 89.5,397C 88.6266,395.955 87.6266,395.122 86.5,394.5C 93.7862,393.427 101.12,391.927 108.5,390C 106.19,389.503 103.857,389.337 101.5,389.5C 96.0698,389.839 90.7364,389.339 85.5,388C 85.0426,387.586 84.7093,387.086 84.5,386.5C 85.9814,385.52 87.3147,384.353 88.5,383C 87.6721,382.085 86.6721,381.419 85.5,381C 79.6518,380.827 73.9851,380.327 68.5,379.5C 78.6071,379.753 88.6071,379.253 98.5,378C 103.353,383.336 108.853,387.836 115,391.5C 116.128,393.345 116.628,395.345 116.5,397.5 Z"/></g>
<g><path style="opacity:1" fill="#e4a154" d="M 43.5,372.5 C 51.487,375.826 59.8203,378.159 68.5,379.5C 73.9851,380.327 79.6518,380.827 85.5,381C 86.6721,381.419 87.6721,382.085 88.5,383C 87.3147,384.353 85.9814,385.52 84.5,386.5C 84.7093,387.086 85.0426,387.586 85.5,388C 90.7364,389.339 96.0698,389.839 101.5,389.5C 87.9946,390.6 74.328,390.6 60.5,389.5C 57.4299,389.632 54.4299,389.299 51.5,388.5C 53.1271,386.37 54.9604,384.37 57,382.5C 57.4828,381.552 57.6495,380.552 57.5,379.5C 52.822,379.743 48.6554,378.41 45,375.5C 38.9066,380.199 32.0732,382.033 24.5,381C 27.5755,380.654 30.5755,379.988 33.5,379C 34.056,378.617 34.3893,378.117 34.5,377.5C 34.5,377.167 34.5,376.833 34.5,376.5C 35.5137,375.326 36.847,374.66 38.5,374.5C 40.2838,374.107 41.9505,373.441 43.5,372.5 Z"/></g>
<g><path style="opacity:0.463" fill="#635440" d="M 22.5,380.5 C 21.0721,383.303 20.4054,386.303 20.5,389.5C 19.3709,387.372 19.2042,385.039 20,382.5C 20.4169,381.244 21.2502,380.577 22.5,380.5 Z"/></g>
<g><path style="opacity:1" fill="#644832" d="M 137.5,380.5 C 140.934,383.214 141.267,386.214 138.5,389.5C 138.632,386.43 138.299,383.43 137.5,380.5 Z"/></g>
<g><path style="opacity:1" fill="#edc37c" d="M 51.5,388.5 C 48.8127,388.336 46.146,388.503 43.5,389C 45.437,389.122 46.7703,389.955 47.5,391.5C 46.9094,392.151 46.2427,392.818 45.5,393.5C 46.7111,394.72 46.7111,395.887 45.5,397C 43.1902,397.497 40.8568,397.663 38.5,397.5C 35.6296,396.366 32.6296,395.7 29.5,395.5C 25.5624,394.712 22.5624,392.712 20.5,389.5C 20.4054,386.303 21.0721,383.303 22.5,380.5C 22.8417,379.662 23.5084,379.328 24.5,379.5C 27.9686,379.453 31.302,378.787 34.5,377.5C 34.3893,378.117 34.056,378.617 33.5,379C 30.5755,379.988 27.5755,380.654 24.5,381C 32.0732,382.033 38.9066,380.199 45,375.5C 48.6554,378.41 52.822,379.743 57.5,379.5C 57.6495,380.552 57.4828,381.552 57,382.5C 54.9604,384.37 53.1271,386.37 51.5,388.5 Z"/></g>
<g><path style="opacity:1" fill="#e7b679" d="M 60.5,389.5 C 74.328,390.6 87.9946,390.6 101.5,389.5C 103.857,389.337 106.19,389.503 108.5,390C 101.12,391.927 93.7862,393.427 86.5,394.5C 78.9809,394.825 71.6476,394.492 64.5,393.5C 74.2076,393.744 83.8743,393.244 93.5,392C 82.2799,391.985 71.2799,391.151 60.5,389.5 Z"/></g>
<g><path style="opacity:1" fill="#f5d19c" d="M 51.5,388.5 C 54.4299,389.299 57.4299,389.632 60.5,389.5C 71.2799,391.151 82.2799,391.985 93.5,392C 83.8743,393.244 74.2076,393.744 64.5,393.5C 58.8469,392.725 53.1803,392.058 47.5,391.5C 46.7703,389.955 45.437,389.122 43.5,389C 46.146,388.503 48.8127,388.336 51.5,388.5 Z"/></g>
<g><path style="opacity:1" fill="#724832" d="M 131.5,393.5 C 126.618,396.464 121.285,398.464 115.5,399.5C 115.833,398.833 116.167,398.167 116.5,397.5C 121.433,395.927 126.433,394.594 131.5,393.5 Z"/></g>
<g><path style="opacity:1" fill="#9e7e55" d="M 29.5,395.5 C 32.6296,395.7 35.6296,396.366 38.5,397.5C 39.6935,398.272 40.6935,399.272 41.5,400.5C 37.2025,399.345 33.2025,397.679 29.5,395.5 Z"/></g>
<g><path style="opacity:1" fill="#e19e52" d="M 47.5,391.5 C 53.1803,392.058 58.8469,392.725 64.5,393.5C 71.6476,394.492 78.9809,394.825 86.5,394.5C 87.6266,395.122 88.6266,395.955 89.5,397C 87.1667,397.333 84.8333,397.667 82.5,398C 84.9519,398.29 87.2852,398.956 89.5,400C 88.5,400.333 87.5,400.667 86.5,401C 90.3628,402.354 94.3628,402.854 98.5,402.5C 98.5,402.833 98.5,403.167 98.5,403.5C 98.1667,403.5 97.8333,403.5 97.5,403.5C 82.118,405.043 66.7847,404.71 51.5,402.5C 49.1617,400.96 46.4951,400.294 43.5,400.5C 42.8333,400.5 42.1667,400.5 41.5,400.5C 40.6935,399.272 39.6935,398.272 38.5,397.5C 40.8568,397.663 43.1902,397.497 45.5,397C 46.7111,395.887 46.7111,394.72 45.5,393.5C 46.2427,392.818 46.9094,392.151 47.5,391.5 Z"/></g>
<g><path style="opacity:1" fill="#8a6f4a" d="M 43.5,400.5 C 46.4951,400.294 49.1617,400.96 51.5,402.5C 48.5718,402.435 45.9052,401.768 43.5,400.5 Z"/></g>
<g><path style="opacity:1" fill="#8a623e" d="M 115.5,399.5 C 110.122,401.593 104.455,402.927 98.5,403.5C 98.5,403.167 98.5,402.833 98.5,402.5C 101.407,402.425 104.073,401.591 106.5,400C 109.482,399.502 112.482,399.335 115.5,399.5 Z"/></g>
<g><path style="opacity:0.899" fill="#5c4a36" d="M 51.5,402.5 C 66.7847,404.71 82.118,405.043 97.5,403.5C 90.9031,405.03 84.0697,405.697 77,405.5C 68.1898,405.915 59.6898,404.915 51.5,402.5 Z"/></g>
</svg>
