<?xml version="1.0" encoding="UTF-8"?>
<svg version="1.1" xmlns="http://www.w3.org/2000/svg" width="160" height="500">
<path d="M0 0 C1.42137268 -0.00204689 1.42137268 -0.00204689 2.87145996 -0.00413513 C5.9403842 -0.00615622 9.00921069 0.00013633 12.078125 0.0078125 C13.63364075 0.00964035 13.63364075 0.00964035 15.22058105 0.01150513 C27.34506913 0.02832574 39.46174289 0.08885454 51.578125 0.5703125 C52.57424805 0.60946777 53.57037109 0.64862305 54.59667969 0.68896484 C61.05345973 0.99547987 61.05345973 0.99547987 63.328125 2.1328125 C64.2671603 4.4443427 65.08966637 6.71960413 65.8671875 9.0859375 C66.23000069 10.16353081 66.23000069 10.16353081 66.60014343 11.26289368 C67.39397207 13.63315983 68.17479713 16.00741396 68.953125 18.3828125 C69.22168304 19.1975705 69.49024109 20.01232849 69.76693726 20.85177612 C81.52886128 56.60432945 89.8152774 92.75325475 94.328125 130.1328125 C94.44526855 131.05723145 94.56241211 131.98165039 94.68310547 132.93408203 C96.325113 146.28240778 96.55272913 159.63852722 96.640625 173.0703125 C96.65025269 173.89657135 96.65988037 174.7228302 96.6697998 175.5741272 C96.93924987 202.52818255 89.94740784 223.17221738 70.85546875 242.65625 C64.90382991 248.63692123 64.90382991 248.63692123 62.609375 250.61328125 C60.93865742 252.59471155 60.93305873 253.94447723 60.703125 256.5078125 C59.88354717 261.32721037 57.87762359 264.63990389 55.015625 268.5078125 C50.69807035 274.37463786 47.58104287 280.1487671 45.328125 287.1328125 C45.05226563 287.95910156 44.77640625 288.78539062 44.4921875 289.63671875 C43.91107682 292.1253884 43.67081285 293.65709667 44.328125 296.1328125 C46.39497888 298.21300092 48.60633865 299.75748385 51.0234375 301.4140625 C54.64146807 304.11225479 56.2691992 306.76386698 57.328125 311.1328125 C58.20958514 319.06595377 58.37360453 326.60252042 53.328125 333.1328125 C52.69132812 333.72707031 52.05453125 334.32132812 51.3984375 334.93359375 C49.26461628 336.93872148 47.70713372 338.5401021 46.328125 341.1328125 C46.4943712 353.04208566 53.30476585 362.1366084 60.72241211 370.73999023 C68.328125 379.67069003 68.328125 379.67069003 68.328125 385.1328125 C72.08629623 386.64584248 75.85913379 388.11658953 79.640625 389.5703125 C81.34798828 390.23160156 81.34798828 390.23160156 83.08984375 390.90625 C85.69753103 391.89396267 88.31226698 392.80359421 90.953125 393.6953125 C95.42095485 395.59827706 96.5413424 397.21502992 98.328125 401.5703125 C98.328125 404.1328125 98.328125 404.1328125 96.25 406.57421875 C75.75376914 424.52212144 39.73290601 425.47685382 14.328125 424.1328125 C-0.39515075 422.96853369 -22.83091871 418.97376879 -33.671875 408.1328125 C-34.36323302 401.21923225 -34.36323302 401.21923225 -31.921875 397.3828125 C-28.02388771 394.68420592 -24.24703407 393.5473327 -19.75 392.140625 C-11.89664357 389.71766107 -11.89664357 389.71766107 -6.51171875 383.94140625 C-5.89563059 382.23716237 -5.31092064 380.52133051 -4.75390625 378.796875 C-3.51944983 375.75752743 -1.93821112 373.79635841 0.203125 371.3203125 C7.3260619 362.81788689 13.53355982 350.44542351 13.328125 339.1328125 C11.7041373 336.24861034 9.91305618 334.39266423 7.4765625 332.1640625 C2.82149477 327.76290756 0.23008742 321.32274749 0.015625 314.9453125 C0.09704983 309.93768551 1.31433598 306.15119785 4.328125 302.1328125 C9.77715413 297.1328125 9.77715413 297.1328125 13.328125 297.1328125 C11.77173841 284.06735664 8.79113461 275.22558962 0.328125 265.1328125 C-1.94091297 262.35657781 -2.67744709 261.10972811 -3.546875 257.5078125 C-5.52484108 251.79723302 -10.77100944 248.90027113 -15.44921875 245.4921875 C-31.72604689 233.57557636 -39.58842538 213.52083387 -42.671875 194.1328125 C-49.46429748 147.96333941 -39.88041368 98.4071107 -30.109375 53.3828125 C-29.92582458 52.53112488 -29.74227417 51.67943726 -29.55316162 50.80194092 C-27.14457646 39.7027345 -24.21757361 28.9203869 -20.671875 18.1328125 C-20.12860527 16.38461194 -19.58667267 14.6359945 -19.046875 12.88671875 C-18.59064924 11.4888937 -18.13243374 10.0917159 -17.671875 8.6953125 C-17.33929688 7.59993164 -17.33929688 7.59993164 -17 6.48242188 C-16.296875 4.38671875 -16.296875 4.38671875 -14.671875 1.1328125 C-10.05678037 -0.47344354 -4.83412324 -0.01061536 0 0 Z " fill="#7A9DA7" transform="translate(58.671875,46.8671875)"/>
<path d="M0 0 C14.85 0 29.7 0 45 0 C47.56166801 5.12333602 48.3917962 7.05233167 48.6875 12.375 C48.75324219 13.43460938 48.81898437 14.49421875 48.88671875 15.5859375 C48.94279297 16.78089844 48.94279297 16.78089844 49 18 C52.3 18 55.6 18 59 18 C59 18.66 59 19.32 59 20 C46.13 20.99 46.13 20.99 33 22 C33.99 22.66 34.98 23.32 36 24 C35 27 35 27 32 29 C32 30.32 32 31.64 32 33 C32.28230469 32.3503125 32.56460938 31.700625 32.85546875 31.03125 C34.35169137 28.18798825 35.61514155 26.17305929 38 24 C42.4252279 23.19684476 46.55080469 23.46530442 51 24 C52.33585326 26.67170652 52.52784634 29.15439277 52.9375 32.1171875 C53.11023438 33.365 53.28296875 34.6128125 53.4609375 35.8984375 C53.54956055 36.55295898 53.63818359 37.20748047 53.72949219 37.88183594 C53.9943497 39.8333673 54.26662595 41.78388724 54.5390625 43.734375 C56.20416961 55.88717167 57.17814234 67.72797194 57 80 C51.88118835 80.02511494 46.7624142 80.04305163 41.64355469 80.05493164 C39.90982436 80.05989522 38.17609806 80.06666827 36.44238281 80.07543945 C25.24693418 80.13057347 14.16540941 79.86450054 3 79 C3.85327881 79.22051025 4.70655762 79.44102051 5.58569336 79.66821289 C7.62093099 80.19417318 9.65616862 80.72013346 11.69140625 81.24609375 C20.16057284 83.17590385 28.54206694 83.28220392 37.1875 83.3125 C37.89975739 83.31511841 38.61201477 83.31773682 39.34585571 83.32043457 C55.14502271 83.32664746 69.57365888 80.90879706 84.46875 75.63671875 C87.12369507 74.96888534 88.46066221 75.07170435 91 76 C87.4296565 79.16505238 84.53541634 80.72050415 79.9296875 81.921875 C78.21458984 82.37626953 78.21458984 82.37626953 76.46484375 82.83984375 C74.68787109 83.29037109 74.68787109 83.29037109 72.875 83.75 C71.68261719 84.06582031 70.49023438 84.38164062 69.26171875 84.70703125 C60.47696834 87 60.47696834 87 57 87 C57.06058594 87.61174072 57.12117188 88.22348145 57.18359375 88.85375977 C58.16028806 99.52884079 58.54591389 110.23011409 59 120.9375 C59.16414061 124.80089538 59.33128441 128.66414578 59.5 132.52734375 C59.55317383 133.81390114 59.55317383 133.81390114 59.60742188 135.12644958 C59.81377689 139.85137421 60.1216312 144.55211935 60.52075195 149.26489258 C61.07371205 156.25963576 61.16165244 163.22035376 61.16796875 170.234375 C61.17296135 172.21053802 61.17296135 172.21053802 61.17805481 174.22662354 C61.18398729 176.99646831 61.18590084 179.76628215 61.18530273 182.53613281 C61.18522154 185.33828189 61.19216282 188.14026726 61.20581055 190.94238281 C61.41805588 235.23315024 61.41805588 235.23315024 54.625 242.5625 C53.325625 243.7690625 53.325625 243.7690625 52 245 C51.34 245.721875 50.68 246.44375 50 247.1875 C44.30168789 252.35159535 36.04355397 252.27949879 28.7109375 252.234375 C23.97291746 251.82474791 19.51492464 250.44202916 15 249 C15 249.66 15 250.32 15 251 C14.01 251 13.02 251 12 251 C12 250.34 12 249.68 12 249 C10.783125 249.0825 9.56625 249.165 8.3125 249.25 C-0.38815835 248.301587 -6.71740613 239.76779479 -12.140625 233.54296875 C-38.03090808 199.31414855 -30.8576496 145.40620575 -25.4140625 105.64111328 C-22.86971372 87.69785791 -19.27971209 69.95465846 -15.4375 52.25 C-15.25394958 51.39831238 -15.07039917 50.54662476 -14.88128662 49.66912842 C-11.1644331 32.54117914 -5.86394271 16.61450436 0 0 Z " fill="#ACCFCA" transform="translate(44,48)"/>
<path d="M0 0 C1.31871094 0.28230469 1.31871094 0.28230469 2.6640625 0.5703125 C3.68242188 0.79460937 4.70078125 1.01890625 5.75 1.25 C8.2915963 1.79199673 10.83326444 2.33365673 13.375 2.875 C15.50014638 3.33265412 17.62519816 3.79074888 19.75 4.25 C19.75 3.59 19.75 2.93 19.75 2.25 C22.06 1.59 24.37 0.93 26.75 0.25 C27.00394531 1.08144531 27.25789063 1.91289062 27.51953125 2.76953125 C27.86371094 3.85621094 28.20789063 4.94289063 28.5625 6.0625 C28.89894531 7.14144531 29.23539062 8.22039062 29.58203125 9.33203125 C30.72735652 12.19342916 31.49569998 13.27611291 33.75 15.25 C46.55106247 30.37108445 46.55106247 30.37108445 48.8125 37.6875 C49.47444583 40.43166094 49.47444583 40.43166094 51.9140625 41.2578125 C52.84992188 41.58523438 53.78578125 41.91265625 54.75 42.25 C55.75675781 42.64058594 56.76351562 43.03117187 57.80078125 43.43359375 C59.41533203 44.05427734 59.41533203 44.05427734 61.0625 44.6875 C62.20074219 45.12835938 63.33898437 45.56921875 64.51171875 46.0234375 C67.11940603 47.01115017 69.73414198 47.92078171 72.375 48.8125 C76.84282985 50.71546456 77.9632174 52.33221742 79.75 56.6875 C79.75 59.25 79.75 59.25 77.671875 61.69140625 C57.17564414 79.63930894 21.15478101 80.59404132 -4.25 79.25 C-18.97327575 78.08572119 -41.40904371 74.09095629 -52.25 63.25 C-52.94135802 56.33641975 -52.94135802 56.33641975 -50.5 52.5 C-46.60201271 49.80139342 -42.82515907 48.6645202 -38.328125 47.2578125 C-30.47476857 44.83484857 -30.47476857 44.83484857 -25.08984375 39.05859375 C-24.47375559 37.35434987 -23.88904564 35.63851801 -23.33203125 33.9140625 C-22.09757483 30.87471493 -20.51633612 28.91354591 -18.375 26.4375 C-11.88590699 18.74986183 -8.48791151 9.94761656 -6.25 0.25 C-3.69962003 -1.02518999 -2.76032179 -0.60324913 0 0 Z " fill="#5B7782" transform="translate(77.25,391.75)"/>
<path d="M0 0 C2.13411057 6.89481875 3.55086577 13.93449149 5 21 C5.18691406 21.87398437 5.37382812 22.74796875 5.56640625 23.6484375 C6.92432855 30.42735668 7.59330278 37.25094084 8.21508789 44.12939453 C8.55147979 47.78576403 8.90337313 51.40745695 9.49462891 55.03320312 C11.36611568 66.78916133 11.37221801 78.49769609 11.37060547 90.37890625 C11.3749911 93.99266276 11.41145507 97.60520734 11.44921875 101.21875 C11.5549347 122.85134067 8.49552686 141.61901446 -7 158 C-19.2085016 169.5485826 -33.82715122 175.36664742 -50.5234375 175.16015625 C-63.69139966 174.30860034 -63.69139966 174.30860034 -67 171 C-66.02160156 171.02320313 -65.04320313 171.04640625 -64.03515625 171.0703125 C-50.26377604 171.49865501 -50.26377604 171.49865501 -38 166 C-36.63755204 164.35704805 -35.30135125 162.69175663 -34 161 C-33.01 160.34 -32.02 159.68 -31 159 C-26.84502954 148.58923131 -27.84303361 135.33429558 -27.83203125 124.35546875 C-27.82588303 122.4422155 -27.82588303 122.4422155 -27.8196106 120.49031067 C-27.81037285 117.08933211 -27.80920928 113.68840352 -27.81132126 110.28741455 C-27.81250834 108.17264651 -27.811966 106.05788342 -27.81130981 103.94311523 C-27.8123867 87.79923702 -27.89997246 71.71636317 -29.21362305 55.61572266 C-30.07047501 45.10348194 -30.37728088 34.60355234 -30.625 24.0625 C-30.64537323 23.20293701 -30.66574646 22.34337402 -30.68673706 21.45776367 C-30.79933233 16.63866273 -30.90339901 11.81944698 -31 7 C-26.9619897 5.82041697 -22.91906406 4.65864225 -18.875 3.5 C-17.73289063 3.16613281 -16.59078125 2.83226562 -15.4140625 2.48828125 C-14.30546875 2.17246094 -13.196875 1.85664063 -12.0546875 1.53125 C-11.03874512 1.23798828 -10.02280273 0.94472656 -8.97607422 0.64257812 C-5.89551596 -0.02255964 -3.14154638 -0.11468487 0 0 Z " fill="#5C7885" transform="translate(132,128)"/>
<path d="M0 0 C14.85 0 29.7 0 45 0 C47.56166801 5.12333602 48.3917962 7.05233167 48.6875 12.375 C48.75324219 13.43460938 48.81898437 14.49421875 48.88671875 15.5859375 C48.94279297 16.78089844 48.94279297 16.78089844 49 18 C52.3 18 55.6 18 59 18 C59 18.66 59 19.32 59 20 C46.13 20.99 46.13 20.99 33 22 C33.99 22.66 34.98 23.32 36 24 C35 27 35 27 32 29 C32 30.32 32 31.64 32 33 C32.28230469 32.3503125 32.56460938 31.700625 32.85546875 31.03125 C34.35169137 28.18798825 35.61514155 26.17305929 38 24 C42.4252279 23.19684476 46.55080469 23.46530442 51 24 C52.33585326 26.67170652 52.52784634 29.15439277 52.9375 32.1171875 C53.11023438 33.365 53.28296875 34.6128125 53.4609375 35.8984375 C53.54956055 36.55295898 53.63818359 37.20748047 53.72949219 37.88183594 C53.9943497 39.8333673 54.26662595 41.78388724 54.5390625 43.734375 C56.20416961 55.88717167 57.17814234 67.72797194 57 80 C51.88118835 80.02511494 46.7624142 80.04305163 41.64355469 80.05493164 C39.90982436 80.05989522 38.17609806 80.06666827 36.44238281 80.07543945 C25.24693418 80.13057347 14.16540941 79.86450054 3 79 C11.706874 81.44693183 20.25979076 82.79433589 29.25 83.6875 C30.48363281 83.81705078 31.71726563 83.94660156 32.98828125 84.08007812 C35.99148405 84.39436679 38.99525595 84.70087215 42 85 C42 85.99 42 86.98 42 88 C24.07163817 88.76290901 8.31097087 85.85632403 -8 78.3125 C-8.94875 77.87550781 -9.8975 77.43851562 -10.875 76.98828125 C-11.57625 76.66214844 -12.2775 76.33601563 -13 76 C-9.86650268 74.95550089 -9.01031744 75.06576355 -6 76 C-6.81404297 75.60167969 -6.81404297 75.60167969 -7.64453125 75.1953125 C-8.35996094 74.84210938 -9.07539062 74.48890625 -9.8125 74.125 C-10.52019531 73.77695313 -11.22789063 73.42890625 -11.95703125 73.0703125 C-14 72 -14 72 -17 70 C-18.79889427 61.15517117 -15.65015016 51.46797712 -13.5625 42.875 C-13.38759033 42.13775696 -13.21268066 41.40051392 -13.0324707 40.64093018 C-9.69843368 26.64666887 -5.18277832 13.44283127 0 0 Z " fill="#E1EFE6" transform="translate(44,48)"/>
<path d="M0 0 C2.69303512 1.08383288 5.21084533 2.38697017 7.79296875 3.7109375 C16.65086734 7.27135959 25.56479139 7.28419308 35 7.1875 C36.83884766 7.1865332 36.83884766 7.1865332 38.71484375 7.18554688 C44.53478245 7.4559101 44.53478245 7.4559101 50 6 C52.6875 5.5 52.6875 5.5 56 6 C57.85982022 7.57951239 59.42933879 9.31656913 61.06640625 11.125 C63.72301949 13.70110981 66.67079851 15.16865313 69.984375 16.76171875 C72.34060779 18.20924936 73.52888795 19.67337971 75 22 C75.5625 24.4375 75.5625 24.4375 75 27 C70.71331721 31.29985232 67.16250702 32.887499 61.125 33.75 C60.45597656 33.86214844 59.78695312 33.97429687 59.09765625 34.08984375 C57.06837551 34.42219223 55.03635101 34.71452562 53 35 C51.77796875 35.185625 50.5559375 35.37125 49.296875 35.5625 C23.0290293 38.7282272 -6.31819763 35.53718857 -29 21 C-30.82793089 19.17206911 -30.34619549 16.64719905 -30.5234375 14.203125 C-29.68381663 10.66919836 -27.79064701 9.24288076 -25 7 C-22.42516055 6.09880619 -20.13900143 5.42370327 -17.5 4.875 C-13.84438952 4.07148958 -10.58164313 3.35411803 -7.34375 1.3828125 C-4.55881312 -0.26030026 -3.18472787 -0.42595116 0 0 Z " fill="#96BDBB" transform="translate(55,435)"/>
<path d="M0 0 C1.05574219 0.26554687 2.11148438 0.53109375 3.19921875 0.8046875 C15.08210372 3.67699554 26.81967902 5.08707653 39 6 C38.72285156 7.26972656 38.44570312 8.53945313 38.16015625 9.84765625 C35.94525616 20.2719108 34.3231247 30.33688485 34 41 C35.98 40.505 35.98 40.505 38 40 C37.34 41.32 36.68 42.64 36 44 C36.7425 44.20625 37.485 44.4125 38.25 44.625 C42.02630521 46.5131526 43.16479961 48.19365844 45 52 C45.86054147 56.39832306 45.87249067 60.19952456 43.89453125 64.28125 C40.21909801 69.56283772 35.9662587 73.25870245 29.5546875 74.45703125 C27.36643828 74.71427058 25.20051902 74.90020322 23 75 C28.17233695 78.16647945 34.14750033 77.51018054 40 77 C43.43595207 75.5774139 43.43595207 75.5774139 46 74 C48.375 74.3125 48.375 74.3125 50 75 C43.31030231 80.70591862 38.25915093 82.69756422 29.44921875 82.4765625 C20.47326405 81.23639662 11.91143442 75.8088329 6 69 C1.97638598 62.641986 0.14682046 56.52016823 1 49 C2.89835608 42.58447132 6.3414581 39.35321002 12 36 C12.66 36 13.32 36 14 36 C12.58789058 24.145713 10.374932 15.16105598 2.48828125 6.0078125 C0.9676816 3.95639984 0.41944759 2.494315 0 0 Z " fill="#A5C6C2" transform="translate(58,308)"/>
<path d="M0 0 C1.258125 0.12375 2.51625 0.2475 3.8125 0.375 C4.87404297 0.47941406 4.87404297 0.47941406 5.95703125 0.5859375 C8 1 8 1 11 3 C10 6 10 6 7 8 C7 9.32 7 10.64 7 12 C7.28230469 11.3503125 7.56460938 10.700625 7.85546875 10.03125 C9.35169137 7.18798825 10.61514155 5.17305929 13 3 C17.4252279 2.19684476 21.55080469 2.46530442 26 3 C27.33585326 5.67170652 27.52784634 8.15439277 27.9375 11.1171875 C28.11023438 12.365 28.28296875 13.6128125 28.4609375 14.8984375 C28.54956055 15.55295898 28.63818359 16.20748047 28.72949219 16.88183594 C28.9943497 18.8333673 29.26662595 20.78388724 29.5390625 22.734375 C31.20416961 34.88717167 32.17814234 46.72797194 32 59 C26.7530145 59.02488901 21.50606408 59.04294884 16.2590332 59.05493164 C14.47745158 59.05993201 12.69587401 59.06673446 10.91430664 59.07543945 C8.3399963 59.08769464 5.76574064 59.09327142 3.19140625 59.09765625 C2.40665421 59.10281754 1.62190216 59.10797882 0.81336975 59.11329651 C-4.52956863 59.11382743 -9.69793151 58.66708655 -15 58 C-13.515 57.505 -13.515 57.505 -12 57 C-12.4979837 53.26512223 -12.87491756 51.18762365 -15 48 C-15.125 45.3125 -15.125 45.3125 -15 43 C-12 43 -12 43 -10 44 C-10.33 41.03 -10.66 38.06 -11 35 C-10.3503125 34.59007812 -9.700625 34.18015625 -9.03125 33.7578125 C-8.1959375 33.21898437 -7.360625 32.68015625 -6.5 32.125 C-5.6646875 31.59132813 -4.829375 31.05765625 -3.96875 30.5078125 C-2.99421875 29.76144531 -2.99421875 29.76144531 -2 29 C-2 28.34 -2 27.68 -2 27 C-3.65 27.66 -5.3 28.32 -7 29 C-6.42748117 25.23202724 -5.39123455 22.59881888 -3.375 19.375 C-2.57835938 18.09109375 -2.57835938 18.09109375 -1.765625 16.78125 C-1.18296875 15.8634375 -0.6003125 14.945625 0 14 C0.64453125 12.9790625 1.2890625 11.958125 1.953125 10.90625 C3.62737105 8.26556924 5.3097195 5.63043652 7 3 C5.824375 2.814375 5.824375 2.814375 4.625 2.625 C2 2 2 2 0 0 Z " fill="#AAC9C4" transform="translate(69,69)"/>
<path d="M0 0 C0.99 0.495 0.99 0.495 2 1 C1.071875 1.5775 0.14375 2.155 -0.8125 2.75 C-3.97539252 5.35645772 -4.55552022 7.52585614 -5.3125 11.5 C-6.36886043 16.66161743 -8.26168493 20.31709131 -11.375 24.5 C-15.68982667 30.33447567 -18.76726334 36.07851637 -21 43 C-21.27585938 43.82628906 -21.55171875 44.65257812 -21.8359375 45.50390625 C-22.41704818 47.9925759 -22.65731215 49.52428417 -22 52 C-19.93314612 54.08018842 -17.72178635 55.62467135 -15.3046875 57.28125 C-11.68665693 59.97944229 -10.0589258 62.63105448 -9 67 C-8.11853986 74.93314127 -7.95452047 82.46970792 -13 89 C-13.63679688 89.59425781 -14.27359375 90.18851562 -14.9296875 90.80078125 C-17.07494968 92.81665991 -18.6354532 94.37989577 -20 97 C-19.74084894 101.59303895 -18.46884583 105.66231466 -17 110 C-16.65237177 111.32967797 -16.31188641 112.66148748 -16 114 C-18.96527758 111.5546615 -19.55582214 109.55397653 -20.1875 105.8125 C-20.34605469 104.91144531 -20.50460938 104.01039063 -20.66796875 103.08203125 C-20.77753906 102.39496094 -20.88710937 101.70789063 -21 101 C-21.99 101.66 -22.98 102.32 -24 103 C-25.32 103 -26.64 103 -28 103 C-28 103.66 -28 104.32 -28 105 C-36.05753146 103.90863407 -44.0509642 102.72168056 -52 101 C-52.14695312 100.38125 -52.29390625 99.7625 -52.4453125 99.125 C-53.48137987 95.15584051 -55.48382514 92.20240437 -58 89 C-54.51246956 90.67774293 -51.33501388 92.67020964 -48.09765625 94.78125 C-41.59850213 98.55729485 -35.39361073 98.88932582 -28 98 C-24.33478559 96.58481999 -20.80683025 94.80683025 -18 92 C-20.22249993 92.49388887 -22.15952036 93.07266111 -24.23828125 94.01953125 C-27.46134051 95.16378567 -30.08495528 95.30053139 -33.5 95.3125 C-34.6034375 95.32925781 -35.706875 95.34601563 -36.84375 95.36328125 C-40.3099852 94.96432101 -42.21080651 94.05546909 -45 92 C-45 91.67 -45 91.34 -45 91 C-44.07380859 90.99613281 -44.07380859 90.99613281 -43.12890625 90.9921875 C-34.95703718 90.61904279 -29.46173462 87.77643777 -23.9375 81.75 C-22.51353245 77.57302851 -22.27738986 73.35691409 -23 69 C-24.46675934 66.84077438 -24.46675934 66.84077438 -26 65 C-26 64.34 -26 63.68 -26 63 C-27.65 62.34 -29.3 61.68 -31 61 C-31 60.01 -31 59.02 -31 58 C-31.66 58 -32.32 58 -33 58 C-33.45881811 46.01974924 -31.91888974 35.6236326 -29 24 C-30.23492187 23.90203125 -31.46984375 23.8040625 -32.7421875 23.703125 C-60.33621679 21.33189161 -60.33621679 21.33189161 -69 17 C-69.7109375 15.29296875 -69.7109375 15.29296875 -70.375 13.1875 C-71.62560308 9.61526454 -73.03327572 7.45522009 -76 5 C-69.35044997 5.62731604 -69.35044997 5.62731604 -67.70703125 7.375 C-60.57068665 14.16840813 -47.05471331 14.63833199 -37.80004883 14.45019531 C-23.87864632 13.85289334 -10.70186223 9.10158377 0 0 Z " fill="#617F8A" transform="translate(125,291)"/>
<path d="M0 0 C3.88710937 0.834168 7.77442762 1.60885568 11.6875 2.3125 C12.61820313 2.48007812 13.54890625 2.64765625 14.5078125 2.8203125 C15.52488281 3.00207031 15.52488281 3.00207031 16.5625 3.1875 C17.06854924 5.58219729 17.56749517 7.97801717 18.0625 10.375 C18.20558594 11.04853516 18.34867188 11.72207031 18.49609375 12.41601562 C19.24319842 16.06259793 19.73602282 19.46398957 19.5625 23.1875 C20.44035156 23.59548828 20.44035156 23.59548828 21.3359375 24.01171875 C25.65074753 26.29024124 29.4630517 29.3710202 32 33.5625 C32.77459501 37.17727673 32.68775523 40.49247057 32.5625 44.1875 C24.45578759 45.75351825 16.63047484 46.57353934 8.375 46.5625 C6.75839478 46.56334595 6.75839478 46.56334595 5.10913086 46.56420898 C-4.40076034 46.43471199 -14.78105392 45.51572304 -23.4375 41.1875 C-23.97607436 36.16080598 -23.97998942 33.35434848 -20.8125 29.3125 C-20.2659375 28.65121094 -19.719375 27.98992187 -19.15625 27.30859375 C-13.20187587 19.96035477 -8.92864655 11.19467647 -6.95703125 1.9296875 C-6.78558594 1.35476563 -6.61414063 0.77984375 -6.4375 0.1875 C-3.84723213 -1.10763393 -2.80183284 -0.62312762 0 0 Z " fill="#A5C7C4" transform="translate(77.4375,391.8125)"/>
<path d="M0 0 C-3.75 2 -3.75 2 -6 2 C-5.64808594 2.78117187 -5.29617187 3.56234375 -4.93359375 4.3671875 C-1.34453702 12.78226045 1.38854777 21.30315454 3.8125 30.125 C4.11422119 31.1960498 4.41594238 32.26709961 4.72680664 33.37060547 C6.74188417 40.90974508 7.65236787 48.20890378 8 56 C9.98 55.67 11.96 55.34 14 55 C11.78173902 57.21826098 10.5981904 57.58422321 7.6328125 58.4375 C6.3025 58.82035156 6.3025 58.82035156 4.9453125 59.2109375 C4.01460938 59.47132812 3.08390625 59.73171875 2.125 60 C0.78695312 60.39058594 0.78695312 60.39058594 -0.578125 60.7890625 C-11.96653041 64.01958438 -22.92292732 65.35360479 -34.75317383 65.31567383 C-36.80018759 65.31251898 -38.84574197 65.33605854 -40.89257812 65.36132812 C-51.85788812 65.41375598 -62.82426043 64.41200145 -73 60 C-73 59.67 -73 59.34 -73 59 C-72.00556885 59.06566162 -71.0111377 59.13132324 -69.98657227 59.19897461 C-58.64033616 59.92171472 -47.30255467 60.29535634 -35.9375 60.5625 C-34.18423826 60.60585657 -32.43098298 60.64947514 -30.67773438 60.69335938 C-26.45189088 60.79857778 -22.22597725 60.90030502 -18 61 C-18.36559018 56.89661273 -18.73630477 52.79372583 -19.11199951 48.69125366 C-19.24537042 47.23365382 -19.3780639 45.77599183 -19.5100708 44.31826782 C-20.19965954 36.73754088 -20.93350157 29.17917179 -21.97265625 21.63671875 C-22.12371826 20.53972656 -22.27478027 19.44273438 -22.43041992 18.3125 C-22.72174258 16.26476249 -23.02738802 14.21899996 -23.34887695 12.17578125 C-23.47866943 11.26570313 -23.60846191 10.355625 -23.7421875 9.41796875 C-23.8644873 8.63188232 -23.98678711 7.8457959 -24.11279297 7.03588867 C-24 5 -24 5 -22.72631836 3.26953125 C-19.94737293 1.22590005 -17.06954858 1.20389435 -13.6875 0.8125 C-12.39199219 0.65394531 -11.09648438 0.49539062 -9.76171875 0.33203125 C-6.47872552 0.04225511 -3.29243464 -0.06635915 0 0 Z " fill="#607E88" transform="translate(119,67)"/>
<path d="M0 0 C0.33 0.66 0.66 1.32 1 2 C0.67 2.66 0.34 3.32 0 4 C0.66 4 1.32 4 2 4 C2.185625 4.9075 2.37125 5.815 2.5625 6.75 C4.07157533 10.1618225 5.28434864 11.44535874 8.59375 13.12109375 C14.68342864 15.34540819 21.50250422 17 28 17 C28.33 15.35 28.66 13.7 29 12 C31.02104705 12.14284092 33.04182977 12.28942383 35.0625 12.4375 C36.18785156 12.51871094 37.31320313 12.59992188 38.47265625 12.68359375 C40.76151356 12.88890653 43.04564085 13.16257314 45.31640625 13.515625 C62.39574297 15.76147628 79.21757172 13.16697266 96 10 C94.68 9.34 93.36 8.68 92 8 C92.33 7.34 92.66 6.68 93 6 C97.91211284 7.22802821 100.35403323 8.62397804 103 13 C103.625 15.5 103.625 15.5 103 18 C98.70653763 22.29346237 95.16468619 23.88718769 89.125 24.75 C88.12146484 24.91822266 88.12146484 24.91822266 87.09765625 25.08984375 C85.06837551 25.42219223 83.03635101 25.71452562 81 26 C79.77796875 26.185625 78.5559375 26.37125 77.296875 26.5625 C51.0290293 29.7282272 21.68180237 26.53718857 -1 12 C-2.87643761 10.12356239 -2.17984987 7.50194299 -2.23046875 5.0078125 C-2 3 -2 3 0 0 Z " fill="#8FB3B1" transform="translate(27,444)"/>
<path d="M0 0 C2.23019727 0.28367868 4.45913454 0.57727388 6.6875 0.875 C7.92886719 1.03742188 9.17023438 1.19984375 10.44921875 1.3671875 C13.59778352 1.92831785 16.07638331 2.76738741 19 4 C18.99476318 4.95366455 18.98952637 5.9073291 18.98413086 6.88989258 C18.96602735 10.42894553 18.95454839 13.96799438 18.94506836 17.50708008 C18.9400404 19.0386626 18.93321716 20.57024033 18.92456055 22.10180664 C18.91242771 24.30356022 18.90675633 26.50525033 18.90234375 28.70703125 C18.89718246 29.39150833 18.89202118 30.07598541 18.88670349 30.78120422 C18.8863464 33.80906242 19.03383381 36.10150142 20 39 C20.66 39 21.32 39 22 39 C21.35851187 45.57525331 18.79162474 50.43654786 14 55 C13.67 55.99 13.34 56.98 13 58 C8.65076696 59.44974435 5.23843354 58.6107532 1 57 C-1.92352341 54.95017324 -3.65463714 52.57571805 -4.4375 49.00390625 C-4.66148937 45.30108193 -4.16182585 43.23490849 -2.0625 40.1875 C-1.381875 39.465625 -0.70125 38.74375 0 38 C0.33 37.01 0.66 36.02 1 35 C4.08888522 32.94074319 4.70935927 32.7609626 8.1875 32.875 C9.445625 32.91625 10.70375 32.9575 12 33 C8.51739062 16.37349594 8.51739062 16.37349594 0 2 C0 1.34 0 0.68 0 0 Z " fill="#DEF3F1" transform="translate(65,313)"/>
<path d="M0 0 C0.33 0 0.66 0 1 0 C1.226875 1.11375 1.45375 2.2275 1.6875 3.375 C2.56403022 7.10354928 2.56403022 7.10354928 5.21875 8.09375 C6.1365625 8.3928125 7.054375 8.691875 8 9 C8.95519531 9.35320312 9.91039063 9.70640625 10.89453125 10.0703125 C11.85746094 10.41835937 12.82039063 10.76640625 13.8125 11.125 C14.78832031 11.47820312 15.76414062 11.83140625 16.76953125 12.1953125 C17.50558594 12.46085937 18.24164063 12.72640625 19 13 C19 13.33 19 13.66 19 14 C16.98177083 13.73958333 14.96354167 13.47916667 12.9453125 13.21875 C10.99501656 12.9627515 10.99501656 12.9627515 9 13 C12.465 14.485 12.465 14.485 16 16 C12.3558226 18.4294516 10.28758728 18.16179575 6 18 C4.70250301 25.53652509 3.55381116 33.08198228 2.5 40.65625 C2.07720726 43.48367646 1.5672314 46.26179497 1 49.0625 C-1.7535676 63.80601156 -2.30606192 79.04380825 -3 94 C-3.33 94 -3.66 94 -4 94 C-4.33 90.37 -4.66 86.74 -5 83 C-7.6089652 84.3044826 -7.95531724 85.29646858 -9 88 C-9.30710625 90.8184233 -9.30710625 90.8184233 -9.265625 93.91796875 C-9.26957275 95.08287842 -9.27352051 96.24778809 -9.27758789 97.44799805 C-9.26848389 98.68203369 -9.25937988 99.91606934 -9.25 101.1875 C-9.24540771 102.44151611 -9.24081543 103.69553223 -9.23608398 104.98754883 C-10.08885176 120.1744536 -10.08885176 120.1744536 -6 134 C-5.95936168 135.66617115 -5.957279 137.33388095 -6 139 C-5.34 139 -4.68 139 -4 139 C-4.33 141.31 -4.66 143.62 -5 146 C-7.21302239 142.68046641 -7.75349568 140.26330348 -8.5625 136.375 C-8.81128906 135.20710937 -9.06007813 134.03921875 -9.31640625 132.8359375 C-16.96986791 89.88908408 -8.76259854 42.20000891 0 0 Z " fill="#AECDC0" transform="translate(26,112)"/>
<path d="M0 0 C45.78399629 -0.18990235 45.78399629 -0.18990235 61.25 0.4375 C62.24572021 0.47673584 63.24144043 0.51597168 64.26733398 0.55639648 C70.72439737 0.86219869 70.72439737 0.86219869 73 2 C75.32884274 7.19511072 76.57835244 11.21647557 76 17 C73.4478212 19.5521788 71.95132795 19.50025333 68.40625 20 C66.73755859 20.2475 66.73755859 20.2475 65.03515625 20.5 C61.5 21 61.5 21 57.96484375 21.5 C56.85238281 21.665 55.73992187 21.83 54.59375 22 C53.05750977 22.2165625 53.05750977 22.2165625 51.49023438 22.4375 C48.84105101 22.80299437 48.84105101 22.80299437 47 25 C43.7421875 25.1953125 43.7421875 25.1953125 39.875 25.125 C37.95300781 25.09792969 37.95300781 25.09792969 35.9921875 25.0703125 C34.51105469 25.03550781 34.51105469 25.03550781 33 25 C32.72414062 25.76699219 32.44828125 26.53398438 32.1640625 27.32421875 C30.71665653 30.65130966 28.64720603 32.56178392 26 35 C25.75 32.6875 25.75 32.6875 26 30 C28 28.3125 28 28.3125 30 27 C30 26.34 30 25.68 30 25 C28.02 24.34 26.04 23.68 24 23 C24 22.67 24 22.34 24 22 C33.9 21.67 43.8 21.34 54 21 C54 20.34 54 19.68 54 19 C50.7 19 47.4 19 44 19 C43.79503906 17.94039062 43.59007812 16.88078125 43.37890625 15.7890625 C43.10692334 14.40101178 42.83477956 13.01299256 42.5625 11.625 C42.42779297 10.92632812 42.29308594 10.22765625 42.15429688 9.5078125 C41.4227578 5.64371266 41.4227578 5.64371266 40 2 C20.2 1.505 20.2 1.505 0 1 C0 0.67 0 0.34 0 0 Z " fill="#8DB0B4" transform="translate(49,47)"/>
<path d="M0 0 C3.67602338 0.56805335 7.23132658 1.57012664 10.8125 2.5625 C11.78832031 2.83191406 12.76414063 3.10132813 13.76953125 3.37890625 C14.50558594 3.58386719 15.24164063 3.78882813 16 4 C15.19095897 8.79280002 12.74015409 10.13520113 9 13 C21.58009601 16.50931072 35.88675803 15.11764484 48.8125 15.0625 C50.87304578 15.05747388 52.93359276 15.05291295 54.99414062 15.04882812 C59.99612361 15.0379131 64.99804837 15.02071004 70 15 C63.33924589 21.66075411 44.91299296 20.32206144 35.9375 20.375 C25.45972049 20.33180428 15.28993059 18.87495482 5 17 C4.67 18.65 4.34 20.3 4 22 C-3.17681915 24.0853399 -10.96594813 20.97234498 -17.46875 17.79296875 C-19.375 16.5625 -19.375 16.5625 -22 14 C-22.4375 11.1875 -22.4375 11.1875 -22 9 C-22.66 9 -23.32 9 -24 9 C-23.67 7.68 -23.34 6.36 -23 5 C-22.33355469 5.04640625 -21.66710937 5.0928125 -20.98046875 5.140625 C-13.57154477 5.43076468 -7.73640613 4.0947696 -1 1 C-0.67 0.67 -0.34 0.34 0 0 Z " fill="#CFEBE4" transform="translate(51,439)"/>
<path d="M0 0 C14.85 0 29.7 0 45 0 C47.56166801 5.12333602 48.3917962 7.05233167 48.6875 12.375 C48.78611328 13.96441406 48.78611328 13.96441406 48.88671875 15.5859375 C48.94279297 16.78089844 48.94279297 16.78089844 49 18 C52.3 18 55.6 18 59 18 C59 18.66 59 19.32 59 20 C52.378389 20.85134999 45.9225989 21.15355606 39.25 21.125 C38.33089844 21.12886719 37.41179687 21.13273437 36.46484375 21.13671875 C35.57410156 21.13542969 34.68335938 21.13414063 33.765625 21.1328125 C32.96930664 21.13168457 32.17298828 21.13055664 31.35253906 21.12939453 C28.8249249 20.99037051 26.46789715 20.55103602 24 20 C22.5123688 14.42138299 23 8.75797545 23 3 C17.72 3 12.44 3 7 3 C6.01 5.97 5.02 8.94 4 12 C3.34 12 2.68 12 2 12 C2 11.34 2 10.68 2 10 C-3.76558702 12.88279351 -5.90834959 25.03308629 -7.90234375 30.6796875 C-8.78317644 33.34412802 -9.54805782 35.95854205 -10.1875 38.6875 C-11 42 -11 42 -13 45 C-11.33961671 29.26168609 -5.46202735 14.8255028 0 0 Z " fill="#B6D2CA" transform="translate(44,48)"/>
<path d="M0 0 C0.99 0.495 0.99 0.495 2 1 C1.071875 1.5775 0.14375 2.155 -0.8125 2.75 C-4.00579733 5.37280106 -4.59028185 7.62345713 -5.375 11.625 C-6.8135149 18.73814731 -10.43351094 23.48984217 -15 29 C-16.60031344 25.79937313 -15.03173691 23.27728194 -14 20 C-17.24208567 20.35049575 -18.61527704 20.56221181 -20.8125 23.0625 C-21.204375 23.701875 -21.59625 24.34125 -22 25 C-22.33 24.67 -22.66 24.34 -23 24 C-24.32 24.99 -25.64 25.98 -27 27 C-27.495 25.02 -27.495 25.02 -28 23 C-29.09441406 23.05220703 -29.09441406 23.05220703 -30.2109375 23.10546875 C-39.42699658 23.34440362 -48.00784402 22.08247057 -57.03417969 20.34960938 C-58.68152966 20.05663804 -60.34448196 19.85332924 -62.0078125 19.671875 C-64.375 19.375 -64.375 19.375 -68 18 C-69.41900452 15.79555261 -70.29613999 13.67181826 -71.16015625 11.19921875 C-72.20895131 8.45283912 -73.74548886 6.85191986 -76 5 C-69.35044997 5.62731604 -69.35044997 5.62731604 -67.70703125 7.375 C-60.57068665 14.16840813 -47.05471331 14.63833199 -37.80004883 14.45019531 C-23.87864632 13.85289334 -10.70186223 9.10158377 0 0 Z " fill="#5C7985" transform="translate(125,291)"/>
<path d="M0 0 C2.625 -0.1875 2.625 -0.1875 5 0 C4.43775706 5.41158831 3.04599851 9.85641045 1 14.875 C-2.43937958 23.19738763 -2.43937958 23.19738763 -3 32 C-0.92624732 34.06485246 1.2828399 35.62784199 3.6953125 37.28125 C7.30252515 39.97137469 8.97055816 42.63182788 10 47 C10.4322685 52.72120071 10.83001952 58.50994143 9 64 C7.68 64 6.36 64 5 64 C3.98716601 60.96149802 4.05786283 59.54806777 4.3125 56.4375 C4.40842626 49.1577626 0.59931243 44.09192406 -3.9375 38.6953125 C-5.83295581 36.80833841 -5.83295581 36.80833841 -8.140625 36.828125 C-8.83671875 36.96734375 -9.5328125 37.1065625 -10.25 37.25 C-11.4875 37.4975 -12.725 37.745 -14 38 C-14.42554622 26.88851534 -14.68706646 13.96472949 -9 4 C-8.01 4.33 -7.02 4.66 -6 5 C-5.67 4.34 -5.34 3.68 -5 3 C-4.01 3 -3.02 3 -2 3 C-1.34 2.01 -0.68 1.02 0 0 Z " fill="#5F7E8B" transform="translate(106,311)"/>
<path d="M0 0 C1.05574219 0.26554687 2.11148438 0.53109375 3.19921875 0.8046875 C15.08210372 3.67699554 26.81967902 5.08707653 39 6 C38.566875 7.8871875 38.566875 7.8871875 38.125 9.8125 C35.71811067 20.7486157 34.43660354 30.7946704 35 42 C32.69 42 30.38 42 28 42 C25.56197916 35.38662851 25.77175355 29.04751938 25.875 22.0625 C25.88402344 20.90169922 25.89304687 19.74089844 25.90234375 18.54492188 C25.92578838 15.69639892 25.95860478 12.84830922 26 10 C22.43711541 8.52525153 19.18538925 7.56206794 15.375 6.9375 C12.44204554 6.45135275 9.82645799 5.94215266 7 5 C7.43570313 5.55042969 7.87140625 6.10085938 8.3203125 6.66796875 C14.91217606 15.87089515 17.2787594 26.14978971 20 37 C19.34 37.66 18.68 38.32 18 39 C14.375 38.625 14.375 38.625 11 38 C11.33 37.34 11.66 36.68 12 36 C12.66 36 13.32 36 14 36 C12.58789058 24.145713 10.374932 15.16105598 2.48828125 6.0078125 C0.9676816 3.95639984 0.41944759 2.494315 0 0 Z " fill="#91B4B8" transform="translate(58,308)"/>
<path d="M0 0 C0.25394531 0.83144531 0.50789063 1.66289062 0.76953125 2.51953125 C1.11371094 3.60621094 1.45789063 4.69289063 1.8125 5.8125 C2.14894531 6.89144531 2.48539063 7.97039062 2.83203125 9.08203125 C3.97865896 11.94668308 4.74682202 13.02093126 7 15 C9.73847347 18.27700173 12.36691565 21.63806969 15 25 C15.52722656 25.64839844 16.05445312 26.29679687 16.59765625 26.96484375 C19.77898041 31.05511767 20.69170168 33.96446085 21 39 C18.35261084 40.4606285 17.10551666 41 14 41 C13.54625 39.7625 13.0925 38.525 12.625 37.25 C10.92413003 31.73123774 10.92413003 31.73123774 7 28 C6.01 30.475 6.01 30.475 5 33 C4.67 32.34 4.34 31.68 4 31 C3.4225 30.731875 2.845 30.46375 2.25 30.1875 C-0.71771747 28.62120467 -2.66990846 26.39140974 -5 24 C-5.66 23.67 -6.32 23.34 -7 23 C-7.64289556 20.36353841 -8.17007783 17.79418621 -8.625 15.125 C-8.7590625 14.39152344 -8.893125 13.65804688 -9.03125 12.90234375 C-9.56773505 9.89693262 -10 7.05850122 -10 4 C-9.01 4 -8.02 4 -7 4 C-7 3.34 -7 2.68 -7 2 C-2.25 0 -2.25 0 0 0 Z " fill="#5C7A87" transform="translate(104,392)"/>
<path d="M0 0 C1.258125 0.12375 2.51625 0.2475 3.8125 0.375 C4.87404297 0.47941406 4.87404297 0.47941406 5.95703125 0.5859375 C8 1 8 1 11 3 C10 6 10 6 7 8 C7 9.32 7 10.64 7 12 C7.29390625 11.3503125 7.5878125 10.700625 7.890625 10.03125 C9.38848265 7.24213575 10.68475526 5.17531237 13 3 C17.10033465 2.20184326 20.87499283 2.45934372 25 3 C25 4.32 25 5.64 25 7 C24.34 7.66 23.68 8.32 23 9 C22.56042969 9.78375 22.12085937 10.5675 21.66796875 11.375 C19.34203854 15.03548032 16.2362445 17.26925475 12.86328125 19.9375 C10.73646646 21.88068507 10.73646646 21.88068507 10.73046875 24.75 C10.81941406 25.4925 10.90835938 26.235 11 27 C9.02 27.99 7.04 28.98 5 30 C4.54625 29.195625 4.0925 28.39125 3.625 27.5625 C2.25274335 24.91143428 2.25274335 24.91143428 0 24 C-0.33 24.99 -0.66 25.98 -1 27 C-2.9375 27.625 -2.9375 27.625 -5 28 C-5.66 28.33 -6.32 28.66 -7 29 C-6.42748117 25.23202724 -5.39123455 22.59881888 -3.375 19.375 C-2.57835938 18.09109375 -2.57835938 18.09109375 -1.765625 16.78125 C-0.89164062 15.40453125 -0.89164062 15.40453125 0 14 C0.64453125 12.9790625 1.2890625 11.958125 1.953125 10.90625 C3.62737105 8.26556924 5.3097195 5.63043652 7 3 C5.824375 2.814375 5.824375 2.814375 4.625 2.625 C2 2 2 2 0 0 Z " fill="#B5D1C9" transform="translate(69,69)"/>
<path d="M0 0 C45.78399629 -0.18990235 45.78399629 -0.18990235 61.25 0.4375 C62.24572021 0.47673584 63.24144043 0.51597168 64.26733398 0.55639648 C70.72439737 0.86219869 70.72439737 0.86219869 73 2 C73.625 4.5625 73.625 4.5625 74 7 C73.01 6.505 73.01 6.505 72 6 C72 5.01 72 4.02 72 3 C70.824375 3.020625 69.64875 3.04125 68.4375 3.0625 C64.52586533 3.06947261 60.85502056 2.64250343 57 2 C57.2165625 2.58007812 57.433125 3.16015625 57.65625 3.7578125 C57.9346875 4.53898437 58.213125 5.32015625 58.5 6.125 C58.7784375 6.89070313 59.056875 7.65640625 59.34375 8.4453125 C60 11 60 11 60 17 C54.72 17.66 49.44 18.32 44 19 C42.5625 11.625 42.5625 11.625 42.11547852 9.30712891 C41.39411277 5.54580262 41.39411277 5.54580262 40 2 C20.2 1.505 20.2 1.505 0 1 C0 0.67 0 0.34 0 0 Z " fill="#5C757B" transform="translate(49,47)"/>
<path d="M0 0 C5.28 0 10.56 0 16 0 C15.67 5.28 15.34 10.56 15 16 C12.03 16 9.06 16 6 16 C6 16.66 6 17.32 6 18 C6.61875 18.12375 7.2375 18.2475 7.875 18.375 C10 19 10 19 12 21 C10.39431334 20.71682074 8.79047953 20.42312209 7.1875 20.125 C6.29417969 19.96257812 5.40085937 19.80015625 4.48046875 19.6328125 C1.15470075 18.78434885 -1.15772338 16.89485108 -4 15 C-3.91131893 13.62391448 -3.80314061 12.24908258 -3.6875 10.875 C-3.62949219 10.10929687 -3.57148437 9.34359375 -3.51171875 8.5546875 C-3 6 -3 6 0 0 Z " fill="#EEF7F3" transform="translate(51,51)"/>
<path d="M0 0 C11.71440607 1.93344566 11.71440607 1.93344566 15 5 C15.5 8 15.5 8 15 11 C13.625 12.875 13.625 12.875 12 14 C11.34 14 10.68 14 10 14 C9.67 14.99 9.34 15.98 9 17 C5.98858723 18.91635358 3.9814635 20.04673636 0.375 19.875 C-4.02912621 18.25242718 -4.02912621 18.25242718 -6 16 C-6.95499618 12.94980008 -7.35834414 10.18463902 -7 7 C-4.6875 4.625 -4.6875 4.625 -2 3 C-1.34 2.01 -0.68 1.02 0 0 Z " fill="#F8FBF8" transform="translate(70,348)"/>
<path d="M0 0 C0.66 0.33 1.32 0.66 2 1 C1.01 1.33 0.02 1.66 -1 2 C-1.36548445 3.32488113 -1.6937566 4.66018514 -2 6 C-2.74830078 6.87011719 -2.74830078 6.87011719 -3.51171875 7.7578125 C-5.44660396 10.67283641 -5.3684079 12.59190988 -5.3125 16.0625 C-5.30863281 17.10535156 -5.30476563 18.14820313 -5.30078125 19.22265625 C-5.19356608 22.21003164 -5.19356608 22.21003164 -3 25 C-2.01 25.33 -1.02 25.66 0 26 C0 26.66 0 27.32 0 28 C0.556875 27.79375 1.11375 27.5875 1.6875 27.375 C4.659538 26.89304789 6.31979941 27.73434972 9 29 C9 30.65 9 32.3 9 34 C15.93 34.495 15.93 34.495 23 35 C23 35.33 23 35.66 23 36 C18.545 36.495 18.545 36.495 14 37 C19.627699 39.8138495 24.79816864 39.54063287 31 39 C34.43595207 37.5774139 34.43595207 37.5774139 37 36 C39.375 36.3125 39.375 36.3125 41 37 C34.31030231 42.70591862 29.25915093 44.69756422 20.44921875 44.4765625 C11.47326405 43.23639662 2.91143442 37.8088329 -3 31 C-7.0126206 24.65935753 -8.88507677 18.50496608 -8 11 C-6.43402159 6.30206477 -4.41368172 2.52210384 0 0 Z " fill="#9ABABB" transform="translate(67,346)"/>
<path d="M0 0 C0.99 0.99 1.98 1.98 3 3 C-7.29676542 13.9024575 -20.99676928 18.85211703 -35.8112793 19.45654297 C-45.86580899 19.63571068 -54.73933701 17.94325005 -64 14 C-64.66 13.34 -65.32 12.68 -66 12 C-65.34 12 -64.68 12 -64 12 C-64 11.34 -64 10.68 -64 10 C-61.36 10.33 -58.72 10.66 -56 11 C-56 11.66 -56 12.32 -56 13 C-40.19213287 15.99573793 -24.34438009 16.23386291 -10.26171875 7.25390625 C-7.8064064 5.54478145 -5.39884828 3.78703193 -3 2 C-1.515 1.01 -1.515 1.01 0 0 Z " fill="#87AAB0" transform="translate(123,287)"/>
<path d="M0 0 C0.33 0 0.66 0 1 0 C0.99476318 0.72590332 0.98952637 1.45180664 0.98413086 2.19970703 C0.96326503 5.50812912 0.95030931 8.81653731 0.9375 12.125 C0.92912109 13.26710938 0.92074219 14.40921875 0.91210938 15.5859375 C0.90888672 16.69453125 0.90566406 17.803125 0.90234375 18.9453125 C0.89710693 19.96125488 0.89187012 20.97719727 0.88647461 22.02392578 C1.00443613 25.11629339 1.30438265 27.98318849 2 31 C2.66 31.33 3.32 31.66 4 32 C4.33 31.34 4.66 30.68 5 30 C5 30.66 5 31.32 5 32 C7.31 31.34 9.62 30.68 12 30 C11.8125 32.875 11.8125 32.875 11 36 C9.34561387 36.69658363 7.67745682 37.36096883 6 38 C4.25829702 40.9000525 4.25829702 40.9000525 3 44 C2.34 44.99 1.68 45.98 1 47 C1.33 47.66 1.66 48.32 2 49 C0.4960456 51.79305817 -1.24016054 54.36024081 -3 57 C-3.39013716 58.9896995 -3.73202649 60.99019869 -4 63 C-5.32 62.67 -6.64 62.34 -8 62 C-8 60.35 -8 58.7 -8 57 C-10.97 56.67 -13.94 56.34 -17 56 C-17 55.34 -17 54.68 -17 54 C-18.65 53.67 -20.3 53.34 -22 53 C-22.33 50.69 -22.66 48.38 -23 46 C-22.61070313 46.42152344 -22.22140625 46.84304688 -21.8203125 47.27734375 C-16.87842983 52.11674498 -12.8229008 52.97254366 -6 53 C-5.88398437 52.39542969 -5.76796875 51.79085937 -5.6484375 51.16796875 C-4.82761989 48.42366892 -3.14658301 46.90060374 -1.27734375 44.79296875 C1.02619398 41.55956258 1.96293134 37.79415362 3 34 C2.34 34 1.68 34 1 34 C-1.51314157 30.23028765 -1.15974372 28.41372106 -0.9765625 23.92578125 C-0.95153656 23.2419487 -0.92651062 22.55811615 -0.90072632 21.8535614 C-0.81865275 19.67269371 -0.72201736 17.49274903 -0.625 15.3125 C-0.56674731 13.83271981 -0.5094443 12.35290191 -0.453125 10.87304688 C-0.3130945 7.24819578 -0.15999996 3.62403076 0 0 Z " fill="#CBDFD4" transform="translate(84,318)"/>
<path d="M0 0 C0.125 6.625 0.125 6.625 -1 10 C0.051875 10.2475 1.10375 10.495 2.1875 10.75 C7.2958325 12.25366239 10.5328232 14.82643797 13.3125 19.375 C16.29500228 25.73686979 16.19745934 34.40762199 14 41 C12.68 41 11.36 41 10 41 C8.98716601 37.96149802 9.05786283 36.54806777 9.3125 33.4375 C9.40814883 26.17881638 5.6422093 20.95246872 0.9375 15.6953125 C0.298125 15.13585937 -0.34125 14.57640625 -1 14 C-3.21858253 14.13641377 -3.21858253 14.13641377 -5 15 C-6.32976123 12.34047754 -5.81122428 10.95790707 -5.25 8.0625 C-5.09015625 7.18722656 -4.9303125 6.31195313 -4.765625 5.41015625 C-4.0471483 3.14842092 -2.82099961 0 0 0 Z " fill="#79989E" transform="translate(101,334)"/>
<path d="M0 0 C2 2 2 2 4 5 C3.113125 5.7425 2.22625 6.485 1.3125 7.25 C-0.18944626 8.84692552 -0.18944626 8.84692552 -1 11 C-0.56987333 15.18954547 0.67903719 19.01491051 2 23 C2.34674204 24.32990934 2.6862862 25.6619146 3 27 C0.03472242 24.5546615 -0.55582214 22.55397653 -1.1875 18.8125 C-1.34605469 17.91144531 -1.50460938 17.01039063 -1.66796875 16.08203125 C-1.77753906 15.39496094 -1.88710937 14.70789063 -2 14 C-2.99 14.66 -3.98 15.32 -5 16 C-6.32 16 -7.64 16 -9 16 C-9 16.66 -9 17.32 -9 18 C-17.05753146 16.90863407 -25.0509642 15.72168056 -33 14 C-33.22042969 13.071875 -33.22042969 13.071875 -33.4453125 12.125 C-34.48137987 8.15584051 -36.48382514 5.20240437 -39 2 C-35.51246956 3.67774293 -32.33501388 5.67020964 -29.09765625 7.78125 C-22.59850213 11.55729485 -16.39361073 11.88932582 -9 11 C-5.33478559 9.58481999 -1.80683025 7.80683025 1 5 C-0.65 5.33 -2.3 5.66 -4 6 C-3.6875 4.125 -3.6875 4.125 -3 2 C-2.01 1.34 -1.02 0.68 0 0 Z " fill="#5A747B" transform="translate(106,378)"/>
<path d="M0 0 C0.33 1.32 0.66 2.64 1 4 C1 3.34 1 2.68 1 2 C17.92288243 4.47155499 17.92288243 4.47155499 23 7 C25.41980784 10.56996342 25.16274839 13.76854179 25 18 C22.23819861 17.60545694 21.19814555 17.23039093 19.34375 15.07421875 C16.2714337 12.35521883 13.1588672 11.83379681 9.25 11.0625 C2.93497699 9.67216718 -1.7545868 7.9340599 -7 4 C-3.375 0 -3.375 0 0 0 Z " fill="#7899A3" transform="translate(129,434)"/>
<path d="M0 0 C0.66 0 1.32 0 2 0 C3.32 4.29 4.64 8.58 6 13 C11.00604875 13 12.90850909 11.72766061 17 9 C17.66 10.98 18.32 12.96 19 15 C19.61875 14.175 20.2375 13.35 20.875 12.5 C21.57625 11.675 22.2775 10.85 23 10 C25 10 27 10 29 10 C29.33 11.32 29.66 12.64 30 14 C29.01 14.495 29.01 14.495 28 15 C27.67 14.34 27.34 13.68 27 13 C24.30969236 14.36574291 22.04133177 15.75913956 20 18 C19.38638378 21.08355042 19.57425 23.89810712 20 27 C18.68 26.67 17.36 26.34 16 26 C15.34 27.32 14.68 28.64 14 30 C13.957279 28.33388095 13.95936168 26.66617115 14 25 C14.33 24.67 14.66 24.34 15 24 C15.04080783 22.00041636 15.04254356 19.99954746 15 18 C13.3603125 19.0209375 13.3603125 19.0209375 11.6875 20.0625 C9.82421875 21.22265625 9.82421875 21.22265625 8 22 C5 21 5 21 3.61328125 18.49609375 C2.96939453 16.98208984 2.96939453 16.98208984 2.3125 15.4375 C1.87550781 14.42558594 1.43851563 13.41367188 0.98828125 12.37109375 C0.66214844 11.58863281 0.33601563 10.80617188 0 10 C0.66 10 1.32 10 2 10 C1.01 7.03 0.02 4.06 -1 1 C-0.67 0.67 -0.34 0.34 0 0 Z " fill="#D8E9DD" transform="translate(39,86)"/>
<path d="M0 0 C7.86573342 0.74911747 11.00838006 3.41673695 16.0546875 9.39453125 C19.73907846 14.32924765 21.39228456 17.80130247 22 24 C19.35261084 25.4606285 18.10551666 26 15 26 C14.5875 24.80375 14.175 23.6075 13.75 22.375 C11.36789698 16.06354012 7.80325947 11.68009897 3 7 C0 3.48275862 0 3.48275862 0 0 Z " fill="#7AA0AD" transform="translate(103,407)"/>
<path d="M0 0 C14.85 0 29.7 0 45 0 C45 0.33 45 0.66 45 1 C37.08 1.33 29.16 1.66 21 2 C21 2.33 21 2.66 21 3 C16.38 3 11.76 3 7 3 C6.01 5.97 5.02 8.94 4 12 C3.34 12 2.68 12 2 12 C2 11.34 2 10.68 2 10 C-3.76558702 12.88279351 -5.90834959 25.03308629 -7.90234375 30.6796875 C-8.78317644 33.34412802 -9.54805782 35.95854205 -10.1875 38.6875 C-11 42 -11 42 -13 45 C-11.33961671 29.26168609 -5.46202735 14.8255028 0 0 Z " fill="#D6E7DC" transform="translate(44,48)"/>
<path d="M0 0 C1.77260631 0.45142775 3.5430368 0.91140523 5.3125 1.375 C6.79169922 1.75785156 6.79169922 1.75785156 8.30078125 2.1484375 C11 3 11 3 14 5 C10.98968256 5.93423645 10.13349732 6.04449911 7 5 C7.43570313 5.55042969 7.87140625 6.10085938 8.3203125 6.66796875 C14.91217606 15.87089515 17.2787594 26.14978971 20 37 C19.34 37.66 18.68 38.32 18 39 C14.375 38.625 14.375 38.625 11 38 C11.33 37.34 11.66 36.68 12 36 C12.66 36 13.32 36 14 36 C12.58789058 24.145713 10.374932 15.16105598 2.48828125 6.0078125 C0.9676816 3.95639984 0.41944759 2.494315 0 0 Z " fill="#82918C" transform="translate(58,308)"/>
<path d="M0 0 C0.66 0 1.32 0 2 0 C2.33 0.99 2.66 1.98 3 3 C2.01 4.485 2.01 4.485 1 6 C1.33 6.66 1.66 7.32 2 8 C1.195625 8.45375 0.39125 8.9075 -0.4375 9.375 C-3.08856572 10.74725665 -3.08856572 10.74725665 -4 13 C-3.34 13.33 -2.68 13.66 -2 14 C-2.94875 14.350625 -3.8975 14.70125 -4.875 15.0625 C-8.34336062 16.7714341 -8.34336062 16.7714341 -9.375 20.6875 C-9.58125 21.780625 -9.7875 22.87375 -10 24 C-9.09507813 24.09087891 -9.09507813 24.09087891 -8.171875 24.18359375 C-7.37265625 24.26738281 -6.5734375 24.35117187 -5.75 24.4375 C-4.56664062 24.55931641 -4.56664062 24.55931641 -3.359375 24.68359375 C-1.17635361 24.97634993 0.8773182 25.42064419 3 26 C3.33 25.34 3.66 24.68 4 24 C4.33 24.99 4.66 25.98 5 27 C7.00016466 28.20882096 7.00016466 28.20882096 9 29 C0.67889465 29.67620721 -6.18183678 27.74493505 -14 25 C-14.24185924 22.14606097 -14.41535274 19.80231661 -14 17 C-11.875 14.5 -11.875 14.5 -9 12 C-6.33913598 8.69387645 -3.86036699 5.24299251 -1.4453125 1.75390625 C-0.96835938 1.17511719 -0.49140625 0.59632813 0 0 Z " fill="#BDDAD0" transform="translate(68,408)"/>
<path d="M0 0 C1.39698636 0.28609307 2.7925433 0.57916905 4.1875 0.875 C5.35345703 1.11863281 5.35345703 1.11863281 6.54296875 1.3671875 C9 2 9 2 11.203125 2.9453125 C15.230659 4.46407532 19.34005981 5.20426065 23.5625 6 C24.47475342 6.17370117 25.38700684 6.34740234 26.3269043 6.52636719 C35.83098644 8.26520724 45.37663466 9.21441916 55 10 C55 10.99 55 11.98 55 13 C37.07163817 13.76290901 21.31097087 10.85632403 5 3.3125 C4.05125 2.87550781 3.1025 2.43851562 2.125 1.98828125 C1.42375 1.66214844 0.7225 1.33601563 0 1 C0 0.67 0 0.34 0 0 Z " fill="#D8EFED" transform="translate(31,123)"/>
<path d="M0 0 C-3.5703435 3.16505238 -6.46458366 4.72050415 -11.0703125 5.921875 C-12.21371094 6.22480469 -13.35710937 6.52773437 -14.53515625 6.83984375 C-15.71980469 7.14019531 -16.90445313 7.44054687 -18.125 7.75 C-19.91357422 8.22373047 -19.91357422 8.22373047 -21.73828125 8.70703125 C-30.52303166 11 -30.52303166 11 -34 11 C-33.9278125 11.73863281 -33.855625 12.47726563 -33.78125 13.23828125 C-33.14588867 20.18313352 -32.87647699 27.02781245 -33 34 C-33.33 34 -33.66 34 -34 34 C-34.96478295 26.67798655 -35.02554923 19.4937934 -34.83984375 12.125 C-34.65535969 8.89798148 -34.65535969 8.89798148 -37 7 C-35.70707031 6.75765625 -34.41414063 6.5153125 -33.08203125 6.265625 C-24.0213408 4.53009791 -15.24315898 2.72027601 -6.53125 -0.36328125 C-3.87630493 -1.03111466 -2.53933779 -0.92829565 0 0 Z " fill="#98B9BF" transform="translate(135,124)"/>
<path d="M0 0 C0.66 0.33 1.32 0.66 2 1 C1.01 1.33 0.02 1.66 -1 2 C-1.36548445 3.32488113 -1.6937566 4.66018514 -2 6 C-2.74830078 6.87011719 -2.74830078 6.87011719 -3.51171875 7.7578125 C-5.44660396 10.67283641 -5.3684079 12.59190988 -5.3125 16.0625 C-5.30863281 17.10535156 -5.30476563 18.14820313 -5.30078125 19.22265625 C-5.19356608 22.21003164 -5.19356608 22.21003164 -3 25 C-2.01 25.33 -1.02 25.66 0 26 C0 26.66 0 27.32 0 28 C0.556875 27.79375 1.11375 27.5875 1.6875 27.375 C4.659538 26.89304789 6.31979941 27.73434972 9 29 C8.67 31.31 8.34 33.62 8 36 C2.73992161 35.27447195 -0.07385715 34.53168033 -3.375 30.25 C-7.41367085 24.13712048 -9.01007471 18.29224665 -8 11 C-6.41747394 6.30136593 -4.42234237 2.52705278 0 0 Z " fill="#B1CEC7" transform="translate(67,346)"/>
<path d="M0 0 C1.258125 0.12375 2.51625 0.2475 3.8125 0.375 C4.87404297 0.47941406 4.87404297 0.47941406 5.95703125 0.5859375 C8 1 8 1 11 3 C10 6 10 6 7 8 C6.855625 9.093125 6.71125 10.18625 6.5625 11.3125 C5.92827227 15.47021514 4.63831082 16.85104837 2 20 C2 21.32 2 22.64 2 24 C1.34 24 0.68 24 0 24 C-0.33 24.99 -0.66 25.98 -1 27 C-2.9375 27.625 -2.9375 27.625 -5 28 C-5.66 28.33 -6.32 28.66 -7 29 C-6.42748117 25.23202724 -5.39123455 22.59881888 -3.375 19.375 C-2.57835938 18.09109375 -2.57835938 18.09109375 -1.765625 16.78125 C-0.89164062 15.40453125 -0.89164062 15.40453125 0 14 C0.64453125 12.9790625 1.2890625 11.958125 1.953125 10.90625 C3.62737105 8.26556924 5.3097195 5.63043652 7 3 C5.824375 2.814375 5.824375 2.814375 4.625 2.625 C2 2 2 2 0 0 Z " fill="#C9DBD0" transform="translate(69,69)"/>
<path d="M0 0 C0.33 0 0.66 0 1 0 C1 1.98 1 3.96 1 6 C1.74685059 6.13575439 2.49370117 6.27150879 3.26318359 6.41137695 C6.63633916 7.03205649 10.00555222 7.67201129 13.375 8.3125 C14.550625 8.52583984 15.72625 8.73917969 16.9375 8.95898438 C18.05898437 9.17490234 19.18046875 9.39082031 20.3359375 9.61328125 C21.37282715 9.80704346 22.4097168 10.00080566 23.47802734 10.20043945 C26 11 26 11 28 14 C27 15 27 15 23.0625 15.25 C16.45026061 15.17629669 10.54899453 13.29854438 4.6875 10.3125 C1.67732975 8.84241685 0.29277142 8.43781951 -3 9 C-4.22727127 9.65309336 -5.43487776 10.34393563 -6.625 11.0625 C-8.295625 12.0215625 -8.295625 12.0215625 -10 13 C-10.99 12.67 -11.98 12.34 -13 12 C-11.84371094 11.45472656 -11.84371094 11.45472656 -10.6640625 10.8984375 C-4.36218048 7.96715989 -4.36218048 7.96715989 -0.3125 2.625 C-0.209375 1.75875 -0.10625 0.8925 0 0 Z " fill="#5B7782" transform="translate(53,427)"/>
<path d="M0 0 C1.32 0.33 2.64 0.66 4 1 C2.7934375 2.175625 2.7934375 2.175625 1.5625 3.375 C-0.98690417 5.71982856 -0.98690417 5.71982856 -2 8 C-1.85831977 13.45637282 -1.85831977 13.45637282 0.625 18.0625 C4.28422335 19.50693027 6.22257771 19.13322669 10 18 C12.88821971 15.88062337 15.46236447 13.52445301 18 11 C18 15.27840261 15.71595568 16.82034457 13 20 C12.67 20.99 12.34 21.98 12 23 C7.65076696 24.44974435 4.23843354 23.6107532 0 22 C-2.92352341 19.95017324 -4.65463714 17.57571805 -5.4375 14.00390625 C-5.66148937 10.30108193 -5.16182585 8.23490849 -3.0625 5.1875 C-2.0415625 4.1046875 -2.0415625 4.1046875 -1 3 C-0.67 2.01 -0.34 1.02 0 0 Z " fill="#E2EDE3" transform="translate(66,348)"/>
<path d="M0 0 C1.98 0 3.96 0 6 0 C6 0.99 6 1.98 6 3 C5.15695313 3.12117188 4.31390625 3.24234375 3.4453125 3.3671875 C2.34960938 3.53476563 1.25390625 3.70234375 0.125 3.875 C-1.51082031 4.11863281 -1.51082031 4.11863281 -3.1796875 4.3671875 C-6.11932714 4.76256513 -6.11932714 4.76256513 -8 7 C-11.2578125 7.1953125 -11.2578125 7.1953125 -15.125 7.125 C-17.04699219 7.09792969 -17.04699219 7.09792969 -19.0078125 7.0703125 C-20.48894531 7.03550781 -20.48894531 7.03550781 -22 7 C-22.27585937 7.76699219 -22.55171875 8.53398438 -22.8359375 9.32421875 C-24.28334347 12.65130966 -26.35279397 14.56178392 -29 17 C-29.25 14.6875 -29.25 14.6875 -29 12 C-27 10.3125 -27 10.3125 -25 9 C-25 8.34 -25 7.68 -25 7 C-26.98 6.34 -28.96 5.68 -31 5 C-31 4.67 -31 4.34 -31 4 C-16.15 3.505 -16.15 3.505 -1 3 C-0.67 2.01 -0.34 1.02 0 0 Z " fill="#A0BCB4" transform="translate(104,65)"/>
<path d="M0 0 C0.33 0 0.66 0 1 0 C0.99555878 0.57612534 0.99111755 1.15225067 0.98654175 1.74583435 C0.94173261 7.83093747 0.91189921 13.91599254 0.89013672 20.0012207 C0.88017956 22.26165679 0.86660897 24.52208034 0.84912109 26.7824707 C0.69431985 46.47414604 0.69431985 46.47414604 3 66 C3.33 66.33 3.66 66.66 4 67 C4.04063832 68.66617115 4.042721 70.33388095 4 72 C4.66 72 5.32 72 6 72 C5.67 74.31 5.34 76.62 5 79 C2.78697761 75.68046641 2.24650432 73.26330348 1.4375 69.375 C1.18871094 68.20710938 0.93992187 67.03921875 0.68359375 65.8359375 C-0.61029566 58.57536949 -1.15237 51.45107365 -1.1328125 44.08203125 C-1.13376923 43.26232346 -1.13472595 42.44261566 -1.13571167 41.59806824 C-1.13638737 39.87454145 -1.13457599 38.15101203 -1.13037109 36.42749023 C-1.12504902 33.83636524 -1.1303191 31.24541633 -1.13671875 28.65429688 C-1.14016408 19.05318684 -0.86688707 9.5683401 0 0 Z " fill="#4C5450" transform="translate(16,179)"/>
<path d="M0 0 C16.83 0 33.66 0 51 0 C47.85699679 3.14300321 44.04425339 3.02210177 39.75 3.625 C38.82936768 3.75688721 37.90873535 3.88877441 36.96020508 4.0246582 C26.65004309 5.37029396 16.37569518 5.29292899 6 5 C6 4.67 6 4.34 6 4 C12.27 4 18.54 4 25 4 C25 3.34 25 2.68 25 2 C23.69804688 2.01160156 22.39609375 2.02320313 21.0546875 2.03515625 C19.32812644 2.04453973 17.60156382 2.05363934 15.875 2.0625 C15.0190625 2.07087891 14.163125 2.07925781 13.28125 2.08789062 C8.73321589 2.10538306 4.47616836 1.93192358 0 1 C0 0.67 0 0.34 0 0 Z " fill="#C5E6E4" transform="translate(70,454)"/>
<path d="M0 0 C0.125 6.625 0.125 6.625 -1 10 C-0.01 10.33 0.98 10.66 2 11 C3.33333333 12.33333333 4.66666667 13.66666667 6 15 C6.99 15.33 7.98 15.66 9 16 C9 18.64 9 21.28 9 24 C8.34 24 7.68 24 7 24 C5.41988963 22.05872155 4.0464337 20.01023561 2.6328125 17.9453125 C0.86207847 15.835682 -0.43477137 14.95567341 -3 14 C-3.99 14 -4.98 14 -6 14 C-5.38997821 0 -5.38997821 0 0 0 Z " fill="#98BABB" transform="translate(101,334)"/>
<path d="M0 0 C0.33 0.66 0.66 1.32 1 2 C0.67 2.66 0.34 3.32 0 4 C0.66 4 1.32 4 2 4 C2.144375 4.886875 2.28875 5.77375 2.4375 6.6875 C4.46589462 10.9876966 6.83006716 11.91843224 11.00390625 13.921875 C13 15 13 15 14 17 C16.34937742 17.9583369 18.66218055 18.81785446 21.0625 19.625 C21.72572266 19.85445313 22.38894531 20.08390625 23.07226562 20.3203125 C24.71259669 20.88675776 26.35602157 21.44422923 28 22 C23.83406315 23.8052393 20.32939509 21.99431209 16.375 20.4375 C15.66730469 20.16083496 14.95960937 19.88416992 14.23046875 19.59912109 C1.57935913 14.52081821 1.57935913 14.52081821 -2 11 C-3.02871041 7.86004089 -2.66285227 6.36949903 -2 3 C-1.34 2.01 -0.68 1.02 0 0 Z " fill="#A8C7BD" transform="translate(27,444)"/>
<path d="M0 0 C2.64 0.33 5.28 0.66 8 1 C8 1.66 8 2.32 8 3 C17.00407504 4.7270386 25.85965063 5.52550099 35 6 C32.14184912 8.85815088 29.87719361 8.31567404 25.96411133 8.37939453 C24.55875122 8.37721924 24.55875122 8.37721924 23.125 8.375 C22.17713623 8.37483887 21.22927246 8.37467773 20.25268555 8.37451172 C12.53992551 8.24933666 3.75955092 7.75955092 -2 2 C-1.34 2 -0.68 2 0 2 C0 1.34 0 0.68 0 0 Z " fill="#95BABA" transform="translate(59,297)"/>
<path d="M0 0 C0.66 0.66 1.32 1.32 2 2 C1.47599609 2.68835938 1.47599609 2.68835938 0.94140625 3.390625 C0.25884766 4.31101562 0.25884766 4.31101562 -0.4375 5.25 C-0.88996094 5.85328125 -1.34242187 6.4565625 -1.80859375 7.078125 C-3.03900997 9.06292756 -3.56112668 10.71987655 -4 13 C-12.47536313 15.18719049 -21.60922655 14.12060109 -30 12 C-30.66 11.34 -31.32 10.68 -32 10 C-31.02160156 10.02320313 -30.04320313 10.04640625 -29.03515625 10.0703125 C-15.24533625 10.533029 -15.24533625 10.533029 -3 5 C-1.19203897 2.43389334 -1.19203897 2.43389334 0 0 Z " fill="#63828A" transform="translate(97,289)"/>
<path d="M0 0 C0.89074219 0.06058594 1.78148437 0.12117188 2.69921875 0.18359375 C17.12083885 1.10171844 31.55756188 1.54162687 46 2 C46 2.33 46 2.66 46 3 C35.605 3.495 35.605 3.495 25 4 C25 4.66 25 5.32 25 6 C16.8314782 5.57998735 8.75621645 4.75220584 1 2 C0.67 1.34 0.34 0.68 0 0 Z " fill="#81A2A3" transform="translate(46,126)"/>
<path d="M0 0 C1.8125 0.0625 1.8125 0.0625 4 1 C5.40113616 2.95309888 6.73339467 4.95708818 8 7 C9.62351109 8.79394446 9.62351109 8.79394446 11 10 C9.68 11.65 8.36 13.3 7 15 C7 14.34 7 13.68 7 13 C6.443125 12.773125 5.88625 12.54625 5.3125 12.3125 C2.37096381 10.64297946 0.3513638 8.41324179 -2 6 C-2.66 5.67 -3.32 5.34 -4 5 C-3.67 3.68 -3.34 2.36 -3 1 C-2.34 1 -1.68 1 -1 1 C-0.67 0.67 -0.34 0.34 0 0 Z " fill="#617F8D" transform="translate(101,410)"/>
<path d="M0 0 C1.65 0 3.3 0 5 0 C4.59683075 6.31631828 2.28767869 10.64993984 -1 16 C-2.65 15.67 -4.3 15.34 -6 15 C-4.36041242 9.76727367 -2.61047965 4.84803364 0 0 Z " fill="#789EA9" transform="translate(106,311)"/>
<path d="M0 0 C0 0.66 0 1.32 0 2 C0.66 2.33 1.32 2.66 2 3 C0.25197854 3.81674796 -1.49850189 4.62823451 -3.25 5.4375 C-4.22453125 5.88996094 -5.1990625 6.34242188 -6.203125 6.80859375 C-10.95900018 8.8344903 -14.79934249 9.27860665 -20 9 C-22.21875 7.98828125 -22.21875 7.98828125 -24 7 C-19.59819721 5.47159625 -15.22617761 4.00592693 -10.6875 2.9375 C-6.83546233 1.95816839 -3.93843708 0 0 0 Z " fill="#A9CAC1" transform="translate(52,436)"/>
<path d="M0 0 C0.33 0 0.66 0 1 0 C1.3403125 1.670625 1.3403125 1.670625 1.6875 3.375 C2.56403022 7.10354928 2.56403022 7.10354928 5.21875 8.09375 C6.1365625 8.3928125 7.054375 8.691875 8 9 C9.43279297 9.52980469 9.43279297 9.52980469 10.89453125 10.0703125 C11.85746094 10.41835937 12.82039063 10.76640625 13.8125 11.125 C14.78832031 11.47820312 15.76414062 11.83140625 16.76953125 12.1953125 C17.50558594 12.46085937 18.24164063 12.72640625 19 13 C19 13.33 19 13.66 19 14 C17.865625 13.855625 16.73125 13.71125 15.5625 13.5625 C14.83804688 13.47355469 14.11359375 13.38460937 13.3671875 13.29296875 C11.76725509 13.09495731 10.16828724 12.88901582 8.5703125 12.67578125 C7.78398438 12.57652344 6.99765625 12.47726563 6.1875 12.375 C5.09501953 12.23191406 5.09501953 12.23191406 3.98046875 12.0859375 C1.78688349 11.87267355 1.78688349 11.87267355 -1 13 C-1.12375 14.093125 -1.2475 15.18625 -1.375 16.3125 C-2.02770131 21.58140765 -3.01264063 26.78520874 -4 32 C-4.33 32 -4.66 32 -5 32 C-4.55717468 21.10649708 -2.27000497 10.63226791 0 0 Z " fill="#7C928B" transform="translate(26,112)"/>
<path d="M0 0 C1.87491693 -0.02730462 3.74995225 -0.04653244 5.625 -0.0625 C6.66914062 -0.07410156 7.71328125 -0.08570313 8.7890625 -0.09765625 C12 0 12 0 14.78125 0.46875 C19.13502702 1.18733456 23.47114909 1.36021468 27.875 1.5625 C28.75414063 1.60568359 29.63328125 1.64886719 30.5390625 1.69335938 C32.69255797 1.79869339 34.84626064 1.89977649 37 2 C37 2.66 37 3.32 37 4 C32.85422725 4.05863894 28.70856295 4.09380984 24.5625 4.125 C23.39783203 4.14175781 22.23316406 4.15851563 21.03320312 4.17578125 C14.36009252 4.21337624 8.41719869 3.89795122 2 2 C1.34 1.34 0.68 0.68 0 0 Z " fill="#DCFAF7" transform="translate(58,454)"/>
<path d="M0 0 C0.33 0.66 0.66 1.32 1 2 C0.2776389 3.88224987 -0.52895017 5.73250824 -1.375 7.5625 C-3.68431407 12.89316665 -4.8130276 17.20385565 -5 23 C-4.67 23.66 -4.34 24.32 -4 25 C-5.32 24.67 -6.64 24.34 -8 24 C-8 21.03 -8 18.06 -8 15 C-8.99 15.66 -9.98 16.32 -11 17 C-10.39516129 9.62096774 -10.39516129 9.62096774 -8.6875 6.9375 C-7 6 -7 6 -4.8125 6.3125 C-4.214375 6.539375 -3.61625 6.76625 -3 7 C-2.690625 6.030625 -2.38125 5.06125 -2.0625 4.0625 C-1 1 -1 1 0 0 Z " fill="#5C7279" transform="translate(108,320)"/>
<path d="M0 0 C-0.35298081 2.9008605 -0.88728296 3.89516676 -3.06640625 5.921875 C-3.89011719 6.52515625 -4.71382812 7.1284375 -5.5625 7.75 C-6.38878906 8.36359375 -7.21507813 8.9771875 -8.06640625 9.609375 C-8.70449219 10.06828125 -9.34257813 10.5271875 -10 11 C-9.56713807 14.1021772 -9.08847844 16.78863484 -7.875 19.6875 C-7 22 -7 22 -8 25 C-8.98558449 23.42065361 -9.96322541 21.83634827 -10.9375 20.25 C-11.75541016 18.92742187 -11.75541016 18.92742187 -12.58984375 17.578125 C-13.82715712 15.31600083 -14.53590513 13.51433675 -15 11 C-13.21079529 9.3514184 -11.4187995 7.70606879 -9.625 6.0625 C-8.86316406 5.35963867 -8.86316406 5.35963867 -8.0859375 4.64257812 C-3.00916142 0 -3.00916142 0 0 0 Z " fill="#81A29E" transform="translate(94,80)"/>
<path d="M0 0 C0 0.99 0 1.98 0 3 C0.01160156 3.68835938 0.02320312 4.37671875 0.03515625 5.0859375 C0.08429599 9.19963585 0.03613786 12.9849658 -1 17 C-2.32 17.33 -3.64 17.66 -5 18 C-8.05620609 13.72131148 -8.05620609 13.72131148 -7.8125 10.59375 C-6.86473625 7.5681965 -5.58970577 5.99622983 -3.4375 3.6875 C-2.79683594 2.99011719 -2.15617187 2.29273437 -1.49609375 1.57421875 C-1.00238281 1.05472656 -0.50867188 0.53523438 0 0 Z " fill="#CCE0D8" transform="translate(78,79)"/>
<path d="M0 0 C0.99 0.33 1.98 0.66 3 1 C3.6875 3.0625 3.6875 3.0625 4 5 C3.01 5.495 3.01 5.495 2 6 C1.67 5.34 1.34 4.68 1 4 C-1.69030764 5.36574291 -3.95866823 6.75913956 -6 9 C-6.61361622 12.08355042 -6.42575 14.89810712 -6 18 C-7.32 17.67 -8.64 17.34 -10 17 C-10.66 18.32 -11.32 19.64 -12 21 C-12.125 18.625 -12.125 18.625 -12 16 C-11.34 15.34 -10.68 14.68 -10 14 C-9.71125 13.113125 -9.4225 12.22625 -9.125 11.3125 C-7.82873875 7.49573076 -6.07059255 4.45098759 -4 1 C-3.01 1 -2.02 1 -1 1 C-0.67 0.67 -0.34 0.34 0 0 Z " fill="#C6DCD2" transform="translate(65,95)"/>
<path d="M0 0 C2.64 0.66 5.28 1.32 8 2 C8.12375 3.175625 8.12375 3.175625 8.25 4.375 C8.72806339 7.14749104 8.72806339 7.14749104 11.0625 8.3125 C11.701875 8.539375 12.34125 8.76625 13 9 C12.34 10.65 11.68 12.3 11 14 C6.1309125 10.81636587 2.84182084 8.22895034 0 3 C0 2.01 0 1.02 0 0 Z " fill="#7BA0AF" transform="translate(103,407)"/>
<path d="M0 0 C0.61875 0.309375 1.2375 0.61875 1.875 0.9375 C0.885 1.9275 -0.105 2.9175 -1.125 3.9375 C0.195 4.5975 1.515 5.2575 2.875 5.9375 C-0.96434208 6.14317904 -3.60091461 5.57124906 -7.125 4.0625 C-7.95 3.71445313 -8.775 3.36640625 -9.625 3.0078125 C-10.8625 2.47800781 -10.8625 2.47800781 -12.125 1.9375 C-13.79006701 1.26684801 -15.45628619 0.59902583 -17.125 -0.0625 C-11.72793963 -3.30322909 -5.73024159 -1.94828214 0 0 Z " fill="#BAD8D0" transform="translate(52.125,131.0625)"/>
<path d="M0 0 C0.33 0 0.66 0 1 0 C0.99476318 0.72590332 0.98952637 1.45180664 0.98413086 2.19970703 C0.96326503 5.50812912 0.95030931 8.81653731 0.9375 12.125 C0.92912109 13.26710938 0.92074219 14.40921875 0.91210938 15.5859375 C0.90888672 16.69453125 0.90566406 17.803125 0.90234375 18.9453125 C0.89710693 19.96125488 0.89187012 20.97719727 0.88647461 22.02392578 C1.00443613 25.11629339 1.30438265 27.98318849 2 31 C2.66 31.33 3.32 31.66 4 32 C4.33 31.34 4.66 30.68 5 30 C5 30.66 5 31.32 5 32 C7.31 31.34 9.62 30.68 12 30 C11.67 31.98 11.34 33.96 11 36 C9.68 35.67 8.36 35.34 7 35 C7 34.67 7 34.34 7 34 C5.865625 33.690625 4.73125 33.38125 3.5625 33.0625 C0 32 0 32 -1 31 C-1.01683857 28.70673781 -0.96241325 26.41289688 -0.87890625 24.12109375 C-0.85529526 23.4344313 -0.83168427 22.74776886 -0.80735779 22.04029846 C-0.7305582 19.83916372 -0.64660497 17.63836656 -0.5625 15.4375 C-0.50929557 13.94858443 -0.45655507 12.45965221 -0.40429688 10.97070312 C-0.27492148 7.31359327 -0.13912762 3.65675328 0 0 Z " fill="#B8D4D0" transform="translate(84,318)"/>
<path d="M0 0 C1.77260631 0.45142775 3.5430368 0.91140523 5.3125 1.375 C6.79169922 1.75785156 6.79169922 1.75785156 8.30078125 2.1484375 C11 3 11 3 14 5 C10.98968256 5.93423645 10.13349732 6.04449911 7 5 C7.30035156 5.61488281 7.60070312 6.22976563 7.91015625 6.86328125 C8.48056641 8.07564453 8.48056641 8.07564453 9.0625 9.3125 C9.44535156 10.11300781 9.82820313 10.91351563 10.22265625 11.73828125 C11 14 11 14 10 17 C9.52949219 16.24074219 9.05898437 15.48148437 8.57421875 14.69921875 C7.95160156 13.70535156 7.32898438 12.71148437 6.6875 11.6875 C6.07261719 10.70136719 5.45773438 9.71523438 4.82421875 8.69921875 C3.16663373 6.04492611 3.16663373 6.04492611 1.26953125 4.33203125 C0 3 0 3 0 0 Z " fill="#7F948F" transform="translate(58,308)"/>
<path d="M0 0 C14.85 0 29.7 0 45 0 C45 0.33 45 0.66 45 1 C43.75387939 0.98316162 42.50775879 0.96632324 41.22387695 0.94897461 C36.59219121 0.89827088 31.96215938 0.90671417 27.33032227 0.93286133 C25.32735262 0.93594008 23.32429145 0.92306123 21.3215332 0.89379883 C18.43788899 0.85445365 15.559443 0.87285281 12.67578125 0.90234375 C11.78288895 0.87776596 10.88999664 0.85318817 9.970047 0.8278656 C7.35015556 0.88815307 5.43219971 1.01263461 3 2 C0.71936691 4.7694361 -0.69990632 7.67006804 -2 11 C-2.33 10.34 -2.66 9.68 -3 9 C-2.01 6.03 -1.02 3.06 0 0 Z " fill="#8D9B93" transform="translate(44,48)"/>
<path d="M0 0 C0.66 0 1.32 0 2 0 C3.29243536 4.1196377 4.26252625 7.66831683 4 12 C2.02 12.99 2.02 12.99 0 14 C-1.58177926 9.84782943 -2.40478458 6.45263035 -2 2 C-1.34 1.34 -0.68 0.68 0 0 Z " fill="#7CA0AC" transform="translate(102,392)"/>
<path d="M0 0 C0.33 0 0.66 0 1 0 C0.63114901 7.13111912 -1.29029246 13.00987303 -3.796875 19.6796875 C-4.76602845 22.35429929 -5.55460474 24.92113524 -6.1875 27.6875 C-7 31 -7 31 -9 34 C-8.39886835 28.12226833 -7.25167685 22.67400377 -5.625 17 C-5.41617188 16.24460937 -5.20734375 15.48921875 -4.9921875 14.7109375 C-3.57877353 9.69504158 -1.88768203 4.85719353 0 0 Z " fill="#62665F" transform="translate(40,59)"/>
<path d="M0 0 C1.258125 0.12375 2.51625 0.2475 3.8125 0.375 C4.87404297 0.47941406 4.87404297 0.47941406 5.95703125 0.5859375 C8 1 8 1 11 3 C10 6 10 6 7 8 C6.814375 9.670625 6.814375 9.670625 6.625 11.375 C6 15 6 15 3.4375 17.4375 C2.2309375 18.2109375 2.2309375 18.2109375 1 19 C1.42551896 17.08063787 1.86591938 15.16457126 2.3125 13.25 C2.67794922 11.64898437 2.67794922 11.64898437 3.05078125 10.015625 C3.9754825 7.07789099 5.00092358 5.30705738 7 3 C5.824375 2.814375 5.824375 2.814375 4.625 2.625 C2 2 2 2 0 0 Z " fill="#B8CEC5" transform="translate(69,69)"/>
<path d="M0 0 C3.96 0 7.92 0 12 0 C12 1.32 12 2.64 12 4 C7.23692563 4.95261487 2.8333472 5.08333357 -2 5 C-1.34 3.35 -0.68 1.7 0 0 Z " fill="#CBE3DE" transform="translate(82,72)"/>
<path d="M0 0 C7.59 0 15.18 0 23 0 C22.67 0.99 22.34 1.98 22 3 C17.38 3.33 12.76 3.66 8 4 C7.67 3.34 7.34 2.68 7 2 C4.67843403 1.59270772 2.3431213 1.25561323 0 1 C0 0.67 0 0.34 0 0 Z " fill="#B7D5D5" transform="translate(78,132)"/>
<path d="M0 0 C4.6404489 -0.41947561 7.66945827 0.9912525 11.8125 3 C12.97394531 3.556875 14.13539062 4.11375 15.33203125 4.6875 C16.21246094 5.120625 17.09289062 5.55375 18 6 C17.34 6.66 16.68 7.32 16 8 C13.7578125 7.86328125 13.7578125 7.86328125 11.125 7.3125 C10.26132812 7.14363281 9.39765625 6.97476562 8.5078125 6.80078125 C5.79777605 5.93542693 4.08985877 4.91975399 2 3 C2 2.34 2 1.68 2 1 C1.34 0.67 0.68 0.34 0 0 Z " fill="#A4C6C2" transform="translate(50,435)"/>
<path d="M0 0 C0.33 0 0.66 0 1 0 C1 1.98 1 3.96 1 6 C1.63808594 6.12117188 2.27617188 6.24234375 2.93359375 6.3671875 C3.75988281 6.53476562 4.58617188 6.70234375 5.4375 6.875 C6.26121094 7.03742188 7.08492187 7.19984375 7.93359375 7.3671875 C8.61550781 7.57601563 9.29742187 7.78484375 10 8 C10.33 8.66 10.66 9.32 11 10 C7.30823564 11.36732013 5.5364391 10.46632841 2 9 C-1.65186024 8.42339049 -3.56096179 9.20219109 -6.625 11.0625 C-8.295625 12.0215625 -8.295625 12.0215625 -10 13 C-10.99 12.67 -11.98 12.34 -13 12 C-11.84371094 11.45472656 -11.84371094 11.45472656 -10.6640625 10.8984375 C-4.36218048 7.96715989 -4.36218048 7.96715989 -0.3125 2.625 C-0.209375 1.75875 -0.10625 0.8925 0 0 Z " fill="#4E6162" transform="translate(53,427)"/>
<path d="M0 0 C0.8971875 0.309375 0.8971875 0.309375 1.8125 0.625 C-6.15259042 7.4187536 -11.93564152 8.03568276 -22.1875 7.625 C-22.1875 7.295 -22.1875 6.965 -22.1875 6.625 C-16.2475 6.13 -16.2475 6.13 -10.1875 5.625 C-12.8275 5.295 -15.4675 4.965 -18.1875 4.625 C-18.1875 4.295 -18.1875 3.965 -18.1875 3.625 C-17.28386719 3.50382812 -16.38023438 3.38265625 -15.44921875 3.2578125 C-14.26972656 3.09023438 -13.09023437 2.92265625 -11.875 2.75 C-10.70324219 2.58757812 -9.53148438 2.42515625 -8.32421875 2.2578125 C-5.03988493 1.59521963 -3.23286428 -0.5542053 0 0 Z " fill="#799CA6" transform="translate(106.1875,382.375)"/>
<path d="M0 0 C0.66 0.33 1.32 0.66 2 1 C1.01 1.33 0.02 1.66 -1 2 C-1.36548445 3.32488113 -1.6937566 4.66018514 -2 6 C-2.50015625 6.58394531 -3.0003125 7.16789062 -3.515625 7.76953125 C-5.42963519 10.64558341 -5.3371833 12.44869639 -5.25 15.875 C-5.22421875 16.92945313 -5.1984375 17.98390625 -5.171875 19.0703125 C-4.99383883 22.10501996 -4.65993548 25.03029035 -4 28 C-7.46506547 24.53493453 -8.14456452 20.39007659 -8.375 15.625 C-8.25969162 10.74910279 -6.77182513 6.98918076 -4 3 C-1.75 1 -1.75 1 0 0 Z " fill="#595D58" transform="translate(67,346)"/>
<path d="M0 0 C3.24262993 2.72220784 4.89759525 6.27994438 6.75 10 C7.07871094 10.6290625 7.40742187 11.258125 7.74609375 11.90625 C8.57925132 13.56553427 9.29763177 15.28126363 10 17 C9.67 17.99 9.34 18.98 9 20 C7.2935838 17.61581568 5.61043439 15.22000264 3.9375 12.8125 C3.45216797 12.13896484 2.96683594 11.46542969 2.46679688 10.77148438 C-1.04283955 5.66882149 -1.04283955 5.66882149 -0.80859375 2.01171875 C-0.54175781 1.34785156 -0.27492188 0.68398437 0 0 Z " fill="#779898" transform="translate(71,95)"/>
<path d="M0 0 C0.33 0.66 0.66 1.32 1 2 C3.02463255 2.65213292 3.02463255 2.65213292 5 3 C4.93999894 4.6260287 4.8512115 6.25101549 4.75 7.875 C4.70359375 8.77992188 4.6571875 9.68484375 4.609375 10.6171875 C4.40828125 11.40351563 4.2071875 12.18984375 4 13 C2.02 13.99 2.02 13.99 0 15 C0 10.05 0 5.1 0 0 Z " fill="#6A8A90" transform="translate(92,334)"/>
<path d="M0 0 C4.95 0.33 9.9 0.66 15 1 C15 1.99 15 2.98 15 4 C9.06 4 3.12 4 -3 4 C-1.68 3.34 -0.36 2.68 1 2 C0.67 1.34 0.34 0.68 0 0 Z " fill="#C9E5E2" transform="translate(71,132)"/>
<path d="M0 0 C0.33 0.66 0.66 1.32 1 2 C0.67 2.66 0.34 3.32 0 4 C0.60585937 3.98839844 1.21171875 3.97679687 1.8359375 3.96484375 C7.95924948 3.89890039 13.92093331 4.27568567 20 5 C20 5.33 20 5.66 20 6 C12.08 6.33 4.16 6.66 -4 7 C-3.67 5.35 -3.34 3.7 -3 2 C-2.01 1.34 -1.02 0.68 0 0 Z " fill="#D2F1EC" transform="translate(77,422)"/>
<path d="M0 0 C-4.44602302 4.44602302 -9.01298852 5.11647986 -15 6 C-15 5.34 -15 4.68 -15 4 C-15.66 3.67 -16.32 3.34 -17 3 C-14.92085336 2.29994051 -12.83648414 1.61537756 -10.75 0.9375 C-9.58984375 0.55464844 -8.4296875 0.17179687 -7.234375 -0.22265625 C-4.19922915 -0.95211763 -2.84296787 -1.11889082 0 0 Z " fill="#8EB2BA" transform="translate(135,124)"/>
<path d="M0 0 C1.93798521 0.30947671 3.87537426 0.62268834 5.8125 0.9375 C6.89144531 1.11152344 7.97039063 1.28554688 9.08203125 1.46484375 C12 2 12 2 15 3 C14.67 3.99 14.34 4.98 14 6 C8.58609132 5.53328373 4.79482068 4.75702189 0 2 C0 1.34 0 0.68 0 0 Z " fill="#AACFC5" transform="translate(40,459)"/>
<path d="M0 0 C3.05566461 2.96306871 5.97135828 6.01720161 8.8125 9.1875 C9.41707031 9.86167969 10.02164063 10.53585937 10.64453125 11.23046875 C12 13 12 13 12 15 C10.02 15.99 10.02 15.99 8 17 C8 15.02 8 13.04 8 11 C7.01 10.67 6.02 10.34 5 10 C4.67 9.01 4.34 8.02 4 7 C1.99983534 5.79117904 1.99983534 5.79117904 0 5 C0 3.35 0 1.7 0 0 Z " fill="#5C767C" transform="translate(111,409)"/>
<path d="M0 0 C0.33 0 0.66 0 1 0 C1.13277344 1.21558594 1.26554687 2.43117187 1.40234375 3.68359375 C1.58050091 5.26825484 1.75889875 6.8528889 1.9375 8.4375 C2.02451172 9.23994141 2.11152344 10.04238281 2.20117188 10.86914062 C2.30548394 14.75576664 2.30548394 14.75576664 4 18 C4.04063832 19.66617115 4.042721 21.33388095 4 23 C4.66 23 5.32 23 6 23 C5.67 25.31 5.34 27.62 5 30 C-0.65025211 21.52462183 -0.44148738 9.84353341 0 0 Z " fill="#64746D" transform="translate(16,228)"/>
<path d="M0 0 C0.125 6.625 0.125 6.625 -1 10 C-0.34 10.33 0.32 10.66 1 11 C-0.65 11 -2.3 11 -4 11 C-4.33 11.66 -4.66 12.32 -5 13 C-5.49084612 5.76001979 -5.49084612 5.76001979 -3.0625 2 C-1 0 -1 0 0 0 Z " fill="#7FA3B1" transform="translate(101,334)"/>
<path d="M0 0 C5.61 0.33 11.22 0.66 17 1 C16.67 1.99 16.34 2.98 16 4 C9.79029227 4.33266291 5.71735105 3.45029331 0 1 C0 0.67 0 0.34 0 0 Z " fill="#6E8D8E" transform="translate(46,126)"/>
<path d="M0 0 C3.3125 -0.1875 3.3125 -0.1875 7 0 C7.4228125 0.4434375 7.845625 0.886875 8.28125 1.34375 C10.81775998 3.78802325 13.91071193 4.59961951 17.1875 5.6875 C17.84169922 5.91244141 18.49589844 6.13738281 19.16992188 6.36914062 C20.77728884 6.92057309 22.38830483 7.46134891 24 8 C19.48196399 9.4568667 16.24882052 7.92797622 12 6.25 C11.2884375 5.98445313 10.576875 5.71890625 9.84375 5.4453125 C6.15343407 4.02701944 3.02811525 2.61805797 0 0 Z " fill="#6D7C77" transform="translate(31,458)"/>
<path d="M0 0 C2.0625 0.4375 2.0625 0.4375 4 1 C4.36923077 6.53846154 4.36923077 6.53846154 2.5 8.875 C1.7575 9.431875 1.7575 9.431875 1 10 C0.34 9.67 -0.32 9.34 -1 9 C-1.09765625 2.84765625 -1.09765625 2.84765625 -1 1 C-0.67 0.67 -0.34 0.34 0 0 Z " fill="#ACCFC3" transform="translate(73,391)"/>
<path d="M0 0 C-0.35298081 2.9008605 -0.88728296 3.89516676 -3.06640625 5.921875 C-3.89011719 6.52515625 -4.71382813 7.1284375 -5.5625 7.75 C-6.80193359 8.67039062 -6.80193359 8.67039062 -8.06640625 9.609375 C-8.70449219 10.06828125 -9.34257813 10.5271875 -10 11 C-10.33 10.34 -10.66 9.68 -11 9 C-9.87895467 7.68412059 -8.75303035 6.37239647 -7.625 5.0625 C-6.99851562 4.33160156 -6.37203125 3.60070312 -5.7265625 2.84765625 C-3.78013965 0.76471958 -2.86558444 0 0 0 Z " fill="#729494" transform="translate(94,80)"/>
<path d="M0 0 C0 3 0 3 -1.4375 5.3125 C-3.15321951 8.26353756 -3.6087048 10.63486125 -4 14 C-5.32 13.67 -6.64 13.34 -8 13 C-7 10 -7 10 -6 9 C-5.9175 8.236875 -5.835 7.47375 -5.75 6.6875 C-4.75939448 3.13783021 -2.96732777 2.05430384 0 0 Z " fill="#BBD6CD" transform="translate(84,367)"/>
<path d="M0 0 C1.08667969 0.19464844 2.17335938 0.38929687 3.29296875 0.58984375 C4.54013672 0.82380859 4.54013672 0.82380859 5.8125 1.0625 C5.4825 1.7225 5.1525 2.3825 4.8125 3.0625 C3.15635343 3.44468767 1.48792976 3.77645102 -0.1875 4.0625 C-1.1775 4.5575 -1.1775 4.5575 -2.1875 5.0625 C-4.58883271 3.46161152 -6.890279 1.80521938 -9.1875 0.0625 C-5.61369658 -1.12876781 -3.67866698 -0.6724445 0 0 Z " fill="#A7C4C0" transform="translate(47.1875,122.9375)"/>
<path d="M0 0 C0.33 0 0.66 0 1 0 C1 2.31 1 4.62 1 7 C1.66 7.33 2.32 7.66 3 8 C2.34 8 1.68 8 1 8 C0.87625 8.721875 0.7525 9.44375 0.625 10.1875 C0.0095069 12.95721894 -0.88444374 15.3970354 -2 18 C-2.33 18 -2.66 18 -3 18 C-2.41509121 11.85845775 -1.45933748 5.99320151 0 0 Z " fill="#6E7A74" transform="translate(30,94)"/>
<path d="M0 0 C1.32 0.66 2.64 1.32 4 2 C4 2.99 4 3.98 4 5 C1.6875 6.125 1.6875 6.125 -1 7 C-1.99 6.34 -2.98 5.68 -4 5 C-3 2 -3 2 0 0 Z " fill="#799B9C" transform="translate(98,347)"/>
<path d="M0 0 C0 0.66 0 1.32 0 2 C-0.99 2.495 -0.99 2.495 -2 3 C-1.67 3.66 -1.34 4.32 -1 5 C-7.75 5.125 -7.75 5.125 -10 4 C-10 3.01 -10 2.02 -10 1 C-6.59437148 0.22157062 -3.49234244 -0.09978121 0 0 Z " fill="#D1E0D6" transform="translate(73,67)"/>
<path d="M0 0 C0.66 0 1.32 0 2 0 C2.33 0.99 2.66 1.98 3 3 C2.01 4.485 2.01 4.485 1 6 C1.33 6.66 1.66 7.32 2 8 C0.02 8.99 -1.96 9.98 -4 11 C-4 10.01 -4 9.02 -4 8 C-3.34 8 -2.68 8 -2 8 C-2.04125 7.05125 -2.0825 6.1025 -2.125 5.125 C-2 2 -2 2 0 0 Z " fill="#C2DED1" transform="translate(68,408)"/>
<path d="M0 0 C1.70884005 1.62339805 3.37446717 3.29319053 5 5 C5 5.66 5 6.32 5 7 C2.03 6.67 -0.94 6.34 -4 6 C-3.34 4.68 -2.68 3.36 -2 2 C-1.34 2 -0.68 2 0 2 C0 1.34 0 0.68 0 0 Z " fill="#698692" transform="translate(106,402)"/>
<path d="M0 0 C0.66 1.32 1.32 2.64 2 4 C0.35 5.65 -1.3 7.3 -3 9 C-3.99 8.34 -4.98 7.68 -6 7 C-4.19587357 3.73539027 -3.16605307 2.11070205 0 0 Z " fill="#6A8693" transform="translate(112,373)"/>
<path d="M0 0 C1.32 0.66 2.64 1.32 4 2 C3.01 2.495 3.01 2.495 2 3 C1.67 3.99 1.34 4.98 1 6 C-0.9375 6.625 -0.9375 6.625 -3 7 C-3.99 7.495 -3.99 7.495 -5 8 C-4.64950425 4.75791433 -4.43778819 3.38472296 -1.9375 1.1875 C-1.298125 0.795625 -0.65875 0.40375 0 0 Z " fill="#C0D3C9" transform="translate(67,90)"/>
<path d="M0 0 C1.98 0 3.96 0 6 0 C6 0.99 6 1.98 6 3 C0.63904667 4.12862175 -4.55306686 4.09688221 -10 4 C-10 3.67 -10 3.34 -10 3 C-7.03 3 -4.06 3 -1 3 C-0.67 2.01 -0.34 1.02 0 0 Z " fill="#9FBFBD" transform="translate(104,65)"/>
<path d="M0 0 C0.80824219 0.11085938 1.61648437 0.22171875 2.44921875 0.3359375 C3.37154297 0.47902344 3.37154297 0.47902344 4.3125 0.625 C2.1739515 2.7635485 1.17974686 3.05155063 -1.6875 3.625 C-0.6975 3.955 0.2925 4.285 1.3125 4.625 C-2.42237777 4.1270163 -4.49987635 3.75008244 -7.6875 1.625 C-4.33422361 -0.61051759 -3.78006343 -0.54783528 0 0 Z " fill="#638288" transform="translate(68.6875,436.375)"/>
<path d="M0 0 C2 2 2 2 2.25 5.5 C2 9 2 9 0 11 C0 10.01 0 9.02 0 8 C-0.99 8.33 -1.98 8.66 -3 9 C-3 7.35 -3 5.7 -3 4 C-2.01 4 -1.02 4 0 4 C0 2.68 0 1.36 0 0 Z " fill="#9EBEBC" transform="translate(94,72)"/>
<path d="M0 0 C0.33 0.66 0.66 1.32 1 2 C0.67 2.66 0.34 3.32 0 4 C0.66 4.33 1.32 4.66 2 5 C1.67 7.31 1.34 9.62 1 12 C0.01 11.67 -0.98 11.34 -2 11 C-2.25 3.375 -2.25 3.375 0 0 Z " fill="#82958E" transform="translate(27,444)"/>
<path d="M0 0 C0.66 0 1.32 0 2 0 C2.66 2.97 3.32 5.94 4 9 C2.68 9.33 1.36 9.66 0 10 C-0.66 9.34 -1.32 8.68 -2 8 C-1.34 8 -0.68 8 0 8 C0 5.36 0 2.72 0 0 Z " fill="#CEDFD5" transform="translate(74,337)"/>
<path d="M0 0 C4.571279 0.54855348 8.67435795 1.41744803 13 3 C9.35904206 5.42730529 7.94785074 5.17378607 3.80859375 4.55859375 C2 4 2 4 0.5 1.9375 C0.335 1.298125 0.17 0.65875 0 0 Z " fill="#9ABBBC" transform="translate(69,311)"/>
<path d="M0 0 C6.93 0 13.86 0 21 0 C20.01 0.66 19.02 1.32 18 2 C16.80767387 4.05003955 16.80767387 4.05003955 16 6 C16 4.68 16 3.36 16 2 C10.72 1.67 5.44 1.34 0 1 C0 0.67 0 0.34 0 0 Z " fill="#C1D6CD" transform="translate(51,49)"/>
<path d="M0 0 C-0.33 1.98 -0.66 3.96 -1 6 C-2.65 5.67 -4.3 5.34 -6 5 C-6 4.01 -6 3.02 -6 2 C-3 0 -3 0 0 0 Z " fill="#87ABB3" transform="translate(129,434)"/>
<path d="M0 0 C0.33 0 0.66 0 1 0 C1 1.65 1 3.3 1 5 C3.97 5.33 6.94 5.66 10 6 C5.8204355 8.78637633 3.85331323 7.79562512 -1 7 C-0.67 4.69 -0.34 2.38 0 0 Z " fill="#BFDCD6" transform="translate(57,427)"/>
<path d="M0 0 C0.91007812 0.10183594 1.82015625 0.20367187 2.7578125 0.30859375 C3.45648438 0.39238281 4.15515625 0.47617187 4.875 0.5625 C4.545 1.2225 4.215 1.8825 3.875 2.5625 C-1.075 2.5625 -6.025 2.5625 -11.125 2.5625 C-4.875 -0.5625 -4.875 -0.5625 0 0 Z " fill="#87ABB4" transform="translate(92.125,386.4375)"/>
<path d="M0 0 C2 2 2 2 4 5 C1.03 7.475 1.03 7.475 -2 10 C-0.125 6.125 -0.125 6.125 1 5 C-0.65 5.33 -2.3 5.66 -4 6 C-3.6875 4.125 -3.6875 4.125 -3 2 C-2.01 1.34 -1.02 0.68 0 0 Z " fill="#50656C" transform="translate(106,378)"/>
<path d="M0 0 C0.99 0.33 1.98 0.66 3 1 C3.6875 3.0625 3.6875 3.0625 4 5 C3.01 5.495 3.01 5.495 2 6 C1.67 5.34 1.34 4.68 1 4 C-0.65 5.32 -2.3 6.64 -4 8 C-4.66 7.67 -5.32 7.34 -6 7 C-4.02 4.69 -2.04 2.38 0 0 Z " fill="#D7E8DE" transform="translate(65,95)"/>
<path d="M0 0 C0.33 0.66 0.66 1.32 1 2 C0.67 2.66 0.34 3.32 0 4 C0.66 4.33 1.32 4.66 2 5 C1.34 6.98 0.68 8.96 0 11 C-0.66 11 -1.32 11 -2 11 C-2.25 3.375 -2.25 3.375 0 0 Z " fill="#A0BDB3" transform="translate(56,422)"/>
<path d="M0 0 C0.99 0.33 1.98 0.66 3 1 C2.43628586 4.26954202 1.50037734 5.82575883 -1 8 C-1.66 7.67 -2.32 7.34 -3 7 C-1.125 1.125 -1.125 1.125 0 0 Z " fill="#B3D3C5" transform="translate(71,401)"/>
<path d="M0 0 C1.32 0.33 2.64 0.66 4 1 C3.21625 1.7425 2.4325 2.485 1.625 3.25 C-0.60580047 5.58702906 -1.716905 7.13771115 -3 10 C-3.66 10.66 -4.32 11.32 -5 12 C-4.53981898 7.85837086 -4.14493915 5.75182176 -1 3 C-0.67 2.01 -0.34 1.02 0 0 Z " fill="#DBE1D6" transform="translate(66,348)"/>
<path d="M0 0 C0.66 0 1.32 0 2 0 C2 2.31 2 4.62 2 7 C0.02 7.99 -1.96 8.98 -4 10 C-4 7 -4 7 -2 5 C-1.29289322 3.35008418 -0.62056011 1.68437744 0 0 Z " fill="#BDD6CF" transform="translate(78,89)"/>
<path d="M0 0 C0.66 0 1.32 0 2 0 C2.64715133 2.0829243 3.29267166 4.16635539 3.9375 6.25 C4.47697266 7.99023438 4.47697266 7.99023438 5.02734375 9.765625 C5.75066637 12.17089058 6.42542411 14.55654044 7 17 C3.73435552 14.3472624 2.73529921 11.19635729 1.3125 7.3125 C0.87550781 6.13300781 0.43851563 4.95351562 -0.01171875 3.73828125 C-0.33785156 2.83464844 -0.66398437 1.93101563 -1 1 C-0.67 0.67 -0.34 0.34 0 0 Z " fill="#C8D8CD" transform="translate(39,86)"/>
<path d="M0 0 C-0.99 1.485 -0.99 1.485 -2 3 C-4.3828125 3.29296875 -4.3828125 3.29296875 -7.125 3.1875 C-8.03507812 3.16042969 -8.94515625 3.13335937 -9.8828125 3.10546875 C-10.58148438 3.07066406 -11.28015625 3.03585938 -12 3 C-8.40198016 -0.59801984 -4.84291279 -0.09137571 0 0 Z " fill="#83A3A0" transform="translate(98,69)"/>
<path d="M0 0 C0.66 0.33 1.32 0.66 2 1 C1.071875 1.7425 0.14375 2.485 -0.8125 3.25 C-3.27126958 5.29025561 -5.21647549 7.32471323 -7 10 C-7.66 9.01 -8.32 8.02 -9 7 C-6.03 4.69 -3.06 2.38 0 0 Z " fill="#333D41" transform="translate(125,291)"/>
<path d="M0 0 C1.258125 0.12375 2.51625 0.2475 3.8125 0.375 C4.87404297 0.47941406 4.87404297 0.47941406 5.95703125 0.5859375 C8 1 8 1 11 3 C10.67 3.99 10.34 4.98 10 6 C9.34 6 8.68 6 8 6 C8 5.01 8 4.02 8 3 C7.236875 3.061875 6.47375 3.12375 5.6875 3.1875 C3 3 3 3 1.1875 1.5 C0.5996875 0.7575 0.5996875 0.7575 0 0 Z " fill="#B1C9C0" transform="translate(69,69)"/>
<path d="M0 0 C-1.98 0.99 -1.98 0.99 -4 2 C-4 2.66 -4 3.32 -4 4 C-6.64 3.67 -9.28 3.34 -12 3 C-8.62803192 -0.37196808 -4.5120049 -1.50400163 0 0 Z " fill="#6E7F79" transform="translate(40,441)"/>
<path d="M0 0 C1.32 0 2.64 0 4 0 C6.27678571 8.03571429 6.27678571 8.03571429 5 12 C4.67 10.02 4.34 8.04 4 6 C3.34 6 2.68 6 2 6 C1.34 4.02 0.68 2.04 0 0 Z " fill="#86AAAF" transform="translate(90,395)"/>
<path d="M0 0 C0.33 0 0.66 0 1 0 C1.05398987 2.27057377 1.09278742 4.54151288 1.125 6.8125 C1.14820312 8.07707031 1.17140625 9.34164063 1.1953125 10.64453125 C1 14 1 14 -1 17 C-1.33 14.69 -1.66 12.38 -2 10 C-1.34 10 -0.68 10 0 10 C0 6.7 0 3.4 0 0 Z " fill="#61787E" transform="translate(115,358)"/>
<path d="M0 0 C0 2.64 0 5.28 0 8 C-0.66 8 -1.32 8 -2 8 C-2.99 6.02 -3.98 4.04 -5 2 C-2 0 -2 0 0 0 Z " fill="#87ADB3" transform="translate(110,350)"/>
<path d="M0 0 C3.375 0.25 3.375 0.25 7 1 C8.4375 3.0625 8.4375 3.0625 9 5 C8.01 5.99 7.02 6.98 6 8 C5.566875 7.236875 5.13375 6.47375 4.6875 5.6875 C3.26313215 3.41906232 1.96739903 1.7800277 0 0 Z " fill="#4B5554" transform="translate(49,296)"/>
<path d="M0 0 C-1.485 1.485 -1.485 1.485 -3 3 C-1.68 3.66 -0.36 4.32 1 5 C-3.92715996 5.46192125 -7.50732625 3.8275283 -12 2 C-11.401875 1.855625 -10.80375 1.71125 -10.1875 1.5625 C-3.7201087 -0.10054348 -3.7201087 -0.10054348 0 0 Z " fill="#C8E3DD" transform="translate(54,132)"/>
<path d="M0 0 C3.96 0 7.92 0 12 0 C11.01 0.33 10.02 0.66 9 1 C9 1.66 9 2.32 9 3 C2.25 2.25 2.25 2.25 0 0 Z " fill="#D6F6F0" transform="translate(58,454)"/>
<path d="M0 0 C2.31 0 4.62 0 7 0 C7 0.66 7 1.32 7 2 C7.99 2.33 8.98 2.66 10 3 C7.36749612 4.31625194 6.19820944 3.74813658 3.375 3.0625 C2.14910156 2.77052734 2.14910156 2.77052734 0.8984375 2.47265625 C-0.04128906 2.23869141 -0.04128906 2.23869141 -1 2 C-0.67 1.34 -0.34 0.68 0 0 Z " fill="#E5EFE2" transform="translate(69,346)"/>
<path d="M0 0 C3.22804947 2.81152696 4.6588327 4.67854758 5 9 C4.67 9.66 4.34 10.32 4 11 C3.34 11 2.68 11 2 11 C1.77213542 9.01432292 1.54427083 7.02864583 1.31640625 5.04296875 C1.02829265 2.80603607 1.02829265 2.80603607 0 0 Z " fill="#53656C" transform="translate(152,442)"/>
<path d="M0 0 C1.5 1.375 1.5 1.375 3 3 C3 3.66 3 4.32 3 5 C3.66 5 4.32 5 5 5 C4.67 6.98 4.34 8.96 4 11 C3.67 11 3.34 11 3 11 C3 9.35 3 7.7 3 6 C2.01 5.67 1.02 5.34 0 5 C0 3.35 0 1.7 0 0 Z " fill="#DAEBE2" transform="translate(82,347)"/>
<path d="M0 0 C0.33 0 0.66 0 1 0 C0.64989059 8.19256018 0.64989059 8.19256018 -2.0625 11.5625 C-2.701875 12.036875 -3.34125 12.51125 -4 13 C-3.52140759 11.39566191 -3.04210442 9.79153584 -2.5625 8.1875 C-2.29566406 7.29417969 -2.02882812 6.40085937 -1.75390625 5.48046875 C-1.19612127 3.64526945 -0.60655425 1.81966274 0 0 Z " fill="#4C4F4A" transform="translate(40,59)"/>
<path d="M0 0 C4.95 0.99 4.95 0.99 10 2 C7 4 7 4 3.8125 3.625 C2.884375 3.41875 1.95625 3.2125 1 3 C0.67 2.01 0.34 1.02 0 0 Z " fill="#B3D5CA" transform="translate(40,459)"/>
<path d="M0 0 C0.33 0 0.66 0 1 0 C1.50341475 5.2858549 0.26910671 7.86554151 -3 12 C-3.99 12.495 -3.99 12.495 -5 13 C-4.70351562 12.43796875 -4.40703125 11.8759375 -4.1015625 11.296875 C-2.99056497 8.98032695 -2.16535294 6.69290908 -1.375 4.25 C-1.11460938 3.45078125 -0.85421875 2.6515625 -0.5859375 1.828125 C-0.39257812 1.22484375 -0.19921875 0.6215625 0 0 Z " fill="#4B5C62" transform="translate(118,301)"/>
<path d="M0 0 C1.32 0.66 2.64 1.32 4 2 C3.67 3.65 3.34 5.3 3 7 C1.68 5.68 0.36 4.36 -1 3 C-0.67 2.01 -0.34 1.02 0 0 Z " fill="#8AA399" transform="translate(30,274)"/>
<path d="M0 0 C2 1 2 1 2.6328125 2.84765625 C2.79523437 3.57855469 2.95765625 4.30945313 3.125 5.0625 C3.29257812 5.79597656 3.46015625 6.52945313 3.6328125 7.28515625 C3.75398438 7.85105469 3.87515625 8.41695312 4 9 C3.01 9.66 2.02 10.32 1 11 C-0.20272819 8.59454362 -0.10071472 7.05003047 -0.0625 4.375 C-0.05347656 3.55773437 -0.04445313 2.74046875 -0.03515625 1.8984375 C-0.02355469 1.27195313 -0.01195313 0.64546875 0 0 Z M1 6 C2 8 2 8 2 8 Z " fill="#B6DBCA" transform="translate(17,226)"/>
<path d="M0 0 C2.2477975 2.05233685 3.0022242 3.00667261 4 6 C2.68 6.33 1.36 6.66 0 7 C-1.125 2.25 -1.125 2.25 0 0 Z " fill="#8EAEAA" transform="translate(71,95)"/>
<path d="M0 0 C4.875 4.75 4.875 4.75 6 7 C4.02 6.34 2.04 5.68 0 5 C0 3.35 0 1.7 0 0 Z " fill="#4C5D63" transform="translate(111,409)"/>
<path d="M0 0 C0.33 0 0.66 0 1 0 C1.33 2.64 1.66 5.28 2 8 C1.01 8.33 0.02 8.66 -1 9 C-1.66 7.68 -2.32 6.36 -3 5 C-2.34 5 -1.68 5 -1 5 C-0.67 3.35 -0.34 1.7 0 0 Z " fill="#769AA6" transform="translate(110,409)"/>
<path d="M0 0 C0.33 0 0.66 0 1 0 C1.33 3.3 1.66 6.6 2 10 C0.68 10.33 -0.64 10.66 -2 11 C-1.34 7.37 -0.68 3.74 0 0 Z " fill="#57635E" transform="translate(71,392)"/>
<path d="M0 0 C2.97 0 5.94 0 9 0 C5.81237635 2.12508244 3.73487777 2.5020163 0 3 C0 2.01 0 1.02 0 0 Z " fill="#94B3AC" transform="translate(82,69)"/>
<path d="M0 0 C0.66 0 1.32 0 2 0 C2 1.32 2 2.64 2 4 C1.01 4.495 1.01 4.495 0 5 C-1.13350534 7.01669827 -1.13350534 7.01669827 -2 9 C-2.6875 7.3125 -2.6875 7.3125 -3 5 C-1.6875 2.25 -1.6875 2.25 0 0 Z " fill="#BECBBD" transform="translate(44,54)"/>
<path d="M0 0 C3.65316671 1.24976756 4.78065836 1.67098753 7 5 C5.68 5 4.36 5 3 5 C1.25 2.5 1.25 2.5 0 0 Z " fill="#96A9A4" transform="translate(63,374)"/>
<path d="M0 0 C1.42944945 2.35438733 2.08661261 3.48032433 1.625 6.25 C1.41875 6.8275 1.2125 7.405 1 8 C0.01 8 -0.98 8 -2 8 C-1.125 2.25 -1.125 2.25 0 0 Z " fill="#7B9EAA" transform="translate(112,367)"/>
<path d="M0 0 C1.98 0 3.96 0 6 0 C6 0.99 6 1.98 6 3 C4.02 3.99 4.02 3.99 2 5 C2 3.68 2 2.36 2 1 C1.34 0.67 0.68 0.34 0 0 Z " fill="#CBE2DA" transform="translate(85,351)"/>
<path d="M0 0 C3 1 3 1 4.1875 3.0625 C4.455625 3.701875 4.72375 4.34125 5 5 C0.25 4.25 0.25 4.25 -2 2 C-1.34 2 -0.68 2 0 2 C0 1.34 0 0.68 0 0 Z " fill="#9ABFBD" transform="translate(59,297)"/>
<path d="M0 0 C0.66 0 1.32 0 2 0 C5.125 6.625 5.125 6.625 4 10 C0 3.375 0 3.375 0 0 Z " fill="#769695" transform="translate(82,95)"/>
<path d="M0 0 C-1.32 1.32 -2.64 2.64 -4 4 C-4.99 3.67 -5.98 3.34 -7 3 C-7 2.34 -7 1.68 -7 1 C-4.53721199 -0.231394 -2.7204945 -0.07159196 0 0 Z " fill="#95B9C0" transform="translate(120,68)"/>
<path d="M0 0 C0.66 0.66 1.32 1.32 2 2 C0.3125 3.5625 0.3125 3.5625 -2 5 C-4.75 4.6875 -4.75 4.6875 -7 4 C-4.68143083 2.45428722 -2.49361571 1.20381448 0 0 Z " fill="#C3E3DC" transform="translate(61,448)"/>
<path d="M0 0 C2.64 0.33 5.28 0.66 8 1 C8 1.33 8 1.66 8 2 C5.03 2.66 2.06 3.32 -1 4 C-0.67 2.68 -0.34 1.36 0 0 Z " fill="#BBDACC" transform="translate(28,444)"/>
<path d="M0 0 C-0.33 1.32 -0.66 2.64 -1 4 C-2.32 4 -3.64 4 -5 4 C-5.99 4.495 -5.99 4.495 -7 5 C-7 4.01 -7 3.02 -7 2 C-4.35261084 0.5393715 -3.10551666 0 0 0 Z " fill="#74909C" transform="translate(124,424)"/>
<path d="M0 0 C0.185625 0.9590625 0.185625 0.9590625 0.375 1.9375 C0.684375 2.9584375 0.684375 2.9584375 1 4 C1.66 4.33 2.32 4.66 3 5 C1.35 5 -0.3 5 -2 5 C-2.33 5.66 -2.66 6.32 -3 7 C-2.625 4.0625 -2.625 4.0625 -2 1 C-1.34 0.67 -0.68 0.34 0 0 Z " fill="#88ACB2" transform="translate(99,340)"/>
<path d="M0 0 C-4.75 4 -4.75 4 -7 4 C-7 2.68 -7 1.36 -7 0 C-3.86650268 -1.04449911 -3.01031744 -0.93423645 0 0 Z " fill="#86AAB4" transform="translate(135,124)"/>
</svg>
