<?xml version="1.0" encoding="UTF-8"?>
<!DOCTYPE svg PUBLIC "-//W3C//DTD SVG 1.1//EN" "http://www.w3.org/Graphics/SVG/1.1/DTD/svg11.dtd">
<svg xmlns="http://www.w3.org/2000/svg" version="1.1" width="184px" height="534px" style="shape-rendering:geometricPrecision; text-rendering:geometricPrecision; image-rendering:optimizeQuality; fill-rule:evenodd; clip-rule:evenodd" xmlns:xlink="http://www.w3.org/1999/xlink">
<g><path style="opacity:0.118" fill="#282726" d="M 183.5,4.5 C 183.5,17.1667 183.5,29.8333 183.5,42.5C 176.492,42.6663 169.492,42.4996 162.5,42C 169.158,41.5004 175.825,41.3337 182.5,41.5C 182.171,28.9887 182.505,16.6554 183.5,4.5 Z"/></g>
<g><path style="opacity:1" fill="#966038" d="M 91.5,35.5 C 95.2153,38.6067 98.2153,42.2733 100.5,46.5C 98.9468,44.615 96.9468,43.615 94.5,43.5C 94.4279,40.4475 93.4279,37.7808 91.5,35.5 Z"/></g>
<g><path style="opacity:1" fill="#805332" d="M 78.5,35.5 C 76.123,39.8771 72.7897,43.2104 68.5,45.5C 71.5,41.8333 74.8333,38.5 78.5,35.5 Z"/></g>
<g><path style="opacity:1" fill="#bc672e" d="M 91.5,35.5 C 89.1789,35.7711 87.1789,35.1045 85.5,33.5C 84.5091,37.4454 84.1758,41.4454 84.5,45.5C 84.5,49.5 84.5,53.5 84.5,57.5C 83.7006,70.4837 83.3672,83.4837 83.5,96.5C 83.5,101.833 83.5,107.167 83.5,112.5C 82.2204,141.678 82.2204,171.012 83.5,200.5C 82.6862,202.631 82.1862,204.964 82,207.5C 81.27,182.124 80.1033,156.79 78.5,131.5C 79.7943,129.952 80.4609,127.952 80.5,125.5C 79.5144,116.917 79.1811,108.417 79.5,100C 80.4303,98.8061 81.0969,97.4728 81.5,96C 80.522,87.0605 79.522,78.2271 78.5,69.5C 77.5,69.5 76.5,69.5 75.5,69.5C 75.2323,75.3818 75.5656,81.2151 76.5,87C 76.1639,88.0299 75.4972,88.5299 74.5,88.5C 74.5,86.8333 74.5,85.1667 74.5,83.5C 74.6664,74.4938 74.4998,65.4938 74,56.5C 71.2506,53.579 68.4172,50.9123 65.5,48.5C 66.1667,47.1667 67.1667,46.1667 68.5,45.5C 72.7897,43.2104 76.123,39.8771 78.5,35.5C 82.9254,28.9661 87.2587,28.9661 91.5,35.5 Z"/></g>
<g><path style="opacity:1" fill="#d17e3b" d="M 91.5,35.5 C 93.4279,37.7808 94.4279,40.4475 94.5,43.5C 96.9468,43.615 98.9468,44.615 100.5,46.5C 100.543,50.0899 102.043,52.7566 105,54.5C 105.49,55.7932 105.657,57.1266 105.5,58.5C 104.196,59.9869 103.03,61.6536 102,63.5C 101.333,62.8333 100.667,62.1667 100,61.5C 96.2738,61.761 92.4404,62.4276 88.5,63.5C 87.7947,57.1985 86.9614,50.8652 86,44.5C 85.6174,45.056 85.1174,45.3893 84.5,45.5C 84.1758,41.4454 84.5091,37.4454 85.5,33.5C 87.1789,35.1045 89.1789,35.7711 91.5,35.5 Z"/></g>
<g><path style="opacity:1" fill="#9e6e41" d="M 100.5,46.5 C 104.685,50.708 107.685,55.708 109.5,61.5C 108.662,61.8417 108.328,62.5084 108.5,63.5C 108.028,61.4687 107.028,59.8021 105.5,58.5C 105.657,57.1266 105.49,55.7932 105,54.5C 102.043,52.7566 100.543,50.0899 100.5,46.5 Z"/></g>
<g><path style="opacity:1" fill="#a57f54" d="M 59.5,55.5 C 58.2171,57.6064 57.3838,59.9398 57,62.5C 55.7292,63.8825 54.2292,64.8825 52.5,65.5C 54.0621,61.6082 56.3954,58.2749 59.5,55.5 Z"/></g>
<g><path style="opacity:1" fill="#e6a556" d="M 65.5,48.5 C 68.4172,50.9123 71.2506,53.579 74,56.5C 74.4998,65.4938 74.6664,74.4938 74.5,83.5C 73.2521,86.9416 72.4188,90.6083 72,94.5C 71.6667,89.8333 71.3333,85.1667 71,80.5C 70.586,80.0426 70.086,79.7093 69.5,79.5C 68.5059,84.456 68.1725,89.456 68.5,94.5C 66.8333,94.5 65.1667,94.5 63.5,94.5C 63.665,97.8499 63.4983,101.183 63,104.5C 61.3005,103.594 59.4672,103.261 57.5,103.5C 57.2137,105.277 56.5471,106.944 55.5,108.5C 56.3877,110.155 56.8877,111.822 57,113.5C 54.5603,112.726 53.227,111.06 53,108.5C 52.7508,109.624 52.2508,110.624 51.5,111.5C 50.8281,110.051 50.1614,108.718 49.5,107.5C 49.8412,103.84 49.1745,100.507 47.5,97.5C 45.1211,86.1276 46.7878,75.461 52.5,65.5C 54.2292,64.8825 55.7292,63.8825 57,62.5C 57.3838,59.9398 58.2171,57.6064 59.5,55.5C 60.7997,52.5677 62.7997,50.2344 65.5,48.5 Z"/></g>
<g><path style="opacity:1" fill="#d78a45" d="M 105.5,58.5 C 107.028,59.8021 108.028,61.4687 108.5,63.5C 108.5,63.8333 108.5,64.1667 108.5,64.5C 108.109,70.1927 107.442,75.8594 106.5,81.5C 104.854,80.2214 103.687,78.5547 103,76.5C 103.539,82.0872 101.039,84.4206 95.5,83.5C 93.5,83.1667 91.5,82.8333 89.5,82.5C 90.4604,81.1877 90.2937,79.8544 89,78.5C 88.5007,73.5111 88.3341,68.5111 88.5,63.5C 92.4404,62.4276 96.2738,61.761 100,61.5C 100.667,62.1667 101.333,62.8333 102,63.5C 103.03,61.6536 104.196,59.9869 105.5,58.5 Z"/></g>
<g><path style="opacity:1" fill="#e8c192" d="M 87.5,94.5 C 87.5,99.8333 87.5,105.167 87.5,110.5C 87.5,112.167 87.5,113.833 87.5,115.5C 86.8094,106.635 85.976,97.6352 85,88.5C 84.8171,91.3647 84.3171,94.0314 83.5,96.5C 83.3672,83.4837 83.7006,70.4837 84.5,57.5C 85.1174,57.3893 85.6174,57.056 86,56.5C 86.2921,69.1836 86.7921,81.8503 87.5,94.5 Z"/></g>
<g><path style="opacity:1" fill="#70675e" d="M 113.5,69.5 C 115.746,73.8047 117.08,78.4713 117.5,83.5C 115.565,79.1051 114.231,74.4385 113.5,69.5 Z"/></g>
<g><path style="opacity:1" fill="#d9934e" d="M 88.5,63.5 C 88.3341,68.5111 88.5007,73.5111 89,78.5C 90.2937,79.8544 90.4604,81.1877 89.5,82.5C 91.5,82.8333 93.5,83.1667 95.5,83.5C 101.039,84.4206 103.539,82.0872 103,76.5C 103.687,78.5547 104.854,80.2214 106.5,81.5C 107.442,75.8594 108.109,70.1927 108.5,64.5C 110.449,68.4794 111.449,72.8128 111.5,77.5C 112.038,84.8219 112.371,92.1553 112.5,99.5C 110.095,99.8664 107.762,100.533 105.5,101.5C 103.971,101.471 102.804,100.804 102,99.5C 97.8821,100.798 93.7154,100.798 89.5,99.5C 88.9724,97.6639 88.3058,95.9972 87.5,94.5C 86.7921,81.8503 86.2921,69.1836 86,56.5C 85.6174,57.056 85.1174,57.3893 84.5,57.5C 84.5,53.5 84.5,49.5 84.5,45.5C 85.1174,45.3893 85.6174,45.056 86,44.5C 86.9614,50.8652 87.7947,57.1985 88.5,63.5 Z"/></g>
<g><path style="opacity:1" fill="#c1682e" d="M 78.5,131.5 C 78.2704,136.083 76.6038,140.083 73.5,143.5C 73.5,130.5 73.5,117.5 73.5,104.5C 73.5688,99.1463 73.9022,93.813 74.5,88.5C 75.4972,88.5299 76.1639,88.0299 76.5,87C 75.5656,81.2151 75.2323,75.3818 75.5,69.5C 76.5,69.5 77.5,69.5 78.5,69.5C 79.522,78.2271 80.522,87.0605 81.5,96C 81.0969,97.4728 80.4303,98.8061 79.5,100C 79.1811,108.417 79.5144,116.917 80.5,125.5C 80.4609,127.952 79.7943,129.952 78.5,131.5 Z"/></g>
<g><path style="opacity:1" fill="#e49e51" d="M 74.5,83.5 C 74.5,85.1667 74.5,86.8333 74.5,88.5C 73.9022,93.813 73.5688,99.1463 73.5,104.5C 73.0163,109.363 72.0163,114.197 70.5,119C 71.5762,120.726 71.7429,122.559 71,124.5C 70.0094,119.759 69.5094,115.259 69.5,111C 69.1667,110.833 68.8333,110.667 68.5,110.5C 67.5,114.5 66.5,118.5 65.5,122.5C 62.4242,124.651 60.9242,127.651 61,131.5C 60.8275,127.129 60.3275,122.796 59.5,118.5C 58.5917,124.499 58.425,130.499 59,136.5C 57.984,137.634 57.3173,137.301 57,135.5C 56.8784,137.437 56.045,138.77 54.5,139.5C 54.1384,134.897 53.1384,130.564 51.5,126.5C 51.5,125.833 51.5,125.167 51.5,124.5C 51.8836,120.511 51.217,116.845 49.5,113.5C 49.5,113.167 49.5,112.833 49.5,112.5C 49.5,110.833 49.5,109.167 49.5,107.5C 50.1614,108.718 50.8281,110.051 51.5,111.5C 52.2508,110.624 52.7508,109.624 53,108.5C 53.227,111.06 54.5603,112.726 57,113.5C 56.8877,111.822 56.3877,110.155 55.5,108.5C 56.5471,106.944 57.2137,105.277 57.5,103.5C 59.4672,103.261 61.3005,103.594 63,104.5C 63.4983,101.183 63.665,97.8499 63.5,94.5C 65.1667,94.5 66.8333,94.5 68.5,94.5C 68.1725,89.456 68.5059,84.456 69.5,79.5C 70.086,79.7093 70.586,80.0426 71,80.5C 71.3333,85.1667 71.6667,89.8333 72,94.5C 72.4188,90.6083 73.2521,86.9416 74.5,83.5 Z"/></g>
<g><path style="opacity:1" fill="#886b47" d="M 47.5,97.5 C 49.1745,100.507 49.8412,103.84 49.5,107.5C 49.5,109.167 49.5,110.833 49.5,112.5C 48.111,107.731 47.4443,102.731 47.5,97.5 Z"/></g>
<g><path style="opacity:1" fill="#dd954d" d="M 73.5,104.5 C 73.5,117.5 73.5,130.5 73.5,143.5C 73.5,143.833 73.5,144.167 73.5,144.5C 72.8333,144.5 72.5,144.833 72.5,145.5C 71.8354,143.631 71.1687,141.631 70.5,139.5C 69.5745,140.641 68.7412,140.641 68,139.5C 66.9914,141.025 66.4914,142.692 66.5,144.5C 67.5,144.5 68.5,144.5 69.5,144.5C 69.5432,148.893 69.0432,149.226 68,145.5C 66.4815,145.057 65.3148,145.724 64.5,147.5C 63.7492,146.624 63.2492,145.624 63,144.5C 61.8596,148.389 62.693,151.722 65.5,154.5C 63.5761,156.009 62.4094,158.009 62,160.5C 61.3333,161.833 60.6667,161.833 60,160.5C 59.3897,169.849 59.5564,179.183 60.5,188.5C 59.8333,188.167 59.1667,187.833 58.5,187.5C 58.9322,180.576 58.2655,173.909 56.5,167.5C 55.5773,163.936 55.244,160.269 55.5,156.5C 55.687,150.788 55.3537,145.121 54.5,139.5C 56.045,138.77 56.8784,137.437 57,135.5C 57.3173,137.301 57.984,137.634 59,136.5C 58.425,130.499 58.5917,124.499 59.5,118.5C 60.3275,122.796 60.8275,127.129 61,131.5C 60.9242,127.651 62.4242,124.651 65.5,122.5C 66.5,118.5 67.5,114.5 68.5,110.5C 68.8333,110.667 69.1667,110.833 69.5,111C 69.5094,115.259 70.0094,119.759 71,124.5C 71.7429,122.559 71.5762,120.726 70.5,119C 72.0163,114.197 73.0163,109.363 73.5,104.5 Z"/></g>
<g><path style="opacity:1" fill="#dea059" d="M 87.5,94.5 C 88.3058,95.9972 88.9724,97.6639 89.5,99.5C 93.7154,100.798 97.8821,100.798 102,99.5C 102.804,100.804 103.971,101.471 105.5,101.5C 107.762,100.533 110.095,99.8664 112.5,99.5C 112.733,105.39 111.233,110.723 108,115.5C 107,114.833 106,114.167 105,113.5C 100.001,114.409 95.1678,115.076 90.5,115.5C 89.9348,113.456 88.9348,111.79 87.5,110.5C 87.5,105.167 87.5,99.8333 87.5,94.5 Z"/></g>
<g><path style="opacity:1" fill="#e1a862" d="M 111.5,77.5 C 112.309,79.2922 112.809,81.2922 113,83.5C 113.167,90.3333 113.333,97.1667 113.5,104C 113.722,113.389 113.055,122.556 111.5,131.5C 111.493,115.555 110.826,115.555 109.5,131.5C 107.471,132.629 107.137,132.129 108.5,130C 107.975,129.308 107.308,128.808 106.5,128.5C 105.757,129.908 104.923,131.241 104,132.5C 103.417,130.998 102.584,129.665 101.5,128.5C 97.3308,130.138 92.9975,131.138 88.5,131.5C 88.8182,126.968 88.4849,122.634 87.5,118.5C 87.5,117.5 87.5,116.5 87.5,115.5C 87.5,113.833 87.5,112.167 87.5,110.5C 88.9348,111.79 89.9348,113.456 90.5,115.5C 95.1678,115.076 100.001,114.409 105,113.5C 106,114.167 107,114.833 108,115.5C 111.233,110.723 112.733,105.39 112.5,99.5C 112.371,92.1553 112.038,84.8219 111.5,77.5 Z"/></g>
<g><path style="opacity:0.196" fill="#504a44" d="M 117.5,108.5 C 117.116,113.01 116.449,117.343 115.5,121.5C 115.334,117.486 115.501,113.486 116,109.5C 116.383,108.944 116.883,108.611 117.5,108.5 Z"/></g>
<g><path style="opacity:0.545" fill="#695036" d="M 49.5,113.5 C 51.217,116.845 51.8836,120.511 51.5,124.5C 50.3126,121.054 49.6459,117.387 49.5,113.5 Z"/></g>
<g><path style="opacity:1" fill="#e7b46c" d="M 111.5,131.5 C 111.817,135.702 111.483,139.702 110.5,143.5C 108.922,148.583 108.255,153.916 108.5,159.5C 107.178,159.33 106.011,159.663 105,160.5C 103.374,156.665 102.374,152.665 102,148.5C 100.812,149.563 100.312,150.897 100.5,152.5C 97.4908,152.577 95.3241,151.244 94,148.5C 93.6667,148.833 93.3333,149.167 93,149.5C 91.8595,147.922 91.3595,146.256 91.5,144.5C 90.8333,144.833 90.1667,145.167 89.5,145.5C 88.5067,140.88 88.1734,136.214 88.5,131.5C 92.9975,131.138 97.3308,130.138 101.5,128.5C 102.584,129.665 103.417,130.998 104,132.5C 104.923,131.241 105.757,129.908 106.5,128.5C 107.308,128.808 107.975,129.308 108.5,130C 107.137,132.129 107.471,132.629 109.5,131.5C 110.826,115.555 111.493,115.555 111.5,131.5 Z"/></g>
<g><path style="opacity:0.612" fill="#585045" d="M 115.5,122.5 C 114.743,135.669 113.743,148.669 112.5,161.5C 112.334,153.493 112.5,145.493 113,137.5C 113.089,132.234 113.923,127.234 115.5,122.5 Z"/></g>
<g><path style="opacity:0.029" fill="#1f1f1f" d="M -0.5,113.5 C 0.833333,130.833 0.833333,148.167 -0.5,165.5C -0.5,148.167 -0.5,130.833 -0.5,113.5 Z"/></g>
<g><path style="opacity:1" fill="#c0662d" d="M 78.5,131.5 C 80.1033,156.79 81.27,182.124 82,207.5C 82.1862,204.964 82.6862,202.631 83.5,200.5C 83.5,202.833 83.5,205.167 83.5,207.5C 83.3523,222.848 83.6856,238.181 84.5,253.5C 83.7784,253.082 83.2784,252.416 83,251.5C 82.51,252.793 82.3433,254.127 82.5,255.5C 81.5,255.5 80.5,255.5 79.5,255.5C 79.7989,253.396 79.4656,251.396 78.5,249.5C 77.8333,259.833 77.1667,270.167 76.5,280.5C 72.9032,278.376 71.9032,275.376 73.5,271.5C 71.6401,263.705 70.9734,255.705 71.5,247.5C 71.5,246.167 71.5,244.833 71.5,243.5C 71.5,234.167 71.5,224.833 71.5,215.5C 72.9827,191.86 73.6494,168.193 73.5,144.5C 73.5,144.167 73.5,143.833 73.5,143.5C 76.6038,140.083 78.2704,136.083 78.5,131.5 Z"/></g>
<g><path style="opacity:1" fill="#dd9047" d="M 72.5,145.5 C 72.7874,161.211 72.1208,176.878 70.5,192.5C 69.8076,193.025 69.3076,193.692 69,194.5C 67.1114,193.903 65.2781,193.569 63.5,193.5C 62.6735,197.459 62.1735,201.459 62,205.5C 61.6174,206.056 61.1174,206.389 60.5,206.5C 60.5,200.5 60.5,194.5 60.5,188.5C 59.5564,179.183 59.3897,169.849 60,160.5C 60.6667,161.833 61.3333,161.833 62,160.5C 62.4094,158.009 63.5761,156.009 65.5,154.5C 62.693,151.722 61.8596,148.389 63,144.5C 63.2492,145.624 63.7492,146.624 64.5,147.5C 65.3148,145.724 66.4815,145.057 68,145.5C 69.0432,149.226 69.5432,148.893 69.5,144.5C 68.5,144.5 67.5,144.5 66.5,144.5C 66.4914,142.692 66.9914,141.025 68,139.5C 68.7412,140.641 69.5745,140.641 70.5,139.5C 71.1687,141.631 71.8354,143.631 72.5,145.5 Z"/></g>
<g><path style="opacity:0.435" fill="#574633" d="M 51.5,126.5 C 53.1384,130.564 54.1384,134.897 54.5,139.5C 55.3537,145.121 55.687,150.788 55.5,156.5C 53.9598,146.665 52.6265,136.665 51.5,126.5 Z"/></g>
<g><path style="opacity:1" fill="#f6e0be" d="M 87.5,115.5 C 87.5,116.5 87.5,117.5 87.5,118.5C 87.2162,128.552 87.5496,138.552 88.5,148.5C 88.5,155.167 88.5,161.833 88.5,168.5C 88.334,173.844 88.5006,179.177 89,184.5C 89.6552,186.628 90.4886,188.628 91.5,190.5C 90.8826,190.389 90.3826,190.056 90,189.5C 89.1299,201.582 89.6299,213.582 91.5,225.5C 90.9264,227.059 90.2598,228.559 89.5,230C 89.7284,230.399 90.0618,230.565 90.5,230.5C 90.5,234.833 90.5,239.167 90.5,243.5C 90.1113,256.003 89.4446,268.336 88.5,280.5C 88.5,278.5 88.5,276.5 88.5,274.5C 88.2776,259.957 87.2776,245.624 85.5,231.5C 85.2688,223.495 84.9355,215.495 84.5,207.5C 83.9253,175.836 83.592,144.17 83.5,112.5C 83.5,107.167 83.5,101.833 83.5,96.5C 84.3171,94.0314 84.8171,91.3647 85,88.5C 85.976,97.6352 86.8094,106.635 87.5,115.5 Z"/></g>
<g><path style="opacity:1" fill="#ebc37b" d="M 87.5,118.5 C 88.4849,122.634 88.8182,126.968 88.5,131.5C 88.1734,136.214 88.5067,140.88 89.5,145.5C 90.1667,145.167 90.8333,144.833 91.5,144.5C 91.3595,146.256 91.8595,147.922 93,149.5C 93.3333,149.167 93.6667,148.833 94,148.5C 95.3241,151.244 97.4908,152.577 100.5,152.5C 100.312,150.897 100.812,149.563 102,148.5C 102.374,152.665 103.374,156.665 105,160.5C 106.011,159.663 107.178,159.33 108.5,159.5C 108.255,153.916 108.922,148.583 110.5,143.5C 110.5,147.833 110.5,152.167 110.5,156.5C 108.447,164.59 107.113,172.923 106.5,181.5C 102.851,174.946 99.1839,168.279 95.5,161.5C 93.7193,156.784 91.386,152.451 88.5,148.5C 87.5496,138.552 87.2162,128.552 87.5,118.5 Z"/></g>
<g><path style="opacity:1" fill="#f7eab8" d="M 88.5,148.5 C 91.386,152.451 93.7193,156.784 95.5,161.5C 95.6646,164.518 95.498,167.518 95,170.5C 94.4387,171.022 93.772,171.355 93,171.5C 91.3566,170.685 89.8566,169.685 88.5,168.5C 88.5,161.833 88.5,155.167 88.5,148.5 Z"/></g>
<g><path style="opacity:0.005" fill="#111111" d="M 8.5,165.5 C 9.60093,164.402 10.9343,164.235 12.5,165C 11.2068,165.49 9.87344,165.657 8.5,165.5 Z"/></g>
<g><path style="opacity:1" fill="#e4bd95" d="M 83.5,112.5 C 83.592,144.17 83.9253,175.836 84.5,207.5C 84.1667,207.5 83.8333,207.5 83.5,207.5C 83.5,205.167 83.5,202.833 83.5,200.5C 82.2204,171.012 82.2204,141.678 83.5,112.5 Z"/></g>
<g><path style="opacity:0.769" fill="#5f4934" d="M 56.5,167.5 C 58.2655,173.909 58.9322,180.576 58.5,187.5C 58.5,191.5 58.5,195.5 58.5,199.5C 57.4403,189.01 56.7736,178.344 56.5,167.5 Z"/></g>
<g><path style="opacity:1" fill="#f3d691" d="M 95.5,161.5 C 99.1839,168.279 102.851,174.946 106.5,181.5C 106.827,191.348 106.494,201.014 105.5,210.5C 104.488,209.128 103.488,207.795 102.5,206.5C 99.6298,200.628 95.9631,195.295 91.5,190.5C 90.4886,188.628 89.6552,186.628 89,184.5C 88.5006,179.177 88.334,173.844 88.5,168.5C 89.8566,169.685 91.3566,170.685 93,171.5C 93.772,171.355 94.4387,171.022 95,170.5C 95.498,167.518 95.6646,164.518 95.5,161.5 Z"/></g>
<g><path style="opacity:1" fill="#d78540" d="M 73.5,144.5 C 73.6494,168.193 72.9827,191.86 71.5,215.5C 70.1585,220.358 68.3251,225.024 66,229.5C 64.7163,228.428 64.3829,227.095 65,225.5C 64.6667,225.833 64.3333,226.167 64,226.5C 63.6667,224.167 63.3333,221.833 63,219.5C 62.9865,227.741 62.1532,235.741 60.5,243.5C 60.5,231.167 60.5,218.833 60.5,206.5C 61.1174,206.389 61.6174,206.056 62,205.5C 62.1735,201.459 62.6735,197.459 63.5,193.5C 65.2781,193.569 67.1114,193.903 69,194.5C 69.3076,193.692 69.8076,193.025 70.5,192.5C 72.1208,176.878 72.7874,161.211 72.5,145.5C 72.5,144.833 72.8333,144.5 73.5,144.5 Z"/></g>
<g><path style="opacity:1" fill="#e4d0b4" d="M 109.5,61.5 C 111.341,63.8485 112.674,66.5152 113.5,69.5C 114.231,74.4385 115.565,79.1051 117.5,83.5C 118.699,91.7788 118.699,100.112 117.5,108.5C 116.883,108.611 116.383,108.944 116,109.5C 115.501,113.486 115.334,117.486 115.5,121.5C 115.5,121.833 115.5,122.167 115.5,122.5C 113.923,127.234 113.089,132.234 113,137.5C 112.5,145.493 112.334,153.493 112.5,161.5C 112.5,163.5 112.5,165.5 112.5,167.5C 111.834,174.158 111.5,180.992 111.5,188C 111.503,195.201 112.17,202.034 113.5,208.5C 114.403,218.146 115.07,227.813 115.5,237.5C 115.156,242.122 115.823,246.455 117.5,250.5C 117.5,251.167 117.5,251.833 117.5,252.5C 117.5,255.833 117.5,259.167 117.5,262.5C 115.959,256.32 114.459,249.987 113,243.5C 112.297,240.287 112.464,237.121 113.5,234C 113.13,230.713 112.13,227.713 110.5,225C 111.087,221.07 111.254,216.903 111,212.5C 110.53,214.774 109.53,216.774 108,218.5C 107.333,208.167 107.333,197.833 108,187.5C 108.836,177.157 109.669,166.824 110.5,156.5C 110.5,152.167 110.5,147.833 110.5,143.5C 111.483,139.702 111.817,135.702 111.5,131.5C 113.055,122.556 113.722,113.389 113.5,104C 113.333,97.1667 113.167,90.3333 113,83.5C 112.809,81.2922 112.309,79.2922 111.5,77.5C 111.449,72.8128 110.449,68.4794 108.5,64.5C 108.5,64.1667 108.5,63.8333 108.5,63.5C 108.328,62.5084 108.662,61.8417 109.5,61.5 Z"/></g>
<g><path style="opacity:1" fill="#80786b" d="M 112.5,167.5 C 112.443,181.179 112.776,194.846 113.5,208.5C 112.17,202.034 111.503,195.201 111.5,188C 111.5,180.992 111.834,174.158 112.5,167.5 Z"/></g>
<g><path style="opacity:1" fill="#faf2c8" d="M 91.5,190.5 C 95.9631,195.295 99.6298,200.628 102.5,206.5C 102.889,209.3 103.389,211.967 104,214.5C 100.932,217.622 98.5983,221.289 97,225.5C 96,224.833 95,224.167 94,223.5C 93.328,226.178 92.1613,228.511 90.5,230.5C 90.0618,230.565 89.7284,230.399 89.5,230C 90.2598,228.559 90.9264,227.059 91.5,225.5C 89.6299,213.582 89.1299,201.582 90,189.5C 90.3826,190.056 90.8826,190.389 91.5,190.5 Z"/></g>
<g><path style="opacity:1" fill="#f8e7b3" d="M 102.5,206.5 C 103.488,207.795 104.488,209.128 105.5,210.5C 106.676,218.802 107.676,227.136 108.5,235.5C 107.839,234.282 107.172,232.949 106.5,231.5C 105.686,233.766 105.186,236.1 105,238.5C 104.139,235.113 104.639,231.946 106.5,229C 106,227.5 105.5,226 105,224.5C 100.247,227.919 96.5801,232.253 94,237.5C 93.6924,236.692 93.1924,236.025 92.5,235.5C 91.8324,238.306 91.1657,240.972 90.5,243.5C 90.5,239.167 90.5,234.833 90.5,230.5C 92.1613,228.511 93.328,226.178 94,223.5C 95,224.167 96,224.833 97,225.5C 98.5983,221.289 100.932,217.622 104,214.5C 103.389,211.967 102.889,209.3 102.5,206.5 Z"/></g>
<g><path style="opacity:1" fill="#d37f3c" d="M 71.5,215.5 C 71.5,224.833 71.5,234.167 71.5,243.5C 69.0576,243.354 68.3909,244.187 69.5,246C 68.7939,249.131 68.1272,252.298 67.5,255.5C 65.9928,256.739 64.8261,256.405 64,254.5C 63.5348,255.931 62.7014,257.097 61.5,258C 64.0278,258.669 64.0278,259.502 61.5,260.5C 60.8324,263.306 60.1657,265.972 59.5,268.5C 59.2953,260.133 59.6287,251.8 60.5,243.5C 62.1532,235.741 62.9865,227.741 63,219.5C 63.3333,221.833 63.6667,224.167 64,226.5C 64.3333,226.167 64.6667,225.833 65,225.5C 64.3829,227.095 64.7163,228.428 66,229.5C 68.3251,225.024 70.1585,220.358 71.5,215.5 Z"/></g>
<g><path style="opacity:1" fill="#ecd7b7" d="M 110.5,156.5 C 109.669,166.824 108.836,177.157 108,187.5C 107.333,197.833 107.333,208.167 108,218.5C 109.53,216.774 110.53,214.774 111,212.5C 111.254,216.903 111.087,221.07 110.5,225C 112.13,227.713 113.13,230.713 113.5,234C 112.464,237.121 112.297,240.287 113,243.5C 114.459,249.987 115.959,256.32 117.5,262.5C 117.98,265.078 118.98,267.412 120.5,269.5C 123.161,282.473 125.828,295.473 128.5,308.5C 128.926,312.427 129.926,316.093 131.5,319.5C 131.5,319.833 131.5,320.167 131.5,320.5C 129.883,321.038 128.216,321.371 126.5,321.5C 126.737,320.209 126.404,319.209 125.5,318.5C 125.072,315.215 124.072,312.215 122.5,309.5C 121.279,303.597 119.612,297.931 117.5,292.5C 116.043,285.88 114.709,279.214 113.5,272.5C 112.841,264.488 111.174,256.821 108.5,249.5C 108.5,244.833 108.5,240.167 108.5,235.5C 107.676,227.136 106.676,218.802 105.5,210.5C 106.494,201.014 106.827,191.348 106.5,181.5C 107.113,172.923 108.447,164.59 110.5,156.5 Z"/></g>
<g><path style="opacity:1" fill="#f4d99f" d="M 108.5,235.5 C 108.5,240.167 108.5,244.833 108.5,249.5C 106.124,246.599 104.291,246.932 103,250.5C 102.717,247.258 101.883,246.924 100.5,249.5C 99.0944,248.332 97.9277,248.665 97,250.5C 96.5065,252.134 96.3398,253.801 96.5,255.5C 94.8333,255.5 93.1667,255.5 91.5,255.5C 90.6686,270.661 90.1686,285.995 90,301.5C 89.8091,299.292 89.3091,297.292 88.5,295.5C 88.5,290.5 88.5,285.5 88.5,280.5C 89.4446,268.336 90.1113,256.003 90.5,243.5C 91.1657,240.972 91.8324,238.306 92.5,235.5C 93.1924,236.025 93.6924,236.692 94,237.5C 96.5801,232.253 100.247,227.919 105,224.5C 105.5,226 106,227.5 106.5,229C 104.639,231.946 104.139,235.113 105,238.5C 105.186,236.1 105.686,233.766 106.5,231.5C 107.172,232.949 107.839,234.282 108.5,235.5 Z"/></g>
<g><path style="opacity:0.937" fill="#5c5852" d="M 115.5,237.5 C 116.563,241.639 117.23,245.972 117.5,250.5C 115.823,246.455 115.156,242.122 115.5,237.5 Z"/></g>
<g><path style="opacity:1" fill="#b96d38" d="M 83.5,207.5 C 83.8333,207.5 84.1667,207.5 84.5,207.5C 84.9355,215.495 85.2688,223.495 85.5,231.5C 85.8844,239.831 86.2177,248.164 86.5,256.5C 85.8333,255.5 85.1667,254.5 84.5,253.5C 83.6856,238.181 83.3523,222.848 83.5,207.5 Z"/></g>
<g><path style="opacity:1" fill="#bf662e" d="M 71.5,247.5 C 70.9734,255.705 71.6401,263.705 73.5,271.5C 71.9032,275.376 72.9032,278.376 76.5,280.5C 77.1667,270.167 77.8333,259.833 78.5,249.5C 79.4656,251.396 79.7989,253.396 79.5,255.5C 80.5,255.5 81.5,255.5 82.5,255.5C 82.3433,254.127 82.51,252.793 83,251.5C 83.2784,252.416 83.7784,253.082 84.5,253.5C 85.1667,254.5 85.8333,255.5 86.5,256.5C 86.6516,262.699 87.3182,268.699 88.5,274.5C 88.5,276.5 88.5,278.5 88.5,280.5C 88.5,285.5 88.5,290.5 88.5,295.5C 88.5,303.167 88.5,310.833 88.5,318.5C 82.1846,319.11 75.8513,319.443 69.5,319.5C 68.9569,319.44 68.6236,319.107 68.5,318.5C 71.1071,317.682 73.7737,317.182 76.5,317C 75.3526,309.246 75.1859,301.413 76,293.5C 76.956,292.421 77.7894,291.255 78.5,290C 77.1387,288.416 76.472,286.582 76.5,284.5C 72.8527,284.622 70.0194,286.288 68,289.5C 67.3162,290.784 67.4829,291.951 68.5,293C 66.8016,292.503 65.1349,292.67 63.5,293.5C 62.6248,296.628 61.4581,299.628 60,302.5C 59.6667,301.833 59.3333,301.167 59,300.5C 58.3333,301.833 57.6667,301.833 57,300.5C 56.5828,304.84 56.7494,309.173 57.5,313.5C 57.494,317.148 56.1607,320.148 53.5,322.5C 52.8333,322.5 52.1667,322.5 51.5,322.5C 51.5,322.167 51.5,321.833 51.5,321.5C 52.4794,318.375 52.8128,315.042 52.5,311.5C 53.6935,311.03 54.3601,310.03 54.5,308.5C 55.3992,302.769 56.3992,297.102 57.5,291.5C 61.1185,287.215 65.1185,283.215 69.5,279.5C 70.1667,268.674 70.8334,258.008 71.5,247.5 Z"/></g>
<g><path style="opacity:1" fill="#ecc481" d="M 108.5,249.5 C 111.174,256.821 112.841,264.488 113.5,272.5C 112.542,272.047 111.708,271.381 111,270.5C 110.545,267.146 110.045,263.813 109.5,260.5C 106.294,261.152 102.96,260.985 99.5,260C 97.0021,258.018 94.3355,256.518 91.5,255.5C 93.1667,255.5 94.8333,255.5 96.5,255.5C 96.3398,253.801 96.5065,252.134 97,250.5C 97.9277,248.665 99.0944,248.332 100.5,249.5C 101.883,246.924 102.717,247.258 103,250.5C 104.291,246.932 106.124,246.599 108.5,249.5 Z"/></g>
<g><path style="opacity:1" fill="#d07937" d="M 71.5,243.5 C 71.5,244.833 71.5,246.167 71.5,247.5C 70.8334,258.008 70.1667,268.674 69.5,279.5C 65.1185,283.215 61.1185,287.215 57.5,291.5C 57.5,285.833 57.5,280.167 57.5,274.5C 59.0739,272.898 59.7406,270.898 59.5,268.5C 60.1657,265.972 60.8324,263.306 61.5,260.5C 64.0278,259.502 64.0278,258.669 61.5,258C 62.7014,257.097 63.5348,255.931 64,254.5C 64.8261,256.405 65.9928,256.739 67.5,255.5C 68.1272,252.298 68.7939,249.131 69.5,246C 68.3909,244.187 69.0576,243.354 71.5,243.5 Z"/></g>
<g><path style="opacity:1" fill="#7e7569" d="M 117.5,252.5 C 119.02,257.948 120.02,263.614 120.5,269.5C 118.98,267.412 117.98,265.078 117.5,262.5C 117.5,259.167 117.5,255.833 117.5,252.5 Z"/></g>
<g><path style="opacity:1" fill="#94653d" d="M 58.5,187.5 C 59.1667,187.833 59.8333,188.167 60.5,188.5C 60.5,194.5 60.5,200.5 60.5,206.5C 60.5,218.833 60.5,231.167 60.5,243.5C 59.6287,251.8 59.2953,260.133 59.5,268.5C 59.7406,270.898 59.0739,272.898 57.5,274.5C 57.1667,274.5 56.8333,274.5 56.5,274.5C 58.055,249.528 58.7216,224.528 58.5,199.5C 58.5,195.5 58.5,191.5 58.5,187.5 Z"/></g>
<g><path style="opacity:1" fill="#e7c297" d="M 85.5,231.5 C 87.2776,245.624 88.2776,259.957 88.5,274.5C 87.3182,268.699 86.6516,262.699 86.5,256.5C 86.2177,248.164 85.8844,239.831 85.5,231.5 Z"/></g>
<g><path style="opacity:1" fill="#e6b36e" d="M 91.5,255.5 C 94.3355,256.518 97.0021,258.018 99.5,260C 102.96,260.985 106.294,261.152 109.5,260.5C 110.045,263.813 110.545,267.146 111,270.5C 111.708,271.381 112.542,272.047 113.5,272.5C 114.709,279.214 116.043,285.88 117.5,292.5C 114.925,290.155 113.925,287.155 114.5,283.5C 109.57,283.197 104.737,283.531 100,284.5C 99.4626,281.813 99.9626,279.313 101.5,277C 101.167,276.833 100.833,276.667 100.5,276.5C 97.8967,279.275 96.2301,282.608 95.5,286.5C 94.914,286.291 94.414,285.957 94,285.5C 93.8019,287.382 93.3019,289.048 92.5,290.5C 91.5064,299.652 91.1731,308.985 91.5,318.5C 90.5,318.5 89.5,318.5 88.5,318.5C 88.5,310.833 88.5,303.167 88.5,295.5C 89.3091,297.292 89.8091,299.292 90,301.5C 90.1686,285.995 90.6686,270.661 91.5,255.5 Z"/></g>
<g><path style="opacity:1" fill="#c1662e" d="M 69.5,319.5 C 68.986,328.182 68.3194,336.848 67.5,345.5C 65.283,344.631 62.9496,344.298 60.5,344.5C 60.5,344.167 60.5,343.833 60.5,343.5C 61.3991,338.678 62.0657,333.678 62.5,328.5C 62.1667,327.167 61.8333,325.833 61.5,324.5C 58.8035,323.831 56.1368,323.164 53.5,322.5C 56.1607,320.148 57.494,317.148 57.5,313.5C 56.7494,309.173 56.5828,304.84 57,300.5C 57.6667,301.833 58.3333,301.833 59,300.5C 59.3333,301.167 59.6667,301.833 60,302.5C 61.4581,299.628 62.6248,296.628 63.5,293.5C 65.1349,292.67 66.8016,292.503 68.5,293C 67.4829,291.951 67.3162,290.784 68,289.5C 70.0194,286.288 72.8527,284.622 76.5,284.5C 76.472,286.582 77.1387,288.416 78.5,290C 77.7894,291.255 76.956,292.421 76,293.5C 75.1859,301.413 75.3526,309.246 76.5,317C 73.7737,317.182 71.1071,317.682 68.5,318.5C 68.6236,319.107 68.9569,319.44 69.5,319.5 Z"/></g>
<g><path style="opacity:1" fill="#e1a760" d="M 117.5,292.5 C 119.612,297.931 121.279,303.597 122.5,309.5C 120.468,308.952 119.468,307.619 119.5,305.5C 118.325,305.281 117.325,305.614 116.5,306.5C 117.52,308.432 117.687,310.432 117,312.5C 116.52,310.867 115.687,309.534 114.5,308.5C 114.938,308.565 115.272,308.399 115.5,308C 114.568,304.915 113.901,301.748 113.5,298.5C 108.901,298.8 104.401,298.467 100,297.5C 99.6667,299.833 99.3333,302.167 99,304.5C 97.7556,301.362 97.089,298.028 97,294.5C 96.8142,296.9 96.3142,299.234 95.5,301.5C 94.2011,300.91 93.3678,299.91 93,298.5C 92.5026,295.854 92.3359,293.187 92.5,290.5C 93.3019,289.048 93.8019,287.382 94,285.5C 94.414,285.957 94.914,286.291 95.5,286.5C 96.2301,282.608 97.8967,279.275 100.5,276.5C 100.833,276.667 101.167,276.833 101.5,277C 99.9626,279.313 99.4626,281.813 100,284.5C 104.737,283.531 109.57,283.197 114.5,283.5C 113.925,287.155 114.925,290.155 117.5,292.5 Z"/></g>
<g><path style="opacity:0.965" fill="#59422b" d="M 55.5,287.5 C 55.8112,292.766 55.1446,297.766 53.5,302.5C 53.7407,297.306 54.4074,292.306 55.5,287.5 Z"/></g>
<g><path style="opacity:1" fill="#945f36" d="M 56.5,274.5 C 56.8333,274.5 57.1667,274.5 57.5,274.5C 57.5,280.167 57.5,285.833 57.5,291.5C 56.3992,297.102 55.3992,302.769 54.5,308.5C 54.3601,310.03 53.6935,311.03 52.5,311.5C 52.2641,308.391 52.5975,305.391 53.5,302.5C 55.1446,297.766 55.8112,292.766 55.5,287.5C 55.2941,283.102 55.6274,278.768 56.5,274.5 Z"/></g>
<g><path style="opacity:1" fill="#de9f59" d="M 92.5,290.5 C 92.3359,293.187 92.5026,295.854 93,298.5C 93.3678,299.91 94.2011,300.91 95.5,301.5C 96.3142,299.234 96.8142,296.9 97,294.5C 97.089,298.028 97.7556,301.362 99,304.5C 99.3333,302.167 99.6667,299.833 100,297.5C 104.401,298.467 108.901,298.8 113.5,298.5C 113.901,301.748 114.568,304.915 115.5,308C 115.272,308.399 114.938,308.565 114.5,308.5C 109.941,309.906 105.275,310.906 100.5,311.5C 100.649,312.552 100.483,313.552 100,314.5C 99.2345,311.42 98.2345,308.42 97,305.5C 96.8333,307.5 96.6667,309.5 96.5,311.5C 96.5391,313.952 97.2057,315.952 98.5,317.5C 96.3926,318.468 94.0593,318.802 91.5,318.5C 91.1731,308.985 91.5064,299.652 92.5,290.5 Z"/></g>
<g><path style="opacity:1" fill="#9c8661" d="M 171.5,307.5 C 170.833,307.167 170.167,306.833 169.5,306.5C 168.432,305.566 167.099,305.232 165.5,305.5C 164.609,306.11 163.609,306.443 162.5,306.5C 166.161,302.173 169.161,302.507 171.5,307.5 Z"/></g>
<g><path style="opacity:0.98" fill="#5d584d" d="M 128.5,308.5 C 130.01,311.683 131.343,315.016 132.5,318.5C 132.5,319.167 132.167,319.5 131.5,319.5C 129.926,316.093 128.926,312.427 128.5,308.5 Z"/></g>
<g><path style="opacity:0.322" fill="#523928" d="M 23.5,311.5 C 25.153,311.66 26.4863,312.326 27.5,313.5C 25.6203,313.771 24.287,313.104 23.5,311.5 Z"/></g>
<g><path style="opacity:1" fill="#dc9a54" d="M 114.5,308.5 C 115.687,309.534 116.52,310.867 117,312.5C 117.687,310.432 117.52,308.432 116.5,306.5C 117.325,305.614 118.325,305.281 119.5,305.5C 119.468,307.619 120.468,308.952 122.5,309.5C 124.072,312.215 125.072,315.215 125.5,318.5C 125.5,319.833 125.5,321.167 125.5,322.5C 121.878,322.322 118.544,322.989 115.5,324.5C 114.388,322.401 113.721,320.067 113.5,317.5C 108.5,317.5 103.5,317.5 98.5,317.5C 97.2057,315.952 96.5391,313.952 96.5,311.5C 96.6667,309.5 96.8333,307.5 97,305.5C 98.2345,308.42 99.2345,311.42 100,314.5C 100.483,313.552 100.649,312.552 100.5,311.5C 105.275,310.906 109.941,309.906 114.5,308.5 Z"/></g>
<g><path style="opacity:1" fill="#73614b" d="M 154.5,310.5 C 153.313,312.975 151.313,313.975 148.5,313.5C 150.181,311.992 152.181,310.992 154.5,310.5 Z"/></g>
<g><path style="opacity:1" fill="#986941" d="M 20.5,310.5 C 18.8333,310.5 17.1667,310.5 15.5,310.5C 15.6633,312.857 15.4966,315.19 15,317.5C 14.6174,318.056 14.1174,318.389 13.5,318.5C 13.6159,315.14 13.9492,311.807 14.5,308.5C 16.7857,308.595 18.7857,309.262 20.5,310.5 Z"/></g>
<g><path style="opacity:0.29" fill="#513a29" d="M 27.5,313.5 C 29.5529,313.402 31.2196,314.069 32.5,315.5C 30.4471,315.598 28.7804,314.931 27.5,313.5 Z"/></g>
<g><path style="opacity:1" fill="#8a6f4c" d="M 148.5,313.5 C 146.824,315.834 144.491,316.834 141.5,316.5C 143.509,314.935 145.843,313.935 148.5,313.5 Z"/></g>
<g><path style="opacity:0.451" fill="#4e3a29" d="M 32.5,315.5 C 35.5418,315.733 38.2084,316.733 40.5,318.5C 37.4582,318.267 34.7916,317.267 32.5,315.5 Z"/></g>
<g><path style="opacity:1" fill="#edb968" d="M 165.5,305.5 C 167.099,305.232 168.432,305.566 169.5,306.5C 170.437,314.445 170.77,322.445 170.5,330.5C 169.9,331.9 168.9,332.9 167.5,333.5C 166.5,333.5 165.5,333.5 164.5,333.5C 164.823,326.978 164.49,320.645 163.5,314.5C 163.405,311.308 164.071,308.308 165.5,305.5 Z"/></g>
<g><path style="opacity:1" fill="#f2d19e" d="M 169.5,306.5 C 170.167,306.833 170.833,307.167 171.5,307.5C 172.294,312.139 172.961,316.806 173.5,321.5C 173.241,324.866 172.241,327.866 170.5,330.5C 170.77,322.445 170.437,314.445 169.5,306.5 Z"/></g>
<g><path style="opacity:1" fill="#634026" d="M 52.5,311.5 C 52.8128,315.042 52.4794,318.375 51.5,321.5C 47.4661,321.483 43.7994,320.483 40.5,318.5C 43.8717,319.401 47.205,319.401 50.5,318.5C 51.0671,316.018 51.7337,313.684 52.5,311.5 Z"/></g>
<g><path style="opacity:0.447" fill="#8b7f6c" d="M 174.5,314.5 C 176.006,317.356 176.672,320.523 176.5,324C 176.496,326.361 176.163,328.527 175.5,330.5C 175.608,325.13 175.275,319.797 174.5,314.5 Z"/></g>
<g><path style="opacity:1" fill="#f3ca83" d="M 163.5,314.5 C 164.49,320.645 164.823,326.978 164.5,333.5C 165.5,333.5 166.5,333.5 167.5,333.5C 159.291,334.355 150.957,335.355 142.5,336.5C 142.167,336.5 141.833,336.5 141.5,336.5C 140.659,331.983 141.992,328.317 145.5,325.5C 146.131,327.478 146.131,329.645 145.5,332C 147.024,333.701 148.024,333.201 148.5,330.5C 147.391,328.786 148.058,328.119 150.5,328.5C 150.687,326.436 151.187,324.436 152,322.5C 154.666,321.107 157.166,319.441 159.5,317.5C 155.763,316.501 155.763,315.168 159.5,313.5C 160.386,314.325 160.719,315.325 160.5,316.5C 162.179,316.715 163.179,316.048 163.5,314.5 Z"/></g>
<g><path style="opacity:1" fill="#edbf77" d="M 165.5,305.5 C 164.071,308.308 163.405,311.308 163.5,314.5C 163.179,316.048 162.179,316.715 160.5,316.5C 160.719,315.325 160.386,314.325 159.5,313.5C 155.763,315.168 155.763,316.501 159.5,317.5C 157.166,319.441 154.666,321.107 152,322.5C 151.187,324.436 150.687,326.436 150.5,328.5C 148.058,328.119 147.391,328.786 148.5,330.5C 148.024,333.201 147.024,333.701 145.5,332C 146.131,329.645 146.131,327.478 145.5,325.5C 141.992,328.317 140.659,331.983 141.5,336.5C 141.167,336.5 140.833,336.5 140.5,336.5C 140.192,330.575 140.525,324.741 141.5,319C 138.942,319.347 136.442,320.18 134,321.5C 133.329,320.748 132.496,320.414 131.5,320.5C 131.5,320.167 131.5,319.833 131.5,319.5C 132.167,319.5 132.5,319.167 132.5,318.5C 135.598,318.244 138.598,317.578 141.5,316.5C 144.491,316.834 146.824,315.834 148.5,313.5C 151.313,313.975 153.313,312.975 154.5,310.5C 156.849,308.659 159.515,307.326 162.5,306.5C 163.609,306.443 164.609,306.11 165.5,305.5 Z"/></g>
<g><path style="opacity:1" fill="#e59f52" d="M 84.5,322.5 C 87.5719,322.183 90.5719,322.516 93.5,323.5C 92.2713,324.281 90.938,324.781 89.5,325C 90.8333,325.667 91.8333,326.667 92.5,328C 91.0956,333.473 89.7623,338.973 88.5,344.5C 84.0051,345.422 79.3384,346.089 74.5,346.5C 76.0764,345.857 77.4097,344.857 78.5,343.5C 80.3432,342.717 82.3432,342.05 84.5,341.5C 85.4676,336.855 85.4676,332.188 84.5,327.5C 84.5,325.833 84.5,324.167 84.5,322.5 Z"/></g>
<g><path style="opacity:1" fill="#c0672d" d="M 84.5,327.5 C 85.4676,332.188 85.4676,336.855 84.5,341.5C 82.3432,342.05 80.3432,342.717 78.5,343.5C 75.8877,344.371 73.221,345.037 70.5,345.5C 71.1433,337.85 71.4766,330.183 71.5,322.5C 75.5,322.5 79.5,322.5 83.5,322.5C 83.2155,324.415 83.5489,326.081 84.5,327.5 Z"/></g>
<g><path style="opacity:1" fill="#d1813e" d="M 20.5,310.5 C 21.609,310.557 22.609,310.89 23.5,311.5C 24.287,313.104 25.6203,313.771 27.5,313.5C 28.7804,314.931 30.4471,315.598 32.5,315.5C 34.7916,317.267 37.4582,318.267 40.5,318.5C 43.7994,320.483 47.4661,321.483 51.5,321.5C 51.5,321.833 51.5,322.167 51.5,322.5C 51.2648,323.097 50.7648,323.43 50,323.5C 46.1765,322.391 42.3431,321.391 38.5,320.5C 38.9202,322.674 38.9202,324.674 38.5,326.5C 39.6053,327.892 40.9386,329.059 42.5,330C 38.81,330.424 38.6433,331.258 42,332.5C 42.7203,334.112 42.5536,335.612 41.5,337C 42.0465,337.925 42.7132,338.758 43.5,339.5C 44.451,338.674 45.451,338.508 46.5,339C 46.4022,340.618 46.4022,342.118 46.5,343.5C 39.9221,344.46 33.2554,344.793 26.5,344.5C 21.8333,344.5 17.1667,344.5 12.5,344.5C 12.5205,335.818 12.8539,327.152 13.5,318.5C 14.1174,318.389 14.6174,318.056 15,317.5C 15.4966,315.19 15.6633,312.857 15.5,310.5C 17.1667,310.5 18.8333,310.5 20.5,310.5 Z"/></g>
<g><path style="opacity:1" fill="#c0662d" d="M 21.5,314.5 C 25.8632,315.839 30.1965,317.505 34.5,319.5C 34.8333,320.167 35.1667,320.833 35.5,321.5C 34.1626,328.846 32.8292,336.179 31.5,343.5C 27.1667,343.5 22.8333,343.5 18.5,343.5C 19.6529,333.844 20.6529,324.177 21.5,314.5 Z"/></g>
<g><path style="opacity:1" fill="#d88841" d="M 51.5,322.5 C 52.1667,322.5 52.8333,322.5 53.5,322.5C 56.1368,323.164 58.8035,323.831 61.5,324.5C 61.8333,325.833 62.1667,327.167 62.5,328.5C 62.0657,333.678 61.3991,338.678 60.5,343.5C 55.8333,343.5 51.1667,343.5 46.5,343.5C 46.4022,342.118 46.4022,340.618 46.5,339C 45.451,338.508 44.451,338.674 43.5,339.5C 42.7132,338.758 42.0465,337.925 41.5,337C 42.5536,335.612 42.7203,334.112 42,332.5C 38.6433,331.258 38.81,330.424 42.5,330C 40.9386,329.059 39.6053,327.892 38.5,326.5C 38.9202,324.674 38.9202,322.674 38.5,320.5C 42.3431,321.391 46.1765,322.391 50,323.5C 50.7648,323.43 51.2648,323.097 51.5,322.5 Z"/></g>
<g><path style="opacity:1" fill="#edba6e" d="M 88.5,319.5 C 95.505,320.976 102.672,321.976 110,322.5C 110.922,328.866 111.589,335.2 112,341.5C 107.034,342.301 102.201,343.301 97.5,344.5C 94.5,344.5 91.5,344.5 88.5,344.5C 89.7623,338.973 91.0956,333.473 92.5,328C 91.8333,326.667 90.8333,325.667 89.5,325C 90.938,324.781 92.2713,324.281 93.5,323.5C 90.5719,322.516 87.5719,322.183 84.5,322.5C 84.0825,321.778 83.4158,321.278 82.5,321C 84.2495,319.681 86.2495,319.181 88.5,319.5 Z"/></g>
<g><path style="opacity:1" fill="#e7a656" d="M 125.5,318.5 C 126.404,319.209 126.737,320.209 126.5,321.5C 128.216,321.371 129.883,321.038 131.5,320.5C 132.496,320.414 133.329,320.748 134,321.5C 136.442,320.18 138.942,319.347 141.5,319C 140.525,324.741 140.192,330.575 140.5,336.5C 134.001,337.649 127.334,338.649 120.5,339.5C 119.5,339.167 118.5,338.833 117.5,338.5C 116.368,333.909 115.701,329.242 115.5,324.5C 118.544,322.989 121.878,322.322 125.5,322.5C 125.5,321.167 125.5,319.833 125.5,318.5 Z"/></g>
<g><path style="opacity:1" fill="#d98745" d="M 88.5,318.5 C 88.5,318.833 88.5,319.167 88.5,319.5C 86.2495,319.181 84.2495,319.681 82.5,321C 83.4158,321.278 84.0825,321.778 84.5,322.5C 84.5,324.167 84.5,325.833 84.5,327.5C 83.5489,326.081 83.2155,324.415 83.5,322.5C 79.5,322.5 75.5,322.5 71.5,322.5C 71.4766,330.183 71.1433,337.85 70.5,345.5C 73.221,345.037 75.8877,344.371 78.5,343.5C 77.4097,344.857 76.0764,345.857 74.5,346.5C 72.7354,347.461 70.7354,347.795 68.5,347.5C 67.6618,347.158 67.3284,346.492 67.5,345.5C 68.3194,336.848 68.986,328.182 69.5,319.5C 75.8513,319.443 82.1846,319.11 88.5,318.5 Z"/></g>
<g><path style="opacity:0.243" fill="#7f7567" d="M 173.5,335.5 C 171.485,336.924 169.152,337.59 166.5,337.5C 168.438,335.837 170.772,335.171 173.5,335.5 Z"/></g>
<g><path style="opacity:1" fill="#f3ce86" d="M 104.5,328.5 C 107.404,332.221 108.738,336.554 108.5,341.5C 103.507,341.916 98.5068,342.249 93.5,342.5C 93.3379,340.473 93.5045,338.473 94,336.5C 94.3333,336.833 94.6667,337.167 95,337.5C 98.1616,334.365 101.328,331.365 104.5,328.5 Z"/></g>
<g><path style="opacity:1" fill="#f3d2a0" d="M 98.5,317.5 C 103.5,317.5 108.5,317.5 113.5,317.5C 113.721,320.067 114.388,322.401 115.5,324.5C 115.701,329.242 116.368,333.909 117.5,338.5C 118.5,338.833 119.5,339.167 120.5,339.5C 127.334,338.649 134.001,337.649 140.5,336.5C 140.833,336.5 141.167,336.5 141.5,336.5C 141.833,336.5 142.167,336.5 142.5,336.5C 142.389,337.117 142.056,337.617 141.5,338C 132.813,339.239 124.147,340.406 115.5,341.5C 115.719,342.675 115.386,343.675 114.5,344.5C 108.88,343.738 103.214,343.738 97.5,344.5C 102.201,343.301 107.034,342.301 112,341.5C 111.589,335.2 110.922,328.866 110,322.5C 102.672,321.976 95.505,320.976 88.5,319.5C 88.5,319.167 88.5,318.833 88.5,318.5C 89.5,318.5 90.5,318.5 91.5,318.5C 94.0593,318.802 96.3926,318.468 98.5,317.5 Z"/></g>
<g><path style="opacity:1" fill="#e6cca7" d="M 171.5,307.5 C 173.065,309.509 174.065,311.843 174.5,314.5C 175.275,319.797 175.608,325.13 175.5,330.5C 175.598,332.553 174.931,334.22 173.5,335.5C 170.772,335.171 168.438,335.837 166.5,337.5C 161.614,338.721 156.614,339.388 151.5,339.5C 146.547,339.123 141.881,339.789 137.5,341.5C 133.901,342.344 130.234,342.677 126.5,342.5C 123.833,342.5 121.167,342.5 118.5,342.5C 118.739,344.467 118.406,346.301 117.5,348C 114.518,348.498 111.518,348.665 108.5,348.5C 95.1667,348.5 81.8333,348.5 68.5,348.5C 68.5,348.167 68.5,347.833 68.5,347.5C 70.7354,347.795 72.7354,347.461 74.5,346.5C 79.3384,346.089 84.0051,345.422 88.5,344.5C 91.5,344.5 94.5,344.5 97.5,344.5C 103.214,343.738 108.88,343.738 114.5,344.5C 115.386,343.675 115.719,342.675 115.5,341.5C 124.147,340.406 132.813,339.239 141.5,338C 142.056,337.617 142.389,337.117 142.5,336.5C 150.957,335.355 159.291,334.355 167.5,333.5C 168.9,332.9 169.9,331.9 170.5,330.5C 172.241,327.866 173.241,324.866 173.5,321.5C 172.961,316.806 172.294,312.139 171.5,307.5 Z"/></g>
<g><path style="opacity:0.125" fill="#675e50" d="M 151.5,339.5 C 147.057,340.801 142.391,341.468 137.5,341.5C 141.881,339.789 146.547,339.123 151.5,339.5 Z"/></g>
<g><path style="opacity:0.492" fill="#875b35" d="M 13.5,318.5 C 12.8539,327.152 12.5205,335.818 12.5,344.5C 17.1667,344.5 21.8333,344.5 26.5,344.5C 26.5,344.833 26.5,345.167 26.5,345.5C 24.8333,345.5 23.1667,345.5 21.5,345.5C 18.1667,345.5 14.8333,345.5 11.5,345.5C 11.1228,336.273 11.7894,327.273 13.5,318.5 Z"/></g>
<g><path style="opacity:1" fill="#dfb486" d="M 46.5,343.5 C 51.1667,343.5 55.8333,343.5 60.5,343.5C 60.5,343.833 60.5,344.167 60.5,344.5C 49.3456,345.495 38.0123,345.828 26.5,345.5C 26.5,345.167 26.5,344.833 26.5,344.5C 33.2554,344.793 39.9221,344.46 46.5,343.5 Z"/></g>
<g><path style="opacity:0.912" fill="#684e36" d="M 60.5,344.5 C 62.9496,344.298 65.283,344.631 67.5,345.5C 67.3284,346.492 67.6618,347.158 68.5,347.5C 68.5,347.833 68.5,348.167 68.5,348.5C 52.7375,347.039 37.0709,346.039 21.5,345.5C 23.1667,345.5 24.8333,345.5 26.5,345.5C 38.0123,345.828 49.3456,345.495 60.5,344.5 Z"/></g>
<g><path style="opacity:0.722" fill="#5a5246" d="M 126.5,342.5 C 124.631,343.165 122.631,343.831 120.5,344.5C 119.926,346.059 119.26,347.559 118.5,349C 115.518,349.498 112.518,349.665 109.5,349.5C 109.737,350.791 109.404,351.791 108.5,352.5C 108.5,351.167 108.5,349.833 108.5,348.5C 111.518,348.665 114.518,348.498 117.5,348C 118.406,346.301 118.739,344.467 118.5,342.5C 121.167,342.5 123.833,342.5 126.5,342.5 Z"/></g>
<g><path style="opacity:0.447" fill="#52483e" d="M 72.5,349.5 C 73.8333,349.5 75.1667,349.5 76.5,349.5C 77.3424,354.787 77.6757,360.12 77.5,365.5C 76.6004,360.668 75.9338,355.668 75.5,350.5C 74.209,350.737 73.209,350.404 72.5,349.5 Z"/></g>
<g><path style="opacity:1" fill="#eaceac" d="M 107.5,366.5 C 106.237,396.342 106.237,426.342 107.5,456.5C 107.5,460.167 107.5,463.833 107.5,467.5C 106.549,466.081 106.216,464.415 106.5,462.5C 105.167,462.5 103.833,462.5 102.5,462.5C 102.335,459.15 102.502,455.817 103,452.5C 104.526,451.455 105.359,449.955 105.5,448C 104.79,440.517 104.29,433.017 104,425.5C 103.023,424.226 102.189,424.226 101.5,425.5C 97.8016,422.634 93.9682,419.967 90,417.5C 89.1717,412.798 89.3384,408.131 90.5,403.5C 94.8696,404.56 99.203,405.393 103.5,406C 99.2576,401.923 94.5909,398.423 89.5,395.5C 88.2319,393.696 87.5652,391.696 87.5,389.5C 87.5,386.833 87.5,384.167 87.5,381.5C 92.1953,382.13 96.8619,382.63 101.5,383C 97.2045,378.697 92.3711,375.197 87,372.5C 86.1717,367.798 86.3384,363.131 87.5,358.5C 93.9956,356.097 100.662,354.431 107.5,353.5C 107.5,357.833 107.5,362.167 107.5,366.5 Z"/></g>
<g><path style="opacity:1" fill="#d0a381" d="M 68.5,348.5 C 81.8333,348.5 95.1667,348.5 108.5,348.5C 108.5,349.833 108.5,351.167 108.5,352.5C 108.819,357.363 108.486,362.03 107.5,366.5C 107.5,362.167 107.5,357.833 107.5,353.5C 100.662,354.431 93.9956,356.097 87.5,358.5C 86.3384,363.131 86.1717,367.798 87,372.5C 92.3711,375.197 97.2045,378.697 101.5,383C 96.8619,382.63 92.1953,382.13 87.5,381.5C 87.5,384.167 87.5,386.833 87.5,389.5C 86.596,390.209 86.2627,391.209 86.5,392.5C 84.2841,392.275 82.6174,393.108 81.5,395C 82.3674,397.823 82.7007,400.823 82.5,404C 81.5113,420.932 80.5113,437.765 79.5,454.5C 79.6666,429.831 79.5,405.164 79,380.5C 78.8171,377.635 78.3171,374.969 77.5,372.5C 77.5,370.167 77.5,367.833 77.5,365.5C 77.6757,360.12 77.3424,354.787 76.5,349.5C 75.1667,349.5 73.8333,349.5 72.5,349.5C 70.901,349.768 69.5676,349.434 68.5,348.5 Z"/></g>
<g><path style="opacity:1" fill="#d4a581" d="M 87.5,389.5 C 87.5652,391.696 88.2319,393.696 89.5,395.5C 94.5909,398.423 99.2576,401.923 103.5,406C 99.203,405.393 94.8696,404.56 90.5,403.5C 89.3384,408.131 89.1717,412.798 90,417.5C 93.9682,419.967 97.8016,422.634 101.5,425.5C 102.091,426.151 102.757,426.818 103.5,427.5C 103.167,427.833 102.833,428.167 102.5,428.5C 98.2893,426.965 93.956,425.965 89.5,425.5C 89.1734,430.214 89.5067,434.88 90.5,439.5C 95.5909,442.423 100.258,445.923 104.5,450C 99.4309,449.702 94.4309,448.869 89.5,447.5C 88.9634,453.135 89.6301,458.468 91.5,463.5C 90.4168,463.539 89.4168,463.873 88.5,464.5C 87.51,444.841 86.6767,425.174 86,405.5C 85.6667,424.5 85.3333,443.5 85,462.5C 84.5,465 84,467.5 83.5,470C 81.8189,471.989 80.4856,474.156 79.5,476.5C 79.1583,477.338 78.4916,477.672 77.5,477.5C 78.1995,473.202 78.5328,468.869 78.5,464.5C 78.2529,461.061 78.5863,457.728 79.5,454.5C 80.5113,437.765 81.5113,420.932 82.5,404C 82.7007,400.823 82.3674,397.823 81.5,395C 82.6174,393.108 84.2841,392.275 86.5,392.5C 86.2627,391.209 86.596,390.209 87.5,389.5 Z"/></g>
<g><path style="opacity:0.515" fill="#524841" d="M 77.5,372.5 C 78.3171,374.969 78.8171,377.635 79,380.5C 79.5,405.164 79.6666,429.831 79.5,454.5C 78.5863,457.728 78.2529,461.061 78.5,464.5C 78.1667,464.5 77.8333,464.5 77.5,464.5C 78.7769,433.835 78.7769,403.168 77.5,372.5 Z"/></g>
<g><path style="opacity:0.075" fill="#413e3a" d="M 107.5,366.5 C 107.25,396.512 107.583,426.512 108.5,456.5C 108.167,456.5 107.833,456.5 107.5,456.5C 106.237,426.342 106.237,396.342 107.5,366.5 Z"/></g>
<g><path style="opacity:1" fill="#ecceab" d="M 107.5,467.5 C 107.44,468.043 107.107,468.376 106.5,468.5C 101.686,466.229 96.6863,464.562 91.5,463.5C 89.6301,458.468 88.9634,453.135 89.5,447.5C 94.4309,448.869 99.4309,449.702 104.5,450C 100.258,445.923 95.5909,442.423 90.5,439.5C 89.5067,434.88 89.1734,430.214 89.5,425.5C 93.956,425.965 98.2893,426.965 102.5,428.5C 102.833,428.167 103.167,427.833 103.5,427.5C 102.757,426.818 102.091,426.151 101.5,425.5C 102.189,424.226 103.023,424.226 104,425.5C 104.29,433.017 104.79,440.517 105.5,448C 105.359,449.955 104.526,451.455 103,452.5C 102.502,455.817 102.335,459.15 102.5,462.5C 103.833,462.5 105.167,462.5 106.5,462.5C 106.216,464.415 106.549,466.081 107.5,467.5 Z"/></g>
<g><path style="opacity:1" fill="#d4a47d" d="M 91.5,463.5 C 96.6863,464.562 101.686,466.229 106.5,468.5C 107.107,468.376 107.44,468.043 107.5,467.5C 107.5,463.833 107.5,460.167 107.5,456.5C 107.833,456.5 108.167,456.5 108.5,456.5C 108.5,458.5 108.5,460.5 108.5,462.5C 108.413,467.537 108.746,472.537 109.5,477.5C 108.833,477.5 108.167,477.5 107.5,477.5C 107.5,476.5 107.5,475.5 107.5,474.5C 97.9471,472.706 88.6137,473.373 79.5,476.5C 80.4856,474.156 81.8189,471.989 83.5,470C 84,467.5 84.5,465 85,462.5C 85.3333,443.5 85.6667,424.5 86,405.5C 86.6767,425.174 87.51,444.841 88.5,464.5C 89.4168,463.873 90.4168,463.539 91.5,463.5 Z"/></g>
<g><path style="opacity:0.522" fill="#4a423b" d="M 108.5,462.5 C 109.293,466.702 110.126,471.035 111,475.5C 112.75,477.734 114.25,480.068 115.5,482.5C 113.5,480.833 111.5,479.167 109.5,477.5C 108.746,472.537 108.413,467.537 108.5,462.5 Z"/></g>
<g><path style="opacity:1" fill="#6f5441" d="M 77.5,464.5 C 77.8333,464.5 78.1667,464.5 78.5,464.5C 78.5328,468.869 78.1995,473.202 77.5,477.5C 76.194,479.473 74.5273,481.139 72.5,482.5C 76.3278,477.199 77.9945,471.199 77.5,464.5 Z"/></g>
<g><path style="opacity:1" fill="#e9cdab" d="M 107.5,477.5 C 108.167,477.5 108.833,477.5 109.5,477.5C 111.5,479.167 113.5,480.833 115.5,482.5C 117.25,483.659 118.25,485.326 118.5,487.5C 119.229,492.13 119.563,496.797 119.5,501.5C 119.737,502.791 119.404,503.791 118.5,504.5C 117.883,504.611 117.383,504.944 117,505.5C 116.821,501.975 116.321,498.641 115.5,495.5C 115.443,494.391 115.11,493.391 114.5,492.5C 113.925,490.589 112.925,488.922 111.5,487.5C 108.681,484.925 105.681,482.592 102.5,480.5C 102.196,479.85 101.863,479.183 101.5,478.5C 103.396,477.534 105.396,477.201 107.5,477.5 Z"/></g>
<g><path style="opacity:1" fill="#882334" d="M 92.5,485.5 C 96.1817,485.335 99.8484,485.501 103.5,486C 105.002,486.583 106.335,487.416 107.5,488.5C 93.921,489.989 89.921,496.989 95.5,509.5C 95.38,510.586 94.7133,511.253 93.5,511.5C 87.5288,509.195 84.1954,504.862 83.5,498.5C 84.0084,496.135 84.6751,493.801 85.5,491.5C 86.325,490.614 87.325,490.281 88.5,490.5C 88.4078,487.6 89.7411,485.933 92.5,485.5 Z"/></g>
<g><path style="opacity:1" fill="#b67640" d="M 72.5,482.5 C 71.5661,486.604 70.8995,490.771 70.5,495C 72.2105,500.099 73.5438,505.266 74.5,510.5C 71.2145,507.6 69.2145,503.933 68.5,499.5C 68.4672,495.131 68.8005,490.798 69.5,486.5C 69.7376,484.596 70.7376,483.262 72.5,482.5 Z"/></g>
<g><path style="opacity:0.723" fill="#6c472e" d="M 69.5,486.5 C 68.8005,490.798 68.4672,495.131 68.5,499.5C 67.8401,498.036 67.5068,496.369 67.5,494.5C 67.3817,491.514 68.0483,488.848 69.5,486.5 Z"/></g>
<g><path style="opacity:1" fill="#d78344" d="M 107.5,477.5 C 105.396,477.201 103.396,477.534 101.5,478.5C 101.863,479.183 102.196,479.85 102.5,480.5C 97.8708,479.519 93.2041,479.352 88.5,480C 86.0038,481.331 84.0038,483.164 82.5,485.5C 80.7497,486.659 79.7497,488.326 79.5,490.5C 76.6386,496.284 77.1386,501.95 81,507.5C 83.0627,509.734 85.2294,511.734 87.5,513.5C 84.0977,513.658 80.7644,513.324 77.5,512.5C 77.0269,511.094 76.0269,510.427 74.5,510.5C 73.5438,505.266 72.2105,500.099 70.5,495C 70.8995,490.771 71.5661,486.604 72.5,482.5C 74.5273,481.139 76.194,479.473 77.5,477.5C 78.4916,477.672 79.1583,477.338 79.5,476.5C 88.6137,473.373 97.9471,472.706 107.5,474.5C 107.5,475.5 107.5,476.5 107.5,477.5 Z"/></g>
<g><path style="opacity:1" fill="#a52e42" d="M 102.5,480.5 C 105.681,482.592 108.681,484.925 111.5,487.5C 109.633,489.461 107.299,490.794 104.5,491.5C 105.891,493.936 105.391,494.602 103,493.5C 100.394,494.77 98.061,496.437 96,498.5C 96.2683,502.319 96.1017,505.986 95.5,509.5C 89.921,496.989 93.921,489.989 107.5,488.5C 106.335,487.416 105.002,486.583 103.5,486C 99.8484,485.501 96.1817,485.335 92.5,485.5C 92.6107,484.883 92.944,484.383 93.5,484C 89.5674,483.116 85.9007,483.616 82.5,485.5C 84.0038,483.164 86.0038,481.331 88.5,480C 93.2041,479.352 97.8708,479.519 102.5,480.5 Z"/></g>
<g><path style="opacity:1" fill="#a1294e" d="M 92.5,485.5 C 89.7411,485.933 88.4078,487.6 88.5,490.5C 87.325,490.281 86.325,490.614 85.5,491.5C 84.6751,493.801 84.0084,496.135 83.5,498.5C 82.8354,500.369 82.1687,502.369 81.5,504.5C 81.1667,504.167 80.8333,503.833 80.5,503.5C 79.5614,499.235 79.2281,494.902 79.5,490.5C 79.7497,488.326 80.7497,486.659 82.5,485.5C 85.9007,483.616 89.5674,483.116 93.5,484C 92.944,484.383 92.6107,484.883 92.5,485.5 Z"/></g>
<g><path style="opacity:0.373" fill="#6e6459" d="M 118.5,487.5 C 119.973,490.017 120.64,492.85 120.5,496C 120.494,498.033 120.161,499.866 119.5,501.5C 119.563,496.797 119.229,492.13 118.5,487.5 Z"/></g>
<g><path style="opacity:1" fill="#d06c66" d="M 111.5,497.5 C 113.419,501.811 112.419,505.311 108.5,508C 106.402,508.678 104.402,508.511 102.5,507.5C 99.9707,503.303 100.971,499.803 105.5,497C 107.598,496.322 109.598,496.489 111.5,497.5 Z"/></g>
<g><path style="opacity:0.639" fill="#4d3524" d="M 74.5,510.5 C 76.0269,510.427 77.0269,511.094 77.5,512.5C 75.9731,512.573 74.9731,511.906 74.5,510.5 Z"/></g>
<g><path style="opacity:1" fill="#c7a994" d="M 115.5,495.5 C 116.321,498.641 116.821,501.975 117,505.5C 117.383,504.944 117.883,504.611 118.5,504.5C 116.245,509.757 112.578,513.757 107.5,516.5C 107.5,515.5 107.5,514.5 107.5,513.5C 110.455,512.545 112.455,510.545 113.5,507.5C 115.002,503.658 115.668,499.658 115.5,495.5 Z"/></g>
<g><path style="opacity:1" fill="#aa373d" d="M 111.5,487.5 C 112.925,488.922 113.925,490.589 114.5,492.5C 113.5,492.5 112.5,492.5 111.5,492.5C 111.5,494.167 111.5,495.833 111.5,497.5C 109.598,496.489 107.598,496.322 105.5,497C 100.971,499.803 99.9707,503.303 102.5,507.5C 100.916,508.382 99.249,509.215 97.5,510C 97.9574,510.414 98.2907,510.914 98.5,511.5C 96.8333,512.167 95.1667,512.833 93.5,513.5C 96.0865,514.48 98.7531,514.813 101.5,514.5C 97.9351,515.787 94.2684,515.787 90.5,514.5C 89.791,513.596 88.791,513.263 87.5,513.5C 85.2294,511.734 83.0627,509.734 81,507.5C 77.1386,501.95 76.6386,496.284 79.5,490.5C 79.2281,494.902 79.5614,499.235 80.5,503.5C 80.8333,503.833 81.1667,504.167 81.5,504.5C 82.1687,502.369 82.8354,500.369 83.5,498.5C 84.1954,504.862 87.5288,509.195 93.5,511.5C 94.7133,511.253 95.38,510.586 95.5,509.5C 96.1017,505.986 96.2683,502.319 96,498.5C 98.061,496.437 100.394,494.77 103,493.5C 105.391,494.602 105.891,493.936 104.5,491.5C 107.299,490.794 109.633,489.461 111.5,487.5 Z"/></g>
<g><path style="opacity:1" fill="#b03934" d="M 114.5,492.5 C 115.11,493.391 115.443,494.391 115.5,495.5C 115.668,499.658 115.002,503.658 113.5,507.5C 110.425,511.372 106.425,513.706 101.5,514.5C 98.7531,514.813 96.0865,514.48 93.5,513.5C 95.1667,512.833 96.8333,512.167 98.5,511.5C 98.2907,510.914 97.9574,510.414 97.5,510C 99.249,509.215 100.916,508.382 102.5,507.5C 104.402,508.511 106.402,508.678 108.5,508C 112.419,505.311 113.419,501.811 111.5,497.5C 111.5,495.833 111.5,494.167 111.5,492.5C 112.5,492.5 113.5,492.5 114.5,492.5 Z"/></g>
<g><path style="opacity:1" fill="#b78f6f" d="M 77.5,512.5 C 80.7644,513.324 84.0977,513.658 87.5,513.5C 88.791,513.263 89.791,513.596 90.5,514.5C 87.8127,514.336 85.146,514.503 82.5,515C 84.3197,515.2 85.653,516.034 86.5,517.5C 82.7158,517.111 79.7158,515.444 77.5,512.5 Z"/></g>
<g><path style="opacity:1" fill="#debea4" d="M 113.5,507.5 C 112.455,510.545 110.455,512.545 107.5,513.5C 107.5,514.5 107.5,515.5 107.5,516.5C 107.167,516.5 106.833,516.5 106.5,516.5C 103.848,516.41 101.515,517.076 99.5,518.5C 95.1028,519.604 90.7695,519.271 86.5,517.5C 85.653,516.034 84.3197,515.2 82.5,515C 85.146,514.503 87.8127,514.336 90.5,514.5C 94.2684,515.787 97.9351,515.787 101.5,514.5C 106.425,513.706 110.425,511.372 113.5,507.5 Z"/></g>
<g><path style="opacity:0.533" fill="#827464" d="M 106.5,516.5 C 104.562,518.163 102.228,518.829 99.5,518.5C 101.515,517.076 103.848,516.41 106.5,516.5 Z"/></g>
</svg>
